<?xml version="1.0" standalone="no"?><!DOCTYPE svg PUBLIC "-//W3C//DTD SVG 1.1//EN" "http://www.w3.org/Graphics/SVG/1.1/DTD/svg11.dtd"><svg xmlns:xlink="http://www.w3.org/1999/xlink" version="1.1" class="highcharts-root" style="font-family: &quot;Helvetica Neue&quot;, Helvetica, Arial, sans-serif; font-size: 12px;" xmlns="http://www.w3.org/2000/svg" width="750" height="520" viewBox="0 0 750 520"><desc>Created with Highcharts 10.1.0</desc><defs><clipPath id="highcharts-lzn0ety-2796-"><rect x="0" y="0" width="687" height="423" fill="none"></rect></clipPath><clipPath id="highcharts-lzn0ety-3098-"><rect x="0" y="0" width="687" height="423" fill="none"></rect></clipPath><clipPath id="highcharts-lzn0ety-3405-"><rect x="0" y="40" width="687" height="423" fill="none"></rect></clipPath></defs><rect fill="#ffffff" class="highcharts-background" x="0" y="0" width="750" height="520" rx="0" ry="0"></rect><rect fill="none" class="highcharts-plot-background" x="0" y="40" width="687" height="423"></rect><g class="highcharts-grid highcharts-xaxis-grid" data-z-index="1"><path fill="none" stroke="#EDF3F6" stroke-width="1" stroke-dasharray="none" data-z-index="1" class="highcharts-grid-line" d="M 60.5 40 L 60.5 463" opacity="1"></path><path fill="none" stroke="#EDF3F6" stroke-width="1" stroke-dasharray="none" data-z-index="1" class="highcharts-grid-line" d="M 195.5 40 L 195.5 463" opacity="1"></path><path fill="none" stroke="#EDF3F6" stroke-width="1" stroke-dasharray="none" data-z-index="1" class="highcharts-grid-line" d="M 330.5 40 L 330.5 463" opacity="1"></path><path fill="none" stroke="#EDF3F6" stroke-width="1" stroke-dasharray="none" data-z-index="1" class="highcharts-grid-line" d="M 465.5 40 L 465.5 463" opacity="1"></path><path fill="none" stroke="#EDF3F6" stroke-width="1" stroke-dasharray="none" data-z-index="1" class="highcharts-grid-line" d="M 600.5 40 L 600.5 463" opacity="1"></path></g><g class="highcharts-grid highcharts-yaxis-grid" data-z-index="1"><path fill="none" stroke="#E7E7E7" stroke-width="1" stroke-dasharray="none" data-z-index="1" class="highcharts-grid-line" d="M 0 463.5 L 687 463.5" opacity="1"></path><path fill="none" stroke="#E7E7E7" stroke-width="1" stroke-dasharray="none" data-z-index="1" class="highcharts-grid-line" d="M 0 416.5 L 687 416.5" opacity="1"></path><path fill="none" stroke="#E7E7E7" stroke-width="1" stroke-dasharray="none" data-z-index="1" class="highcharts-grid-line" d="M 0 369.5 L 687 369.5" opacity="1"></path><path fill="none" stroke="#E7E7E7" stroke-width="1" stroke-dasharray="none" data-z-index="1" class="highcharts-grid-line" d="M 0 322.5 L 687 322.5" opacity="1"></path><path fill="none" stroke="#E7E7E7" stroke-width="1" stroke-dasharray="none" data-z-index="1" class="highcharts-grid-line" d="M 0 275.5 L 687 275.5" opacity="1"></path><path fill="none" stroke="#E7E7E7" stroke-width="1" stroke-dasharray="none" data-z-index="1" class="highcharts-grid-line" d="M 0 228.5 L 687 228.5" opacity="1"></path><path fill="none" stroke="#E7E7E7" stroke-width="1" stroke-dasharray="none" data-z-index="1" class="highcharts-grid-line" d="M 0 181.5 L 687 181.5" opacity="1"></path><path fill="none" stroke="#E7E7E7" stroke-width="1" stroke-dasharray="none" data-z-index="1" class="highcharts-grid-line" d="M 0 134.5 L 687 134.5" opacity="1"></path><path fill="none" stroke="#E7E7E7" stroke-width="1" stroke-dasharray="none" data-z-index="1" class="highcharts-grid-line" d="M 0 87.5 L 687 87.5" opacity="1"></path><path fill="none" stroke="#E7E7E7" stroke-width="1" stroke-dasharray="none" data-z-index="1" class="highcharts-grid-line" d="M 0 39.5 L 687 39.5" opacity="1"></path></g><g class="highcharts-grid highcharts-yaxis-grid" data-z-index="1"></g><g class="highcharts-grid highcharts-yaxis-grid" data-z-index="1"></g><rect fill="none" class="highcharts-plot-border" data-z-index="1" x="0" y="40" width="687" height="423"></rect><g class="highcharts-axis highcharts-xaxis" data-z-index="2"><path fill="none" class="highcharts-axis-line" stroke="#E6E6E6" stroke-width="1" data-z-index="7" d="M 0 463.5 L 687 463.5"></path></g><g class="highcharts-axis highcharts-yaxis" data-z-index="2"><path fill="none" class="highcharts-axis-line" data-z-index="7" d="M 729 40 L 729 463"></path></g><g class="highcharts-axis highcharts-yaxis" data-z-index="2"><path fill="none" class="highcharts-axis-line" stroke="#E6E6E6" stroke-width="1" data-z-index="7" d="M -1.5 40 L -1.5 463"></path></g><g class="highcharts-series-group" data-z-index="3"><g class="highcharts-series highcharts-series-0 highcharts-line-series" data-z-index="90" opacity="1" transform="translate(0,40) scale(1 1)" clip-path="url(#highcharts-lzn0ety-3098-)"><path fill="none" d="M 0 385.87 L 2.2524590163935 384.46 L 4.5049180327869 343.1 L 6.7573770491803 239.7 L 9.0098360655738 262.025 L 11.262295081967 267.9 L 13.514754098361 284.35 L 15.767213114754 205.625 L 18.019672131148 125.72500000000002 L 20.272131147541 164.5 L 22.524590163934 213.85 L 24.777049180328 220.9 L 27.029508196721 293.75 L 29.281967213115 296.1 L 31.534426229508 286.7 L 33.786885245902 263.2 L 36.039344262295 264.375 L 38.291803278688 267.9 L 40.544262295082 282.47 L 42.796721311475 279.885 L 45.049180327869 313.02 L 47.301639344262 308.9075 L 49.554098360656 290.225 L 51.806557377049 275.5375 L 54.059016393443 310.2 L 56.311475409836 298.685 L 58.563934426229 306.0875 L 60.816393442623 295.63 L 63.068852459016 295.63 L 65.32131147541 292.4575 L 67.573770491803 284.35 L 69.826229508197 267.43 L 72.07868852459 264.4925 L 74.331147540984 260.85 L 76.583606557377 274.95 L 78.836065573771 264.61 L 81.088524590164 250.8625 L 83.340983606557 246.515 L 85.593442622951 243.8125 L 87.845901639344 249.1 L 90.098360655738 239.3475 L 92.350819672131 225.2475 L 94.603278688525 198.575 L 96.855737704918 209.15 L 99.108196721311 202.57 L 101.3606557377 243.225 L 103.6131147541 262.025 L 105.86557377049 242.1675 L 108.11803278689 224.425 L 110.37049180328 224.425 L 112.62295081967 226.775 L 114.87540983607 227.8325 L 117.12786885246 231.71 L 119.38032786885 239.7 L 121.63278688525 250.98 L 123.88524590164 265.90250000000003 L 126.13770491803 265.47950000000003 L 128.39016393443 257.2075 L 130.64262295082 262.025 L 132.89508196721 258.735 L 135.14754098361 253.142 L 137.4 259.20500000000004 L 139.65245901639 259.90999999999997 L 141.90491803279 261.6725 L 144.15737704918 261.29650000000004 L 146.40983606557 260.897 L 148.66229508197 266.2315 L 150.91475409836 274.95 L 153.16721311475 276.2425 L 155.41967213115 270.25 L 157.67213114754 270.72 L 159.92459016393 272.83500000000004 L 162.17704918033 270.3675 L 164.42950819672 270.25 L 166.68196721311 272.365 L 168.93442622951 271.2605 L 171.1868852459 271.425 L 173.4393442623 268.8165 L 175.69180327869 265.6675 L 177.94426229508 252.39 L 180.19672131148 249.335 L 182.44918032787 255.2805 L 184.70163934426 250.04 L 186.95409836066 255.163 L 189.20655737705 256.62 L 191.45901639344 258.6175 L 193.71147540984 252.155 L 195.96393442623 254.74 L 198.21639344262 252.578 L 200.46885245902 247.596 L 202.72131147541 245.387 L 204.9737704918 246.562 L 207.2262295082 240.828 L 209.47868852459 239.7 L 211.73114754098 230.8875 L 213.98360655738 228.185 L 216.23606557377 232.2975 L 218.48852459016 234.765 L 220.74098360656 239.3475 L 222.99344262295 250.04 L 225.24590163934 254.3405 L 227.49836065574 256.808 L 229.75081967213 263.905 L 232.00327868852 252.7425 L 234.25573770492 252.343 L 236.50819672131 256.5025 L 238.7606557377 256.15 L 241.0131147541 254.035 L 243.26557377049 256.526 L 245.51803278689 254.74 L 247.77049180328 258.829 L 250.02295081967 256.26750000000004 L 252.27540983607 255.492 L 254.52786885246 255.7975 L 256.78032786885 256.54949999999997 L 259.03278688525 262.683 L 261.28524590164 257.79499999999996 L 263.53770491803 253.33 L 265.79016393443 249.4525 L 268.04262295082 255.21 L 270.29508196721 256.385 L 272.54754098361 249.9225 L 274.8 249.335 L 277.05245901639 252.766 L 279.30491803279 257.09000000000003 L 281.55737704918 253.565 L 283.80983606557 253.4005 L 286.06229508197 251.215 L 288.31475409836 253.4475 L 290.56721311475 256.385 L 292.81967213115 255.0925 L 295.07213114754 248.7475 L 297.32459016393 216.2 L 299.57704918033 189.175 L 301.82950819672 215.025 L 304.08196721311 202.805 L 306.33442622951 188.5875 L 308.5868852459 198.9275 L 310.8393442623 221.605 L 313.09180327869 228.42 L 315.34426229508 230.3 L 317.59672131148 236.88 L 319.84918032787 233.2375 L 322.10163934426 243.46 L 324.35409836066 245.81 L 326.60655737705 248.0425 L 328.85901639344 248.63 L 331.11147540984 250.3925 L 333.36393442623 250.6275 L 335.61639344262 256.5025 L 337.86885245902 258.265 L 340.12131147541 254.505 L 342.3737704918 257.2075 L 344.6262295082 260.02750000000003 L 346.87868852459 257.79499999999996 L 349.13114754098 260.38 L 351.38360655738 260.02750000000003 L 353.63606557377 257.8185 L 355.88852459016 258.3825 L 358.14098360656 257.4895 L 360.39344262295 262.777 L 362.64590163934 265.4325 L 364.89836065574 268.7695 L 367.15081967213 269.498 L 369.40327868852 268.5345 L 371.65573770492 270.3675 L 373.90819672131 270.07375 L 376.1606557377 263.66999999999996 L 378.4131147541 262.025 L 380.66557377049 256.0325 L 382.91803278689 257.09000000000003 L 385.17049180328 258.97 L 387.42295081967 258.265 L 389.67540983607 255.2335 L 391.92786885246 254.082 L 394.18032786885 249.335 L 396.43278688525 249.4525 L 398.68524590164 248.16 L 400.93770491803 246.045 L 403.19016393443 245.2225 L 405.44262295082 244.4 L 407.69508196721 244.682 L 409.94754098361 243.695 L 412.2 242.285 L 414.45245901639 242.99 L 416.70491803279 244.10625 L 418.95737704918 241.58 L 421.20983606557 239.935 L 423.46229508197 236.88 L 425.71475409836 228.655 L 427.96721311475 213.615 L 430.21967213115 198.105 L 432.47213114754 205.2725 L 434.72459016393 189.0575 L 436.97704918033 184.24 L 439.22950819672 183.1825 L 441.48196721311 197.306 L 443.73442622951 203.1575 L 445.9868852459 198.387 L 448.2393442623 195.755 L 450.49180327869 191.6425 L 452.74426229508 197.9875 L 454.99672131148 195.4025 L 457.24918032787 183.77 L 459.50163934426 186.12 L 461.75409836066 183.3235 L 464.00655737705 179.07 L 466.25901639344 172.3725 L 468.51147540984 166.38 L 470.76393442623 162.85500000000002 L 473.01639344262 165.44 L 475.26885245902 159.2595 L 477.52131147541 156.745 L 479.7737704918 152.16250000000002 L 482.0262295082 139.9425 L 484.27868852459 125.84249999999997 L 486.53114754098 148.6375 L 488.78360655738 144.995 L 491.03606557377 146.0525 L 493.28852459016 146.40499999999997 L 495.54098360656 155.8755 L 497.79344262295 158.5075 L 500.04590163934 160.26999999999998 L 502.29836065574 149.10750000000002 L 504.55081967213 159.565 L 506.80327868852 162.22050000000002 L 509.05573770492 158.27249999999998 L 511.30819672131 163.39550000000003 L 513.56065573771 163.39550000000003 L 515.8131147541 151.575 L 518.06557377049 153.45499999999998 L 520.31803278689 156.34550000000002 L 522.57049180328 156.7215 L 524.82295081967 156.90949999999998 L 527.07540983607 156.8155 L 529.32786885246 156.9565 L 531.58032786885 156.8625 L 533.83278688525 156.88600000000002 L 536.08524590164 156.46300000000002 L 538.33770491803 153.45499999999998 L 540.59016393443 151.33999999999997 L 542.84262295082 152.18599999999998 L 545.09508196721 151.22250000000003 L 547.34754098361 155.40550000000002 L 549.6 147.11 L 551.85245901639 146.64 L 554.10491803279 143.115 L 556.35737704918 143.58499999999998 L 558.60983606557 133.3625 L 560.86229508197 131.2475 L 563.11475409836 123.96249999999998 L 565.36721311475 119.85000000000002 L 567.61967213115 112.80000000000001 L 569.87213114754 133.95 L 572.12459016393 132.1875 L 574.37704918033 141.70499999999998 L 576.62950819672 139.58999999999997 L 578.88196721311 135.47750000000002 L 581.13442622951 135.2425 L 583.3868852459 134.65499999999997 L 585.6393442623 138.0625 L 587.89180327869 140.71800000000002 L 590.14426229508 136.76999999999998 L 592.39672131148 136.53500000000003 L 594.64918032787 140.248 L 596.90163934426 138.64999999999998 L 599.15409836066 143.82 L 601.40655737705 149.22500000000002 L 603.65901639344 133.01 L 605.91147540984 86.94999999999999 L 608.16393442623 121.61250000000001 L 610.41639344262 127.48750000000001 L 612.66885245902 136.76999999999998 L 614.92131147541 128.54500000000002 L 617.1737704918 127.83999999999997 L 619.4262295082 121.25999999999999 L 621.67868852459 126.43 L 623.93114754098 138.885 L 626.18360655738 140.06 L 628.43606557377 140.52999999999997 L 630.68852459016 135.36 L 632.94098360656 128.77999999999997 L 635.19344262295 130.66000000000003 L 637.44590163934 134.53750000000002 L 639.69836065574 129.3675 L 641.95081967213 130.19 L 644.20327868852 134.77249999999998 L 646.45573770492 133.71499999999997 L 648.70819672131 137.1225 L 650.9606557377 133.48000000000002 L 653.2131147541 135.125 L 655.46557377049 132.07 L 657.71803278689 132.4225 L 659.97049180328 132.35199999999998 L 662.22295081967 129.3675 L 664.47540983607 127.37 L 666.72786885246 119.96749999999997 L 668.98032786885 121.495 L 671.23278688525 121.25999999999999 L 673.48524590164 112.21249999999998 L 675.73770491803 110.44999999999999" class="highcharts-graph" data-z-index="1" stroke="#2962FF" stroke-width="2" stroke-linejoin="round" stroke-linecap="round"></path></g><g class="highcharts-markers highcharts-series-0 highcharts-line-series" data-z-index="90" opacity="1" transform="translate(0,40) scale(1 1)" clip-path="none"></g></g><text x="740" text-anchor="end" class="highcharts-title" data-z-index="4" style="color: rgb(51, 51, 51); font-size: 12px; fill: rgb(51, 51, 51);" y="516">source: tradingeconomics.com</text><text x="14" text-anchor="start" class="highcharts-subtitle" data-z-index="4" style="color: rgb(51, 51, 51); fill: rgb(51, 51, 51); font-size: 13px;" y="25">US Dollar Indonesian Rupiah</text><text x="0" text-anchor="start" class="highcharts-caption" data-z-index="4" style="color: rgb(102, 102, 102); fill: rgb(102, 102, 102);" y="527"></text><g class="highcharts-axis-labels highcharts-xaxis-labels" data-z-index="7"><text x="60.679880774963" style="color: black; cursor: default; font-size: 12px; font-weight: 400; fill: black;" text-anchor="middle" transform="translate(0,0)" y="483" opacity="1">2000</text><text x="195.82742175857" style="color: black; cursor: default; font-size: 12px; font-weight: 400; fill: black;" text-anchor="middle" transform="translate(0,0)" y="483" opacity="1">2005</text><text x="331.11147540984" style="color: black; cursor: default; font-size: 12px; font-weight: 400; fill: black;" text-anchor="middle" transform="translate(0,0)" y="483" opacity="1">2010</text><text x="466.25901639344" style="color: black; cursor: default; font-size: 12px; font-weight: 400; fill: black;" text-anchor="middle" transform="translate(0,0)" y="483" opacity="1">2015</text><text x="601.40655737705" style="color: black; cursor: default; font-size: 12px; font-weight: 400; fill: black;" text-anchor="middle" transform="translate(0,0)" y="483" opacity="1">2020</text></g><g class="highcharts-axis-labels highcharts-yaxis-labels" data-z-index="7"><text x="0" style="color: unset; cursor: default; font-size: 12px; fill: unset;" text-anchor="start" transform="translate(0,0)" visibility="hidden">2000</text><text x="695" style="color: unset; cursor: default; font-size: 12px; fill: unset;" text-anchor="start" transform="translate(0,0)" y="421" opacity="1">4000</text><text x="695" style="color: unset; cursor: default; font-size: 12px; fill: unset;" text-anchor="start" transform="translate(0,0)" y="374" opacity="1">6000</text><text x="695" style="color: unset; cursor: default; font-size: 12px; fill: unset;" text-anchor="start" transform="translate(0,0)" y="327" opacity="1">8000</text><text x="695" style="color: unset; cursor: default; font-size: 12px; fill: unset;" text-anchor="start" transform="translate(0,0)" y="280" opacity="1"><tspan>10000</tspan></text><text x="695" style="color: unset; cursor: default; font-size: 12px; fill: unset;" text-anchor="start" transform="translate(0,0)" y="233" opacity="1"><tspan>12000</tspan></text><text x="695" style="color: unset; cursor: default; font-size: 12px; fill: unset;" text-anchor="start" transform="translate(0,0)" y="186" opacity="1"><tspan>14000</tspan></text><text x="695" style="color: unset; cursor: default; font-size: 12px; fill: unset;" text-anchor="start" transform="translate(0,0)" y="139" opacity="1"><tspan>16000</tspan></text><text x="695" style="color: unset; cursor: default; font-size: 12px; fill: unset;" text-anchor="start" transform="translate(0,0)" y="92" opacity="1"><tspan>18000</tspan></text><text x="0" style="color: unset; cursor: default; font-size: 12px; fill: unset;" text-anchor="start" transform="translate(0,0)" visibility="hidden"><tspan>20000</tspan></text></g><g class="highcharts-axis-labels highcharts-yaxis-labels" data-z-index="7"></g><g class="highcharts-axis-labels highcharts-yaxis-labels" data-z-index="7"></g><g class="highcharts-control-points" data-z-index="99" clip-path="url(#highcharts-lzn0ety-3405-)"></g><g class="highcharts-axis highcharts-yaxis" data-z-index="9999"><path fill="none" class="highcharts-tick" stroke="#E7E7E7" stroke-width="1" d="M 688 463.5 L 693 463.5" opacity="1"></path><path fill="none" class="highcharts-tick" stroke="#E7E7E7" stroke-width="1" d="M 688 416.5 L 693 416.5" opacity="1"></path><path fill="none" class="highcharts-tick" stroke="#E7E7E7" stroke-width="1" d="M 688 369.5 L 693 369.5" opacity="1"></path><path fill="none" class="highcharts-tick" stroke="#E7E7E7" stroke-width="1" d="M 688 322.5 L 693 322.5" opacity="1"></path><path fill="none" class="highcharts-tick" stroke="#E7E7E7" stroke-width="1" d="M 688 275.5 L 693 275.5" opacity="1"></path><path fill="none" class="highcharts-tick" stroke="#E7E7E7" stroke-width="1" d="M 688 228.5 L 693 228.5" opacity="1"></path><path fill="none" class="highcharts-tick" stroke="#E7E7E7" stroke-width="1" d="M 688 181.5 L 693 181.5" opacity="1"></path><path fill="none" class="highcharts-tick" stroke="#E7E7E7" stroke-width="1" d="M 688 134.5 L 693 134.5" opacity="1"></path><path fill="none" class="highcharts-tick" stroke="#E7E7E7" stroke-width="1" d="M 688 87.5 L 693 87.5" opacity="1"></path><path fill="none" class="highcharts-tick" stroke="#E7E7E7" stroke-width="1" d="M 688 39.5 L 693 39.5" opacity="1"></path><path fill="none" class="highcharts-axis-line" stroke="#E6E6E6" stroke-width="1" data-z-index="7" d="M 688.5 40 L 688.5 463"></path></g><path fill="none" d="M 0 0 L 1536 0" stroke="#524f4f" stroke-width="1" stroke-dasharray="8,3" data-z-index="6" visibility="hidden"></path><path fill="none" d="M 0 40 L 0 904" stroke="#524f4f" stroke-width="1" stroke-dasharray="8,3" data-z-index="6" visibility="hidden"></path></svg>