<svg version="1.1" viewBox="0.0 0.0 600.0 371.0" fill="none" stroke="none" stroke-linecap="square" stroke-miterlimit="10" width="600" height="371" xmlns:xlink="http://www.w3.org/1999/xlink" xmlns="http://www.w3.org/2000/svg"><path fill="#ffffff" d="M0 0L600.0 0L600.0 371.0L0 371.0L0 0Z" fill-rule="nonzero"/><path stroke="#333333" stroke-width="1.0" stroke-linecap="butt" d="M77.5 300.5L581.5 300.5" fill-rule="nonzero"/><path stroke="#cccccc" stroke-width="1.0" stroke-linecap="butt" d="M77.5 240.5L581.5 240.5" fill-rule="nonzero"/><path stroke="#cccccc" stroke-width="1.0" stroke-linecap="butt" d="M77.5 181.5L581.5 181.5" fill-rule="nonzero"/><path stroke="#cccccc" stroke-width="1.0" stroke-linecap="butt" d="M77.5 121.5L581.5 121.5" fill-rule="nonzero"/><path stroke="#cccccc" stroke-width="1.0" stroke-linecap="butt" d="M77.5 61.5L581.5 61.5" fill-rule="nonzero"/><clipPath id="id_0"><path d="M77.55 61.916668L581.45 61.916668L581.45 300.45L77.55 300.45L77.55 61.916668Z" clip-rule="nonzero"/></clipPath><path stroke="#000000" stroke-width="2.0" stroke-linecap="butt" stroke-opacity="0.0" clip-path="url(#id_0)" d="M172.0 300.0L111.0 300.0L111.0 279.0C111.0 277.89542 111.89543 277.0 113.0 277.0L170.0 277.0C171.10457 277.0 172.0 277.89542 172.0 279.0Z" fill-rule="nonzero"/><path fill="#4285f4" clip-path="url(#id_0)" d="M172.0 300.0L111.0 300.0L111.0 279.0C111.0 277.89542 111.89543 277.0 113.0 277.0L170.0 277.0C171.10457 277.0 172.0 277.89542 172.0 279.0Z" fill-rule="nonzero"/><path stroke="#000000" stroke-width="2.0" stroke-linecap="butt" stroke-opacity="0.0" clip-path="url(#id_0)" d="M266.0 300.0L205.0 300.0L205.0 249.0C205.0 247.89543 205.89543 247.0 207.0 247.0L264.0 247.0C265.10458 247.0 266.0 247.89543 266.0 249.0Z" fill-rule="nonzero"/><path fill="#4285f4" clip-path="url(#id_0)" d="M266.0 300.0L205.0 300.0L205.0 249.0C205.0 247.89543 205.89543 247.0 207.0 247.0L264.0 247.0C265.10458 247.0 266.0 247.89543 266.0 249.0Z" fill-rule="nonzero"/><path stroke="#000000" stroke-width="2.0" stroke-linecap="butt" stroke-opacity="0.0" clip-path="url(#id_0)" d="M361.0 300.0L300.0 300.0L300.0 100.0C300.0 98.89543 300.89542 98.0 302.0 98.0L359.0 98.0C360.10458 98.0 361.0 98.89543 361.0 100.0Z" fill-rule="nonzero"/><path fill="#4285f4" clip-path="url(#id_0)" d="M361.0 300.0L300.0 300.0L300.0 100.0C300.0 98.89543 300.89542 98.0 302.0 98.0L359.0 98.0C360.10458 98.0 361.0 98.89543 361.0 100.0Z" fill-rule="nonzero"/><path stroke="#000000" stroke-width="2.0" stroke-linecap="butt" stroke-opacity="0.0" clip-path="url(#id_0)" d="M455.0 300.0L394.0 300.0L394.0 171.0C394.0 169.89543 394.89542 169.0 396.0 169.0L453.0 169.0C454.10458 169.0 455.0 169.89543 455.0 171.0Z" fill-rule="nonzero"/><path fill="#4285f4" clip-path="url(#id_0)" d="M455.0 300.0L394.0 300.0L394.0 171.0C394.0 169.89543 394.89542 169.0 396.0 169.0L453.0 169.0C454.10458 169.0 455.0 169.89543 455.0 171.0Z" fill-rule="nonzero"/><path stroke="#000000" stroke-width="2.0" stroke-linecap="butt" stroke-opacity="0.0" clip-path="url(#id_0)" d="M549.0 300.0L488.0 300.0L488.0 296.0C488.0 294.89542 488.89542 294.0 490.0 294.0L547.0 294.0C548.10455 294.0 549.0 294.89542 549.0 296.0Z" fill-rule="nonzero"/><path fill="#4285f4" clip-path="url(#id_0)" d="M549.0 300.0L488.0 300.0L488.0 296.0C488.0 294.89542 488.89542 294.0 490.0 294.0L547.0 294.0C548.10455 294.0 549.0 294.89542 549.0 296.0Z" fill-rule="nonzero"/><path fill="#000000" d="M319.35938 347.16876L320.39062 347.3094Q320.21875 348.3719 319.51562 348.98126Q318.8125 349.59064 317.79688 349.59064Q316.51562 349.59064 315.73438 348.7625Q314.96875 347.91876 314.96875 346.35626Q314.96875 345.35626 315.29688 344.60626Q315.64062 343.84064 316.3125 343.46564Q317.0 343.09064 317.8125 343.09064Q318.8125 343.09064 319.45312 343.60626Q320.10938 344.10626 320.29688 345.0594L319.26562 345.21564Q319.125 344.59064 318.75 344.27814Q318.375 343.95 317.84375 343.95Q317.04688 343.95 316.54688 344.52814Q316.04688 345.09064 316.04688 346.325Q316.04688 347.59064 316.53125 348.15314Q317.01562 348.71564 317.78125 348.71564Q318.40625 348.71564 318.8125 348.34064Q319.23438 347.96564 319.35938 347.16876ZM321.26562 349.45L321.26562 340.85626L322.32812 340.85626L322.32812 349.45L321.26562 349.45ZM328.35938 348.6844Q327.76562 349.1844 327.21875 349.3875Q326.6875 349.59064 326.0625 349.59064Q325.03125 349.59064 324.48438 349.09064Q323.9375 348.59064 323.9375 347.8094Q323.9375 347.35626 324.14062 346.98126Q324.34375 346.59064 324.6875 346.3719Q325.03125 346.1375 325.45312 346.02814Q325.75 345.9344 326.39062 345.85626Q327.65625 345.71564 328.26562 345.4969Q328.26562 345.27814 328.26562 345.23126Q328.26562 344.575 327.96875 344.3094Q327.5625 343.96564 326.76562 343.96564Q326.03125 343.96564 325.67188 344.23126Q325.3125 344.48126 325.14062 345.1375L324.10938 344.9969Q324.25 344.34064 324.57812 343.9344Q324.90625 343.52814 325.51562 343.3094Q326.125 343.09064 326.92188 343.09064Q327.71875 343.09064 328.21875 343.27814Q328.71875 343.46564 328.95312 343.7469Q329.1875 344.02814 329.28125 344.46564Q329.32812 344.73126 329.32812 345.4344L329.32812 346.84064Q329.32812 348.3094 329.39062 348.7Q329.46875 349.09064 329.67188 349.45L328.5625 349.45Q328.40625 349.1219 328.35938 348.6844ZM328.26562 346.325Q327.6875 346.5594 326.54688 346.73126Q325.89062 346.825 325.625 346.95Q325.35938 347.0594 325.20312 347.27814Q325.0625 347.4969 325.0625 347.77814Q325.0625 348.2 325.375 348.48126Q325.70312 348.7625 326.3125 348.7625Q326.92188 348.7625 327.39062 348.4969Q327.875 348.23126 328.09375 347.7625Q328.26562 347.40314 328.26562 346.71564L328.26562 346.325ZM330.875 347.59064L331.90625 347.4344Q332.0 348.0594 332.39062 348.3875Q332.79688 348.71564 333.53125 348.71564Q334.25 348.71564 334.59375 348.4344Q334.95312 348.1375 334.95312 347.73126Q334.95312 347.3719 334.64062 347.16876Q334.42188 347.02814 333.5625 346.8094Q332.40625 346.5125 331.95312 346.3094Q331.51562 346.09064 331.28125 345.71564Q331.04688 345.34064 331.04688 344.8719Q331.04688 344.46564 331.23438 344.10626Q331.42188 343.7469 331.75 343.5125Q332.0 343.34064 332.42188 343.21564Q332.84375 343.09064 333.34375 343.09064Q334.0625 343.09064 334.60938 343.3094Q335.17188 343.5125 335.4375 343.8719Q335.70312 344.23126 335.79688 344.825L334.76562 344.96564Q334.70312 344.4969 334.35938 344.23126Q334.03125 343.95 333.40625 343.95Q332.6875 343.95 332.375 344.2Q332.0625 344.4344 332.0625 344.7625Q332.0625 344.96564 332.1875 345.1219Q332.32812 345.29376 332.59375 345.40314Q332.75 345.46564 333.53125 345.66876Q334.65625 345.98126 335.09375 346.16876Q335.53125 346.35626 335.78125 346.71564Q336.03125 347.075 336.03125 347.6219Q336.03125 348.15314 335.71875 348.6219Q335.42188 349.075 334.84375 349.34064Q334.26562 349.59064 333.53125 349.59064Q332.3125 349.59064 331.67188 349.09064Q331.04688 348.575 330.875 347.59064ZM337.875 347.59064L338.90625 347.4344Q339.0 348.0594 339.39062 348.3875Q339.79688 348.71564 340.53125 348.71564Q341.25 348.71564 341.59375 348.4344Q341.95312 348.1375 341.95312 347.73126Q341.95312 347.3719 341.64062 347.16876Q341.42188 347.02814 340.5625 346.8094Q339.40625 346.5125 338.95312 346.3094Q338.51562 346.09064 338.28125 345.71564Q338.04688 345.34064 338.04688 344.8719Q338.04688 344.46564 338.23438 344.10626Q338.42188 343.7469 338.75 343.5125Q339.0 343.34064 339.42188 343.21564Q339.84375 343.09064 340.34375 343.09064Q341.0625 343.09064 341.60938 343.3094Q342.17188 343.5125 342.4375 343.8719Q342.70312 344.23126 342.79688 344.825L341.76562 344.96564Q341.70312 344.4969 341.35938 344.23126Q341.03125 343.95 340.40625 343.95Q339.6875 343.95 339.375 344.2Q339.0625 344.4344 339.0625 344.7625Q339.0625 344.96564 339.1875 345.1219Q339.32812 345.29376 339.59375 345.40314Q339.75 345.46564 340.53125 345.66876Q341.65625 345.98126 342.09375 346.16876Q342.53125 346.35626 342.78125 346.71564Q343.03125 347.075 343.03125 347.6219Q343.03125 348.15314 342.71875 348.6219Q342.42188 349.075 341.84375 349.34064Q341.26562 349.59064 340.53125 349.59064Q339.3125 349.59064 338.67188 349.09064Q338.04688 348.575 337.875 347.59064Z" fill-rule="nonzero"/><path fill="#000000" d="M29.550013 197.13646L24.143763 197.13646L24.143763 198.07396L23.331263 198.07396L23.331263 197.13646L22.659388 197.13646Q22.034388 197.13646 21.737513 197.02708Q21.315638 196.87083 21.065638 196.49583Q20.815638 196.10521 20.815638 195.41771Q20.815638 194.96458 20.925013 194.43333L21.831263 194.58958Q21.784388 194.91771 21.784388 195.21458Q21.784388 195.69896 21.987513 195.90208Q22.190638 196.08958 22.753138 196.08958L23.331263 196.08958L23.331263 194.87083L24.143763 194.87083L24.143763 196.08958L29.550013 196.08958L29.550013 197.13646ZM29.550013 194.40208L23.331263 194.40208L23.331263 193.44896L24.268763 193.44896Q23.612513 193.08958 23.409388 192.79271Q23.190638 192.48021 23.190638 192.10521Q23.190638 191.57396 23.518763 191.02708L24.503138 191.38646Q24.268763 191.77708 24.268763 192.15208Q24.268763 192.51146 24.487513 192.79271Q24.690638 193.05833 25.065638 193.16771Q25.628138 193.35521 26.284388 193.35521L29.550013 193.35521L29.550013 194.40208ZM27.550013 186.13646L27.675013 185.04271Q28.628138 185.29271 29.159388 185.99583Q29.690638 186.69896 29.690638 187.77708Q29.690638 189.13646 28.846888 189.94896Q28.003138 190.74583 26.487513 190.74583Q24.925013 190.74583 24.065638 189.93333Q23.190638 189.12083 23.190638 187.83958Q23.190638 186.58958 24.034388 185.80833Q24.878138 185.01146 26.425013 185.01146Q26.518763 185.01146 26.706263 185.01146L26.706263 189.65208Q27.737513 189.58958 28.284388 189.07396Q28.815638 188.55833 28.815638 187.77708Q28.815638 187.19896 28.518763 186.79271Q28.206263 186.37083 27.550013 186.13646ZM25.846888 189.58958L25.846888 186.12083Q25.050013 186.18333 24.659388 186.51146Q24.050013 187.02708 24.050013 187.82396Q24.050013 188.55833 24.534388 189.05833Q25.018763 189.54271 25.846888 189.58958ZM31.940638 179.41771L28.893763 179.41771Q29.237513 179.66771 29.471888 180.12083Q29.690638 180.55833 29.690638 181.05833Q29.690638 182.16771 28.815638 182.96458Q27.925013 183.76146 26.378138 183.76146Q25.440638 183.76146 24.706263 183.43333Q23.956263 183.10521 23.581263 182.49583Q23.190638 181.87083 23.190638 181.13646Q23.190638 179.98021 24.159388 179.32396L23.331263 179.32396L23.331263 178.37083L31.940638 178.37083L31.940638 179.41771ZM26.425013 182.68333Q27.628138 182.68333 28.221888 182.18333Q28.815638 181.66771 28.815638 180.96458Q28.815638 180.29271 28.253138 179.80833Q27.675013 179.32396 26.518763 179.32396Q25.268763 179.32396 24.643763 179.83958Q24.018763 180.33958 24.018763 181.04271Q24.018763 181.71458 24.612513 182.19896Q25.190638 182.68333 26.425013 182.68333Z" fill-rule="nonzero"/><path fill="#000000" d="M65.05 300.21564Q65.05 298.6844 65.3625 297.7625Q65.675 296.825 66.28438 296.325Q66.90938 295.825 67.84688 295.825Q68.53438 295.825 69.05 296.10626Q69.58125 296.3875 69.925 296.91876Q70.26875 297.4344 70.45625 298.1844Q70.64375 298.9344 70.64375 300.21564Q70.64375 301.73126 70.33125 302.65314Q70.03438 303.575 69.40938 304.09064Q68.8 304.59064 67.84688 304.59064Q66.6125 304.59064 65.89375 303.7Q65.05 302.6375 65.05 300.21564ZM66.12813 300.21564Q66.12813 302.325 66.62813 303.02814Q67.12813 303.73126 67.84688 303.73126Q68.58125 303.73126 69.06563 303.02814Q69.56563 302.325 69.56563 300.21564Q69.56563 298.09064 69.06563 297.40314Q68.58125 296.7 67.83125 296.7Q67.1125 296.7 66.675 297.3094Q66.12813 298.09064 66.12813 300.21564Z" fill-rule="nonzero"/><path fill="#000000" d="M62.01875 244.81667L60.971874 244.81667L60.971874 238.09792Q60.58125 238.45729 59.95625 238.83229Q59.346874 239.19167 58.8625 239.36354L58.8625 238.34792Q59.7375 237.92604 60.39375 237.34792Q61.065624 236.75417 61.346874 236.19167L62.01875 236.19167L62.01875 244.81667ZM65.05 240.58229Q65.05 239.05104 65.3625 238.12917Q65.675 237.19167 66.28438 236.69167Q66.90938 236.19167 67.84688 236.19167Q68.53438 236.19167 69.05 236.47292Q69.58125 236.75417 69.925 237.28542Q70.26875 237.80104 70.45625 238.55104Q70.64375 239.30104 70.64375 240.58229Q70.64375 242.09792 70.33125 243.01979Q70.03438 243.94167 69.40938 244.45729Q68.8 244.95729 67.84688 244.95729Q66.6125 244.95729 65.89375 244.06667Q65.05 243.00417 65.05 240.58229ZM66.12813 240.58229Q66.12813 242.69167 66.62813 243.39479Q67.12813 244.09792 67.84688 244.09792Q68.58125 244.09792 69.06563 243.39479Q69.56563 242.69167 69.56563 240.58229Q69.56563 238.45729 69.06563 237.76979Q68.58125 237.06667 67.83125 237.06667Q67.1125 237.06667 66.675 237.67604Q66.12813 238.45729 66.12813 240.58229Z" fill-rule="nonzero"/><path fill="#000000" d="M63.596874 184.16771L63.596874 185.18333L57.909374 185.18333Q57.909374 184.80833 58.034374 184.44896Q58.253124 183.87083 58.721874 183.30833Q59.20625 182.74583 60.1125 182.01146Q61.51875 180.85521 62.003124 180.18333Q62.503124 179.51146 62.503124 178.91771Q62.503124 178.29271 62.05 177.87083Q61.596874 177.43333 60.878124 177.43333Q60.1125 177.43333 59.659374 177.88646Q59.20625 178.33958 59.190624 179.15208L58.1125 179.04271Q58.221874 177.82396 58.940624 177.19896Q59.675 176.55833 60.909374 176.55833Q62.14375 176.55833 62.8625 177.24583Q63.58125 177.93333 63.58125 178.94896Q63.58125 179.46458 63.3625 179.96458Q63.159374 180.44896 62.659374 181.01146Q62.175 181.55833 61.05 182.51146Q60.096874 183.30833 59.815624 183.60521Q59.55 183.88646 59.378124 184.16771L63.596874 184.16771ZM65.05 180.94896Q65.05 179.41771 65.3625 178.49583Q65.675 177.55833 66.28438 177.05833Q66.90938 176.55833 67.84688 176.55833Q68.53438 176.55833 69.05 176.83958Q69.58125 177.12083 69.925 177.65208Q70.26875 178.16771 70.45625 178.91771Q70.64375 179.66771 70.64375 180.94896Q70.64375 182.46458 70.33125 183.38646Q70.03438 184.30833 69.40938 184.82396Q68.8 185.32396 67.84688 185.32396Q66.6125 185.32396 65.89375 184.43333Q65.05 183.37083 65.05 180.94896ZM66.12813 180.94896Q66.12813 183.05833 66.62813 183.76146Q67.12813 184.46458 67.84688 184.46458Q68.58125 184.46458 69.06563 183.76146Q69.56563 183.05833 69.56563 180.94896Q69.56563 178.82396 69.06563 178.13646Q68.58125 177.43333 67.83125 177.43333Q67.1125 177.43333 66.675 178.04271Q66.12813 178.82396 66.12813 180.94896Z" fill-rule="nonzero"/><path fill="#000000" d="M58.05 123.28438L59.1125 123.14375Q59.284374 124.03438 59.721874 124.44063Q60.159374 124.83125 60.784374 124.83125Q61.534374 124.83125 62.05 124.31563Q62.565624 123.8 62.565624 123.03438Q62.565624 122.31563 62.08125 121.84688Q61.6125 121.3625 60.878124 121.3625Q60.58125 121.3625 60.128124 121.4875L60.253124 120.55Q60.3625 120.56563 60.425 120.56563Q61.096874 120.56563 61.628124 120.22188Q62.175 119.8625 62.175 119.12813Q62.175 118.55 61.784374 118.175Q61.39375 117.78438 60.76875 117.78438Q60.159374 117.78438 59.7375 118.175Q59.33125 118.56563 59.221874 119.33125L58.159374 119.14375Q58.346874 118.09688 59.034374 117.51875Q59.721874 116.925 60.7375 116.925Q61.440624 116.925 62.034374 117.2375Q62.628124 117.53438 62.940624 118.05Q63.253124 118.56563 63.253124 119.15938Q63.253124 119.70625 62.95625 120.175Q62.659374 120.62813 62.08125 120.89375Q62.83125 121.06563 63.253124 121.62813Q63.675 122.175 63.675 123.01875Q63.675 124.14375 62.846874 124.925Q62.034374 125.70625 60.784374 125.70625Q59.659374 125.70625 58.909374 125.03438Q58.159374 124.34688 58.05 123.28438ZM65.05 121.31563Q65.05 119.78438 65.3625 118.8625Q65.675 117.925 66.28438 117.425Q66.90938 116.925 67.84688 116.925Q68.53438 116.925 69.05 117.20625Q69.58125 117.4875 69.925 118.01875Q70.26875 118.53438 70.45625 119.28438Q70.64375 120.03438 70.64375 121.31563Q70.64375 122.83125 70.33125 123.75313Q70.03438 124.675 69.40938 125.19063Q68.8 125.69063 67.84688 125.69063Q66.6125 125.69063 65.89375 124.8Q65.05 123.7375 65.05 121.31563ZM66.12813 121.31563Q66.12813 123.425 66.62813 124.12813Q67.12813 124.83125 67.84688 124.83125Q68.58125 124.83125 69.06563 124.12813Q69.56563 123.425 69.56563 121.31563Q69.56563 119.19063 69.06563 118.50313Q68.58125 117.8 67.83125 117.8Q67.1125 117.8 66.675 118.40938Q66.12813 119.19063 66.12813 121.31563Z" fill-rule="nonzero"/><path fill="#000000" d="M61.425 65.916664L61.425 63.854164L57.70625 63.854164L57.70625 62.885414L61.628124 57.322914L62.4875 57.322914L62.4875 62.885414L63.64375 62.885414L63.64375 63.854164L62.4875 63.854164L62.4875 65.916664L61.425 65.916664ZM61.425 62.885414L61.425 59.02604L58.7375 62.885414L61.425 62.885414ZM65.05 61.68229Q65.05 60.15104 65.3625 59.229164Q65.675 58.291664 66.28438 57.791664Q66.90938 57.291664 67.84688 57.291664Q68.53438 57.291664 69.05 57.572914Q69.58125 57.854164 69.925 58.385414Q70.26875 58.90104 70.45625 59.65104Q70.64375 60.40104 70.64375 61.68229Q70.64375 63.197914 70.33125 64.11979Q70.03438 65.041664 69.40938 65.55729Q68.8 66.05729 67.84688 66.05729Q66.6125 66.05729 65.89375 65.166664Q65.05 64.104164 65.05 61.68229ZM66.12813 61.68229Q66.12813 63.791664 66.62813 64.49479Q67.12813 65.197914 67.84688 65.197914Q68.58125 65.197914 69.06563 64.49479Q69.56563 63.791664 69.56563 61.68229Q69.56563 59.55729 69.06563 58.86979Q68.58125 58.166664 67.83125 58.166664Q67.1125 58.166664 66.675 58.77604Q66.12813 59.55729 66.12813 61.68229Z" fill-rule="nonzero"/><path fill="#000000" d="M140.17305 316.4344L140.17305 317.45L134.48555 317.45Q134.48555 317.075 134.61055 316.71564Q134.8293 316.1375 135.29805 315.575Q135.78242 315.0125 136.68867 314.27814Q138.09492 313.1219 138.5793 312.45Q139.0793 311.77814 139.0793 311.1844Q139.0793 310.5594 138.62617 310.1375Q138.17305 309.7 137.4543 309.7Q136.68867 309.7 136.23555 310.15314Q135.78242 310.60626 135.7668 311.41876L134.68867 311.3094Q134.79805 310.09064 135.5168 309.46564Q136.25117 308.825 137.48555 308.825Q138.71992 308.825 139.43867 309.5125Q140.15742 310.2 140.15742 311.21564Q140.15742 311.73126 139.93867 312.23126Q139.73555 312.71564 139.23555 313.27814Q138.75117 313.825 137.62617 314.77814Q136.67305 315.575 136.3918 315.8719Q136.12617 316.15314 135.9543 316.4344L140.17305 316.4344ZM141.62617 313.21564Q141.62617 311.6844 141.93867 310.7625Q142.25117 309.825 142.86055 309.325Q143.48555 308.825 144.42305 308.825Q145.11055 308.825 145.62617 309.10626Q146.15742 309.3875 146.50117 309.91876Q146.84492 310.4344 147.03242 311.1844Q147.21992 311.9344 147.21992 313.21564Q147.21992 314.73126 146.90742 315.65314Q146.61055 316.575 145.98555 317.09064Q145.37617 317.59064 144.42305 317.59064Q143.18867 317.59064 142.46992 316.7Q141.62617 315.6375 141.62617 313.21564ZM142.7043 313.21564Q142.7043 315.325 143.2043 316.02814Q143.7043 316.73126 144.42305 316.73126Q145.15742 316.73126 145.6418 316.02814Q146.1418 315.325 146.1418 313.21564Q146.1418 311.09064 145.6418 310.40314Q145.15742 309.7 144.40742 309.7Q143.68867 309.7 143.25117 310.3094Q142.7043 311.09064 142.7043 313.21564Z" fill-rule="nonzero"/><path fill="#000000" d="M232.18808 317.45L232.18808 315.3875L228.46933 315.3875L228.46933 314.41876L232.3912 308.85626L233.25058 308.85626L233.25058 314.41876L234.40683 314.41876L234.40683 315.3875L233.25058 315.3875L233.25058 317.45L232.18808 317.45ZM232.18808 314.41876L232.18808 310.5594L229.50058 314.41876L232.18808 314.41876ZM235.81308 313.21564Q235.81308 311.6844 236.12558 310.7625Q236.43808 309.825 237.04745 309.325Q237.67245 308.825 238.60995 308.825Q239.29745 308.825 239.81308 309.10626Q240.34433 309.3875 240.68808 309.91876Q241.03183 310.4344 241.21933 311.1844Q241.40683 311.9344 241.40683 313.21564Q241.40683 314.73126 241.09433 315.65314Q240.79745 316.575 240.17245 317.09064Q239.56308 317.59064 238.60995 317.59064Q237.37558 317.59064 236.65683 316.7Q235.81308 315.6375 235.81308 313.21564ZM236.8912 313.21564Q236.8912 315.325 237.3912 316.02814Q237.8912 316.73126 238.60995 316.73126Q239.34433 316.73126 239.8287 316.02814Q240.3287 315.325 240.3287 313.21564Q240.3287 311.09064 239.8287 310.40314Q239.34433 309.7 238.59433 309.7Q237.87558 309.7 237.43808 310.3094Q236.8912 311.09064 236.8912 313.21564Z" fill-rule="nonzero"/><path fill="#000000" d="M328.46875 310.96564L327.42188 311.04376Q327.28125 310.41876 327.03125 310.1375Q326.59375 309.6844 325.96875 309.6844Q325.46875 309.6844 325.07812 309.96564Q324.59375 310.34064 324.29688 311.04376Q324.01562 311.73126 324.0 313.0125Q324.375 312.4344 324.92188 312.15314Q325.48438 311.8719 326.09375 311.8719Q327.14062 311.8719 327.875 312.65314Q328.625 313.4344 328.625 314.65314Q328.625 315.46564 328.26562 316.16876Q327.92188 316.85626 327.3125 317.23126Q326.70312 317.59064 325.9375 317.59064Q324.60938 317.59064 323.78125 316.6219Q322.95312 315.65314 322.95312 313.4344Q322.95312 310.9344 323.875 309.8094Q324.67188 308.825 326.03125 308.825Q327.04688 308.825 327.6875 309.40314Q328.34375 309.96564 328.46875 310.96564ZM324.17188 314.66876Q324.17188 315.21564 324.39062 315.71564Q324.625 316.2 325.03125 316.46564Q325.45312 316.73126 325.92188 316.73126Q326.57812 316.73126 327.0625 316.2Q327.54688 315.65314 327.54688 314.73126Q327.54688 313.84064 327.0625 313.325Q326.59375 312.8094 325.875 312.8094Q325.15625 312.8094 324.65625 313.325Q324.17188 313.84064 324.17188 314.66876ZM330.0 313.21564Q330.0 311.6844 330.3125 310.7625Q330.625 309.825 331.23438 309.325Q331.85938 308.825 332.79688 308.825Q333.48438 308.825 334.0 309.10626Q334.53125 309.3875 334.875 309.91876Q335.21875 310.4344 335.40625 311.1844Q335.59375 311.9344 335.59375 313.21564Q335.59375 314.73126 335.28125 315.65314Q334.98438 316.575 334.35938 317.09064Q333.75 317.59064 332.79688 317.59064Q331.5625 317.59064 330.84375 316.7Q330.0 315.6375 330.0 313.21564ZM331.07812 313.21564Q331.07812 315.325 331.57812 316.02814Q332.07812 316.73126 332.79688 316.73126Q333.53125 316.73126 334.01562 316.02814Q334.51562 315.325 334.51562 313.21564Q334.51562 311.09064 334.01562 310.40314Q333.53125 309.7 332.78125 309.7Q332.0625 309.7 331.625 310.3094Q331.07812 311.09064 331.07812 313.21564Z" fill-rule="nonzero"/><path fill="#000000" d="M418.81192 312.79376Q418.15567 312.54376 417.82755 312.10626Q417.51505 311.65314 417.51505 311.04376Q417.51505 310.10626 418.18692 309.46564Q418.87442 308.825 419.9838 308.825Q421.1088 308.825 421.7963 309.48126Q422.4838 310.1375 422.4838 311.075Q422.4838 311.66876 422.1713 312.10626Q421.8588 312.54376 421.21817 312.79376Q422.01505 313.04376 422.4213 313.6219Q422.82755 314.2 422.82755 314.9969Q422.82755 316.09064 422.0463 316.84064Q421.28067 317.59064 419.99942 317.59064Q418.7338 317.59064 417.95255 316.84064Q417.1713 316.09064 417.1713 314.96564Q417.1713 314.1219 417.59317 313.5594Q418.03067 312.9969 418.81192 312.79376ZM418.59317 310.9969Q418.59317 311.60626 418.9838 311.9969Q419.39005 312.3875 420.01505 312.3875Q420.62442 312.3875 421.01505 312.0125Q421.40567 311.6219 421.40567 311.0594Q421.40567 310.48126 420.99942 310.09064Q420.59317 309.6844 419.99942 309.6844Q419.39005 309.6844 418.9838 310.075Q418.59317 310.46564 418.59317 310.9969ZM418.26505 314.96564Q418.26505 315.41876 418.46817 315.84064Q418.68692 316.2625 419.1088 316.4969Q419.53067 316.73126 420.01505 316.73126Q420.76505 316.73126 421.24942 316.2469Q421.74942 315.7625 421.74942 315.0125Q421.74942 314.2469 421.24942 313.7469Q420.74942 313.2469 419.9838 313.2469Q419.2338 313.2469 418.74942 313.7469Q418.26505 314.23126 418.26505 314.96564ZM424.18692 313.21564Q424.18692 311.6844 424.49942 310.7625Q424.81192 309.825 425.4213 309.325Q426.0463 308.825 426.9838 308.825Q427.6713 308.825 428.18692 309.10626Q428.71817 309.3875 429.06192 309.91876Q429.40567 310.4344 429.59317 311.1844Q429.78067 311.9344 429.78067 313.21564Q429.78067 314.73126 429.46817 315.65314Q429.1713 316.575 428.5463 317.09064Q427.93692 317.59064 426.9838 317.59064Q425.74942 317.59064 425.03067 316.7Q424.18692 315.6375 424.18692 313.21564ZM425.26505 313.21564Q425.26505 315.325 425.76505 316.02814Q426.26505 316.73126 426.9838 316.73126Q427.71817 316.73126 428.20255 316.02814Q428.70255 315.325 428.70255 313.21564Q428.70255 311.09064 428.20255 310.40314Q427.71817 309.7 426.96817 309.7Q426.24942 309.7 425.81192 310.3094Q425.26505 311.09064 425.26505 313.21564Z" fill-rule="nonzero"/><path fill="#000000" d="M511.8426 317.45L510.79572 317.45L510.79572 310.73126Q510.4051 311.09064 509.7801 311.46564Q509.17072 311.825 508.68634 311.9969L508.68634 310.98126Q509.56134 310.5594 510.2176 309.98126Q510.88947 309.3875 511.17072 308.825L511.8426 308.825L511.8426 317.45ZM514.87384 313.21564Q514.87384 311.6844 515.18634 310.7625Q515.49884 309.825 516.1082 309.325Q516.7332 308.825 517.6707 308.825Q518.3582 308.825 518.87384 309.10626Q519.4051 309.3875 519.74884 309.91876Q520.0926 310.4344 520.2801 311.1844Q520.4676 311.9344 520.4676 313.21564Q520.4676 314.73126 520.1551 315.65314Q519.8582 316.575 519.2332 317.09064Q518.62384 317.59064 517.6707 317.59064Q516.43634 317.59064 515.7176 316.7Q514.87384 315.6375 514.87384 313.21564ZM515.95197 313.21564Q515.95197 315.325 516.45197 316.02814Q516.95197 316.73126 517.6707 316.73126Q518.4051 316.73126 518.88947 316.02814Q519.38947 315.325 519.38947 313.21564Q519.38947 311.09064 518.88947 310.40314Q518.4051 309.7 517.6551 309.7Q516.93634 309.7 516.49884 310.3094Q515.95197 311.09064 515.95197 313.21564ZM521.87384 313.21564Q521.87384 311.6844 522.18634 310.7625Q522.49884 309.825 523.1082 309.325Q523.7332 308.825 524.6707 308.825Q525.3582 308.825 525.87384 309.10626Q526.4051 309.3875 526.74884 309.91876Q527.0926 310.4344 527.2801 311.1844Q527.4676 311.9344 527.4676 313.21564Q527.4676 314.73126 527.1551 315.65314Q526.8582 316.575 526.2332 317.09064Q525.62384 317.59064 524.6707 317.59064Q523.43634 317.59064 522.7176 316.7Q521.87384 315.6375 521.87384 313.21564ZM522.95197 313.21564Q522.95197 315.325 523.45197 316.02814Q523.95197 316.73126 524.6707 316.73126Q525.4051 316.73126 525.88947 316.02814Q526.38947 315.325 526.38947 313.21564Q526.38947 311.09064 525.88947 310.40314Q525.4051 309.7 524.6551 309.7Q523.93634 309.7 523.49884 310.3094Q522.95197 311.09064 522.95197 313.21564Z" fill-rule="nonzero"/><path fill="#757575" d="M20.284374 37.55L20.284374 28.55L18.7375 28.55L18.7375 27.175L20.284374 27.175L20.284374 26.08125Q20.284374 25.034374 20.471874 24.51875Q20.721874 23.83125 21.3625 23.409374Q22.003124 22.9875 23.159374 22.9875Q23.909374 22.9875 24.8 23.159374L24.534374 24.690624Q23.9875 24.596874 23.503124 24.596874Q22.70625 24.596874 22.3625 24.940624Q22.034374 25.284374 22.034374 26.221874L22.034374 27.175L24.065624 27.175L24.065624 28.55L22.034374 28.55L22.034374 37.55L20.284374 37.55ZM25.846874 37.55L25.846874 27.175L27.425 27.175L27.425 28.753124Q28.034374 27.64375 28.55 27.3Q29.065624 26.940624 29.675 26.940624Q30.565624 26.940624 31.4875 27.503124L30.878124 29.14375Q30.2375 28.753124 29.596874 28.753124Q29.01875 28.753124 28.55 29.1125Q28.096874 29.45625 27.89375 30.065624Q27.6125 31.003124 27.6125 32.1125L27.6125 37.55L25.846874 37.55ZM39.971874 34.20625L41.784374 34.440624Q41.3625 36.01875 40.190624 36.909374Q39.034374 37.784374 37.221874 37.784374Q34.95625 37.784374 33.6125 36.39375Q32.284374 34.9875 32.284374 32.45625Q32.284374 29.83125 33.628124 28.39375Q34.971874 26.940624 37.128124 26.940624Q39.20625 26.940624 40.51875 28.3625Q41.846874 29.76875 41.846874 32.346874Q41.846874 32.503124 41.83125 32.815624L34.096874 32.815624Q34.190624 34.51875 35.065624 35.425Q35.940624 36.33125 37.2375 36.33125Q38.20625 36.33125 38.878124 35.83125Q39.565624 35.315624 39.971874 34.20625ZM34.190624 31.3625L39.9875 31.3625Q39.878124 30.065624 39.33125 29.409374Q38.4875 28.39375 37.14375 28.39375Q35.940624 28.39375 35.1125 29.20625Q34.284374 30.003124 34.190624 31.3625ZM50.4875 41.51875L50.4875 36.440624Q50.065624 37.01875 49.33125 37.409374Q48.596874 37.784374 47.76875 37.784374Q45.925 37.784374 44.58125 36.315624Q43.253124 34.83125 43.253124 32.26875Q43.253124 30.70625 43.784374 29.471874Q44.33125 28.221874 45.3625 27.58125Q46.39375 26.940624 47.628124 26.940624Q49.55 26.940624 50.659374 28.565624L50.659374 27.175L52.2375 27.175L52.2375 41.51875L50.4875 41.51875ZM45.065624 32.33125Q45.065624 34.33125 45.89375 35.33125Q46.7375 36.33125 47.909374 36.33125Q49.034374 36.33125 49.846874 35.39375Q50.659374 34.440624 50.659374 32.4875Q50.659374 30.425 49.8 29.378124Q48.940624 28.33125 47.8 28.33125Q46.659374 28.33125 45.8625 29.3Q45.065624 30.26875 45.065624 32.33125ZM63.753124 37.55L59.8 27.175L61.659374 27.175L63.89375 33.39375Q64.25313 34.39375 64.55 35.471874Q64.78438 34.659374 65.20625 33.503124L67.50313 27.175L69.31563 27.175L65.39375 37.55L63.753124 37.55ZM69.15938 34.45625L70.90938 34.175Q71.05 35.221874 71.72188 35.784374Q72.39375 36.33125 73.59688 36.33125Q74.8 36.33125 75.37813 35.846874Q75.97188 35.346874 75.97188 34.690624Q75.97188 34.096874 75.45625 33.753124Q75.09688 33.51875 73.65938 33.159374Q71.72188 32.659374 70.97188 32.315624Q70.2375 31.95625 69.84688 31.33125Q69.45625 30.690624 69.45625 29.925Q69.45625 29.2375 69.76875 28.64375Q70.09688 28.05 70.64375 27.659374Q71.05 27.3625 71.75313 27.159374Q72.47188 26.940624 73.28438 26.940624Q74.50313 26.940624 75.425 27.3Q76.34688 27.64375 76.78438 28.253124Q77.22188 28.846874 77.39375 29.846874L75.675 30.08125Q75.55 29.284374 74.9875 28.846874Q74.425 28.39375 73.40938 28.39375Q72.19063 28.39375 71.675 28.8Q71.15938 29.190624 71.15938 29.721874Q71.15938 30.065624 71.37813 30.346874Q71.58125 30.628124 72.05 30.815624Q72.31563 30.909374 73.59688 31.253124Q75.47188 31.753124 76.20625 32.08125Q76.94063 32.39375 77.3625 33.003124Q77.78438 33.596874 77.78438 34.503124Q77.78438 35.378124 77.26875 36.159374Q76.75313 36.940624 75.78438 37.3625Q74.81563 37.784374 73.59688 37.784374Q71.58125 37.784374 70.51875 36.940624Q69.45625 36.096874 69.15938 34.45625ZM80.3625 37.55L80.3625 35.55L82.3625 35.55L82.3625 37.55L80.3625 37.55ZM98.64375 33.753124L100.3625 33.971874Q100.08125 35.76875 98.90938 36.784374Q97.75313 37.784374 96.05 37.784374Q93.925 37.784374 92.62813 36.39375Q91.33125 35.003124 91.33125 32.409374Q91.33125 30.721874 91.87813 29.471874Q92.44063 28.20625 93.58125 27.58125Q94.72188 26.940624 96.06563 26.940624Q97.75313 26.940624 98.81563 27.8Q99.89375 28.659374 100.20625 30.221874L98.4875 30.4875Q98.25313 29.440624 97.62813 28.925Q97.00313 28.39375 96.12813 28.39375Q94.8 28.39375 93.97188 29.346874Q93.14375 30.3 93.14375 32.346874Q93.14375 34.440624 93.94063 35.39375Q94.7375 36.33125 96.03438 36.33125Q97.06563 36.33125 97.75313 35.70625Q98.45625 35.065624 98.64375 33.753124ZM101.83125 37.55L101.83125 23.2375L103.58125 23.2375L103.58125 37.55L101.83125 37.55ZM112.64375 36.26875Q111.65938 37.096874 110.75313 37.440624Q109.84688 37.784374 108.81563 37.784374Q107.1125 37.784374 106.19063 36.95625Q105.26875 36.1125 105.26875 34.815624Q105.26875 34.05 105.6125 33.425Q105.97188 32.8 106.53438 32.425Q107.09688 32.034374 107.8 31.83125Q108.31563 31.70625 109.3625 31.565624Q111.4875 31.315624 112.4875 30.971874Q112.50313 30.6125 112.50313 30.503124Q112.50313 29.440624 112.00313 28.9875Q111.33125 28.39375 110.00313 28.39375Q108.75313 28.39375 108.15938 28.83125Q107.58125 29.26875 107.3 30.378124L105.58125 30.14375Q105.81563 29.034374 106.34688 28.3625Q106.87813 27.675 107.89375 27.315624Q108.90938 26.940624 110.25313 26.940624Q111.58125 26.940624 112.40938 27.253124Q113.2375 27.565624 113.62813 28.05Q114.01875 28.51875 114.175 29.2375Q114.26875 29.690624 114.26875 30.8625L114.26875 33.20625Q114.26875 35.659374 114.37813 36.315624Q114.4875 36.95625 114.83125 37.55L112.9875 37.55Q112.72188 37.003124 112.64375 36.26875ZM112.4875 32.346874Q111.53438 32.7375 109.6125 33.003124Q108.53438 33.159374 108.08125 33.3625Q107.64375 33.55 107.39375 33.925Q107.14375 34.3 107.14375 34.76875Q107.14375 35.471874 107.675 35.940624Q108.20625 36.409374 109.2375 36.409374Q110.25313 36.409374 111.03438 35.971874Q111.83125 35.51875 112.20625 34.753124Q112.4875 34.14375 112.4875 32.9875L112.4875 32.346874ZM116.15938 34.45625L117.90938 34.175Q118.05 35.221874 118.72188 35.784374Q119.39375 36.33125 120.59688 36.33125Q121.8 36.33125 122.37813 35.846874Q122.97188 35.346874 122.97188 34.690624Q122.97188 34.096874 122.45625 33.753124Q122.09688 33.51875 120.65938 33.159374Q118.72188 32.659374 117.97188 32.315624Q117.2375 31.95625 116.84688 31.33125Q116.45625 30.690624 116.45625 29.925Q116.45625 29.2375 116.76875 28.64375Q117.09688 28.05 117.64375 27.659374Q118.05 27.3625 118.75313 27.159374Q119.47188 26.940624 120.28438 26.940624Q121.50313 26.940624 122.425 27.3Q123.34688 27.64375 123.78438 28.253124Q124.22188 28.846874 124.39375 29.846874L122.675 30.08125Q122.55 29.284374 121.9875 28.846874Q121.425 28.39375 120.40938 28.39375Q119.19063 28.39375 118.675 28.8Q118.15938 29.190624 118.15938 29.721874Q118.15938 30.065624 118.37813 30.346874Q118.58125 30.628124 119.05 30.815624Q119.31563 30.909374 120.59688 31.253124Q122.47188 31.753124 123.20625 32.08125Q123.94063 32.39375 124.3625 33.003124Q124.78438 33.596874 124.78438 34.503124Q124.78438 35.378124 124.26875 36.159374Q123.75313 36.940624 122.78438 37.3625Q121.81563 37.784374 120.59688 37.784374Q118.58125 37.784374 117.51875 36.940624Q116.45625 36.096874 116.15938 34.45625ZM126.15938 34.45625L127.90938 34.175Q128.05 35.221874 128.72188 35.784374Q129.39375 36.33125 130.59688 36.33125Q131.8 36.33125 132.37813 35.846874Q132.97188 35.346874 132.97188 34.690624Q132.97188 34.096874 132.45625 33.753124Q132.09688 33.51875 130.65938 33.159374Q128.72188 32.659374 127.97188 32.315624Q127.2375 31.95625 126.84688 31.33125Q126.45625 30.690624 126.45625 29.925Q126.45625 29.2375 126.76875 28.64375Q127.09688 28.05 127.64375 27.659374Q128.05 27.3625 128.75313 27.159374Q129.47188 26.940624 130.28438 26.940624Q131.50313 26.940624 132.425 27.3Q133.34688 27.64375 133.78438 28.253124Q134.22188 28.846874 134.39375 29.846874L132.675 30.08125Q132.55 29.284374 131.9875 28.846874Q131.425 28.39375 130.40938 28.39375Q129.19063 28.39375 128.675 28.8Q128.15938 29.190624 128.15938 29.721874Q128.15938 30.065624 128.37813 30.346874Q128.58125 30.628124 129.05 30.815624Q129.31563 30.909374 130.59688 31.253124Q132.47188 31.753124 133.20625 32.08125Q133.94063 32.39375 134.3625 33.003124Q134.78438 33.596874 134.78438 34.503124Q134.78438 35.378124 134.26875 36.159374Q133.75313 36.940624 132.78438 37.3625Q131.81563 37.784374 130.59688 37.784374Q128.58125 37.784374 127.51875 36.940624Q126.45625 36.096874 126.15938 34.45625Z" fill-rule="nonzero"/></svg>