<?xml version="1.0" encoding="UTF-8" standalone="no"?>
<svg
   xmlns:dc="http://purl.org/dc/elements/1.1/"
   xmlns:cc="http://creativecommons.org/ns#"
   xmlns:rdf="http://www.w3.org/1999/02/22-rdf-syntax-ns#"
   xmlns:svg="http://www.w3.org/2000/svg"
   xmlns="http://www.w3.org/2000/svg"
   xmlns:sodipodi="http://sodipodi.sourceforge.net/DTD/sodipodi-0.dtd"
   xmlns:inkscape="http://www.inkscape.org/namespaces/inkscape"
   width="512.0px"
   height="512.0px"
   viewBox="0 0 512.0 512.0"
   version="1.1"
   id="SVGRoot"
   sodipodi:docname="drawing.svg"
   inkscape:version="1.0.2-2 (e86c870879, 2021-01-15)"
   inkscape:export-filename="C:\Users\DELL\Downloads\drawing.png"
   inkscape:export-xdpi="94.523079"
   inkscape:export-ydpi="94.523079">
  <defs
     id="defs10" />
  <sodipodi:namedview
     id="base"
     pagecolor="#ffffff"
     bordercolor="#666666"
     borderopacity="1.0"
     inkscape:pageopacity="0.0"
     inkscape:pageshadow="2"
     inkscape:zoom="0.49497475"
     inkscape:cx="419.08292"
     inkscape:cy="394.15729"
     inkscape:document-units="px"
     inkscape:current-layer="layer1"
     inkscape:document-rotation="0"
     showgrid="true"
     inkscape:window-width="1920"
     inkscape:window-height="1001"
     inkscape:window-x="-9"
     inkscape:window-y="-9"
     inkscape:window-maximized="1">
    <inkscape:grid
       type="xygrid"
       id="grid19" />
  </sodipodi:namedview>
  <metadata
     id="metadata13">
    <rdf:RDF>
      <cc:Work
         rdf:about="">
        <dc:format>image/svg+xml</dc:format>
        <dc:type
           rdf:resource="http://purl.org/dc/dcmitype/StillImage" />
        <dc:title></dc:title>
      </cc:Work>
    </rdf:RDF>
  </metadata>
  <g
     inkscape:label="Layer 1"
     inkscape:groupmode="layer"
     id="layer1">
    <rect
       style="fill:#000000;fill-opacity:1;stroke:#00ff00;stroke-width:0"
       id="rect28"
       width="520"
       height="520"
       x="0"
       y="0" />
    <circle
       id="path987"
       style="fill:#ff0000;stroke:#00ff00"
       cx="-149.50258"
       cy="23.233509"
       r="0" />
    <path
       style="fill:#ff0000;fill-opacity:1;stroke:#00ff00;stroke-width:0"
       id="path1015"
       d="m 492.04009,33.609945 c -1.03631,0.448338 -2.02746,1.020411 -3.10893,1.345015 -2.48258,0.74515 -12.81588,2.737794 -14.31353,3.006839 -8.31175,1.493158 -15.38364,2.569972 -23.84979,3.451068 -4.69095,0.488201 -9.39964,0.787531 -14.09946,1.181296 -25.93819,1.582926 -51.8395,-0.690633 -77.60197,-3.498127 -14.04256,-1.662555 -28.17264,-2.334953 -42.26287,-3.432735 -6.32449,-0.492746 -12.63837,-1.11343 -18.95839,-1.66061 -18.24187,-1.825547 -36.54764,-2.424749 -54.86671,-2.721691 -1.64587,-0.02493 -17.4207,-0.269436 -19.08279,-0.272597 -1.47825,-0.0028 -18.6447,0.183089 -20.05342,0.192654 -11.14553,0.07568 -44.85061,0.03483 -45.62523,0.03483 -12.996,-0.161558 -26.00778,-0.185027 -38.99503,0.411152 -5.71406,0.262304 -12.77274,0.816316 -18.49008,1.234288 -10.822608,1.070329 -21.707975,0.565373 -32.545758,1.29771 -2.041346,0.137939 -4.091502,0.227243 -6.115214,0.528419 -1.847998,0.275027 -3.650556,0.797737 -5.475834,1.196605 -8.263234,2.937562 -16.037706,7.145479 -22.780839,12.782152 -1.168979,0.977165 -2.249507,2.055522 -3.374261,3.083284 -6.389801,7.917201 -8.088927,17.148483 -8.836834,27.006929 -0.158097,7.027396 -0.391786,14.112907 0.282209,21.123998 0.254343,2.645756 1.22521,9.475676 1.587417,12.099036 2.251049,12.79 4.10419,25.64688 5.467537,38.56248 1.626162,11.71685 2.04537,23.52064 2.635141,35.31768 0.253573,6.45226 -0.236545,12.96156 0.378736,19.40079 0.332958,3.48458 0.836441,5.45293 1.543332,8.88189 1.167475,6.21667 2.694983,12.36433 3.929159,18.56564 0.285011,1.43208 1.43958,8.42201 1.683169,9.88227 1.029098,5.79932 1.393098,11.67984 2.094491,17.51982 0.15652,1.30323 0.186028,2.63123 0.498337,3.90614 0.367406,1.49982 1.019794,2.91509 1.52969,4.37264 2.137941,3.81646 2.984288,6.27624 6.800134,8.93039 8.180042,5.68972 20.667926,4.29921 30.054114,4.04582 3.260991,-0.15844 6.520885,-0.34133 9.782973,-0.47531 8.338799,-0.34248 11.943841,-0.45772 20.296861,-0.34074 9.93018,0.13906 19.83429,0.78928 29.74417,1.38383 18.04711,1.41448 36.06393,3.08855 54.16152,3.67504 27.61897,-0.0974 55.24038,0.19335 82.85901,-0.0288 3.05839,-0.0206 6.11697,-0.0212 9.17515,-0.0617 3.05625,-0.0405 6.11164,-0.13208 9.16776,-0.1813 3.10965,-0.0501 12.43945,-0.12748 9.32942,-0.11662 -5.88689,0.0205 -11.7772,-0.0701 -17.66016,0.14569 -3.0113,0.11045 6.02599,0.0945 9.03834,0.17056 2.99346,0.0756 5.98583,0.18947 8.97875,0.2842 16.82026,0.56315 33.62155,1.4595 50.34296,3.39637 22.98106,3.93822 46.58992,3.67161 69.68506,0.7139 10.12359,-1.04605 20.41499,-1.77312 30.1969,-4.82091 1.82559,-0.5688 3.58272,-1.33767 5.37408,-2.00651 8.37523,-3.7962 15.68555,-9.50821 21.33685,-16.78326 1.20397,-1.5499 2.22019,-3.23693 3.33028,-4.8554 0.94083,-1.8323 2.00129,-3.60795 2.82247,-5.4969 4.6975,-10.80566 6.42277,-22.81723 8.26593,-34.35581 1.9932,-13.8681 2.58179,-27.87856 3.67168,-41.83305 1.17424,-11.19978 1.53229,-22.42838 1.61775,-33.67902 0.003,-10.9992 0.82604,-21.98814 1.46322,-32.967 0.45551,-10.27194 0.85747,-20.546191 1.47967,-30.810074 0.31541,-7.58986 -0.54527,-15.09085 -2.48074,-22.420194 -1.92541,-5.863368 -3.57356,-11.791149 -5.07158,-17.776072 -0.18733,-0.698849 -0.37466,-1.397698 -0.56198,-2.096547 -0.62156,-3.783363 -54.1264,5.006788 -53.50484,8.790151 v 0 c 0.38113,0.693179 0.76225,1.386358 1.14338,2.079537 2.96822,4.672703 5.10393,9.784574 6.7182,15.073758 0.5626,1.765867 1.23116,3.497023 1.78461,5.265779 1.30597,4.173677 2.208,8.485485 3.29142,12.717684 0.31662,1.257807 0.71557,2.497709 0.94985,3.773421 1.49334,8.13181 1.20315,16.437137 1.04521,24.651877 -0.23079,11.15422 -0.7274,22.30234 -1.49026,33.43231 -0.24826,11.20945 0.22376,22.39055 0.86908,33.58181 0.46685,12.9962 0.69358,26.09089 -1.63507,38.94607 -0.4888,2.10395 -0.87732,4.23374 -1.46638,6.31185 -2.48399,8.76305 -6.98786,16.87708 -13.45581,23.31406 -2.30893,2.05838 -3.72323,3.4698 -6.31026,5.18052 -4.39364,2.90536 -9.3914,4.85784 -14.3709,6.47757 -9.64604,2.66711 -19.52189,4.53769 -29.54896,4.87769 -2.1545,-0.008 -4.30905,-0.008 -6.4635,-0.0247 -2.02015,-0.0157 -8.0804,-0.0724 -6.06019,-0.0728 9.78873,-0.002 19.57914,-0.11716 29.36611,0.0682 2.09231,0.0396 -4.17886,0.23418 -6.26717,0.36926 -4.91445,0.31789 -9.82304,0.72323 -14.74019,1.0014 -17.87311,0.67799 -35.72481,0.19682 -53.57556,-0.90401 -27.71525,-1.06352 -55.45499,-0.27267 -83.1833,-0.53517 -7.94468,0.007 -40.4176,0.24592 -0.27013,0.17064 3.04386,-0.006 -6.08753,-0.056 -9.13094,-0.10836 -2.97385,-0.0512 -5.94714,-0.13114 -8.92057,-0.20227 -2.91929,-0.0698 -5.83839,-0.14708 -8.75758,-0.22062 -18.75544,-0.28033 -37.52663,-0.21493 -56.2561,-1.39472 -18.06622,-1.22237 -36.22262,-1.88483 -54.11019,-4.88428 -1.99165,-0.36176 -3.98664,-0.70558 -5.97495,-1.08529 -0.36064,-0.0689 -6.449703,-1.39594 -7.625204,-1.38662 -1.829415,0.0145 -2.472526,1.81543 -4.260656,1.85265 -0.466373,-0.26076 -1.002645,-0.42408 -1.399119,-0.78228 -1.665395,-1.50463 -2.27423,-3.00812 -3.204208,-5.05884 -1.799887,-3.96898 -2.850931,-8.14993 -3.901691,-12.36684 -0.608482,-2.88609 -1.434398,-6.5869 -1.864546,-9.50361 -0.917597,-6.22197 -1.374316,-12.51763 -2.311544,-18.73897 -0.430937,-3.16646 -0.639088,-5.11037 -1.282977,-8.22833 -1.268945,-6.14472 -2.983093,-12.20221 -3.79217,-18.44216 -1.732514,-11.93674 -3.253938,-23.89898 -5.057675,-35.82448 -1.968106,-12.45786 -3.753497,-24.99068 -3.860297,-37.62777 -0.08087,-9.45835 0.271368,-19.02155 2.682193,-28.218425 1.610045,-4.950764 3.178821,-10.007634 7.616518,-13.172501 1.479297,-1.288201 2.458103,-2.244071 4.151675,-3.283632 4.251389,-2.60962 9.155753,-4.031542 14.03162,-4.873185 11.111751,-2.545432 21.857051,-6.79529 33.363041,-7.425209 18.14421,-1.566324 36.31786,-2.47426 54.53636,-2.463671 -5.25676,-0.0089 -10.51355,-0.0449 -15.77029,-0.02679 -3.2839,0.01132 6.56793,0.01044 9.85165,0.04718 12.59552,0.140953 25.18751,0.564139 37.78276,0.726048 18.52764,0.656701 37.04632,1.619483 55.58959,1.736198 22.00756,0.396071 44.01025,0.953778 66.01533,1.455689 26.16804,0.278194 52.45062,-0.115739 78.45646,3.274273 7.29465,1.301604 11.44366,1.785669 18.32868,3.885621 3.55536,1.084394 8.23199,2.665299 10.79513,5.67198 0.3767,0.441882 0.59213,0.999009 0.8882,1.498513 2.53255,3.264944 48.70584,-32.550726 46.17329,-35.81567 z" />
    <path
       style="fill:#ff0000;fill-opacity:1;stroke:#00ff00;stroke-width:0"
       id="path1025"
       d="m 218.0804,51.793935 c 5.99897,5.713258 7.98787,14.097746 10.06671,21.820382 2.65707,10.900103 3.98218,22.064918 3.35399,33.283233 -0.34314,6.12778 -1.09155,10.58854 -1.93726,16.63549 -1.52206,9.85735 -3.62669,19.6175 -4.84412,29.52266 -0.6252,5.08674 -1.08814,10.19215 -1.65658,15.28554 -1.60746,14.80647 -4.51809,29.43134 -6.99709,44.10761 -0.29644,2.09882 -0.58577,4.19866 -0.88931,6.29647 -1.22,8.43133 -2.01722,16.70251 -1.85016,25.24331 0.0454,2.31917 0.22317,4.63386 0.33475,6.95079 1.79312,16.34251 2.26335,32.75754 1.9266,49.18153 -0.88757,14.30008 -2.22126,28.56899 -3.62702,42.82611 -1.17274,10.70855 -1.81978,21.4449 -1.72155,32.21494 -0.0274,7.65509 1.10517,15.2418 1.60771,22.86624 0.34687,5.26267 0.3649,7.77287 0.5106,13.05996 0.032,12.6508 0.75498,25.28967 0.66355,37.94171 -0.0745,6.64346 0.055,3.43149 -0.35379,9.63724 0.18844,3.40591 48.35524,0.74107 48.16681,-2.66484 v 0 c -1.97922,-5.7146 -1.06995,-2.74338 -2.68987,-8.92518 -1.66242,-7.63003 -3.06329,-15.32757 -3.5408,-23.13847 -0.13048,-2.13427 -0.12584,-4.27468 -0.17661,-6.41233 -0.0511,-2.15218 -0.086,-4.30471 -0.12902,-6.45706 0.13393,-5.2729 0.1478,-7.81418 0.48107,-13.06325 0.48332,-7.61253 1.59149,-15.18817 1.56611,-22.82933 0.11431,-10.69222 -0.46227,-21.35573 -1.37199,-32.00967 -1.06621,-14.311 -1.91212,-28.63818 -2.54774,-42.97497 -0.18047,-16.25057 -0.13724,-32.55378 2.58069,-48.63378 1.53197,-12.41999 2.53545,-24.89067 3.09594,-37.39186 0.38476,-14.54266 0.32207,-29.18183 3.37695,-43.48988 0.91503,-5.09307 1.94761,-10.16555 2.78664,-15.27169 1.66738,-10.14722 2.33972,-20.42155 2.26792,-30.70091 0.24389,-17.28414 0.24021,-34.648188 3.53847,-51.697539 1.0948,-5.768419 2.26162,-11.486135 3.89312,-17.131926 0.22464,-0.777362 1.62846,-5.225449 2.15359,-6.306382 0.23187,-0.477281 0.61942,-0.861722 0.92913,-1.292583 -0.24879,-4.169627 -59.21623,-0.651192 -58.96744,3.518435 z" />
    <path
       style="fill:#ff0000;fill-opacity:1;stroke:#00ff00;stroke-width:0"
       id="path1027"
       d="m 84.616641,463.94981 c -0.01705,-0.15339 -0.139021,-0.33331 -0.05114,-0.46018 1.799152,-2.59724 5.606171,-3.96339 8.346651,-4.98232 5.293174,-1.96804 7.000139,-2.25387 12.657138,-3.73906 16.50732,-3.55083 33.42467,-4.26591 50.25181,-4.54616 10.18318,-0.045 6.5071,-0.0755 16.62108,0.0649 2.68814,0.0373 10.75256,0.10422 8.06423,0.12455 -46.44902,0.35122 -14.73233,-0.095 -5.00008,-0.25508 17.77588,-0.30565 35.50989,1.0315 53.21988,2.36284 13.77016,0.97537 27.58114,1.12218 41.35913,1.94875 6.04014,0.36236 12.7558,0.94779 18.79886,1.44551 11.03283,0.94224 22.09136,1.89345 33.17041,2.06937 2.21658,0.0352 15.27349,-0.1141 17.42646,-0.13629 13.96447,-0.10093 28.04887,-0.4592 41.96294,1.06317 2.07012,0.2265 4.11977,0.61181 6.17965,0.91771 5.76687,1.20762 11.59191,2.70553 16.90225,5.32366 0.4251,0.13461 0.83565,0.32939 1.27529,0.40383 1.70046,0.28793 2.26827,-0.0188 4.07372,-0.0387 48.04223,-0.52814 31.10167,3.09378 50.76848,-1.78251 5.07405,-1.64483 10.40726,-1.66263 15.65901,-2.15283 2.65797,-0.2481 5.30925,-0.56394 7.96628,-0.82199 2.77005,-0.63753 6.05266,0.19362 8.69489,-1.11636 2.87353,-1.42466 3.53526,-3.11782 5.42586,-5.71824 1.44445,-3.81137 -52.4565,-24.23898 -53.90095,-20.42761 v 0 c 0.36638,-0.77922 0.7808,-1.53761 1.09912,-2.33767 0.11317,-0.28444 0.40032,-0.6777 0.1886,-0.89881 -0.0972,-0.10157 -4.09108,1.71311 -4.36882,1.50611 -7.10374,1.76478 -14.52399,2.10521 -21.79109,1.29026 -1.28532,-0.13542 -2.57558,-0.23021 -3.85597,-0.40627 -1.02199,-0.14052 -4.07816,-0.51807 -3.04685,-0.54287 13.60152,-0.32702 27.21048,-0.18301 40.81471,-0.36519 0.50837,-0.007 -1.00854,-0.14536 -1.51672,-0.16105 -1.30469,-0.0403 -2.04858,0.16435 -3.37221,0.38855 -9.50696,1.77278 -19.15325,2.74173 -28.78204,3.56022 -17.2059,0.94985 -34.46551,0.67181 -51.68223,0.10751 -5.53737,-0.0881 -11.07356,-0.27505 -16.6116,-0.29449 -11.96636,-0.042 -23.93313,0.42511 -35.89869,0.48561 -10.17473,0.0103 -20.34084,0.0144 -30.50184,-0.61674 -7.08136,-0.43981 -12.15041,-1.01091 -19.1686,-1.80091 -3.01017,-0.33883 -6.01721,-0.70494 -9.02582,-1.05741 -17.39509,-2.00308 -34.79025,-4.04463 -52.30788,-4.63026 -26.08927,-0.95413 -52.24369,-1.21869 -78.30178,0.56406 -17.47391,1.36947 -34.887819,3.28203 -52.320745,5.08335 -8.275988,0.5493 -16.54674,1.02058 -24.846056,0.98766 -3.481679,-0.0138 -8.035967,-0.34486 -11.600897,-0.1649 -1.22312,0.0617 -2.432366,0.28797 -3.648548,0.43196 -2.073544,3.5832 48.60056,32.90755 50.674104,29.32435 z" />
    <path
       style="fill:#ff0000;fill-opacity:1;stroke:#00ff00;stroke-width:0"
       id="path1035"
       d="m 120.78127,366.23315 c 0.07,-0.87776 3.45367,-1.69961 3.70155,-1.76706 3.85602,-1.04924 7.82147,-1.4183 11.78014,-1.83702 1.64466,-0.15337 3.28813,-0.32014 4.93398,-0.46012 5.77291,-0.49098 11.56706,-0.96601 17.34723,-1.35183 2.2753,-0.15187 9.11091,-0.27024 6.83202,-0.35193 -7.84348,-0.28115 -15.69618,-0.16474 -23.54426,-0.24712 18.03104,0.28054 36.06438,-0.0127 54.09575,0.20119 3.38702,0.16042 6.77993,0.22512 10.16106,0.48125 7.1909,0.54475 10.69984,1.26117 17.75921,2.16111 8.64203,1.10171 17.31643,1.90317 25.9877,2.72969 20.75141,2.07441 41.58263,2.9169 62.40412,3.9064 18.20107,0.72281 36.32881,2.6573 54.20087,6.16978 3.15018,0.59627 6.24957,1.42102 9.3822,2.09576 1.24081,0.26726 2.46553,0.71105 3.73437,0.74427 14.12585,0.3699 28.26057,0.24327 42.38955,0.46352 2.51619,0.0392 5.02501,0.2931 7.54016,0.37539 6.60053,-0.26393 13.20367,-0.27218 19.80862,-0.34217 1.12972,-0.0202 2.2658,0.0609 3.38916,-0.0605 1.2487,-0.13493 2.459,-0.52042 3.70122,-0.70568 2.34938,-0.35039 5.33171,-0.55357 7.70566,-0.66602 1.19249,-0.0565 2.39097,-0.21927 3.5798,-0.11007 0.98676,0.0906 1.92544,0.46942 2.88816,0.70413 -13.80469,0.13043 -27.60939,0.26086 -41.41408,0.39129 2.27568,3.13508 46.61251,-29.04783 44.33683,-32.18292 v 0 c -15.17164,0.0266 -30.34328,0.0531 -45.51493,0.0797 -0.80281,0.31771 -1.57782,0.7175 -2.40844,0.95315 -5.45545,1.54769 -11.07862,0.5177 -16.61418,0.5047 -6.78913,0.0326 -13.57872,0.19259 -20.367,0.22289 -0.97524,0.0796 -1.95233,0.13924 -2.92573,0.23885 -0.9877,0.10108 -3.94883,0.33517 -2.95637,0.36309 11.52214,0.32415 23.06023,0.0269 34.5761,0.52645 1.80378,0.0782 -3.57687,0.49493 -5.36555,0.74063 -8.64171,1.18703 -4.56157,0.65882 -13.91779,1.76133 -20.57403,1.9357 -41.28978,2.63399 -61.88303,0.40433 -19.12041,-2.02938 -38.23398,-4.22424 -57.25397,-7.05544 -8.65862,-1.04457 -8.99973,-1.17988 -17.71803,-1.85293 -13.00122,-1.00368 -26.0631,-0.9573 -39.0353,-2.38491 -3.09696,-0.32384 -6.19851,-0.60632 -9.29086,-0.97153 -5.68932,-0.6719 -11.07274,-1.57453 -16.76943,-2.151 -4.84757,-0.49053 -10.76594,-0.78056 -15.63025,-1.05219 -2.57725,-0.14392 -5.15477,-0.28312 -7.73215,-0.42468 -12.95329,-0.12765 -25.90724,-0.20004 -38.85986,-0.38295 -11.5893,-0.16366 -23.16653,-1.27549 -34.768698,-0.83391 -5.377876,0.13427 -10.755788,0.25695 -16.134074,0.37333 -1.068355,0.0231 -7.441353,0.14282 -8.733701,0.25106 -1.179326,0.0988 -2.344438,0.32538 -3.516658,0.48807 -2.111465,3.54394 48.007411,33.40457 50.118881,29.86063 z" />
    <path
       style="fill:#ff0000;fill-opacity:1;stroke:#00ff00;stroke-width:0"
       id="path1045"
       d="m 70.67668,117.78376 c 0.505353,0.38471 0.97934,0.81454 1.51606,1.15412 2.519506,1.59407 1.224169,0.18977 3.852776,2.38061 2.690789,2.24267 4.885114,5.02106 7.049011,7.74587 5.98589,7.99592 12.175796,15.83059 18.122223,23.85583 6.01908,8.03277 12.48683,15.70896 18.41669,23.81103 4.98239,6.32268 9.85192,12.7565 13.63149,19.8804 1.09038,3.48884 50.43006,-11.93155 49.33967,-15.42039 v 0 c -1.24705,-0.95131 -4.59749,-3.47024 -5.71141,-4.47699 -4.42732,-4.00139 -8.0632,-8.77611 -11.95415,-13.26968 -6.60625,-7.48235 -13.08593,-15.06643 -19.35374,-22.83394 -5.42041,-7.10602 -10.11871,-14.71434 -13.74443,-22.90323 -1.76624,-4.04273 -4.19356,-9.19662 -4.13787,-13.72675 0.003,-0.22293 0.14948,-0.42011 0.22421,-0.63016 -1.02059,-4.048223 -58.271117,10.38506 -57.25053,14.43328 z" />
    <path
       style="fill:#ff0000;fill-opacity:1;stroke:#00ff00;stroke-width:0"
       id="path1047"
       d="m 388.71809,110.13212 c -0.11044,3.85882 -0.56614,7.65852 -1.90428,11.30902 -0.95993,2.6187 -2.62774,5.65969 -3.87693,8.09599 -1.01422,1.54002 -1.94371,3.13931 -3.04266,4.62005 -6.18634,8.3356 -14.86354,16.00038 -22.79441,22.65 -6.99425,5.84135 -13.89618,11.84563 -21.41066,17.02613 -1.96564,1.35512 -10.0169,6.37812 -12.04246,7.64945 -6.04889,3.5825 -12.09122,7.25508 -18.5492,10.07565 -2.05105,0.89581 -4.17662,1.61029 -6.26494,2.41544 -1.32619,2.72943 37.27384,21.48463 38.60003,18.7552 v 0 c 1.5793,-1.16957 3.1193,-2.39416 4.73789,-3.50871 5.91912,-4.07585 12.27823,-7.45988 18.20127,-11.53038 12.19806,-8.37085 24.28373,-16.99999 35.62886,-26.50186 10.18003,-9.60159 20.12544,-19.44163 30.12857,-29.22637 3.98996,-3.76151 7.85153,-7.63989 11.99753,-11.22935 1.17076,-1.01361 3.37673,-3.22881 5.15645,-3.68019 0.48069,-0.12191 0.97585,0.17725 1.46378,0.26587 1.21523,-3.96184 -54.81362,-21.14777 -56.02884,-17.18594 z" />
    <path
       style="fill:#ff0000;fill-opacity:1;stroke:#00ff00;stroke-width:0"
       id="path1049"
       d="m 94.400382,471.53755 c -0.90716,3.30223 -3.525146,5.95312 -5.918806,8.27524 -0.770113,0.76824 -1.826088,1.92683 -2.78968,2.52463 -0.347952,0.21587 -0.783447,0.25839 -1.137107,0.46477 -0.425316,0.2482 -0.7591,0.63348 -1.180755,0.88785 -0.794801,0.47947 -1.670054,0.8135 -2.477607,1.27116 -3.292492,1.79715 -6.595233,3.74142 -10.050564,5.20073 -4.039089,2.03619 -7.994122,4.21249 -11.8284,6.6251 -2.524771,1.35308 -5.266768,2.23998 -7.718166,3.72319 -0.851333,1.82886 25.012632,13.86853 25.863965,12.03967 v 0 c 2.302807,-1.30793 4.420361,-2.92904 6.67632,-4.31649 3.658865,-2.08858 7.470152,-3.88316 11.276569,-5.67991 3.73204,-1.96982 7.531149,-3.809 11.045779,-6.16515 1.62553,-1.08962 3.29979,-2.28155 4.64235,-3.72589 1.34582,-1.44786 2.28683,-3.2381 3.60479,-4.70987 2.82389,-3.6643 5.88011,-7.13027 8.76951,-10.73906 0.40135,-2.03493 -28.376847,-7.71089 -28.778198,-5.67597 z" />
    <path
       style="fill:#ff0000;fill-opacity:1;stroke:#00ff00;stroke-width:0"
       id="path1051"
       d="m 168.76719,476.95926 c 3.36262,0.71231 5.87018,3.3367 8.53343,5.34099 2.63802,2.45644 5.56502,4.53253 8.33035,6.83216 3.68682,3.16111 6.97154,6.7226 10.14406,10.38762 3.6312,4.13289 7.6465,7.89609 11.60758,11.70532 0.4957,0.5038 0.9914,1.00759 1.4871,1.51138 0.70281,1.80165 26.18206,-8.13761 25.47924,-9.93926 v 0 c -0.58167,-0.37681 -1.16335,-0.75361 -1.74503,-1.13042 -4.06583,-3.11932 -8.15937,-6.24805 -11.603,-10.07292 -3.32934,-3.66239 -6.05382,-7.81389 -9.36982,-11.49244 -1.36202,-1.52326 -2.78601,-3.17976 -4.3213,-4.53155 -1.33945,-1.17934 -3.01923,-2.00296 -4.34279,-3.21164 -2.52442,-2.26805 -5.47516,-4.19333 -7.15829,-7.2416 -0.83739,-1.91212 -27.87891,9.93024 -27.04153,11.84236 z" />
    <path
       style="fill:#ff0000;fill-opacity:1;stroke:#00ff00;stroke-width:0"
       id="path1053"
       d="m 282.91443,476.95926 c 0.35451,0.0125 0.72124,-0.0557 1.06354,0.0374 0.97272,0.26455 2.19288,1.25954 2.91616,1.78087 2.40889,1.73629 4.71398,3.56933 7.00624,5.45639 4.33312,3.55322 8.10019,7.67601 11.64996,11.99021 2.26261,2.96073 5.36379,4.91906 8.45688,6.9003 4.04034,2.32723 8.08051,4.64935 11.9974,7.17891 0.72959,1.62856 23.76084,-8.68942 23.03125,-10.31797 v 0 c -3.53572,-2.22836 -7.00112,-4.60672 -10.16689,-7.34247 -2.48291,-2.05914 -4.69813,-4.47088 -7.60037,-5.97235 -4.88921,-3.05788 -8.96427,-7.21347 -13.13102,-11.15849 -3.00799,-3.19022 -6.11804,-6.50012 -8.18163,-10.39517 -0.83738,-1.91212 -27.87891,9.93024 -27.04152,11.84236 z" />
    <path
       style="fill:#ff0000;fill-opacity:1;stroke:#00ff00;stroke-width:0"
       id="path1055"
       d="m 379.17435,479.34829 c 2.50594,0.16569 4.57716,2.05424 6.32414,3.72297 1.97735,1.66578 3.93205,3.34851 5.78487,5.16377 1.75341,2.12804 3.8377,3.92298 5.6997,5.93414 2.61667,2.45523 5.49811,4.59588 8.28553,6.84907 2.62521,1.75751 5.10761,3.72751 7.752,5.45453 0.85407,1.79992 26.30879,-10.27844 25.45472,-12.07836 v 0 c -2.64419,-1.32003 -5.42389,-2.33389 -7.87571,-4.0391 -2.61315,-1.57876 -4.73267,-3.75387 -6.88836,-5.8917 -1.6341,-1.14177 -0.0576,0.0727 -1.79516,-1.75471 -2.95929,-3.11242 0.7925,0.99695 -1.73686,-1.30756 -0.64554,-0.58816 -1.03999,-1.42208 -1.78266,-1.91989 -1.93267,-2.27051 -4.07318,-4.42191 -6.39482,-6.26822 -2.31027,-1.87023 -4.45264,-4.06404 -6.22322,-6.44474 -0.88953,-1.8812 -27.4937,10.6986 -26.60417,12.5798 z" />
  </g>
</svg>
