<?xml version="1.0" encoding="UTF-8" standalone="no"?>
<svg
   xmlns:dc="http://purl.org/dc/elements/1.1/"
   xmlns:cc="http://creativecommons.org/ns#"
   xmlns:rdf="http://www.w3.org/1999/02/22-rdf-syntax-ns#"
   xmlns:svg="http://www.w3.org/2000/svg"
   xmlns="http://www.w3.org/2000/svg"
   xmlns:sodipodi="http://sodipodi.sourceforge.net/DTD/sodipodi-0.dtd"
   xmlns:inkscape="http://www.inkscape.org/namespaces/inkscape"
   width="1538px"
   height="1080px"
   viewBox="0 0 1538 1080"
   version="1.1"
   id="SVGRoot"
   sodipodi:docname="welcome.svg"
   inkscape:version="1.0.2-2 (e86c870879, 2021-01-15)">
  <defs
     id="defs1162" />
  <sodipodi:namedview
     id="base"
     pagecolor="#ffffff"
     bordercolor="#666666"
     borderopacity="1.0"
     inkscape:pageopacity="0.0"
     inkscape:pageshadow="2"
     inkscape:zoom="0.35"
     inkscape:cx="731.42857"
     inkscape:cy="674.28571"
     inkscape:document-units="px"
     inkscape:current-layer="layer1"
     inkscape:document-rotation="0"
     showgrid="false"
     inkscape:window-width="1431"
     inkscape:window-height="1030"
     inkscape:window-x="128"
     inkscape:window-y="0"
     inkscape:window-maximized="0" />
  <metadata
     id="metadata1165">
    <rdf:RDF>
      <cc:Work
         rdf:about="">
        <dc:format>image/svg+xml</dc:format>
        <dc:type
           rdf:resource="http://purl.org/dc/dcmitype/StillImage" />
        <dc:title></dc:title>
      </cc:Work>
    </rdf:RDF>
  </metadata>
  <g
     inkscape:label="Layer 1"
     inkscape:groupmode="layer"
     id="layer1">
    <text
       xml:space="preserve"
       style="font-style:normal;font-weight:normal;font-size:40px;line-height:1.25;font-family:sans-serif;fill:#66b933;fill-opacity:0.7019608;stroke:none;"
       x="71.428574"
       y="491.42856"
       id="text1189"><tspan
         sodipodi:role="line"
         id="tspan1187"
         x="71.428574"
         y="491.42856" /></text>
    <path
       style="fill:#66b933;fill-opacity:0.7019608;fill-rule:nonzero;stroke:none"
       id="path1231"
       d="m 312.2077,196.03733 c -4.40772,-9.70461 -8.21425,-19.67925 -11.91076,-29.67501 -4.02385,-10.67737 -15.60707,-14.42562 -25.5986,-17.70785 -9.65689,-1.94262 -18.52769,-6.18145 -27.71812,-9.5178 -10.64722,-2.66211 -21.24715,2.50472 -30.81336,6.72781 -22.39487,11.87809 -46.4142,22.25424 -64.49417,40.35658 -8.02546,6.96715 -14.26447,15.31667 -18.58635,24.97472 -4.29853,11.05695 -6.42499,22.66149 -7.92242,34.37253 -0.9334,10.57943 3.09499,20.23806 6.25814,30.07146 3.24403,9.76617 9.51537,18.09454 15.26286,26.50342 4.75522,9.51583 12.44239,15.84488 21.22008,21.45058 10.85263,7.90217 23.89759,9.19412 36.8425,10.45005 11.2903,1.16736 22.65609,0.85672 33.97036,1.47957 11.46133,1.16016 22.3787,5.14506 33.28541,8.63368 8.74356,2.45855 17.26509,5.62074 25.79684,8.71782 10.72212,4.65963 20.30566,11.44784 29.10089,19.07019 11.38,10.26193 15.24182,20.66765 18.12276,35.34464 2.45058,16.38055 2.64873,32.92634 1.52887,49.41239 -1.57602,8.30164 -1.43669,17.79609 -6.78008,24.87352 -1.0997,1.45658 -2.5468,2.6149 -3.82021,3.92235 -11.29242,11.87041 -70.81325,44.69688 -9.05453,8.95768 -13.29292,7.93059 -26.84807,11.63958 -42.22304,11.74925 -14.84788,-1.13636 -28.38907,-7.09999 -41.71795,-13.26415 -12.58053,-5.524 -25.5539,-9.95143 -37.68421,-16.45279 -11.88042,-6.8025 -18.13712,-15.80859 -22.73836,-28.42221 -2.0938,-8.78675 -1.27661,-19.23088 4.54669,-26.62996 0.88722,-1.12731 2.08718,-1.96866 3.13077,-2.95298 16.41771,-8.70976 -11.93531,6.23696 -27.09765,16.78142 -1.53855,1.06997 3.64928,-0.87963 5.5048,-1.14236 5.22619,-0.73998 10.45382,-0.45739 15.68349,-0.0564 6.66216,0.96721 13.23823,2.47505 19.68895,4.3836 0,0 34.71427,-23.67013 34.71427,-23.67013 v 0 c -6.64048,-2.1198 -13.48309,-3.41009 -20.27525,-4.9657 -26.04372,-3.45499 -45.48631,4.5253 -66.89686,25.04787 -6.89172,9.91984 -8.78052,21.72006 -5.35705,33.39082 5.19726,13.73764 11.47971,23.2007 24.27419,30.98653 12.17336,6.64838 25.09408,11.39152 37.9275,16.59583 13.71549,6.40492 27.55427,12.65916 42.72406,14.6505 6.0563,0.30254 8.78935,0.72639 14.79205,-0.0881 10.21714,-1.38628 20.04989,-5.1775 29.04969,-10.07552 14.33105,-8.27267 28.67607,-16.5212 42.99316,-24.818 12.97161,-7.51708 25.92358,-15.51163 36.45191,-26.31788 1.19229,-1.62742 2.53763,-3.15309 3.57686,-4.88227 4.68744,-7.79948 4.3326,-17.51934 5.62816,-26.20515 0.80673,-16.77723 0.24822,-33.59408 -2.17588,-50.23737 -2.87905,-15.07119 -7.50532,-27.37884 -19.16273,-37.92994 -9.09098,-7.87295 -18.8506,-14.98532 -29.52722,-20.58027 -8.60432,-3.27097 -17.37708,-6.2516 -26.25225,-8.68632 -11.15135,-3.36167 -22.06931,-7.66262 -33.60679,-9.56354 -11.42669,-1.07776 -22.97397,0.0227 -34.41821,-1.09285 -12.2851,-0.97707 -24.9429,-1.77162 -35.36283,-9.08626 -9.15,-5.59671 -15.11377,-10.32187 -20.30749,-19.97367 -5.49108,-8.11662 -11.54825,-16.08396 -14.64989,-25.49618 -3.06539,-9.24376 -6.60158,-18.45104 -5.46524,-28.39351 1.45819,-11.37274 3.76895,-22.64962 8.55041,-33.14947 4.82774,-9.00613 11.2982,-16.76514 18.97808,-23.527 12.87867,-11.58865 29.55533,-19.30067 -21.5997,9.70749 -1.56734,0.88878 3.15951,-1.73351 4.72296,-2.62913 8.70483,-4.98659 1.19867,-0.94937 10.10117,-5.61008 8.96385,-4.1424 18.55047,-9.50614 28.67205,-9.05126 9.44484,2.90842 18.32345,7.466 28.08049,9.40464 6.03036,1.71257 17.96425,5.21683 21.70255,10.61652 0.81644,1.17928 1.22118,2.59573 1.83177,3.8936 3.84157,9.83986 7.8148,19.63134 11.29144,29.60751 0,0 37.21102,-20.28351 37.21102,-20.28351 z" />
    <path
       style="fill:#66b933;fill-opacity:0.7019608;fill-rule:nonzero;stroke:none"
       id="path1237"
       d="m 416.67034,409.60348 c 11.62419,-0.42548 23.25561,0.0449 34.87529,-0.45159 11.23925,-0.94135 22.14905,-4.43519 32.2377,-9.37714 -1.54143,-5.35789 41.56501,-17.42086 48.93175,-33.08596 1.24164,-2.64031 1.63812,-5.71812 2.1781,-8.53394 2.0437,-12.51063 -0.24064,-20.60424 -8.40327,-30.22161 -7.87091,-8.03316 -17.71277,-11.77362 -28.64318,-13.22233 -6.85278,-0.0313 -14.32522,1.11218 -20.41319,4.54366 -40.15123,22.63123 -29.96659,11.8138 -43.23438,26.93092 -6.44748,7.36195 -10.42663,16.1404 -12.82102,25.5339 -2.41706,11.50162 -3.05967,23.31329 -4.06458,35.00954 -1.37301,11.97524 -1.22853,23.90282 -0.29212,35.88615 3.94027,14.21676 15.91179,23.79394 26.74504,32.95078 13.18159,11.12345 25.68505,16.59164 42.40472,20.00355 9.43389,1.05696 4.82864,0.80338 13.81097,0.84267 0,0 33.58934,-24.5729 33.58934,-24.5729 v 0 c -8.74104,0.62086 -4.24789,0.57642 -13.48006,0.0396 -16.34882,-2.8269 -28.355,-7.46195 -41.33465,-18.18305 -10.02878,-8.31144 -21.27323,-17.2247 -24.52407,-30.43949 -1.0736,-11.69094 -1.04876,-23.35647 0.24043,-35.04676 1.06576,-11.5335 1.99789,-23.1911 4.79515,-34.45642 2.9325,-8.79954 6.9,-17.05501 13.71322,-23.57182 12.78011,-10.50746 6.22293,-4.77657 -28.3841,15.13477 -1.40555,0.8087 2.86799,-1.52009 4.35124,-2.17548 1.43682,-0.63487 8.19473,-3.18849 9.69967,-3.52437 1.66402,-0.37138 3.38915,-0.3757 5.08373,-0.56356 10.12906,0.36967 19.44374,3.37943 26.9116,10.50697 7.72706,8.62602 8.80176,15.52633 6.34922,26.76059 -1.03344,3.30931 -1.03626,4.26099 -2.98822,7.06404 -8.03871,11.54375 -41.80601,24.40392 22.27847,-9.88401 -9.21589,5.9989 -20.38852,9.01635 -31.14067,10.9501 -11.36532,0.80854 -22.78555,0.42791 -34.17098,0.23194 0,0 -34.30115,24.92124 -34.30115,24.92124 z" />
    <path
       style="fill:#66b933;fill-opacity:0.7019608;fill-rule:nonzero;stroke:none"
       id="path1239"
       d="m 578.31254,215.52754 c 0.59306,15.73615 0.52269,31.49253 0.48135,47.23778 0.0215,16.29227 -0.078,32.58429 -0.10017,48.87643 -0.0232,16.3311 0.12828,32.66136 0.0823,48.99267 -0.005,15.4083 -0.10766,30.81664 -0.11556,46.22498 -0.64037,15.35332 1.00085,30.56133 3.55141,45.67178 2.0456,15.47381 5.24619,30.74604 7.77085,46.13962 2.13614,11.79979 4.88227,23.53163 9.05939,34.78566 2.73958,6.92059 8.1189,10.00796 14.93194,11.92729 0,0 34.61761,-23.97652 34.61761,-23.97652 v 0 c -5.77906,-0.98794 -10.43033,-2.49185 -12.84472,-8.35778 -4.21649,-10.91681 -7.16162,-22.27409 -9.17881,-33.79926 -2.68101,-15.36597 -5.76843,-30.64825 -7.781,-46.12452 -2.47047,-14.9342 -3.84934,-29.94353 -3.1619,-45.10075 -0.008,-15.3691 -0.11065,-30.73818 -0.11556,-46.10723 -0.0462,-16.35927 0.10571,-32.71749 0.0823,-49.07655 -0.0222,-16.25812 -0.1218,-32.5161 -0.10017,-48.77435 -0.0419,-15.90889 -0.10415,-31.82816 0.48135,-47.7283 0,0 -37.66063,19.18905 -37.66063,19.18905 z" />
    <path
       style="fill:#66b933;fill-opacity:0.7019608;fill-rule:nonzero;stroke:none"
       id="path1245"
       d="m 783.49378,344.15848 c -10.07279,-4.56086 -19.9237,-9.45635 -30.70241,-12.07541 -9.00391,-1.0783 -17.92359,0.32079 -25.88109,4.81344 -40.19823,22.69516 -29.30126,14.36913 -46.43017,28.1153 -10.3915,7.30137 -18.0582,17.05559 -25.43147,27.19444 -6.59417,9.23086 -11.32928,19.73918 -14.05322,30.72999 -1.19719,8.94525 -3.84446,18.8924 -0.77453,27.77623 0.65205,1.88692 1.75385,3.587 2.63077,5.38049 9.38534,12.90352 24.63902,16.33605 39.59981,18.41156 17.70086,0.83603 34.80474,-2.17208 50.57511,-10.27086 38.26728,-21.47539 45.1086,-19.96344 56.19806,-54.06835 4.25993,-15.16614 6.2535,-30.87709 7.92195,-46.50964 2.34142,-21.83635 11.03361,-19.04821 -36.08485,10.57106 -0.90206,0.56704 0.12419,2.12747 0.16672,3.19211 0.0635,1.58899 0.10083,3.17891 0.15125,4.76836 0.34544,13.4648 -0.13746,26.93195 0.53841,40.38623 0.75663,11.73295 1.43798,23.44647 2.90675,35.11236 1.71958,10.78123 3.72671,21.42042 9.43803,30.84376 4.68819,8.81602 11.85583,14.78877 20.41924,19.55371 4.78799,2.60215 9.87239,4.57216 14.58319,7.31235 0,0 35.50328,-22.97733 35.50328,-22.97733 v 0 c -4.77262,-2.92422 -10.11101,-4.57845 -15.01981,-7.27083 -8.09639,-4.13815 -14.87869,-9.48888 -19.21295,-17.69213 -5.51881,-8.8465 -7.14217,-19.0647 -8.66063,-29.25177 -1.52719,-11.50126 -2.14123,-23.08914 -3.05956,-34.65099 -0.59874,-13.4644 -0.12701,-26.95584 -0.0968,-40.43046 0.023,-1.65284 0.0559,-3.30556 0.0689,-4.95851 0.009,-1.1949 1.12365,-3.98609 -0.002,-3.58482 -42.45597,15.13585 -37.1039,5.0515 -38.75021,27.50041 -1.58342,15.40298 -3.704,30.85053 -8.34187,45.67264 -2.33631,6.46909 -4.61237,12.74905 -8.42626,18.53281 -8.36878,12.69126 -32.47654,23.28592 22.01938,-8.11303 -5.31969,3.25862 -7.20354,4.78094 -13.21045,6.91328 -11.51195,4.08654 -23.95411,5.55089 -36.09106,5.69575 -13.40201,-1.52827 -27.98025,-4.07127 -36.76417,-15.31983 -0.69365,-1.47588 -1.59885,-2.86978 -2.08095,-4.42765 -2.59476,-8.38485 0.23672,-17.78966 1.64152,-26.0849 3.21775,-10.50383 7.80173,-20.54649 14.56239,-29.28274 7.39277,-9.89599 15.58742,-18.92675 25.79849,-26.046 14.81234,-10.5194 5.71882,-3.79985 -24.60706,13.27407 -1.99563,1.12357 3.83606,-2.52984 5.9043,-3.51338 5.67923,-2.70074 11.89977,-3.5314 18.1172,-3.50833 10.64127,1.93723 20.00591,6.72389 29.62377,11.52126 0,0 35.31292,-23.23465 35.31292,-23.23465 z" />
    <path
       style="font-variation-settings:normal;opacity:1;vector-effect:none;fill:#66b933;fill-opacity:0.7019608;stroke-width:5.77231;stroke-linecap:butt;stroke-linejoin:miter;stroke-miterlimit:4;stroke-dasharray:none;stroke-dashoffset:0;stroke-opacity:1;stop-color:#000000;stop-opacity:1"
       id="path1247"
       d="m 924.60298,476.55482 c -0.81199,-15.45666 -0.48522,-30.91522 0.20361,-46.36631 1.33398,-15.84573 4.013,-31.66041 8.4343,-46.94684 1.65731,-6.73436 4.44788,-13.70914 9.25436,-18.89542 2.4857,-2.68211 5.20418,-4.08863 8.25449,-5.97944 -58.319,35.75575 -37.8965,19.58745 -24.27651,15.71571 3.50491,-0.99634 7.05231,-1.34801 10.66599,-1.6508 1.87586,-0.0804 4.69999,-0.42545 6.57345,0.30643 5.91298,2.30996 8.27146,10.76161 10.15429,15.95675 3.87991,13.18052 4.59325,26.86689 3.82091,40.49513 -0.004,0.0355 -0.55996,6.7327 -1.1156,7.71261 -0.15491,0.27319 -1.19975,-0.0424 -0.92273,-0.19036 12.77125,-6.82039 26.2032,-12.43817 38.59393,-19.92767 1.06632,-0.64454 0.29897,-2.47478 0.50262,-3.70401 0.30705,-1.85338 0.68602,-3.69412 1.02902,-5.54119 4.005,-16.27796 12.06669,-30.46442 22.92479,-43.0887 10.6929,-9.87938 38.7166,-27.47629 -17.7344,8.1619 -1.68724,1.06519 3.6255,-1.67856 5.4987,-2.36607 4.2588,-1.56307 6.1252,-1.78495 10.4725,-2.67654 12.4349,-1.65916 14.01,4.82395 17.3656,15.36135 2.7012,11.29896 3.8699,23.01481 2.8545,34.6207 -0.6255,7.14895 -1.946,12.0882 -3.4794,19.06712 -4.5465,16.0782 -10.8824,31.33152 -20.9792,44.69089 -11.2833,12.50465 -24.50227,23.00483 -36.36693,34.9317 0,0 38.37663,-15.89947 38.37663,-15.89947 v 0 c 11.9264,-11.89728 25.3029,-22.37447 35.9611,-35.49128 9.5497,-14.0193 15.7639,-29.63655 19.8992,-46.08227 3.6682,-18.52598 4.9854,-37.29661 0.1607,-55.80064 -3.3852,-11.16578 -6.7111,-21.44947 -20.3804,-20.58991 -26.5089,4.09561 -50.9341,19.14676 -69.56131,38.22387 -10.45145,13.4548 -18.58928,28.46436 -22.56936,45.15337 -0.41424,1.95743 -0.86957,3.90661 -1.24272,5.87229 -0.27236,1.43478 -2.0834,4.77345 -0.69323,4.32601 41.92467,-13.49385 37.66757,-4.30975 38.6047,-25.52451 0.36895,-14.10414 -0.61005,-28.27404 -4.63737,-41.87677 -2.62262,-7.4039 -6.43011,-19.3567 -15.54164,-21.15966 -1.18351,-0.23419 -2.41261,0.0387 -3.61891,0.0581 -24.51823,0.935 -34.65155,10.67406 -59.29751,26.29848 -9.01796,7.31783 -13.80274,16.07283 -16.16788,27.44332 -3.78388,15.55291 -6.40622,31.41876 -7.37423,47.40697 -0.778,15.73281 -1.03537,31.45966 -1.42345,47.20372 0,0 37.77739,-19.24853 37.77739,-19.24853 z" />
    <path
       style="font-variation-settings:normal;opacity:1;vector-effect:none;fill:#66b933;fill-opacity:0.7019608;stroke-width:5.77231;stroke-linecap:butt;stroke-linejoin:miter;stroke-miterlimit:4;stroke-dasharray:none;stroke-dashoffset:0;stroke-opacity:1;stop-color:#000000;stop-opacity:1"
       id="path1249"
       d="m 1207.6812,393.14481 c -17.5285,-1.16971 -35.1351,-1.07565 -52.6719,-0.15209 -24.4895,1.5994 -49.5499,12.14308 -65.7107,31.44575 -7.7888,12.42079 -9.1577,27.65068 -9.5746,41.98975 0.093,13.72754 4.1148,26.68598 11.9991,37.85839 5.5557,6.55507 13.0301,11.95827 22.0428,11.56727 2.0757,-0.0901 4.1027,-0.65891 6.1541,-0.98837 7.118,-2.55138 7.562,-2.34526 14.3241,-6.35285 14.2782,-8.46195 28.7486,-16.63154 42.6151,-25.75241 6.3962,-4.20718 15.1232,-16.78637 19.4877,-23.0799 8.0413,-14.33127 15.0685,-29.34465 21.365,-44.53627 1.7408,-4.81548 2.2756,-9.91031 3.2621,-14.89899 0.1732,-0.87592 0.1306,-1.85157 0.6013,-2.61031 0.1545,-0.24911 1.0749,0.17995 0.8184,0.32192 -12.6596,7.00762 -25.5351,13.61807 -38.3026,20.4271 1.1422,14.63344 -1.1371,29.20311 -2.58,43.73159 -1.8781,15.1936 -2.2856,30.35851 0.6974,45.40601 2.7851,12.46646 11.7798,21.20374 21.0663,29.28475 0,0 35.3585,-22.04409 35.3585,-22.04409 v 0 c -8.762,-7.3846 -17.1053,-15.28266 -19.572,-26.95299 -2.9997,-14.55709 -2.6012,-29.26254 -0.7487,-43.97726 1.5586,-14.95536 3.6724,-29.89807 3.4774,-44.9708 -12.86,5.41013 -25.8709,10.47463 -38.5798,16.23039 -0.3486,0.15784 0.2916,0.72783 0.2904,1.11043 0,0.83667 -0.1799,1.66407 -0.302,2.49178 -0.7011,4.75315 -1.6779,9.46848 -3.4328,13.96029 -6.014,14.83398 -12.3746,29.69938 -20.919,43.26684 -5.5156,7.33255 -6.4701,9.19522 -13.0196,15.57616 -2.294,2.23494 -10.1543,7.62089 -7.2184,6.34124 9.6815,-4.21974 18.4221,-10.33718 27.7498,-15.29001 2.3581,-1.25209 -4.4697,2.93629 -6.8309,4.18253 -2.074,1.0947 -4.296,1.88269 -6.444,2.82404 -1.7975,0.59538 -3.5335,1.42581 -5.3924,1.78616 -7.9266,1.53657 -14.8816,-2.65336 -20.0035,-8.29703 -7.5559,-10.31814 -11.0978,-22.42325 -11.0488,-35.23411 0.737,-13.74455 2.1509,-28.50014 11.3448,-39.44296 12.6765,-10.95496 6.8491,-5.48682 -28.1645,14.65189 -1.3623,0.78359 2.8065,-1.43037 4.2782,-1.9819 5.652,-2.11815 11.7045,-3.04601 17.684,-3.54671 17.1347,-1.48932 34.4721,-1.74459 51.5899,0.11019 0,0 34.3098,-24.45542 34.3098,-24.45542 z" />
    <path
       style="font-variation-settings:normal;opacity:1;vector-effect:none;fill:#66b933;fill-opacity:0.7019608;stroke-width:5.77231;stroke-linecap:butt;stroke-linejoin:miter;stroke-miterlimit:4;stroke-dasharray:none;stroke-dashoffset:0;stroke-opacity:1;stop-color:#000000;stop-opacity:1"
       id="path1251"
       d="m 1304.0852,321.89561 c 0.6337,18.56815 0.6014,37.1561 0.6035,55.73359 -0.6491,21.58927 2.3121,42.53128 9.2754,62.94276 4.1737,9.98198 8.6279,20.09644 15.7385,28.39558 3.7218,4.34392 5.5339,5.54921 9.8728,9.16016 11.9843,8.73635 26.6374,11.05235 40.9906,12.83859 5.5781,0.46878 11.1249,-0.0848 16.6309,-0.93379 1.1327,-0.17467 2.2528,-0.42543 3.3859,-0.59735 0.4969,-0.0754 1.1069,0.16795 1.5009,-0.14413 10.6416,-8.42965 20.9399,-17.28387 31.4098,-25.9258 -1.7537,-0.16394 -3.5075,-0.32787 -5.2613,-0.4918 0,0 -34.1072,24.35153 -34.1072,24.35153 v 0 c 1.5352,0.10894 3.0704,0.21787 4.6056,0.32681 12.1997,-8.28324 24.3365,-16.65998 36.5992,-24.84972 0.4629,-0.30915 -0.6665,0.95666 -1.1721,1.18947 -5.9785,2.75271 -13.4743,2.15161 -19.7886,3.08933 -13.7363,-1.37957 -27.7474,-3.1709 -39.5311,-10.97592 -4.1048,-3.22103 -5.9377,-4.38578 -9.4872,-8.28935 -7.0463,-7.74912 -11.3095,-17.48028 -15.5048,-26.94063 -6.8088,-19.88735 -9.5761,-40.62652 -8.8204,-61.66032 0,-18.7826 -0.023,-37.57498 0.6035,-56.34858 0,0 -37.5439,19.12957 -37.5439,19.12957 z" />
    <path
       style="font-variation-settings:normal;opacity:1;vector-effect:none;fill:#66b933;fill-opacity:0.7019608;stroke-width:5.77231;stroke-linecap:butt;stroke-linejoin:miter;stroke-miterlimit:4;stroke-dasharray:none;stroke-dashoffset:0;stroke-opacity:1;stop-color:#000000;stop-opacity:1"
       id="path1253"
       d="m 1262.7529,395.29851 c 15.5183,-0.0894 31.0051,-0.53958 46.4741,-1.8199 10.728,-0.7945 21.3666,-2.90576 32.1299,-3.20107 0.556,0.11071 1.1119,0.22142 1.6678,0.33213 0,0 35.2882,-23.49409 35.2882,-23.49409 v 0 c -0.9227,-0.53073 -1.8454,-1.06147 -2.768,-1.5922 -11.1342,-0.61178 -22.1659,2.69058 -33.2346,3.44105 -15.0536,1.58913 -30.1789,2.10205 -45.3093,1.45135 0,0 -34.2481,24.88273 -34.2481,24.88273 z" />
    <path
       style="font-variation-settings:normal;opacity:1;vector-effect:none;fill:#66b933;fill-opacity:0.7019608;stroke-width:5.77231;stroke-linecap:butt;stroke-linejoin:miter;stroke-miterlimit:4;stroke-dasharray:none;stroke-dashoffset:0;stroke-opacity:1;stop-color:#000000;stop-opacity:1"
       id="path1255"
       d="m 400.64107,695.99939 c 9.96851,19.75095 12.70848,42.07454 15.2904,63.75633 2.56859,25.57111 2.95668,51.28396 3.07146,76.96134 0.0723,18.47902 -0.042,36.95819 -0.21027,55.43638 -0.30694,9.68516 0.51443,19.53329 -1.37412,29.11625 -1.45718,7.39408 -2.44773,8.7136 -5.41276,15.81799 -4.69665,10.94067 -10.86682,20.99156 -18.22973,30.29988 0,0 38.07442,-16.42309 38.07442,-16.42309 v 0 c 6.85088,-9.78739 12.75357,-20.14469 17.47372,-31.1441 2.87949,-7.58189 3.89543,-9.11349 5.25439,-16.95626 1.68259,-9.71046 0.84684,-19.67241 1.03135,-29.4587 -0.0789,-18.42721 -0.0351,-36.85494 -0.22344,-55.28156 -0.5002,-25.67134 -1.53079,-51.34319 -4.09223,-76.90275 -2.54372,-22.61593 -5.31863,-45.5613 -14.23198,-66.72151 0,0 -36.42121,21.4998 -36.42121,21.4998 z" />
    <path
       style="font-variation-settings:normal;opacity:1;vector-effect:none;fill:#66b933;fill-opacity:0.7019608;stroke-width:5.77231;stroke-linecap:butt;stroke-linejoin:miter;stroke-miterlimit:4;stroke-dasharray:none;stroke-dashoffset:0;stroke-opacity:1;stop-color:#000000;stop-opacity:1"
       id="path1259"
       d="m 382.85954,732.72473 c 14.09312,2.26526 28.25422,3.31356 42.11798,6.84874 13.65281,3.55057 25.105,11.55694 36.01196,20.163 9.51055,6.76375 17.24058,15.12217 22.72802,25.39635 6.19182,12.46046 10.16745,25.69022 12.63389,39.33586 2.69066,14.93131 1.55626,30.00481 -1.38822,44.78441 -2.47497,14.93809 -6.01574,26.58486 -14.18751,39.33824 -7.13299,12.17334 -18.41179,20.43699 -29.21197,29.09022 -11.92056,8.51389 -36.7141,23.30761 21.10017,-11.55307 1.59502,-0.96177 -3.31091,1.7103 -5.00521,2.4839 -3.83933,1.75299 -6.56862,2.67815 -10.53321,4.14514 -10.99997,4.10189 -22.12593,7.87042 -33.35826,11.28551 -1.04596,0.14587 -2.09192,0.29174 -3.13788,0.43762 0.25332,0.27256 1.05651,0.5929 0.75997,0.81768 -10.52553,7.97864 -21.96073,14.74188 -32.23516,23.04138 -1.62927,1.31609 4.00015,-1.24317 6.00403,-1.85236 2.85431,-0.86773 5.71362,-1.71891 8.57043,-2.57837 0,0 32.61828,-25.15207 32.61828,-25.15207 v 0 c -24.66098,7.0493 -17.70722,3.22027 -51.58,28.50195 -0.73009,0.54492 0.94562,1.72152 1.78887,2.06633 1.24914,0.51078 2.69086,0.2104 4.03629,0.3156 11.34259,-3.28916 22.51144,-7.18886 33.61982,-11.18652 23.73824,-8.314 46.02588,-20.73386 65.87101,-36.2543 10.93787,-8.92771 21.79493,-17.94702 28.79796,-30.4901 7.13807,-12.61845 11.01954,-26.18972 13.18822,-40.51385 2.63967,-15.32467 3.98987,-30.84844 0.87897,-46.23638 -2.71512,-14.00643 -6.76662,-27.69424 -13.10196,-40.53304 -5.74985,-10.70058 -13.43197,-20.03509 -23.5754,-26.90259 -11.35132,-8.82211 -23.1779,-17.33683 -37.17995,-21.37286 -13.62466,-3.95545 -27.61108,-4.95276 -41.51277,-7.50883 0,0 -34.71837,24.08241 -34.71837,24.08241 z" />
    <path
       style="font-variation-settings:normal;opacity:1;vector-effect:none;fill:#66b933;fill-opacity:0.7019608;stroke-width:5.77231;stroke-linecap:butt;stroke-linejoin:miter;stroke-miterlimit:4;stroke-dasharray:none;stroke-dashoffset:0;stroke-opacity:1;stop-color:#000000;stop-opacity:1"
       id="path1267"
       d="m 626.93885,827.40161 c -10.20261,-3.07747 -20.76567,-2.60011 -30.96639,0.0371 -26.77261,9.03431 -48.033,23.4933 -63.48375,45.8478 -7.79969,10.52876 -12.01492,22.8289 -14.99537,35.4383 -2.81131,13.54624 -1.58543,18.36525 5.30328,30.08159 5.33032,9.06297 13.56778,13.53276 23.11301,17.0261 16.43548,5.01243 27.38994,1.54305 42.08757,-6.15296 23.369,-12.92107 48.98969,-23.73588 59.46126,-49.57431 1.04988,-2.59056 1.72095,-5.31896 2.58143,-7.97844 4.52106,-17.59319 7.55949,-35.49893 9.71714,-53.52046 -0.65251,-4.72683 2.58075,-12.74187 1.25836,-17.42595 -0.46783,-1.6571 -3.44805,-5.00521 -5.73663,-3.86847 -13.49071,6.70084 -26.16322,14.93616 -39.24483,22.40424 -8.51077,5.78923 -9.69684,14.59721 -10.59067,24.156 -0.26969,19.07149 1.09467,38.08274 2.62531,57.07476 0.67716,15.10195 3.4045,29.93121 6.28914,44.72714 2.33734,13.7988 2.96961,19.93269 14.46236,28.64004 1.32209,0.75151 2.64417,1.50302 3.96626,2.25453 0,0 35.14864,-23.04318 35.14864,-23.04318 v 0 c -1.23304,-0.57943 -2.46608,-1.15886 -3.69912,-1.73829 -11.01319,-7.26512 -10.75097,-13.23565 -13.31408,-25.65664 -2.96327,-14.61629 -5.2712,-29.34561 -6.25422,-44.24283 -1.82679,-18.73521 -3.57917,-37.57319 -1.9205,-56.39964 1.74875,-9.87271 3.73173,-15.79081 12.60821,-21.14719 -11.23653,6.2439 -22.23366,12.93953 -33.70957,18.73171 -3.23386,1.63221 1.79637,-3.10893 1.88776,-2.72414 0.28565,1.2027 0.15303,2.47036 0.12778,3.70626 -0.0738,3.61038 -0.64541,9.48826 -0.93563,12.88867 -1.9609,17.76665 -4.92538,35.51178 -10.09032,52.6489 -2.83939,7.18868 -5.7966,13.71354 -10.72088,19.7698 -9.65845,11.8787 -35.51394,25.87166 18.30657,-5.69099 -13.0451,7.69027 -24.31931,13.22716 -39.67908,8.72777 -8.66543,-2.83884 -16.51396,-6.50093 -21.50803,-14.53132 -6.2834,-10.90992 -6.58417,-14.77166 -3.84102,-27.23838 3.01393,-12.18126 7.66528,-23.75053 15.34436,-33.81171 4.25914,-5.5948 8.59539,-10.97378 14.00864,-15.52616 1.51969,-1.27802 6.52889,-4.4948 4.77941,-3.5556 -58.335,31.31681 -38.00954,21.11557 -26.43171,15.36639 9.18426,-3.66011 19.32901,-4.73713 28.92359,-1.87069 0,0 35.12172,-23.82973 35.12172,-23.82973 z" />
    <path
       style="font-variation-settings:normal;opacity:1;vector-effect:none;fill:#66b933;fill-opacity:0.7019608;stroke-width:5.77231;stroke-linecap:butt;stroke-linejoin:miter;stroke-miterlimit:4;stroke-dasharray:none;stroke-dashoffset:0;stroke-opacity:1;stop-color:#000000;stop-opacity:1"
       id="path1269"
       d="m 703.99764,766.62922 c 0.58038,14.59789 0.4681,29.21265 0.48882,43.8191 -0.25609,16.10919 0.38208,32.23295 2.05312,48.25772 1.03301,14.72644 5.51165,28.81434 9.50356,42.93658 4.4366,16.10219 9.75371,31.95514 15.77182,47.53193 7.00091,17.92172 13.38734,19.83874 31.86825,22.98335 13.74304,1.89599 27.43885,-0.18878 40.62491,-4.0944 34.97195,-25.98311 47.41166,-21.7683 29.47055,-26.15502 0,0 -34.33866,24.49554 -34.33866,24.49554 v 0 c 16.81136,-2.72891 1.96025,0.0725 38.21259,-24.40139 -12.65271,5.44128 -26.54307,7.79019 -40.27334,6.43004 -6.75046,-0.86342 -15.13018,-1.40351 -20.91119,-5.62052 -4.36737,-3.18583 -6.01807,-9.40796 -8.32,-13.92742 -6.32399,-15.26301 -11.81315,-30.88213 -15.98464,-46.87814 -3.70747,-14.02027 -7.4894,-28.048 -8.86315,-42.53327 -1.78125,-15.84548 -2.29667,-31.80585 -2.07245,-47.74566 0.0209,-14.77259 -0.0849,-29.55289 0.48882,-44.31724 0,0 -37.71901,19.2188 -37.71901,19.2188 z" />
    <path
       style="font-variation-settings:normal;opacity:1;vector-effect:none;fill:#66b933;fill-opacity:0.7019608;stroke-width:5.77231;stroke-linecap:butt;stroke-linejoin:miter;stroke-miterlimit:4;stroke-dasharray:none;stroke-dashoffset:0;stroke-opacity:1;stop-color:#000000;stop-opacity:1"
       id="path1271"
       d="m 682.91056,903.73893 c 16.80107,-1.15772 33.24177,-4.18187 49.47161,-8.62124 10.70279,-3.13515 21.50623,-5.90871 32.28731,-8.75945 9.20152,-2.55387 18.4585,-4.72026 27.27497,-8.45555 0,0 32.9054,-26.24125 32.9054,-26.24125 v 0 c -8.49158,4.58256 -17.53152,6.63014 -26.75064,9.09813 -11.08509,2.77621 -22.0264,6.14159 -33.04634,9.16542 -15.66613,4.91174 -31.70534,8.53667 -48.2095,8.50969 0,0 -33.93281,25.30425 -33.93281,25.30425 z" />
    <path
       style="font-variation-settings:normal;opacity:1;vector-effect:none;fill:#66b933;fill-opacity:0.7019608;stroke-width:5.77231;stroke-linecap:butt;stroke-linejoin:miter;stroke-miterlimit:4;stroke-dasharray:none;stroke-dashoffset:0;stroke-opacity:1;stop-color:#000000;stop-opacity:1"
       id="path1275"
       d="m 935.09075,778.77167 c -9.41363,-1.99575 -19.20723,-4.32403 -28.8905,-2.88364 -2.6835,0.39917 -5.28716,1.21984 -7.93073,1.82977 -23.07975,9.99936 -8.966,3.49657 -51.48337,28.58147 -9.63615,5.68524 -14.87886,11.73452 -20.71383,21.05066 -6.06544,11.55461 -7.3005,24.62334 -7.12631,37.46913 0.6897,13.56859 5.17605,25.82209 12.5027,37.13284 6.70396,8.27008 15.64829,14.29918 26.52978,15.12533 2.55328,0.19385 5.11998,-0.1143 7.67997,-0.17145 8.6242,-2.25385 8.708,-1.65468 16.74256,-6.46947 36.4276,-21.82959 43.96656,-20.7799 60.52931,-51.10137 7.47122,-15.92286 8.86787,-33.5062 9.95837,-50.80583 0.60058,-9.52523 0.37194,-19.06319 0.24632,-28.59592 -0.23998,-0.63033 0.82703,-15.06567 -1.14862,-14.16059 -39.18811,17.95276 -35.40859,6.59822 -39.76175,24.25859 -5.37946,13.93699 -7.02953,28.87027 -9.63717,43.47755 -1.7077,11.06724 -3.98497,22.22234 -3.57299,33.46531 1.09132,8.28339 5.41219,15.4723 9.27358,22.70256 2.1254,5.59845 5.10483,10.75566 8.46433,15.70735 2.31401,3.19323 5.68541,4.55454 9.22578,5.91537 0,0 35.17033,-23.58282 35.17033,-23.58282 v 0 c -2.77709,-1.12757 -5.81635,-1.4487 -7.8837,-3.8305 -3.40603,-4.73287 -6.1678,-9.81773 -8.40328,-15.19324 -3.64118,-6.62686 -7.74043,-13.18575 -8.42376,-20.909 -0.15236,-10.90061 1.7356,-21.71246 3.37907,-32.4552 2.39728,-14.59792 4.30981,-29.47034 10.68966,-43.00528 0.56911,-0.95166 2.72621,-3.29247 1.70732,-2.85498 -40.64997,17.4542 -36.83827,5.93597 -36.45581,29.5608 0.0811,9.38138 0.2599,18.76594 0.03,28.14614 -0.79507,16.77266 -2.48811,33.68554 -10.30346,48.86355 -4.1874,7.08743 -5.36534,9.85455 -10.95926,16.10212 -2.19992,2.45699 -10.20365,8.03812 -7.11935,6.87043 9.51858,-3.60364 17.83188,-9.82919 26.93877,-14.37387 2.74623,-1.37047 -5.09042,3.46211 -7.83319,4.83948 -2.38703,1.19873 -4.99182,1.90295 -7.48773,2.85442 -2.36346,0.26346 -4.71253,0.75602 -7.09038,0.79038 -9.85792,0.14243 -18.21396,-5.02251 -24.53926,-12.19722 -7.06756,-10.62533 -10.91597,-22.19667 -11.32291,-35.03477 0.10571,-12.25273 1.57418,-24.56223 8.11794,-35.21798 3.10983,-4.37854 4.20009,-6.38102 8.21045,-10.09142 9.68322,-8.95896 40.19352,-25.41392 -14.75071,6.43703 -2.55154,1.47912 5.21705,-2.75228 7.82558,-4.12842 2.44684,-0.76104 4.83961,-1.72487 7.34052,-2.28312 9.09558,-2.03029 18.45343,-0.0827 27.30955,2.11256 0,0 34.96619,-23.94675 34.96619,-23.94675 z" />
    <path
       style="font-variation-settings:normal;opacity:1;vector-effect:none;fill:#66b933;fill-opacity:0.7019608;stroke-width:5.77231;stroke-linecap:butt;stroke-linejoin:miter;stroke-miterlimit:4;stroke-dasharray:none;stroke-dashoffset:0;stroke-opacity:1;stop-color:#000000;stop-opacity:1"
       id="path1277"
       d="m 986.88397,789.81325 c 0.58619,15.46386 0.48175,30.94622 0.47688,46.41881 0.10101,14.40555 -0.17147,28.80984 -0.26774,43.21464 -0.0841,8.51052 -0.22338,17.01913 -0.0733,25.52928 0,0 37.38889,-19.05058 37.38889,-19.05058 v 0 c 0.1471,-8.48532 0.015,-16.96897 -0.073,-25.45462 -0.096,-14.31386 -0.3701,-28.62718 -0.2678,-42.9418 0,-15.6347 -0.1025,-31.27848 0.4769,-46.90478 0,0 -37.66067,19.18905 -37.66067,19.18905 z" />
    <path
       style="font-variation-settings:normal;opacity:1;vector-effect:none;fill:#66b933;fill-opacity:0.7019608;stroke-width:5.77231;stroke-linecap:butt;stroke-linejoin:miter;stroke-miterlimit:4;stroke-dasharray:none;stroke-dashoffset:0;stroke-opacity:1;stop-color:#000000;stop-opacity:1"
       id="path1279"
       d="m 988.34565,780.79424 c 24.78675,-8.84711 43.13455,-27.8866 65.59535,-40.38114 19.7026,-11.65658 -16.6511,9.49942 -24.8431,14.47356 -1.5916,0.9664 3.3435,-1.64227 5.0481,-2.39168 3.959,-1.74062 7.9145,-3.04255 12.1229,-3.98363 7.0149,-1.02575 9.2505,4.15474 11.9999,9.58929 4.9643,9.32684 8.8672,19.18961 11.5342,29.40644 3.9886,14.06544 4.9199,28.66044 5.6157,43.18378 1.0318,15.82425 -1.0777,31.53643 -3.0384,47.19225 -1.7542,11.08053 -2.0497,22.27448 -2.3644,33.46254 -0.1428,6.28416 -0.082,3.21973 -0.1864,9.19324 0,0 37.4651,-19.04254 37.4651,-19.04254 v 0 c 0.013,-5.88573 0,-2.86637 0.056,-9.05806 0.2318,-11.01936 0.9311,-22.01414 2.2362,-32.96272 1.7725,-15.83007 3.5664,-31.73635 2.5008,-47.69222 -0.7255,-14.85476 -1.6061,-29.7668 -5.5865,-44.18023 -2.7762,-10.47298 -6.8333,-20.58289 -11.6794,-30.27265 -3.223,-6.80566 -6.4343,-13.49034 -14.8354,-14.1354 -6.2547,0.63576 -12.8478,2.53837 -18.3872,5.59904 -24.8767,13.74494 -29.951,16.77917 -46.543,26.57094 -15.55662,9.55893 -59.87946,40.53999 6.4138,-1.06701 0,0 -33.12415,26.4962 -33.12415,26.4962 z" />
    <path
       style="font-variation-settings:normal;opacity:1;vector-effect:none;fill:#66b933;fill-opacity:0.7019608;stroke-width:5.77231;stroke-linecap:butt;stroke-linejoin:miter;stroke-miterlimit:4;stroke-dasharray:none;stroke-dashoffset:0;stroke-opacity:1;stop-color:#000000;stop-opacity:1"
       id="path1283"
       d="m 1259.1166,767.34662 c -8.3332,-8.06509 -19.3273,-10.11607 -30.471,-10.82352 -13.0307,0.11199 -26.1868,1.37927 -38.591,5.49184 -18.7632,9.24492 -41.6353,16.35162 -52.6992,34.97704 -2.7193,4.57778 -3.2459,6.53866 -5.1822,11.50299 -4.9586,14.18035 -3.9531,28.89382 -1.0005,43.3404 3.3362,14.20467 8.4988,27.82267 16.9587,39.7481 10.9743,11.8085 23.178,12.844 38.4354,11.37476 7.1,-0.83029 13.7669,-2.97547 19.9129,-6.64117 24.2093,-14.43918 35.1692,-17.53233 49.8886,-34.22928 7.9105,-8.35445 12.7158,-18.20301 15.1182,-29.33966 1.4259,-10.91609 1.5415,-21.96278 1.6715,-32.95773 -0.3313,-26.64993 7.1364,-19.45226 -37.2305,7.31124 3.6274,13.02485 7.482,25.99182 10.3492,39.21064 2.9594,15.08419 3.4478,30.48063 3.8107,45.80123 0.784,17.7133 0.2374,35.301 -2.3308,52.83997 -2.6062,14.23894 -6.6744,28.18032 -12.3619,41.50549 -2.8761,6.73841 -7.4891,15.24284 -10.8733,21.71224 -8.5185,17.4293 -19.0166,33.7883 -32.3956,47.8594 -3.6447,2.6868 -6.5202,6.2834 -10.0862,9.0594 -1.58,1.2299 -6.7587,4.2917 -5.0212,3.2967 56.951,-32.6104 34.4217,-18.749 20.2405,-13.5974 -9.9365,2.2119 -20.8057,5.1571 -31.0544,3.0158 -2.0716,-0.4329 -4.0341,-1.2811 -6.0512,-1.9216 -16.2127,-7.4178 -23.9201,-18.9457 -30.8835,-34.7835 -5.852,-16.4032 -7.2375,-33.65533 -3.0428,-50.63049 0.7349,-2.97438 1.8496,-5.84186 2.7744,-8.76279 5.3372,-13.68674 13.3228,-26.32881 25.0392,-35.3395 16.5585,-9.15932 -11.1706,6.13385 -28.6462,17.0356 -0.9946,0.62047 2.2136,-0.81539 3.3708,-1.00317 5.2461,-0.85133 9.5632,1.26199 14.2747,3.23364 12.4259,5.62714 23.538,13.55273 34.9039,20.98977 10.3214,6.91083 19.7903,14.97604 29.9177,22.15507 11.4391,7.00152 24.478,10.58178 36.8284,15.57537 17.3448,6.5753 34.9282,12.5344 52.9082,17.1106 17.956,4.7209 33.7366,3.4158 51.5195,-0.9347 1.9063,-0.6698 3.8127,-1.3396 5.719,-2.0094 0,0 32.765,-25.76961 32.765,-25.76961 v 0 c -1.8782,0.8477 -3.7564,1.69539 -5.6347,2.54309 -17.3108,5.25492 -32.6645,7.09552 -50.4917,2.77134 -17.9097,-4.15135 -35.3122,-10.08527 -52.4924,-16.60684 -11.9316,-5.16332 -24.4045,-9.05771 -35.9206,-15.14697 -10.3888,-6.92106 -19.7413,-15.22823 -30.1208,-22.16852 -11.5982,-7.39274 -22.7515,-15.5104 -35.1553,-21.55259 -2.5406,-1.24801 -8.0364,-4.10254 -10.8777,-4.9181 -1.3367,-0.38366 -6.9227,-1.13446 -8.4738,-0.33709 -33.3009,17.11834 -28.363,13.66456 -43.2239,24.76145 -10.8077,10.24953 -18.4878,23.13174 -23.316,37.20943 -0.8169,3.05025 -1.8157,6.0575 -2.4506,9.15075 -3.6404,17.73586 -1.8592,35.74046 4.0427,52.77696 7.4752,17.1441 15.2273,28.9549 32.1913,37.89 2.1627,0.894 4.2459,2.0124 6.4883,2.6821 10.4596,3.1238 21.7065,0.1287 32.1296,-1.4723 25.0179,-6.952 47.8795,-21.9011 66.0282,-40.3343 12.7054,-14.5631 22.6424,-31.1261 31.1177,-48.47008 10.5071,-20.5296 19.601,-41.73176 23.1615,-64.70305 2.422,-17.79292 2.8711,-35.62027 2.2716,-53.56664 -0.3718,-15.57961 -1.0054,-31.22094 -4.1296,-46.53839 -2.9471,-13.11228 -6.8833,-25.97837 -9.3578,-39.19752 -43.3593,18.74234 -37.8523,4.6632 -37.6522,31.31557 0.04,10.69744 0.1068,21.50151 -2.0214,32.03333 -2.8608,10.47127 -8.1226,19.50533 -15.7623,27.29942 -13.202,13.52958 -24.1584,16.11369 20.8254,-7.96973 2.0145,-1.07853 -3.7923,2.56499 -5.8073,3.6426 -6.095,3.25953 -6.4098,2.82893 -13.2067,4.31724 -13.6316,2.34239 -25.3023,2.46607 -35.7452,-7.78074 -8.2949,-11.33414 -13.3681,-24.33895 -16.3509,-38.04412 -2.6324,-13.88355 -3.0403,-27.89599 2.3536,-41.25061 2.4885,-5.39786 4.9567,-10.51665 9.2818,-14.74021 1.3183,-1.28734 5.9043,-4.36449 4.2743,-3.50527 -11.8418,6.2422 -44.7884,25.71163 -26.4452,14.89216 2.7776,-1.09933 7.5499,-3.11057 10.4831,-3.78253 8.894,-2.03754 18.2725,-2.57006 27.3365,-3.12699 10.1358,0.0536 21.0492,1.05413 28.229,9.09603 0,0 35.9365,-22.57265 35.9365,-22.57265 z" />
    <path
       style="font-variation-settings:normal;opacity:1;vector-effect:none;fill:#66b933;fill-opacity:0.7019608;stroke-width:5.77231;stroke-linecap:butt;stroke-linejoin:miter;stroke-miterlimit:4;stroke-dasharray:none;stroke-dashoffset:0;stroke-opacity:1;stop-color:#000000;stop-opacity:1"
       id="path1285"
       d="m 1341.1405,655.20065 c 1.2932,12.39197 3.5061,24.65354 5.444,36.95426 3.8597,19.25885 5.8735,38.80268 9.2245,58.14171 4.3863,19.29867 6.4977,38.96798 10.054,58.41617 3.5375,19.93557 8.257,39.58835 13.0138,59.25427 4.0409,14.48839 7.721,28.99729 9.749,43.91395 1.1593,6.74883 2.6784,13.34261 2.2401,20.19688 0,0 37.4182,-18.96682 37.4182,-18.96682 v 0 c -0.1163,-7.01189 -1.4789,-13.80456 -2.8272,-20.68281 -2.3844,-14.93525 -6.3048,-29.48773 -10.3672,-44.04181 -5.0048,-19.47565 -9.7956,-38.99073 -13.2464,-58.81691 -3.4163,-19.4972 -5.2053,-39.24206 -9.8008,-58.53435 -3.4322,-19.33516 -5.6874,-38.84853 -8.8792,-58.22395 -1.8187,-12.2194 -4.0191,-24.45052 -4.3038,-36.82939 0,0 -37.719,19.2188 -37.719,19.2188 z" />
    <path
       style="font-variation-settings:normal;opacity:1;vector-effect:none;fill:#66b933;fill-opacity:0.7019608;stroke-width:5.77231;stroke-linecap:butt;stroke-linejoin:miter;stroke-miterlimit:4;stroke-dasharray:none;stroke-dashoffset:0;stroke-opacity:1;stop-color:#000000;stop-opacity:1"
       id="path1287"
       d="m 1396.3806,986.5739 c 13.6684,22.7698 42.4247,-7.21236 54.9098,-14.41748 4.0052,-5.82094 4.6254,-10.99317 0.9175,-17.04616 -14.3135,-14.69616 -41.672,1.98815 -49.0631,19.34155 -1.9623,7.10222 -2.1194,14.75069 -1.548,22.06442 1.3508,4.62687 5.6164,9.44777 10.9805,6.39577 39.2222,-22.31589 30.5762,-11.99361 43.0754,-28.66354 4.0727,-6.13946 9.5224,-12.81035 10.8073,-20.3397 0.6438,-3.77242 -0.1289,-5.48971 -0.9826,-9.01988 -3.2446,-5.13866 -9.8812,-8.00787 -15.6715,-4.73259 -38.5436,21.80206 -29.5688,12.97785 -43.5333,27.80899 -7.4683,8.16435 -10.4174,18.19341 -12.332,28.80706 -0.445,9.19646 4.9256,15.34326 12.7861,19.10106 4.0522,1.3398 8.2334,1.1396 11.9854,-1.0747 25.0658,-14.7929 33.9602,-13.7532 44.2902,-31.35643 1.6338,-5.13605 1.3158,-2.5564 1.0676,-7.72408 0,0 -37.7063,19.08812 -37.7063,19.08812 v 0 c -0.5083,3.55062 0.014,1.68046 -1.8768,5.51449 -0.8011,1.08 -1.5229,2.2235 -2.4032,3.2399 -0.9369,1.0818 -4.3059,3.6931 -3.0337,3.0378 11.0174,-5.6749 21.5435,-12.25982 32.4311,-18.18009 2.733,-1.48615 -13.1248,8.69052 -9.6431,3.95836 -6.7078,-2.17362 -11.1065,-6.31019 -10.2189,-13.89904 2.1079,-10.05324 5.7616,-19.20715 13.3313,-26.47882 13.1858,-11.80615 3.9337,-3.004 -28.0628,14.2596 -1.2476,0.67314 2.2208,-1.81298 3.5115,-2.39911 2.7631,-1.25469 5.9548,-1.46986 7.9492,0.95723 0.191,1.04257 0.5586,2.0679 0.5729,3.12773 0.1161,8.57038 -7.1292,16.12656 -11.7206,22.58606 -12.8931,13.23398 -3.3534,2.66775 28.3093,-13.92126 1.8384,-0.96318 -3.9196,5.02251 -5.6365,2.71841 -0.4677,-0.62767 -0.5801,-1.45406 -0.8702,-2.18109 -0.3358,-6.47988 -0.4754,-13.90661 3.0607,-19.58256 12.1677,-9.53376 0.1177,0.0397 -33.3616,18.2233 -0.5671,0.30798 0.846,-1.06849 1.4578,-1.27373 1.8361,-0.61594 4.1567,0.85497 5.4331,1.91293 2.699,4.12627 -0.064,8.62107 -3.6458,11.20684 11.2902,-6.32293 22.5722,-12.66031 33.8705,-18.96879 0.8992,-0.50209 -1.7123,1.17869 -2.6731,1.54947 -4.1429,1.59868 -7.957,-0.0809 -9.5868,-4.11525 0,0 -37.1773,20.47521 -37.1773,20.47521 z" />
    <path
       sodipodi:type="star"
       style="fill:#66b933;fill-opacity:0.7019608"
       id="path1289"
       sodipodi:sides="5"
       sodipodi:cx="437.14285"
       sodipodi:cy="125.71429"
       sodipodi:r1="80.862694"
       sodipodi:r2="40.431347"
       sodipodi:arg1="-0.55859932"
       sodipodi:arg2="0.069719215"
       inkscape:flatsided="false"
       inkscape:rounded="0"
       inkscape:randomized="0"
       d="m 505.71428,82.857144 -28.2383,45.673706 21.61617,49.15515 -52.16438,-12.74227 -40.06957,35.74799 -4.00106,-53.54886 -46.38053,-27.06169 49.69159,-20.352742 11.40482,-52.473029 34.71216,40.970173 z"
       inkscape:transform-center-x="6.0474095"
       inkscape:transform-center-y="-1.7407291" />
    <path
       sodipodi:type="star"
       style="fill:#66b933;fill-opacity:0.7019608"
       id="path1291"
       sodipodi:sides="5"
       sodipodi:cx="131.42857"
       sodipodi:cy="700"
       sodipodi:r1="75.916176"
       sodipodi:r2="37.958084"
       sodipodi:arg1="1.2252407"
       sodipodi:arg2="1.8535593"
       inkscape:flatsided="false"
       inkscape:rounded="0"
       inkscape:randomized="0"
       d="m 157.14286,771.42857 -36.30497,-34.97787 -49.395774,10.07769 22.04708,-45.33684 -24.848582,-43.864 49.930816,6.95817 34.03851,-37.18713 8.81186,49.63722 45.88554,20.88109 -44.48479,23.71932 z"
       inkscape:transform-center-x="-6.5454023"
       inkscape:transform-center-y="-0.73641733" />
    <path
       sodipodi:type="star"
       style="font-variation-settings:normal;opacity:1;vector-effect:none;fill:#66b933;fill-opacity:0.7019608;stroke-width:5.77231;stroke-linecap:butt;stroke-linejoin:miter;stroke-miterlimit:4;stroke-dasharray:none;stroke-dashoffset:0;stroke-opacity:1;stop-color:#000000;stop-opacity:1"
       id="path1293"
       sodipodi:sides="5"
       sodipodi:cx="705.71429"
       sodipodi:cy="622.85712"
       sodipodi:r1="81.315712"
       sodipodi:r2="40.657856"
       sodipodi:arg1="-0.32175055"
       sodipodi:arg2="0.30656798"
       inkscape:flatsided="false"
       inkscape:rounded="0"
       inkscape:randomized="0"
       d="m 782.85715,597.14283 -38.38068,37.98436 9.53202,53.15099 -47.98555,-24.76438 -47.60405,25.49004 8.72398,-53.28958 -38.95294,-37.39728 53.37727,-8.1704 23.52981,-48.60283 24.26499,48.24 z"
       inkscape:transform-center-x="0.1907516"
       inkscape:transform-center-y="-7.5833202" />
    <path
       sodipodi:type="star"
       style="fill:#66b933;fill-opacity:0.701961"
       id="path1295"
       sodipodi:sides="5"
       sodipodi:cx="1065.7144"
       sodipodi:cy="160.00001"
       sodipodi:r1="71.599792"
       sodipodi:r2="35.799896"
       sodipodi:arg1="-0.49934672"
       sodipodi:arg2="0.12897181"
       inkscape:flatsided="false"
       inkscape:rounded="0"
       inkscape:randomized="0"
       d="m 1128.5715,125.7143 -27.3546,38.8901 16.529,44.58144 -45.4397,-13.99804 -37.2917,29.49644 -0.7287,-47.54137 -39.57658,-26.35163 44.98938,-15.38414 12.832,-45.782646 28.5337,38.033446 z"
       inkscape:transform-center-x="4.0739956"
       inkscape:transform-center-y="-2.8456683" />
    <path
       sodipodi:type="star"
       style="fill:#66b933;fill-opacity:0.7019608"
       id="path1299"
       sodipodi:sides="5"
       sodipodi:cx="1165.7144"
       sodipodi:cy="631.42859"
       sodipodi:r1="67.913513"
       sodipodi:r2="33.956757"
       sodipodi:arg1="-0.38831872"
       sodipodi:arg2="0.23999981"
       inkscape:flatsided="false"
       inkscape:rounded="0"
       inkscape:randomized="0"
       d="m 1228.5715,605.7143 -29.8737,33.78589 10.8962,43.76294 -41.3637,-17.97112 -38.254,23.88638 4.3095,-44.89266 -34.5384,-29.00035 44.0271,-9.77406 16.908,-41.80958 22.9009,38.85195 z"
       inkscape:transform-center-x="1.5549159"
       inkscape:transform-center-y="-4.9885254" />
    <path
       sodipodi:type="star"
       style="fill:#66b933;fill-opacity:0.7019608"
       id="path1303"
       sodipodi:sides="5"
       sodipodi:cx="905.71429"
       sodipodi:cy="1034.2856"
       sodipodi:r1="58.623669"
       sodipodi:r2="29.311834"
       sodipodi:arg1="-0.75092906"
       sodipodi:arg2="-0.12261053"
       inkscape:flatsided="false"
       inkscape:rounded="0"
       inkscape:randomized="0"
       d="m 948.57144,994.28565 -13.76536,36.41505 22.19406,31.9838 -38.88651,-1.8387 -23.56008,30.9913 -10.26783,-37.5515 -36.75499,-12.8301 32.54064,-21.3693 0.84425,-38.9208 30.37905,24.3445 z"
       inkscape:transform-center-x="3.4488604"
       inkscape:transform-center-y="2.2156158" />
    <path
       sodipodi:type="star"
       style="fill:#66b933;fill-opacity:0.7019608"
       id="path1305"
       sodipodi:sides="5"
       sodipodi:cx="214.28571"
       sodipodi:cy="1020"
       sodipodi:r1="76.077293"
       sodipodi:r2="38.038647"
       sodipodi:arg1="-0.59841889"
       sodipodi:arg2="0.029899637"
       inkscape:flatsided="false"
       inkscape:rounded="0"
       inkscape:randomized="0"
       d="m 277.14285,977.14286 -24.8355,43.99434 22.16184,45.3999 -49.51567,-10.025 -36.32951,35.1066 -5.76687,-50.1901 -44.61472,-23.7029 45.95154,-20.99425 8.75611,-49.75573 34.16649,37.21495 z"
       inkscape:transform-center-x="6.5930752"
       inkscape:transform-center-y="-0.70281115" />
    <path
       sodipodi:type="star"
       style="fill:#66b933;fill-opacity:0.701961"
       id="path1307"
       sodipodi:sides="5"
       sodipodi:cx="762.85715"
       sodipodi:cy="205.71429"
       sodipodi:r1="43.612392"
       sodipodi:r2="21.806196"
       sodipodi:arg1="-0.55165498"
       sodipodi:arg2="0.076663548"
       inkscape:flatsided="false"
       inkscape:rounded="0"
       inkscape:randomized="0"
       d="m 800.00003,182.85715 -15.40071,24.52725 11.47407,26.5916 -28.08588,-7.0676 -21.74444,19.12973 -1.95732,-28.89526 -24.91287,-14.76878 26.87619,-10.79065 6.34745,-28.25735 18.56771,22.22628 z"
       inkscape:transform-center-x="3.1707185"
       inkscape:transform-center-y="-1.0321806" />
    <path
       sodipodi:type="star"
       style="fill:#66b933;fill-opacity:0.7019608"
       id="path1309"
       sodipodi:sides="5"
       sodipodi:cx="97.14286"
       sodipodi:cy="108.57143"
       sodipodi:r1="49.979588"
       sodipodi:r2="24.989794"
       sodipodi:arg1="-0.5404195"
       sodipodi:arg2="0.08789903"
       inkscape:flatsided="false"
       inkscape:rounded="0"
       inkscape:randomized="0"
       d="m 140,82.857141 -17.96382,27.908039 12.806,30.61966 -32.09324,-8.46056 -25.163759,21.64124 -1.870892,-33.13695 -28.358063,-17.24465 30.936972,-12.0192 7.637509,-32.29901 20.990993,25.708671 z"
       inkscape:transform-center-x="3.464746"
       inkscape:transform-center-y="-1.3558128" />
    <path
       sodipodi:type="star"
       style="fill:#66b933;fill-opacity:0.7019608"
       id="path1311"
       sodipodi:sides="5"
       sodipodi:cx="1445.7144"
       sodipodi:cy="605.71429"
       sodipodi:r1="36.589279"
       sodipodi:r2="18.294641"
       sodipodi:arg1="-0.67474094"
       sodipodi:arg2="-0.046422412"
       inkscape:flatsided="false"
       inkscape:rounded="0"
       inkscape:randomized="0"
       d="m 1474.2858,582.85715 -10.2965,22.00817 12.2925,20.95877 -24.1128,-2.99165 -16.1343,18.16753 -4.6061,-23.8571 -22.2641,-9.73062 21.2661,-11.75285 2.3744,-24.18139 17.7492,16.59344 z"
       inkscape:transform-center-x="2.9911856"
       inkscape:transform-center-y="0.52469623" />
    <path
       sodipodi:type="star"
       style="fill:#66b933;fill-opacity:0.7019608"
       id="path1313"
       sodipodi:sides="5"
       sodipodi:cx="1402.8571"
       sodipodi:cy="194.28571"
       sodipodi:r1="62.662037"
       sodipodi:r2="31.331017"
       sodipodi:arg1="-0.81764505"
       sodipodi:arg2="-0.18932652"
       inkscape:flatsided="false"
       inkscape:rounded="0"
       inkscape:randomized="0"
       d="m 1445.7142,148.57142 -12.086,39.81787 25.9493,32.52949 -41.6038,0.80995 -22.9186,34.73141 -13.6266,-39.31729 -40.1138,-11.06431 33.1821,-25.10937 -1.873,-41.56952 34.1342,23.79884 z"
       inkscape:transform-center-x="2.4109425"
       inkscape:transform-center-y="3.6441872" />
    <path
       style="font-variation-settings:normal;opacity:1;vector-effect:none;fill:#66b933;fill-opacity:0.7019608;stroke-width:16.4923;stroke-linecap:butt;stroke-linejoin:miter;stroke-miterlimit:4;stroke-dasharray:none;stroke-dashoffset:0;stroke-opacity:1;stop-color:#000000;stop-opacity:1"
       d=""
       id="path1890" />
    <path
       style="font-variation-settings:normal;opacity:1;vector-effect:none;fill:#66b933;fill-opacity:0.7019608;stroke-width:16.4923;stroke-linecap:butt;stroke-linejoin:miter;stroke-miterlimit:4;stroke-dasharray:none;stroke-dashoffset:0;stroke-opacity:1;stop-color:#000000;stop-opacity:1"
       d=""
       id="path1896" />
  </g>
</svg>
