<?xml version="1.0" encoding="UTF-8" standalone="no"?>
<svg
   xmlns:dc="http://purl.org/dc/elements/1.1/"
   xmlns:cc="http://creativecommons.org/ns#"
   xmlns:rdf="http://www.w3.org/1999/02/22-rdf-syntax-ns#"
   xmlns:svg="http://www.w3.org/2000/svg"
   xmlns="http://www.w3.org/2000/svg"
   xmlns:sodipodi="http://sodipodi.sourceforge.net/DTD/sodipodi-0.dtd"
   xmlns:inkscape="http://www.inkscape.org/namespaces/inkscape"
   width="1920px"
   height="1080px"
   viewBox="0 0 1920 1080"
   version="1.1"
   id="SVGRoot"
   sodipodi:docname="wellcome.svg"
   inkscape:version="1.0.2-2 (e86c870879, 2021-01-15)">
  <defs
     id="defs186" />
  <sodipodi:namedview
     id="base"
     pagecolor="#ffffff"
     bordercolor="#666666"
     borderopacity="1.0"
     inkscape:pageopacity="0.0"
     inkscape:pageshadow="2"
     inkscape:zoom="0.49497475"
     inkscape:cx="803.89044"
     inkscape:cy="620.03484"
     inkscape:document-units="px"
     inkscape:current-layer="layer1"
     inkscape:document-rotation="0"
     showgrid="false"
     inkscape:window-width="1431"
     inkscape:window-height="1030"
     inkscape:window-x="128"
     inkscape:window-y="0"
     inkscape:window-maximized="0" />
  <metadata
     id="metadata189">
    <rdf:RDF>
      <cc:Work
         rdf:about="">
        <dc:format>image/svg+xml</dc:format>
        <dc:type
           rdf:resource="http://purl.org/dc/dcmitype/StillImage" />
        <dc:title></dc:title>
      </cc:Work>
    </rdf:RDF>
  </metadata>
  <g
     inkscape:label="Layer 1"
     inkscape:groupmode="layer"
     id="layer1">
    <path
       style="fill:#b3b3b3"
       id="path199"
       d="m 191.14438,260.17942 c -6.1268,8.84653 -11.18073,18.35689 -16.54595,27.66664 -5.18767,9.1919 -11.5351,17.69121 -16.03405,27.2633 -3.31361,9.86127 -3.27038,20.30532 -2.44164,30.5555 1.85268,10.78291 7.4679,20.33909 12.6978,29.78333 4.37555,9.36892 11.30709,16.55804 18.97145,23.28122 11.58345,9.12501 24.64978,16.1061 37.80603,22.6534 15.6307,7.9373 32.50197,12.22692 49.7267,14.85786 13.37568,1.19092 27.07192,0.4092 39.85076,-4.03429 12.92365,-4.49384 33.35998,-17.91737 40.62359,-22.10063 7.01312,-5.13176 13.06937,-11.66714 14.25568,-20.62455 0.62021,-4.68298 -0.0335,-8.57342 -0.47315,-13.25077 -1.23319,-12.2875 -5.91951,-23.81169 -8.39771,-35.81891 -0.0251,-0.58403 -0.48445,-3.20362 0.44152,-3.9403 0.31685,-0.25207 1.55904,-0.22469 1.21461,-0.0118 -8.17652,5.053 -16.72554,9.49103 -24.85413,14.62079 -0.41483,0.26179 1.00325,-0.0261 1.46497,0.13956 0.57784,0.2073 1.05117,0.63445 1.57675,0.95167 5.94679,4.99193 10.53475,11.20563 14.9672,17.50919 3.84358,5.37176 7.23987,11.55382 12.41485,15.84215 1.05142,0.87128 2.24455,1.55576 3.36683,2.33364 12.43216,5.8052 26.51933,6.53321 40.00623,7.62663 9.49523,0.0822 19.29406,2.00194 28.73624,0.13853 6.13216,-1.21017 7.69882,-2.47147 13.2068,-5.2505 11.80583,-7.37663 26.63913,-12.80988 35.36911,-24.46998 6.73873,-9.00052 8.79651,-19.71431 10.36813,-30.55462 0.79448,-12.67147 0.0205,-25.47039 -2.46643,-37.93021 -1.25347,-6.27993 -2.96711,-12.10069 -4.65965,-18.26597 -2.5973,-7.99205 -5.0692,-16.07579 -8.96127,-23.56322 -3.33302,-6.41196 -7.51642,-12.39947 -11.70233,-18.26759 -6.32449,-8.34241 -13.80816,-15.54865 -22.06883,-21.92871 -3.72809,-2.33974 -7.34669,-4.83674 -10.92602,-7.39529 0,0 -24.88515,15.8213 -24.88515,15.8213 v 0 c 3.56202,2.54089 7.12037,5.09602 10.89538,7.31813 8.19482,6.0712 15.65497,12.93507 22.00435,20.95803 9.50714,12.8403 16.31606,25.12606 20.58137,40.68625 5.09249,18.49668 8.57721,35.84024 6.44016,55.18081 -1.85569,10.75243 -4.07489,20.46721 -11.29777,29.06625 -1.54837,1.84337 -7.38769,5.89135 -5.11434,5.0993 6.73567,-2.34677 12.63906,-6.61517 18.95859,-9.92276 -4.90587,2.92199 -6.94632,4.59884 -12.52831,6.09643 -9.2668,2.48619 -19.06341,0.28068 -28.47009,0.39209 -13.00949,-0.89908 -26.42418,-1.62615 -38.57752,-6.7803 -6.56692,-4.19959 -11.22256,-10.6198 -15.34967,-17.14044 -4.51469,-6.61174 -9.26148,-12.98707 -15.05537,-18.56195 -0.11154,-0.0973 -3.33349,-3.1554 -3.99201,-2.84972 -17.97399,8.34346 -29.91056,6.54097 -27.10441,21.08151 3.18165,11.63997 7.70587,22.983 8.66471,35.13681 0.23128,4.63805 0.71963,7.90555 -0.21631,12.44813 -1.68841,8.19467 -8.02107,13.86184 -14.59787,18.38991 5.74997,-3.22947 11.70232,-6.12249 17.24992,-9.68842 2.67717,-1.72085 -5.6441,2.97049 -8.60682,4.13273 -12.40674,4.86705 -25.83469,5.91066 -39.01404,4.94271 -16.981,-2.42732 -33.60421,-6.4601 -49.01548,-14.25239 -12.90091,-6.39599 -25.77998,-13.13593 -36.98411,-22.28547 -7.39651,-6.49397 -14.13859,-13.43029 -18.4728,-22.41851 -5.10825,-9.03124 -10.44652,-18.30535 -12.00074,-28.71324 -0.70059,-9.85908 -0.73178,-19.92573 3.19769,-29.19064 4.71061,-9.29606 10.75084,-17.82569 15.79117,-26.93989 5.40611,-9.47676 10.73998,-19.04828 17.40222,-27.72197 0,0 -27.43684,11.89928 -27.43684,11.89928 z" />
    <path
       style="fill:#b3b3b3"
       id="path201"
       d="m 548.38073,350.57781 c 11.09021,8.68706 23.62893,15.00669 36.29131,21.01991 15.2094,6.47438 31.49132,11.42741 48.1129,12.28474 3.4846,0.17973 6.97832,-0.0444 10.46748,-0.0666 10.25721,-1.06282 20.77028,-2.73141 29.88486,-7.9311 14.23986,-8.12355 29.11376,-13.88337 38.98296,-26.84477 1.99597,-2.62135 3.4613,-5.60721 5.19195,-8.41082 6.06907,-13.03167 10.66721,-27.78483 7.24151,-42.24511 -0.57067,-2.40885 -1.58747,-4.68964 -2.38121,-7.03446 -5.85206,-12.83432 -15.94304,-22.52125 -28.39865,-28.98487 -3.10802,-1.61286 -6.38343,-2.88034 -9.57514,-4.32051 -14.62591,-5.3501 -30.12457,-8.76914 -45.7647,-8.76762 -9.61437,9.3e-4 -12.29847,0.83153 -21.52719,2.3888 -3.24849,1.07765 -6.58905,1.90969 -9.74548,3.23294 -3.04146,1.27505 -5.99132,2.79605 -8.79153,4.53821 -17.72721,11.02903 -28.33695,14.00706 -38.24545,28.56367 -4.93567,7.25102 -5.60821,10.54437 -8.67811,18.71739 -7.2237,24.83513 -5.75116,50.50274 -2.58907,75.81885 3.69649,19.99908 8.98055,39.96468 18.18295,58.20732 1.63848,3.24809 3.53604,6.35888 5.30406,9.53831 7.16381,10.93014 16.31833,20.96614 28.24808,26.79301 7.59422,3.70926 11.82944,4.2303 20.07927,6.21688 11.01903,2.24679 22.19479,2.89098 33.40996,2.55584 4.8344,-0.14447 13.77255,-0.63548 18.68083,-1.70894 2.55191,-0.55811 4.97481,-1.59569 7.46221,-2.39353 28.93753,-15.94734 32.93797,-14.89918 45.12544,-39.17091 0,0 -26.23995,11.83167 -26.23995,11.83167 v 0 c -2.90687,5.47944 -4.37234,8.94364 -8.4993,13.74798 -7.34615,8.55192 -17.42524,11.89313 12.30972,-4.14154 -2.42264,0.9905 -4.74524,2.27409 -7.26791,2.97149 -4.86448,1.3448 -13.94563,1.99218 -18.77797,2.24352 -11.06059,0.57529 -22.08089,0.14562 -32.978,-2.00432 -7.8432,-1.79404 -12.0959,-2.31426 -19.35877,-5.66684 -11.66946,-5.38668 -20.65828,-14.84971 -27.72265,-25.35663 -1.74471,-3.108 -3.6113,-6.15066 -5.23412,-9.32401 -9.16154,-17.91496 -14.62245,-37.49834 -18.18985,-57.22127 -0.54094,-4.4518 -1.21827,-8.88914 -1.6228,-13.3554 -1.87106,-20.65752 -0.78138,-41.57559 5.37682,-61.4803 3.31094,-7.97449 3.95708,-10.93028 9.12243,-17.89456 1.95899,-2.64125 9.82992,-7.49387 6.54334,-7.38307 -6.08793,0.20525 -10.81174,5.71388 -16.56299,7.72088 -6.28552,2.19344 23.76381,-12.81989 18.05845,-8.53014 9.05625,-1.85556 11.88543,-2.83623 21.35331,-3.07018 15.34365,-0.37915 30.56774,2.8888 44.93662,8.04789 3.07488,1.38523 6.23052,2.6036 9.22464,4.1557 11.8271,6.13096 21.53776,15.18908 27.01001,27.44413 0.72,2.18186 1.6476,4.30585 2.15998,6.54557 3.17057,13.85924 -1.49618,27.95368 -7.7204,40.20246 -1.80872,2.63437 -3.36883,5.45797 -5.42616,7.90312 -7.13235,8.47687 -17.51157,12.85081 9.51533,-1.74253 2.92591,-1.57987 -5.84526,3.214 -8.94815,4.40942 -7.6126,2.93285 -12.27727,3.23376 -20.2779,4.49928 -3.40808,0.10564 -6.81621,0.42406 -10.22425,0.31693 -16.34223,-0.51368 -32.457,-5.26992 -47.39694,-11.59852 -12.28012,-5.85861 -24.62028,-11.84394 -34.74426,-21.14323 0,0 -25.38752,15.87587 -25.38752,15.87587 z" />
    <path
       style="fill:#b3b3b3"
       id="path203"
       d="m 819.05065,186.74617 c 0.48451,20.97802 -1.39122,41.99537 -2.91753,62.90903 -3.61177,35.93902 -5.46794,71.99864 -7.24466,108.06169 -1.43506,32.2313 -4.60645,64.33837 -6.99534,96.50178 -1.73506,30.84546 -2.76132,62.01029 0.84158,92.75927 1.38921,6.79171 2.78185,14.54433 8.73245,19.07159 6.24263,4.74943 15.20062,5.35719 22.58436,6.62627 9.40862,0.70162 18.94733,3.48892 28.45222,2.99836 5.1135,-0.26391 7.25679,-1.14601 12.10445,-2.50179 0,0 23.0562,-17.83917 23.0562,-17.83917 v 0 c -3.92623,1.35222 -7.31687,2.76336 -11.49384,3.22516 -9.06492,1.0022 -19.66384,-1.73168 -28.69484,-2.29897 -6.59331,-1.13506 -15.20962,-1.61865 -21.04402,-5.42238 -5.72579,-3.73292 -7.1531,-10.95229 -8.7109,-17.01516 -0.53606,-3.49553 -1.21383,-6.97225 -1.60818,-10.48659 -3.02224,-26.9332 -1.73817,-54.28074 0.0382,-81.23467 2.73098,-32.13674 5.57913,-64.25759 6.80088,-96.50032 1.66709,-36.079 3.32491,-72.17318 7.48806,-108.07422 2.03497,-21.42002 4.14353,-42.85746 5.24095,-64.34859 0,0 -26.63009,13.56871 -26.63009,13.56871 z" />
    <path
       style="fill:#b3b3b3"
       id="path205"
       d="m 881.63883,162.04022 c 1.05389,18.62291 0.86519,37.27205 0.12109,55.89957 -1.29044,28.3028 -2.28225,56.61569 -2.79086,84.94329 0.22774,26.88682 -0.60331,53.70935 -2.55475,80.52118 -1.8345,23.62216 -3.96839,47.21436 -5.29751,70.87308 0.10408,11.34777 -1.24139,23.94764 3.56648,34.66858 0.78472,1.74982 1.89721,3.33336 2.84582,5.00003 8.66445,11.76362 20.69417,20.3889 32.74086,28.38757 11.79211,8.11731 25.10842,12.96516 39.06543,15.69472 5.26475,0.47384 2.76578,0.39372 7.49364,0.32713 0,0 23.88733,-17.59588 23.88733,-17.59588 v 0 c -4.6551,0.5502 -2.18274,0.37224 -7.42272,0.44862 -13.92846,-1.83577 -27.06215,-6.6028 -38.81347,-14.39314 -11.694,-7.65875 -23.22588,-16.10881 -31.60002,-27.47048 -0.84298,-1.51199 -1.82609,-2.95398 -2.52895,-4.53598 -4.57373,-10.29469 -3.73869,-22.35561 -3.90198,-33.27852 1.04852,-23.56802 2.99009,-47.06471 4.84718,-70.57984 1.90284,-26.84141 2.3777,-53.68685 2.3596,-80.59221 0.46673,-28.3271 1.17524,-56.65378 2.94056,-84.9349 0.92286,-18.9934 1.01536,-37.99595 1.75492,-56.9936 0,0 -26.71265,13.61078 -26.71265,13.61078 z" />
    <path
       style="fill:#b3b3b3"
       id="path207"
       d="m 1157.5584,226.98116 c -18.7954,-8.98607 -38.2852,-16.06361 -58.1,-22.41849 -13.8679,-4.18565 -27.9696,-7.52202 -42.0314,-10.97547 -6.5909,-1.61867 -12.9898,-3.49968 -19.8142,-3.86279 -2.7742,-0.14761 -5.5507,0.24711 -8.326,0.37066 -20.8912,5.08544 -40.47535,17.84259 -52.33455,35.82138 -5.19731,7.87924 -6.44331,11.63977 -10.35581,20.35454 -9.26002,25.14212 -12.28555,51.8448 -14.34236,78.37977 -0.68956,15.28237 -1.85762,30.6326 -0.77052,45.92889 0.70896,9.97552 1.36925,12.40831 3.0422,22.23271 4.32251,17.46066 9.18873,35.2838 18.83788,50.6821 1.81944,2.90351 3.9525,5.59828 5.92876,8.39742 2.40155,2.55092 4.65153,5.25355 7.20465,7.65277 5.26805,4.95049 11.44853,9.37131 17.39645,13.44174 3.9585,2.709 12.9602,8.53895 17.3166,10.86646 2.8627,1.52947 5.8709,2.76947 8.8064,4.1542 3.3076,0.98905 6.5529,2.21716 9.9227,2.96714 15.123,3.3657 32.6366,3.03089 47.7663,-0.0826 4.0588,-0.83526 8.0078,-2.13597 12.0116,-3.20395 3.9768,-1.58156 8.0526,-2.93393 11.9303,-4.74468 4.0896,-1.90965 8.0683,-4.06754 11.9333,-6.39853 20.8865,-12.59677 30.0729,-16.47154 44.6692,-30.37849 7.2384,-6.89662 8.6041,-9.158 14.5402,-16.72266 0,0 -26.0836,11.15995 -26.0836,11.15995 v 0 c -5.8226,7.29064 -7.0851,9.38692 -14.226,16.00548 -3.165,2.93352 -13.0298,5.39265 -9.8905,8.35367 3.3602,3.16932 8.9436,-8.67693 12.5747,-5.82197 6.8118,5.35585 -28.5413,7.9355 -23.3048,11.51785 -3.9361,1.15323 -7.811,2.54071 -11.8083,3.4597 -18.4159,4.23389 -38.2784,3.76328 -56.3115,-1.83071 -2.8953,-1.2978 -5.8608,-2.4489 -8.6857,-3.89339 -15.017,-7.67875 -30.0062,-18.41727 -41.3293,-30.90926 -1.92,-2.71059 -3.99341,-5.31879 -5.76003,-8.13176 -9.49688,-15.12171 -14.58589,-32.50029 -18.54923,-49.75006 -1.60868,-9.66761 -2.25536,-12.07514 -2.89837,-21.89066 -0.99347,-15.16532 0.14833,-30.38972 0.69757,-45.54461 1.91595,-26.32398 4.90991,-52.83192 14.88159,-77.51688 4.87354,-10.0578 9.61807,-19.60104 17.41307,-27.79686 2.1646,-2.27593 10.0269,-7.16385 7.0071,-6.29989 -6.3855,1.82692 -12.0099,5.75272 -17.60474,9.3319 -2.18181,1.39578 4.85124,-1.81651 7.27684,-2.72477 2.7226,-0.31777 5.4268,-0.94327 8.1679,-0.95332 6.8203,-0.025 13.6404,1.73387 20.2211,3.1799 14.1439,3.10801 28.2924,6.3141 42.1249,10.63697 19.2471,6.37246 38.2848,13.26902 55.9721,23.32905 0,0 24.8835,-16.37244 24.8835,-16.37244 z" />
    <path
       style="fill:#b3b3b3"
       id="path209"
       d="m 1276.1253,294.28923 c -9.7758,0.31729 -19.5517,-0.0329 -29.2959,1.01894 -9.4972,1.02518 -12.1435,1.75574 -21.5202,3.5968 -9.7206,2.44009 -19.8231,4.8764 -28.6377,9.87805 -12.9067,7.3236 -28.5478,13.85061 -38.7315,25.64625 -2.0771,2.40582 -3.7266,5.14988 -5.5899,7.72482 -8.4181,14.75889 -13.614,31.4945 -15.63,48.38047 -0.3369,2.82185 -0.3542,5.67272 -0.5313,8.50908 0.4796,11.20257 4.3053,20.21003 13.7772,26.79676 7.7507,5.38983 12.1559,5.83796 21.5082,8.7419 5.6062,1.01284 11.1817,2.21375 16.8187,3.03852 12.7166,1.86061 26.9141,2.96982 39.7019,3.92184 11.8966,0.88568 22.8831,1.68485 34.7776,1.68061 4.3052,-0.002 8.6052,-0.3001 12.9079,-0.45015 3.3568,-0.50891 6.7628,-0.76081 10.0704,-1.52673 2.5699,-0.59509 5.1882,-1.26091 7.4949,-2.54069 6.1079,-3.38866 28.2874,-11.30669 33.4823,-23.57355 1.8533,-4.37636 1.2826,-7.64443 1.1874,-12.23619 -0.5285,-2.26906 -0.9062,-4.57861 -1.5855,-6.80717 -1.6289,-5.3439 -4.3931,-11.47487 -6.7398,-16.47266 -4.8043,-10.23182 -10.3238,-20.08555 -15.7301,-30.00498 -8.1691,-15.16942 -15.3788,-31.0539 -26.0988,-44.63666 -7.763,-9.43588 -18.6575,-13.83269 -30.1125,-16.96906 -10.6671,-2.26932 -21.5504,-2.51167 -32.4038,-2.39873 0,0 -23.2494,16.98274 -23.2494,16.98274 v 0 c 10.6071,-0.43201 21.2131,-0.27973 31.6565,1.92186 10.9664,2.78077 21.478,6.65912 29.1478,15.40959 11.0146,13.12825 18.4525,28.74381 26.7297,43.65177 7.6404,14.14515 17.1603,30.60564 21.2218,46.22464 0.5379,2.06856 0.7826,4.20246 1.1739,6.30369 -0.2007,4.23622 0.2058,6.80294 -1.9514,10.61401 -0.9425,1.66515 -5.4246,5.10182 -3.6255,4.4503 6.907,-2.50134 13.1756,-6.52438 19.53,-10.21003 5.3613,-3.1096 -25.5035,12.62376 -17.8034,5.36229 -4.4287,0.32052 -8.8479,0.82702 -13.2861,0.96156 -11.8335,0.35871 -23.4832,-0.26922 -35.2895,-1.09089 -18.4585,-1.28463 -36.9754,-2.99121 -55.023,-7.26155 -3.973,-1.28893 -8.0566,-2.27687 -11.919,-3.86678 -9.6077,-3.95485 -17.7879,-11.19163 -19.9818,-21.66139 -0.4964,-2.36872 -0.4869,-4.8158 -0.7303,-7.22369 0.175,-2.72287 0.2032,-5.45916 0.5249,-8.16862 1.9724,-16.61061 7.1312,-32.99423 16.1579,-47.11271 1.9416,-2.42945 3.6843,-5.03216 5.8247,-7.28834 6.568,-6.92301 19.9105,-14.375 -9.9574,2.91348 -2.7607,1.59796 5.6619,-2.95251 8.5923,-4.21252 8.4088,-3.61558 10.8986,-3.94119 19.8319,-6.3625 16.7475,-3.51659 32.0866,-5.42926 49.2013,-4.14132 0,0 24.1046,-17.51306 24.1046,-17.51306 z" />
    <path
       style="fill:#b3b3b3"
       id="path211"
       d="m 1401.2853,474.12474 c -0.4959,-12.01302 -0.4097,-24.04065 -0.4833,-36.06132 0.085,-20.57327 -0.3883,-41.13628 -1.0531,-61.69676 -0.9088,-28.27858 -1.2419,-56.57167 -1.4461,-84.8628 0.074,-23.08983 -0.7448,-46.16833 -1.0562,-69.25369 0.084,-2.01339 -0.1065,-4.05703 0.251,-6.04019 0.1846,-1.02388 0.8972,-1.87741 1.3459,-2.81611 -7.7915,5.07604 -16.2421,9.2613 -23.3744,15.22813 -0.8684,0.72652 1.9232,1.24278 2.6853,2.0802 3.0608,3.3636 5.9394,8.38584 8.2876,12.12026 10.5199,18.97821 18.031,39.33758 25.2139,59.7462 6.1198,18.00388 11.6523,36.19439 16.8798,54.47361 2.2453,6.28522 3.1813,20.64973 8.5252,24.89062 1.6154,1.28194 3.6956,1.83138 5.5434,2.74707 2.5964,0.19912 5.1864,0.67409 7.7893,0.59736 25.0958,-0.7397 47.5794,-18.49882 67.6105,-30.72328 11.2593,-9.03697 20.9002,-20.00292 27.5529,-32.87298 1.1969,-2.31544 2.1637,-4.74275 3.2455,-7.11412 5.5678,-13.42378 8.1071,-27.79202 11.6123,-41.83011 2.9864,-12.23493 8.1356,-23.6301 14.5593,-34.40269 2.4336,-3.33363 4.973,-6.9197 8.5299,-9.18602 0.8363,-0.53283 3.5551,-1.74739 2.7066,-1.2343 -23.2228,14.04303 -32.6743,14.28052 -22.0981,13.76403 6.1858,7.61911 5.5209,24.30007 5.496,33.51268 -0.5224,19.74155 -6.5309,38.6249 -12.5006,57.26039 -7.9964,20.917 -15.1764,42.12361 -22.1063,63.41477 -6.2752,19.84878 -12.5459,39.67071 -16.4683,60.13413 -3.1785,19.50514 -3.9745,39.27546 -3.0421,58.98657 1.5836,16.72379 6.3544,32.70507 12.1867,48.35788 2.8853,6.29581 7.8063,9.8312 13.7243,12.93417 0,0 24.5953,-16.20948 24.5953,-16.20948 v 0 c -5.4658,-2.48472 -10.0385,-5.36258 -12.79,-10.96963 -2.6139,-6.22044 -5.3368,-12.45677 -7.1857,-18.96154 -2.6129,-9.19269 -4.1554,-18.6992 -5.2442,-28.1763 -0.7991,-19.51169 -0.022,-39.08321 3.2994,-58.36314 4.0296,-20.31317 10.2157,-40.03974 16.4881,-59.75933 6.9435,-21.28572 14.0049,-42.52568 22.0863,-63.41235 6.1696,-18.90339 11.9971,-38.13175 12.4158,-58.19028 0.082,-9.84351 0.6087,-25.47475 -4.1576,-34.4542 -0.5616,-1.05803 -1.3825,-1.95659 -2.0737,-2.93488 -0.8317,-0.43891 -1.6384,-1.70439 -2.4952,-1.31672 -17.9556,8.12421 -28.7153,11.98406 -38.1237,26.7243 -6.1027,11.04774 -11.0161,22.66599 -13.9137,34.99421 -3.4384,13.87421 -5.9302,28.10962 -11.7333,41.25887 -7.7749,15.94497 -16.7546,27.77862 -31.1224,38.51688 5.6287,-2.96136 11.1921,-6.05041 16.8861,-8.88406 2.7964,-1.39164 -5.3846,3.17946 -8.1886,4.55575 -10.3538,5.082 -21.6061,8.2054 -33.2002,7.75844 -1.5165,-0.52163 -3.2154,-0.6748 -4.5494,-1.56489 -4.7122,-3.14412 -6.2449,-18.44676 -8.4569,-23.73788 -5.6892,-18.11854 -11.6467,-36.14888 -17.8,-54.11578 -7.1954,-20.63806 -14.5774,-41.26571 -24.8553,-60.62133 -2.0941,-3.61047 -5.431,-9.63224 -8.0068,-13.13058 -1.0453,-1.41975 -1.8023,-4.56915 -3.4686,-3.99303 -26.3783,9.12038 -28.7107,7.13463 -28.1527,24.09806 1.1131,22.85368 2.2051,45.72461 2.1619,68.61068 0.1686,28.35547 0.4588,56.70911 1.1827,85.05686 0.3944,20.70491 0.3029,41.39666 0.097,62.10363 -0.074,12.18487 0.01,24.37622 -0.4833,36.55376 0,0 26.6714,-13.58974 26.6714,-13.58974 z" />
    <path
       style="fill:#b3b3b3"
       id="path213"
       d="m 1632.616,402.86532 c 9.2895,10.7095 20.9006,18.5831 33.0819,25.61398 19.1463,9.15511 40.1788,9.94015 60.9726,8.89294 9.718,-1.41251 20.6291,-1.58547 29.4308,-6.60345 30.2586,-17.25072 22.7546,-9.58266 34.3578,-23.07117 9.1198,-13.82648 10.6823,-30.52101 11.4949,-46.64899 -0.4684,-9.21734 0.5961,-22.62239 -6.4828,-29.88434 -1.2082,-1.23937 -2.7641,-2.08385 -4.1462,-3.12578 -14.8116,-6.5438 -31.278,-4.44273 -46.7379,-1.76777 -17.8252,3.27935 -34.575,10.1654 -50.8787,17.86603 -18.2792,10.6839 -39.1917,19.0915 -53.0018,35.73422 -4.7566,5.73217 -5.4722,8.05893 -8.8894,14.7278 -8.5511,18.95505 -10.2341,39.77065 -11.403,60.25478 -0.325,12.93797 -1.4404,26.25282 1.1256,39.06676 1.3165,6.57438 3.0658,10.27472 5.4795,16.47201 6.1517,12.39507 14.3092,24.21201 25.4251,32.69361 2.1732,1.65813 4.5574,3.01963 6.8361,4.52945 17.3028,8.8713 36.7922,9.33698 55.7729,8.04381 7.4075,-0.50727 14.468,-2.63635 21.5152,-4.78512 0,0 22.9709,-17.80529 22.9709,-17.80529 v 0 c -7.041,2.37361 -14.0524,4.92355 -21.5207,5.60734 -18.4798,1.86571 -37.4491,1.5782 -54.5359,-6.60779 -2.2177,-1.39263 -4.5419,-2.62851 -6.6531,-4.17789 -10.9028,-8.00161 -18.7233,-19.54689 -24.7581,-31.45258 -2.3012,-5.96939 -3.9622,-9.50973 -5.2137,-15.82284 -2.4983,-12.60332 -1.5537,-25.67964 -1.2373,-38.40893 1.3543,-20.24817 3.1939,-40.83149 12.3047,-59.31969 4.7735,-8.3816 7.964,-13.49541 15.3392,-19.94315 2.2276,-1.94742 9.7664,-6.48462 6.9838,-5.47886 -5.9777,2.16059 -11.1214,6.16431 -16.797,9.02581 -2.7301,1.37646 5.3029,-3.04501 7.9543,-4.56752 16.1054,-7.90774 32.7796,-14.83382 50.4204,-18.47777 14.7353,-2.84206 30.256,-4.97299 44.7055,0.38447 1.2068,0.77557 2.5612,1.35922 3.6204,2.32671 6.4527,5.89413 5.8262,19.93561 6.1728,27.77766 -0.9083,15.75569 -2.7245,32.08196 -12.6793,44.97924 -9.6127,9.47504 -7.2773,6.34333 15.2164,-6.2156 1.8918,-1.05626 -3.799,2.11102 -5.8156,2.90353 -7.4836,2.94103 -15.6178,3.76399 -23.4942,4.92631 -20.3436,1.53287 -40.9614,1.11982 -59.8199,-7.67023 -11.8142,-6.69111 -23.3492,-14.14518 -31.3582,-25.38673 0,0 -25.758,15.39503 -25.758,15.39503 z" />
    <path
       sodipodi:type="star"
       style="fill:#b3b3b3"
       id="path219"
       sodipodi:sides="5"
       sodipodi:cx="96.974648"
       sodipodi:cy="513.15747"
       sodipodi:r1="101.98039"
       sodipodi:r2="50.990196"
       sodipodi:arg1="0.98279372"
       sodipodi:arg2="1.6111123"
       inkscape:flatsided="false"
       inkscape:rounded="0"
       inkscape:randomized="0"
       d="M 153.54319,598.01029 94.919485,564.10623 33.755466,593.17832 47.884415,526.94693 1.3345006,477.76026 l 67.3558774,-7.0292 32.394592,-59.47111 27.49927,61.8871 66.57087,12.4315 -50.36039,45.27753 z"
       inkscape:transform-center-x="-1.2701588"
       inkscape:transform-center-y="-8.5223548" />
    <path
       sodipodi:type="star"
       style="fill:#b3b3b3"
       id="path221"
       sodipodi:sides="5"
       sodipodi:cx="466.69049"
       sodipodi:cy="703.06616"
       sodipodi:r1="164.44092"
       sodipodi:r2="82.220459"
       sodipodi:arg1="0.74194727"
       sodipodi:arg2="1.3702658"
       inkscape:flatsided="false"
       inkscape:rounded="0"
       inkscape:randomized="0"
       d="m 587.90879,814.18294 -104.84087,-30.54393 -84.59725,69.04958 -3.34861,-109.14819 -91.81204,-59.11927 102.77132,-36.91336 27.85429,-105.5873 66.86477,86.33448 109.02694,-6.13727 -61.44661,90.271 z"
       inkscape:transform-center-x="10.12181"
       inkscape:transform-center-y="-5.7616315" />
    <path
       sodipodi:type="star"
       style="fill:#b3b3b3"
       id="path223"
       sodipodi:sides="5"
       sodipodi:cx="860.64996"
       sodipodi:cy="816.20325"
       sodipodi:r1="48.655392"
       sodipodi:r2="24.327696"
       sodipodi:arg1="-1.6539376"
       sodipodi:arg2="-1.025619"
       inkscape:flatsided="false"
       inkscape:rounded="0"
       inkscape:randomized="0"
       d="m 856.60935,767.71592 16.65622,27.68629 32.24996,1.97478 -21.18417,24.39654 8.08766,31.28177 -29.74875,-12.60839 -27.25152,17.35842 2.79843,-32.18896 -24.93002,-20.55368 31.47828,-7.28547 z"
       inkscape:transform-center-x="1.2486172"
       inkscape:transform-center-y="-3.4426217" />
    <path
       sodipodi:type="star"
       style="fill:#b3b3b3"
       id="path225"
       sodipodi:sides="5"
       sodipodi:cx="1307.1375"
       sodipodi:cy="648.51794"
       sodipodi:r1="30.033995"
       sodipodi:r2="15.016997"
       sodipodi:arg1="0.83298127"
       sodipodi:arg2="1.4612998"
       inkscape:flatsided="false"
       inkscape:rounded="0"
       inkscape:randomized="0"
       d="m 1327.3405,670.7413 -18.562,-7.29629 -16.5336,11.15457 1.2032,-19.90821 -15.7178,-12.27744 19.3056,-5.00766 6.8195,-18.74245 10.7283,16.81331 19.9325,0.69397 -12.6752,15.39885 z"
       inkscape:transform-center-x="1.0142094"
       inkscape:transform-center-y="-1.8862451" />
    <path
       sodipodi:type="star"
       style="fill:#b3b3b3"
       id="path227"
       sodipodi:sides="5"
       sodipodi:cx="1101.0663"
       sodipodi:cy="628.31488"
       sodipodi:r1="27.47912"
       sodipodi:r2="13.73956"
       sodipodi:arg1="-2.5127964"
       sodipodi:arg2="-1.8844778"
       inkscape:flatsided="false"
       inkscape:rounded="0"
       inkscape:randomized="0"
       d="m 1078.8429,612.15244 17.9839,3.09332 12.7435,-13.06102 2.6154,18.05954 16.3597,8.08373 -16.3674,8.06809 -2.6327,18.05703 -12.731,-13.07318 -17.9868,3.07613 8.4992,-16.14776 z"
       inkscape:transform-center-x="-2.6201639"
       inkscape:transform-center-y="0.0040568696" />
    <path
       sodipodi:type="star"
       style="fill:#b3b3b3"
       id="path229"
       sodipodi:sides="5"
       sodipodi:cx="585.88849"
       sodipodi:cy="111.11678"
       sodipodi:r1="42.039825"
       sodipodi:r2="21.019913"
       sodipodi:arg1="-2.1854593"
       sodipodi:arg2="-1.5571407"
       inkscape:flatsided="false"
       inkscape:rounded="0"
       inkscape:randomized="0"
       d="m 561.64483,76.771597 24.53069,13.327233 24.88548,-12.652385 -5.09455,27.448415 19.72317,19.7577 -27.6793,3.63682 -12.69589,24.86331 -12.0122,-25.20074 -27.56966,-4.39132 20.25536,-19.21173 z"
       inkscape:transform-center-x="0.17739439"
       inkscape:transform-center-y="3.8453597" />
    <path
       sodipodi:type="star"
       style="fill:#b3b3b3"
       id="path231"
       sodipodi:sides="5"
       sodipodi:cx="1264.7111"
       sodipodi:cy="127.27922"
       sodipodi:r1="94.177429"
       sodipodi:r2="47.088715"
       sodipodi:arg1="-0.39644128"
       sodipodi:arg2="0.23187725"
       inkscape:flatsided="false"
       inkscape:rounded="0"
       inkscape:randomized="0"
       d="m 1351.5842,90.913728 -41.0447,47.186712 15.6025,60.56247 -57.5608,-24.45429 -52.7769,33.55364 5.4702,-62.30029 -48.2204,-39.82519 60.9415,-14.049406 22.9751,-58.166956 32.1937,53.617282 z"
       inkscape:transform-center-x="2.3919052"
       inkscape:transform-center-y="-6.6878809" />
    <path
       sodipodi:type="star"
       style="fill:#b3b3b3"
       id="path233"
       sodipodi:sides="5"
       sodipodi:cx="1587.9598"
       sodipodi:cy="163.64471"
       sodipodi:r1="61.208866"
       sodipodi:r2="30.604433"
       sodipodi:arg1="1.5564826"
       sodipodi:arg2="2.1848011"
       inkscape:flatsided="false"
       inkscape:rounded="0"
       inkscape:randomized="0"
       d="m 1588.8359,224.84731 -18.5087,-36.18815 -40.3038,-5.26859 28.6975,-28.78557 -7.4438,-39.95927 36.2447,18.39769 35.7032,-19.4276 -6.297,40.15596 29.5097,27.95236 -40.1365,6.42007 z"
       inkscape:transform-center-x="-0.27072965"
       inkscape:transform-center-y="5.5868488" />
    <path
       sodipodi:type="star"
       style="fill:#b3b3b3"
       id="path235"
       sodipodi:sides="5"
       sodipodi:cx="1672.8126"
       sodipodi:cy="711.1474"
       sodipodi:r1="49.321934"
       sodipodi:r2="24.660967"
       sodipodi:arg1="0.96007036"
       sodipodi:arg2="1.5883889"
       inkscape:flatsided="false"
       inkscape:rounded="0"
       inkscape:randomized="0"
       d="m 1701.0969,751.5535 -28.7181,-15.74895 -29.2543,14.72896 6.1037,-32.17923 -23.0481,-23.27103 32.4904,-4.1389 15.0098,-29.11125 13.9764,29.62124 32.3247,5.27929 -23.8525,22.44584 z"
       inkscape:transform-center-x="-0.26812002"
       inkscape:transform-center-y="-4.4540994" />
    <path
       sodipodi:type="star"
       style="fill:#b3b3b3"
       id="path237"
       sodipodi:sides="5"
       sodipodi:cx="1460.6805"
       sodipodi:cy="884.89362"
       sodipodi:r1="95.980438"
       sodipodi:r2="47.990219"
       sodipodi:arg1="2.2817057"
       sodipodi:arg2="2.9100242"
       inkscape:flatsided="false"
       inkscape:rounded="0"
       inkscape:randomized="0"
       d="m 1398.0511,957.6246 15.9202,-61.71702 -41.8156,-48.10301 63.616,-3.93058 32.8269,-54.63365 23.3967,59.28778 62.1037,14.33757 -49.156,40.57245 5.5552,63.49474 -53.7767,-34.21263 z"
       inkscape:transform-center-x="-2.4468263"
       inkscape:transform-center-y="-6.8070047" />
    <path
       sodipodi:type="star"
       style="fill:#b3b3b3"
       id="path239"
       sodipodi:sides="5"
       sodipodi:cx="1123.2896"
       sodipodi:cy="888.93427"
       sodipodi:r1="54.360851"
       sodipodi:r2="27.180426"
       sodipodi:arg1="-0.7328151"
       sodipodi:arg2="-0.10449657"
       inkscape:flatsided="false"
       inkscape:rounded="0"
       inkscape:randomized="0"
       d="m 1163.6957,852.56877 -13.374,33.5304 20.0397,30.02603 -36.0221,-2.35791 -22.3639,28.33739 -8.8889,-34.98767 -33.8613,-12.51255 30.5284,-19.26566 1.4365,-36.07058 27.7565,23.08084 z"
       inkscape:transform-center-x="3.4962564"
       inkscape:transform-center-y="1.7521851" />
    <path
       sodipodi:type="star"
       style="fill:#b3b3b3"
       id="path241"
       sodipodi:sides="5"
       sodipodi:cx="462.64987"
       sodipodi:cy="965.70581"
       sodipodi:r1="34.345188"
       sodipodi:r2="17.172592"
       sodipodi:arg1="-2.6516353"
       sodipodi:arg2="-2.0233168"
       inkscape:flatsided="false"
       inkscape:rounded="0"
       inkscape:randomized="0"
       d="m 432.34529,949.54337 22.79615,0.71831 13.5152,-18.3717 6.36124,21.90238 21.64896,7.17656 -18.86468,12.81811 -0.13542,22.80705 -18.02025,-13.98035 -21.73264,6.91898 7.72754,-21.45845 z"
       inkscape:transform-center-x="-1.8561926"
       inkscape:transform-center-y="-1.4637807" />
    <path
       sodipodi:type="star"
       style="fill:#b3b3b3"
       id="path243"
       sodipodi:sides="5"
       sodipodi:cx="216.17264"
       sodipodi:cy="824.28448"
       sodipodi:r1="72.871147"
       sodipodi:r2="36.435574"
       sodipodi:arg1="-2.3757998"
       sodipodi:arg2="-1.7474813"
       inkscape:flatsided="false"
       inkscape:rounded="0"
       inkscape:randomized="0"
       d="m 163.64471,773.77686 46.12375,14.63929 38.20776,-29.69641 0.33023,48.39009 40.04982,27.16104 -45.91967,15.26743 -13.45561,46.48286 -28.71014,-38.9543 -48.36584,1.56694 28.17581,-39.34251 z"
       inkscape:transform-center-x="-3.9579983"
       inkscape:transform-center-y="3.0859626" />
    <path
       sodipodi:type="star"
       style="fill:#b3b3b3"
       id="path245"
       sodipodi:sides="5"
       sodipodi:cx="165.66502"
       sodipodi:cy="145.46198"
       sodipodi:r1="32.387955"
       sodipodi:r2="16.193977"
       sodipodi:arg1="-1.6332151"
       sodipodi:arg2="-1.0048966"
       inkscape:flatsided="false"
       inkscape:rounded="0"
       inkscape:randomized="0"
       d="m 163.64472,113.13709 10.70312,18.65544 21.43567,1.75908 -14.43494,15.94412 4.951,20.93012 -19.62439,-8.80143 -18.37578,11.17644 2.30638,-21.3837 -16.30785,-14.0227 21.04982,-4.41442 z"
       inkscape:transform-center-x="0.62430861"
       inkscape:transform-center-y="-2.4929987" />
    <path
       style="fill:#b3b3b3;fill-opacity:0.67451;stroke-width:2.02031"
       d="m 125.4498,580.33649 c -14.41188,-8.38151 -27.250846,-15.66922 -28.531051,-16.19492 -1.280203,-0.5257 -15.189841,5.12293 -30.910308,12.5525 -15.720467,7.42957 -28.987348,13.10363 -29.481959,12.60902 -0.494613,-0.49461 1.823526,-13.3568 5.151419,-28.58265 3.327891,-15.22584 6.050712,-29.59659 6.050712,-31.93499 0,-2.66198 -8.05213,-12.58609 -21.535981,-26.54273 C 7.8315353,483.23783 5.2254525,479.74727 8.5149627,478.56545 c 2.1220713,-0.7624 16.6931683,-2.54367 32.3802153,-3.95838 l 28.521905,-2.5722 15.644643,-29.14738 c 8.604554,-16.03106 15.876684,-28.86979 16.160304,-28.5305 0.28361,0.33928 6.14016,13.3448 13.01455,28.90115 6.8744,15.55635 13.13238,28.91417 13.90664,29.68404 0.77426,0.76987 15.27209,3.94737 32.2174,7.06111 16.94531,3.11374 30.80965,6.16085 30.80965,6.77136 0,0.61051 -10.45507,10.45763 -23.2335,21.8825 -26.61701,23.7976 -24.89524,18.56607 -19.36838,58.84976 2.05808,15.00076 3.5941,27.45289 3.41339,27.6714 -0.18072,0.2185 -12.12011,-6.46032 -26.53198,-14.84182 z"
       id="path259" />
    <path
       style="fill:#b3b3b3;fill-opacity:0.67451;stroke-width:2.02031"
       d="M 123.74151,579.55671 C 108.42943,570.70698 95.472993,563.4663 94.94943,563.4663 c -0.523562,0 -13.680568,6.01562 -29.237792,13.36804 -15.557224,7.35242 -28.690545,12.96336 -29.185156,12.46875 -0.494613,-0.49461 1.823526,-13.3568 5.151419,-28.58265 3.327891,-15.22584 6.050712,-29.51822 6.050712,-31.76083 0,-2.42371 -8.71022,-13.19822 -21.475493,-26.56511 C 8.0925016,483.37798 5.3638428,479.69636 8.5754496,478.54307 10.664253,477.79298 25.135113,476.02846 40.732915,474.62191 l 28.359641,-2.55736 16.017071,-29.26041 c 8.809391,-16.09323 16.295723,-28.48406 16.636303,-27.53519 0.34058,0.94887 6.3136,14.45315 13.27337,30.0095 l 12.65414,28.28427 30.599,6.06091 c 16.82945,3.33351 31.0976,6.57261 31.707,7.19801 0.60939,0.6254 -9.32845,10.46805 -22.0841,21.87255 -26.57003,23.75559 -24.85342,18.53187 -19.32695,58.81272 2.05808,15.00076 3.57801,27.46899 3.37762,27.70716 -0.20039,0.23818 -12.89241,-6.80764 -28.2045,-15.65736 z"
       id="path261" />
    <path
       style="fill:#b3b3b3;fill-opacity:0.67451;stroke-width:2.02031"
       d="M 123.74151,579.55671 C 108.42943,570.70698 95.551564,563.4663 95.124033,563.4663 c -0.427531,0 -13.588289,6.01187 -29.246128,13.35971 -15.657839,7.34783 -28.869731,12.95877 -29.359759,12.46875 -0.490027,-0.49003 1.831862,-13.34847 5.159755,-28.57432 3.327891,-15.22584 6.050712,-29.37601 6.050712,-31.44481 0,-2.06881 -9.622187,-14.03856 -21.382642,-26.59946 C 8.4966937,483.61203 5.5755562,479.61849 8.668302,478.50872 c 2.037735,-0.7312 16.466811,-2.48026 32.064613,-3.88681 l 28.359641,-2.55736 16.015576,-29.25768 c 14.62811,-26.72302 16.194598,-28.84592 18.081988,-24.50473 1.13653,2.61412 7.16863,16.11717 13.40468,30.00677 l 11.33827,25.25381 30.46919,6.06091 c 16.75805,3.33351 30.99422,6.59905 31.63593,7.25677 0.64172,0.65771 -9.29612,10.4897 -22.08409,21.84885 -26.64671,23.66945 -24.92056,18.43574 -19.38571,58.77766 2.05808,15.00076 3.57801,27.46899 3.37762,27.70716 -0.20039,0.23818 -12.89241,-6.80764 -28.2045,-15.65736 z"
       id="path263" />
    <path
       style="fill:#b3b3b3;fill-opacity:0.67451;stroke-width:2.02031"
       d=""
       id="path267" />
    <path
       style="fill:#b3b3b3;fill-opacity:0.67450982"
       d="M 123.49026,579.41149 95.398855,563.17587 66.394547,576.67136 c -15.952369,7.42252 -29.434376,13.06542 -29.960015,12.53978 -0.525639,-0.52564 1.800494,-13.34511 5.169187,-28.48771 3.368691,-15.1426 6.124894,-29.25939 6.124894,-31.37063 0,-2.11125 -9.638497,-14.13315 -21.418886,-26.71534 C 1.2442043,475.86592 -0.00641885,478.21557 41.30497,474.4647 l 26.911392,-2.44342 4.530237,-7.3105 c 2.49163,-4.02078 9.848048,-17.08788 16.347593,-29.038 6.499546,-11.95012 12.008168,-21.49606 12.241368,-21.2132 0.23321,0.28286 6.07968,13.24221 12.99216,28.79856 6.91247,15.55635 13.16553,28.89186 13.89569,29.63446 0.73016,0.7426 15.1919,3.92385 32.13721,7.06945 16.94531,3.14559 30.80965,6.26505 30.80965,6.93213 0,0.66708 -10.45507,10.49979 -23.2335,21.85048 -26.62705,23.65197 -24.90306,18.42153 -19.36838,58.76225 2.05808,15.00076 3.57801,27.46899 3.37762,27.70716 -0.20039,0.23818 -13.00548,-6.87298 -28.45575,-15.80258 z"
       id="path269" />
    <path
       style="fill:#b3b3b3;fill-opacity:0.67451;stroke-width:2.02031"
       d="m 140.58356,589.41033 c -6.06793,-3.41126 -18.64945,-10.74088 -27.95894,-16.28804 L 95.698273,563.03655 66.544256,576.6017 c -16.034709,7.46083 -29.584085,13.13508 -30.109724,12.60944 -0.525639,-0.52564 1.800494,-13.34511 5.169187,-28.48771 3.368691,-15.1426 6.124894,-29.19595 6.124894,-31.22966 0,-2.03372 -9.607538,-14.04361 -21.350087,-26.68867 -23.8725232,-25.70731 -23.8419972,-24.76938 -0.873269,-26.83187 45.397579,-4.0765 42.335522,-3.3443 47.266626,-11.3025 2.477724,-3.99875 9.822764,-17.04783 16.322309,-28.99795 6.499546,-11.95012 12.008168,-21.49606 12.241368,-21.2132 0.23321,0.28286 6.07968,13.24221 12.99216,28.79856 6.91247,15.55635 13.16553,28.89186 13.89569,29.63446 0.73016,0.7426 15.1919,3.92385 32.13721,7.06945 16.94531,3.14559 30.80965,6.27874 30.80965,6.96255 0,0.6838 -10.0048,10.0893 -22.23289,20.90111 -12.22809,10.8118 -22.73855,21.6725 -23.35657,24.13489 -0.61802,2.46239 0.62137,17.60432 2.75421,33.64875 2.13283,16.04442 3.7436,29.35879 3.5795,29.58748 -0.16411,0.22869 -5.26304,-2.37523 -11.33096,-5.7865 z"
       id="path271" />
    <path
       style="fill:#00ffff;fill-opacity:0.67451;stroke-width:2.02031"
       d="m 140.58356,589.41033 c -6.06793,-3.41126 -18.64945,-10.74088 -27.95894,-16.28804 L 95.698273,563.03655 66.544256,576.6017 c -16.034709,7.46083 -29.556669,13.16249 -30.0488,12.67036 -0.492132,-0.49213 1.834003,-13.76799 5.169187,-29.50192 3.335183,-15.73394 6.049646,-29.74843 6.032138,-31.14332 -0.01751,-1.39489 -9.567977,-12.91096 -21.223262,-25.59126 -11.655286,-12.6803 -20.7438006,-23.50272 -20.1966994,-24.04982 0.5471013,-0.5471 14.8705394,-2.44567 31.8298624,-4.21903 l 30.835135,-3.2243 14.167416,-25.25381 c 7.792078,-13.8896 15.090812,-26.82603 16.219405,-28.74763 1.665792,-2.83626 4.506972,2.04442 15.096182,25.93276 7.17431,16.18462 13.51264,29.71474 14.08518,30.06694 0.57253,0.35219 14.90531,3.22792 31.85062,6.3905 16.94531,3.16258 30.80965,6.3217 30.80965,7.02027 0,0.69857 -6.13667,6.60869 -13.63705,13.1336 -24.79004,21.56594 -32.83348,30.23852 -32.76899,35.33212 0.0335,2.64859 1.72362,17.08898 3.75574,32.08975 2.03213,15.00076 3.5601,27.46123 3.39548,27.68992 -0.16461,0.22869 -5.26397,-2.37523 -11.33189,-5.7865 z"
       id="path273" />
    <path
       style="fill:#66b933;fill-opacity:0.67450982;stroke-width:2.02031"
       d="m 214.59423,874.7036 -13.73716,-18.71599 -23.02614,0.73095 c -12.66438,0.40202 -23.02615,0.48984 -23.02615,0.19515 0,-0.29469 5.96951,-8.78644 13.26557,-18.87055 l 13.26556,-18.33475 -7.96563,-22.05504 c -4.38109,-12.13027 -7.85047,-22.04983 -7.70972,-22.04345 0.14074,0.006 10.21358,3.14337 22.38407,6.9711 l 22.12817,6.95951 14.8425,-11.51678 c 25.49866,-19.78525 22.72352,-20.55477 22.72352,6.301 v 23.3614 l 18.22117,12.606 c 10.02165,6.93329 17.52203,13.23748 16.66752,14.0093 -0.85451,0.77183 -10.3998,4.31283 -21.21174,7.8689 l -19.65808,6.46559 -4.19969,14.4939 c -2.30983,7.97164 -5.33075,18.04797 -6.71315,22.39183 l -2.51346,7.89793 z"
       id="path275" />
    <path
       style="font-variation-settings:normal;opacity:1;vector-effect:none;fill:#00ff00;fill-opacity:0.67451;stroke-width:4.08164;stroke-linecap:butt;stroke-linejoin:miter;stroke-miterlimit:4;stroke-dasharray:none;stroke-dashoffset:0;stroke-opacity:1;stop-color:#000000;stop-opacity:1"
       d=""
       id="path1104" />
    <path
       style="font-variation-settings:normal;opacity:1;vector-effect:none;fill:#00ff00;fill-opacity:0.67451;stroke-width:4.08164;stroke-linecap:butt;stroke-linejoin:miter;stroke-miterlimit:4;stroke-dasharray:none;stroke-dashoffset:0;stroke-opacity:1;stop-color:#000000;stop-opacity:1"
       d="m 122.4799,577.34321 c -13.33401,-7.91564 -25.152797,-14.4261 -26.263964,-14.46769 -1.111168,-0.0416 -14.349733,5.52914 -29.419035,12.37941 -15.0693,6.85026 -27.900468,12.45503 -28.513707,12.45503 -0.613239,0 1.514168,-12.95521 4.727575,-28.78935 3.394421,-16.72609 5.183648,-30.22786 4.270048,-32.2224 -0.864881,-1.88818 -10.072144,-13.08652 -20.46059,-24.8852 C 16.431783,490.01433 8.2495471,480.0604 8.6374815,479.69317 c 0.3879343,-0.36724 14.3423945,-2.20662 31.0099115,-4.08752 16.667517,-1.88089 30.391462,-3.56458 30.497655,-3.74152 0.106187,-0.17694 6.909031,-12.33802 15.11742,-27.02461 8.208388,-14.68659 15.581102,-26.04614 16.383802,-25.24343 0.80271,0.8027 6.59018,12.819 12.86106,26.70289 6.27088,13.88389 12.02907,25.91513 12.79599,26.73609 0.76691,0.82097 14.92285,4.23269 31.45763,7.58161 16.53478,3.34893 30.26991,6.31378 30.52251,6.58856 0.25261,0.27479 -7.75025,7.77271 -17.78413,16.66206 -10.03389,8.88934 -20.51188,19.12882 -23.28443,22.75441 l -5.041,6.59197 3.29006,25.95977 c 3.72401,29.3838 3.89819,32.58019 1.77483,32.56947 -0.83337,-0.004 -12.42487,-6.48408 -25.75889,-14.39971 z"
       id="path1106" />
    <path
       style="font-variation-settings:normal;opacity:1;vector-effect:none;fill:#00ff00;fill-opacity:0.67451;stroke-width:4.08164;stroke-linecap:butt;stroke-linejoin:miter;stroke-miterlimit:4;stroke-dasharray:none;stroke-dashoffset:0;stroke-opacity:1;stop-color:#000000;stop-opacity:1"
       d="M 263.90126,433.19864 C 235.36124,426.91891 199.98949,408.90663 183.17188,392.08902 172.54182,381.45896 160.8091,360.02 157.70776,345.55897 c -3.47815,-16.21806 -0.0154,-27.41317 17.72967,-57.31984 12.3437,-20.80349 16.95255,-26.8451 22.68313,-29.73467 17.01902,-8.58161 17.05287,-8.0098 1.10502,18.67102 -22.19157,37.12661 -23.56067,49.66187 -8.59668,78.71025 10.38616,20.16181 23.58155,32.26733 49.91902,45.79596 23.72095,12.18463 45.92857,18.42986 65.97541,18.55362 20.08899,0.12405 28.49359,-1.83446 33.12173,-7.71819 6.89443,-8.76485 7.12085,-17.45435 1.08098,-41.48666 -6.36884,-25.34133 -6.21386,-25.8441 9.84548,-31.94011 11.9416,-4.53295 15.35375,-2.67766 29.4416,16.00825 6.14205,8.14671 13.53277,16.04575 16.42383,17.55343 7.57517,3.95042 28.41276,6.93362 48.55433,6.95124 16.04272,0.0139 17.69303,-0.3628 20.52638,-4.68703 9.34561,-14.26322 11.82824,-40.7914 6.31522,-67.48164 -6.60285,-31.96642 -20.8419,-56.64762 -42.75905,-74.1162 l -12.45824,-9.92955 11.02832,-6.89825 11.0283,-6.89824 6.91171,4.27167 c 10.39081,6.42188 27.61195,25.98603 34.87327,39.61797 8.48292,15.92524 16.10768,42.71395 17.8533,62.72548 1.71706,19.68387 -2.49134,38.72874 -10.88708,49.26892 -6.51296,8.1765 -33.93874,25.29621 -45.66061,28.50224 -9.74066,2.66415 -50.46371,-0.47717 -63.23731,-4.87804 l -8.41689,-2.89985 -2.23693,6.77792 c -2.97467,9.01337 -14.00877,18.12531 -35.64297,29.43392 -26.17916,13.68436 -43.05098,16.34771 -68.32744,10.78605 z"
       id="path1108" />
    <path
       style="font-variation-settings:normal;opacity:1;vector-effect:none;fill:#00ff00;fill-opacity:0.67451;stroke-width:4.08164;stroke-linecap:butt;stroke-linejoin:miter;stroke-miterlimit:4;stroke-dasharray:none;stroke-dashoffset:0;stroke-opacity:1;stop-color:#000000;stop-opacity:1"
       d="m 617.55536,481.53403 c -31.45592,-7.87777 -49.91208,-30.73639 -62.73461,-77.69909 -6.24239,-22.86282 -8.88699,-64.57575 -5.30034,-83.60163 3.97153,-21.06751 18.5591,-46.31043 24.60346,-42.57481 2.67954,1.65605 12.14881,-4.47047 11.49823,-7.43923 -0.27078,-1.23565 6.34597,-5.83588 14.7039,-10.22273 12.93511,-6.7893 17.59458,-8.13159 31.31473,-9.02113 45.65187,-2.95983 86.52045,19.7509 92.56202,51.43686 2.9454,15.44758 -7.2572,41.8408 -20.58095,53.2411 -12.42745,10.6334 -38.19926,23.38183 -52.43235,25.93649 -18.23497,3.27295 -43.40838,-0.95952 -66.53317,-11.1864 -6.19261,-2.73866 -11.71901,-4.51968 -12.28088,-3.95781 -1.99732,1.99733 9.91174,42.70212 16.67213,56.98479 7.87568,16.63894 20.63503,31.48925 32.06603,37.32092 10.37531,5.29308 31.68403,9.70211 47.10125,9.74583 19.28873,0.0548 24.1072,-1.50652 28.21991,-9.14336 2.5046,-4.65076 6.47201,-7.86729 12.82157,-10.39489 5.05708,-2.0131 9.8808,-3.96323 10.71938,-4.33362 3.55083,-1.56836 1.04114,3.54151 -5.48278,11.16324 -4.24894,4.96393 -13.59377,11.64441 -23.73859,16.97038 -16.4895,8.65687 -17.05203,8.79094 -38.95446,9.28468 -14.54582,0.32789 -26.37632,-0.5391 -34.24448,-2.50959 z m 69.58831,-121.75897 c 5.9356,-7.11438 14.15364,-29.20642 14.15364,-38.04833 0,-17.85171 -14.33722,-37.01226 -34.44848,-46.03766 -18.09807,-8.12193 -40.52965,-12.06003 -58.89281,-10.33926 -14.71508,1.37892 -15.27673,1.63417 -21.5469,9.79238 -3.54089,4.60711 -8.16501,13.96801 -10.27581,20.802 -4.85144,15.70713 -7.59809,41.24794 -4.4358,41.24794 1.23317,0 7.37751,3.28507 13.6541,7.30015 26.19863,16.75906 47.20481,23.02042 75.2595,22.43275 l 20.93311,-0.43848 z"
       id="path1110" />
    <path
       style="font-variation-settings:normal;opacity:1;vector-effect:none;fill:#00ff00;fill-opacity:0.67451;stroke-width:4.08164;stroke-linecap:butt;stroke-linejoin:miter;stroke-miterlimit:4;stroke-dasharray:none;stroke-dashoffset:0;stroke-opacity:1;stop-color:#000000;stop-opacity:1"
       d="m 840.69836,572.49548 c -9.44493,-1.43819 -18.23926,-2.69442 -19.54297,-2.79159 -6.36464,-0.47439 -14.55659,-10.69412 -16.74255,-20.88689 -3.19326,-14.88965 -2.77691,-81.08876 0.78585,-124.9488 1.66101,-20.44823 3.98816,-54.90678 5.17143,-76.57455 1.18327,-21.66777 3.52673,-57.57869 5.20768,-79.80205 1.68096,-22.22336 3.70235,-49.39183 4.49198,-60.3744 l 1.43568,-19.96829 10.69716,-6.03676 c 5.88343,-3.32022 11.16419,-5.56972 11.73502,-4.9989 0.57082,0.57082 -1.24449,26.36473 -4.03403,57.31978 -2.78954,30.95506 -6.05845,75.82838 -7.26424,99.71849 -1.2058,23.8901 -3.60195,60.25559 -5.32478,80.8122 -3.82207,45.60453 -4.24327,101.79135 -0.88272,117.75376 3.64677,17.32194 8.01783,21.26254 27.39847,24.70031 8.88935,1.57681 20.70813,2.91886 26.26397,2.98234 l 10.10153,0.11536 -5.05077,4.08948 c -14.1303,11.44095 -19.99436,12.61392 -44.44671,8.89047 z"
       id="path1112" />
    <path
       style="font-variation-settings:normal;opacity:1;vector-effect:none;fill:#00ff00;fill-opacity:0.67451;stroke-width:4.08164;stroke-linecap:butt;stroke-linejoin:miter;stroke-miterlimit:4;stroke-dasharray:none;stroke-dashoffset:0;stroke-opacity:1;stop-color:#000000;stop-opacity:1"
       d="m 938.68316,534.36956 c -21.67342,-6.87239 -52.37019,-28.38311 -60.63894,-42.49265 -4.73899,-8.0865 -5.2845,-11.08833 -5.2845,-29.07983 0,-11.03436 1.39354,-40.40028 3.09675,-65.25757 2.92618,-42.70576 7.36416,-174.04567 7.29848,-215.99509 l -0.0302,-19.27711 11.15643,-5.47162 c 6.13604,-3.0094 11.72942,-5.47163 12.42973,-5.47163 0.70032,0 0.64631,11.5915 -0.12002,25.75889 -0.76633,14.16739 -2.24984,60.3061 -3.2967,102.53048 -1.04686,42.22438 -3.38359,96.77261 -5.19272,121.21831 -3.46964,46.88295 -2.95656,65.79774 2.04729,75.47413 7.99863,15.46764 45.19304,40.98472 64.16179,44.01794 4.28844,0.68575 8.20278,1.90311 8.69853,2.70525 1.51126,2.44528 -16.48493,14.1824 -21.52424,14.03811 -2.59626,-0.0743 -8.35703,-1.28825 -12.8017,-2.69761 z"
       id="path1114" />
    <path
       style="font-variation-settings:normal;opacity:1;vector-effect:none;fill:#00ff00;fill-opacity:0.67451;stroke-width:4.08164;stroke-linecap:butt;stroke-linejoin:miter;stroke-miterlimit:4;stroke-dasharray:none;stroke-dashoffset:0;stroke-opacity:1;stop-color:#000000;stop-opacity:1"
       d="m 1043.231,490.75204 c -17.5979,-3.74391 -48.49133,-23.02639 -61.79746,-38.5716 -14.7759,-17.26232 -26.82135,-52.52113 -28.84224,-84.42549 -1.36835,-21.60248 1.77099,-64.66463 6.55319,-89.88973 1.71363,-9.039 5.91206,-23.70763 9.32985,-32.59698 5.20385,-13.53468 8.3785,-18.31493 19.52622,-29.40169 13.46624,-13.39261 25.59334,-20.5428 40.53604,-23.90019 13.2718,-2.98199 61.3058,8.87671 103.5178,25.55666 l 23.6657,9.3514 -11.3677,7.54903 -11.3677,7.54902 -9.2675,-4.66907 c -27.6821,-13.94657 -91.4215,-32.24623 -108.0696,-31.02693 -7.3624,0.53921 -8.9826,1.66614 -14.7043,10.22743 -16.02507,23.97828 -22.73619,54.68747 -24.16732,110.5867 -1.01006,39.45248 -0.82137,42.33789 3.97952,60.85359 9.04712,34.89226 19.928,51.78246 44.7859,69.52072 16.4251,11.72076 27.1944,16.36982 44.2199,19.08966 15.4316,2.46522 40.1904,0.0541 50.0736,-4.87617 3.1272,-1.56006 8.6497,-3.41383 12.2721,-4.1195 10.429,-2.0316 -19.021,14.24135 -34.8299,19.24563 -14.9371,4.72832 -41.3186,6.65522 -54.0461,3.94751 z"
       id="path1116" />
    <path
       style="font-variation-settings:normal;opacity:1;vector-effect:none;fill:#00ff00;fill-opacity:0.67451;stroke-width:4.08164;stroke-linecap:butt;stroke-linejoin:miter;stroke-miterlimit:4;stroke-dasharray:none;stroke-dashoffset:0;stroke-opacity:1;stop-color:#000000;stop-opacity:1"
       d="m 1145.1882,459.18111 c -2.392,-2.39207 11.7422,-17.49565 19.7691,-21.12483 7.6444,-3.45623 7.8218,-3.73104 3.2827,-5.08354 -9.2018,-2.7418 -21.1761,-10.11415 -25.2158,-15.52498 -12.7364,-17.05901 0.057,-68.68556 21.7388,-87.72543 4.8117,-4.22537 17.0178,-11.77361 27.1247,-16.77387 10.1069,-5.00025 18.41,-9.71562 18.4513,-10.47859 0.041,-0.76298 -2.8795,-1.67211 -6.4908,-2.02031 l -6.566,-0.63308 9.4554,-6.56599 c 7.7961,-5.41377 11.3414,-6.56178 20.203,-6.54201 5.9113,0.0132 15.748,1.45784 21.8594,3.21034 6.1114,1.7525 14.2936,3.91 18.1827,4.79445 3.8891,0.88445 5.8806,1.71264 4.4255,1.84042 -1.5405,0.13528 0.7017,4.24121 5.3673,9.82878 14.926,17.87545 50.8336,89.22917 50.8088,100.96478 -0.017,8.21417 -7.7346,16.09135 -24.1127,24.61219 -13.5755,7.06274 -19.1392,8.79564 -31.1582,9.70463 -14.4636,1.09388 -69.0427,-2.343 -85.611,-5.39098 -6.6411,-1.22173 -9.1316,-0.88064 -11.1117,1.52188 -3.8082,4.6205 -25.7538,22.63577 -27.5741,22.63577 -0.8683,0 -2.1411,-0.56234 -2.8284,-1.24963 z m 157.1769,-35.20107 c 2.5599,-8.06558 -1.6855,-21.103 -16.0257,-49.21409 -17.179,-33.67605 -29.8725,-54.19999 -36.9776,-59.78888 -6.2774,-4.93782 -18.0879,-5.26618 -39.8248,-1.10723 -21.1221,4.04132 -25.3714,6.52565 -33.0222,19.30602 -13.2741,22.17408 -18.751,54.75535 -11.5462,68.68779 8.4113,16.26562 46.8653,25.30742 110.4643,25.97375 24.1457,0.25298 25.6982,0.0306 26.9322,-3.85736 z"
       id="path1120" />
    <path
       style="font-variation-settings:normal;opacity:1;vector-effect:none;fill:#00ff00;fill-opacity:0.67451;stroke-width:4.08164;stroke-linecap:butt;stroke-linejoin:miter;stroke-miterlimit:4;stroke-dasharray:none;stroke-dashoffset:0;stroke-opacity:1;stop-color:#000000;stop-opacity:1"
       d="m 1217.4435,198.44483 c 1.5263,-11.08431 5.1284,-53.86237 4.5604,-54.15821 -0.2629,-0.13694 -10.8116,-8.77494 -23.4415,-19.19555 l -22.9635,-18.94657 28.9477,-6.72899 c 15.9213,-3.700944 29.5264,-7.399887 30.2335,-8.219874 1.1303,-1.310523 14.1097,-33.481286 20.1097,-49.843614 2.1533,-5.87228 2.316,-5.68805 17.8371,20.203051 l 15.6639,26.129374 30.4791,2.020305 30.4791,2.020305 -20.0036,23.051263 c -12.5093,14.41519 -19.647,24.25489 -19.0517,26.26397 3.8809,13.09767 13.2786,53.36259 12.6105,54.03064 -0.4567,0.45673 -12.4931,-4.19921 -26.7475,-10.34655 -14.2544,-6.14733 -26.5003,-11.17697 -27.2132,-11.17697 -0.7129,0 -11.6735,6.62962 -24.3569,14.73249 -12.6834,8.10287 -24.2186,15.44288 -25.6338,16.31113 -1.9727,1.21034 -2.3248,-0.22356 -1.5093,-6.1462 z"
       id="path1122" />
    <path
       style="font-variation-settings:normal;opacity:1;vector-effect:none;fill:#00ff00;fill-opacity:0.67451;stroke-width:4.08164;stroke-linecap:butt;stroke-linejoin:miter;stroke-miterlimit:4;stroke-dasharray:none;stroke-dashoffset:0;stroke-opacity:1;stop-color:#000000;stop-opacity:1"
       d="m 1481.6414,947.30339 -24.7475,-15.9849 -27.7684,11.88717 c -15.2726,6.53794 -28.0508,11.60473 -28.396,11.25954 -0.3452,-0.3452 2.7508,-13.85023 6.8801,-30.01118 l 7.5078,-29.38354 -20.4748,-23.17469 -20.4748,-23.17468 23.6842,-1.2572 c 40.8732,-2.16962 37.2417,-0.19773 55.0546,-29.89486 l 15.4211,-25.7095 11.4911,28.85932 11.491,28.85931 30.4827,6.82178 c 22.958,5.13781 29.7795,7.35257 27.634,8.97202 -1.5668,1.18263 -12.5724,10.17705 -24.4568,19.9876 -17.5305,14.4713 -21.4388,18.66503 -20.7112,22.22335 0.4933,2.4123 1.4325,12.11366 2.087,21.55859 0.6546,9.44492 1.7172,21.03642 2.3614,25.75889 0.6442,4.72246 0.3862,8.54165 -0.5734,8.48708 -0.9595,-0.0546 -12.881,-7.29241 -26.4921,-16.0841 z"
       id="path1124" />
    <path
       style="font-variation-settings:normal;opacity:1;vector-effect:none;fill:#00ff00;fill-opacity:0.67451;stroke-width:4.08164;stroke-linecap:butt;stroke-linejoin:miter;stroke-miterlimit:4;stroke-dasharray:none;stroke-dashoffset:0;stroke-opacity:1;stop-color:#000000;stop-opacity:1"
       d="m 467.89337,987.5033 c -8.00444,-5.8109 -8.29869,-5.86148 -17.67767,-3.03882 -10.59095,3.18741 -10.91294,2.74398 -6.32803,-8.71484 3.13747,-7.84131 3.092,-8.17622 -2.0203,-14.87879 -2.87652,-3.7713 -5.23003,-7.45296 -5.23003,-8.18145 0,-0.72849 4.42205,-1.32453 9.82677,-1.32453 9.1843,0 10.19289,-0.52833 15.42705,-8.08122 3.08016,-4.44467 5.91812,-8.08122 6.30659,-8.08122 0.38846,0 1.7622,4.19336 3.05274,9.31858 2.37957,9.45011 3.27802,10.19977 18.87314,15.74749 3.51285,1.24965 2.98074,2.06702 -4.45952,6.85018 -7.92753,5.09642 -8.48477,6.07426 -9.03957,15.86255 l -0.59125,10.43133 z"
       id="path1126" />
    <path
       style="font-variation-settings:normal;opacity:1;vector-effect:none;fill:#00ff00;fill-opacity:0.67451;stroke-width:4.08164;stroke-linecap:butt;stroke-linejoin:miter;stroke-miterlimit:4;stroke-dasharray:none;stroke-dashoffset:0;stroke-opacity:1;stop-color:#000000;stop-opacity:1"
       d="m 837.82211,839.68169 1.33285,-14.70854 -11.56097,-9.51762 c -12.59324,-10.36745 -12.73608,-10.03379 6.0333,-14.0936 l 12.12183,-2.62195 5.05077,-13.57376 c 2.77792,-7.46557 5.50533,-13.57173 6.06091,-13.56925 0.55559,0.002 4.08751,5.35045 7.84871,11.88436 7.41105,12.87435 10.35327,14.26781 30.23191,14.31812 l 8.78619,0.0222 -10.35523,11.9532 -10.35524,11.95321 3.96571,14.31076 c 2.18115,7.87092 3.54167,14.31076 3.0234,14.31076 -0.51828,0 -6.34236,-2.27284 -12.9424,-5.05076 -6.60004,-2.77792 -12.91895,-5.05077 -14.04203,-5.05077 -1.12307,0 -7.01619,3.18198 -13.09581,7.07107 -6.07962,3.88909 -11.59001,7.07107 -12.24531,7.07107 -0.65529,0 -0.59166,-6.61884 0.14141,-14.70854 z"
       id="path1128" />
    <path
       style="font-variation-settings:normal;opacity:1;vector-effect:none;fill:#00ff00;fill-opacity:0.67451;stroke-width:4.08164;stroke-linecap:butt;stroke-linejoin:miter;stroke-miterlimit:4;stroke-dasharray:none;stroke-dashoffset:0;stroke-opacity:1;stop-color:#000000;stop-opacity:1"
       d=""
       id="path1130" />
    <path
       style="font-variation-settings:normal;opacity:1;vector-effect:none;fill:#00ff00;fill-opacity:0.67451;stroke-width:4.08164;stroke-linecap:butt;stroke-linejoin:miter;stroke-miterlimit:4;stroke-dasharray:none;stroke-dashoffset:0;stroke-opacity:1;stop-color:#000000;stop-opacity:1"
       d="m 1293.5055,663.39195 c 0.5264,-8.56116 -0.043,-9.95027 -6.1127,-14.90392 l -6.6933,-5.4628 8.4283,-2.52518 c 7.0039,-2.09844 9.0244,-3.92887 11.9558,-10.83115 l 3.5276,-8.30595 4.5181,7.3105 c 3.9963,6.46608 5.5928,7.38117 13.8214,7.92225 l 9.3032,0.61173 -5.7216,6.78053 c -5.3474,6.33709 -5.5757,7.32688 -3.4917,15.13454 1.2264,4.5947 1.9826,8.60121 1.6804,8.90335 -0.3021,0.30214 -3.9715,-0.88053 -8.1542,-2.62815 -7.3777,-3.08263 -7.8442,-3.01907 -15.6233,2.12893 l -8.0186,5.30643 z"
       id="path1132" />
    <path
       style="font-variation-settings:normal;opacity:1;vector-effect:none;fill:#00ff00;fill-opacity:0.67451;stroke-width:4.08164;stroke-linecap:butt;stroke-linejoin:miter;stroke-miterlimit:4;stroke-dasharray:none;stroke-dashoffset:0;stroke-opacity:1;stop-color:#000000;stop-opacity:1"
       d="m 1108.6961,924.59583 c -1.9041,-8.05597 -4.1159,-15.61391 -4.9151,-16.79543 -0.7992,-1.18152 -7.3625,-4.27746 -14.5851,-6.87988 -7.2226,-2.60241 -13.8622,-5.36605 -14.7546,-6.1414 -0.8924,-0.77536 4.7555,-5.26346 12.551,-9.97355 l 14.1735,-8.5638 0.581,-17.26925 0.5811,-17.26925 12.9121,10.79728 12.9122,10.79728 16.3341,-4.33353 c 8.9838,-2.38345 16.4819,-4.16038 16.6624,-3.94873 0.1805,0.21165 -2.4356,7.42429 -5.8135,16.0281 l -6.1417,15.64329 9.5419,14.34963 9.5418,14.34962 -17.0822,-1.42294 -17.0823,-1.42295 -10.6991,13.35136 c -5.8845,7.34325 -10.8243,13.35136 -10.9773,13.35136 -0.1531,0 -1.8361,-6.59124 -3.7402,-14.64721 z"
       id="path1134" />
    <path
       style="font-variation-settings:normal;opacity:1;vector-effect:none;fill:#00ff00;fill-opacity:0.67451;stroke-width:4.08164;stroke-linecap:butt;stroke-linejoin:miter;stroke-miterlimit:4;stroke-dasharray:none;stroke-dashoffset:0;stroke-opacity:1;stop-color:#000000;stop-opacity:1"
       d=""
       id="path1136" />
    <path
       style="font-variation-settings:normal;opacity:1;vector-effect:none;fill:#00ff00;fill-opacity:0.67451;stroke-width:4.08164;stroke-linecap:butt;stroke-linejoin:miter;stroke-miterlimit:4;stroke-dasharray:none;stroke-dashoffset:0;stroke-opacity:1;stop-color:#000000;stop-opacity:1"
       d="m 1534.2502,569.80361 c -11.4444,-11.44438 -19.895,-50.30394 -17.8537,-82.09876 1.9987,-31.12936 7.9991,-56.42205 25.6423,-108.08632 23.4681,-68.72138 27.8044,-85.75223 27.9059,-109.60155 0.046,-10.83388 -0.6457,-19.69797 -1.5374,-19.69797 -2.0924,0 -6.9289,14.08968 -13.4408,39.15543 -2.8523,10.9794 -6.858,23.70733 -8.9015,28.28428 -7.8286,17.53386 -30.5987,41.05483 -37.267,38.49595 -2.6365,-1.01174 -2.0426,-2.80456 3.5267,-10.64467 10.2742,-14.46341 12.7627,-20.41145 20.1942,-48.26894 3.7868,-14.19487 8.7117,-30.05422 10.9443,-35.24301 5.8606,-13.62081 17.6621,-25.6843 31.5723,-32.27335 l 12.0781,-5.72118 2.902,5.5316 c 4.0392,7.69909 5.1693,30.93916 2.3813,48.97133 -1.2882,8.33201 -10.9043,40.60496 -21.369,71.71766 -28.3508,84.28953 -32.6757,104.71867 -30.7941,145.46197 1.2449,26.95864 8.8338,52.8615 17.6638,60.29147 l 5.4747,4.60664 -6.2684,4.07649 c -18.7985,12.22527 -16.2366,11.65997 -22.8537,5.04293 z"
       id="path1138" />
    <path
       style="font-variation-settings:normal;opacity:1;vector-effect:none;fill:#00ff00;fill-opacity:0.67451;stroke-width:4.08164;stroke-linecap:butt;stroke-linejoin:miter;stroke-miterlimit:4;stroke-dasharray:none;stroke-dashoffset:0;stroke-opacity:1;stop-color:#000000;stop-opacity:1"
       d="m 1580.0322,205.56007 -8.6926,-17.48482 -14.8802,-2.21315 c -8.1841,-1.21724 -17.3205,-2.21316 -20.303,-2.21316 -5.0407,0 -4.3904,-1.03931 9.2304,-14.7516 l 14.6532,-14.75161 -3.087,-14.6749 c -5.1083,-24.28414 -5.6572,-23.73723 14.0262,-13.97524 l 17.1132,8.48727 16.2219,-8.64337 c 18.6357,-9.92951 17.9662,-10.61003 13.8834,14.1124 l -2.3385,14.15997 13.6591,13.7646 13.6591,13.7646 -13.846,2.31369 c -26.1143,4.36373 -23.6972,2.72836 -32.5475,22.02144 l -8.0592,17.5687 z"
       id="path1140" />
    <path
       style="font-variation-settings:normal;opacity:1;vector-effect:none;fill:#00ff00;fill-opacity:0.67451;stroke-width:4.08164;stroke-linecap:butt;stroke-linejoin:miter;stroke-miterlimit:4;stroke-dasharray:none;stroke-dashoffset:0;stroke-opacity:1;stop-color:#000000;stop-opacity:1"
       d="m 1375.9662,421.53986 c -0.062,-34.72399 -0.8593,-92.68149 -1.7713,-128.79445 -0.9207,-36.45949 -0.8858,-67.14459 0.079,-68.99836 0.9552,-1.83614 7.2043,-5.18484 13.8868,-7.44154 l 12.1499,-4.1031 4.9522,8.4517 c 13.6592,23.31165 39.1642,89.94182 48.7398,127.32963 4.564,17.82005 7.4415,21.5473 16.5727,21.46731 4.1413,-0.0363 12.5299,-1.82487 18.6413,-3.97465 15.8173,-5.56398 16.6803,-4.91065 4.0999,3.10378 -14.9956,9.55306 -30.54,15.07896 -42.4172,15.07896 -11.72,0 -15.2732,-2.86696 -18.2657,-14.73813 -9.1785,-36.40977 -31.692,-102.43956 -34.9278,-102.43956 -1.0443,0 -1.3174,9.70016 -0.6398,22.72843 0.6501,12.50064 1.7447,59.09392 2.4325,103.54064 l 1.2505,80.8122 -11.3693,5.55584 c -6.2532,3.05571 -11.8038,5.55584 -12.3348,5.55584 -0.531,0 -1.0163,-28.41054 -1.0784,-63.13454 z"
       id="path1142" />
    <path
       style="font-variation-settings:normal;opacity:1;vector-effect:none;fill:#00ff00;fill-opacity:0.67451;stroke-width:4.08164;stroke-linecap:butt;stroke-linejoin:miter;stroke-miterlimit:4;stroke-dasharray:none;stroke-dashoffset:0;stroke-opacity:1;stop-color:#000000;stop-opacity:1"
       d="m 1675.2488,552.17588 c -14.137,-3.80086 -22.3514,-8.98652 -32.502,-20.51816 -19.4189,-22.06111 -24.7721,-45.41658 -20.3668,-88.85931 5.4157,-53.40686 17.5179,-70.10878 69.6568,-96.13184 28.154,-14.05191 47.529,-19.85701 69.9171,-20.94842 21.4672,-1.04652 30.9479,1.98053 35.9364,11.47398 4.4129,8.39786 2.2407,47.05845 -3.3471,59.57383 -6.3188,14.15263 -10.8795,18.3395 -31.5756,28.98743 l -18.1827,9.35484 -30.3046,-0.0381 c -33.2348,-0.0418 -39.9196,-1.57747 -56.9765,-13.08905 -5.0419,-3.40273 -9.7401,-5.61447 -10.4405,-4.91498 -0.7003,0.69949 -1.2734,16.4248 -1.2734,34.94513 0,33.14159 0.094,33.86475 5.9255,45.79516 8.8046,18.01166 25.8413,34.17136 40.7392,38.64197 12.6472,3.79523 38.3218,4.77679 52.3303,2.00065 l 8.0812,-1.6015 -9.123,6.97955 c -14.7885,11.31389 -44.1532,14.89317 -68.4943,8.34883 z m 91.1481,-136.18264 c 9.1174,-11.25956 13.8088,-52.54478 7.4674,-65.71556 -6.9329,-14.39936 -41.0286,-13.95237 -81.1636,1.06406 -6.3901,2.39086 -14.3131,6.6144 -17.6065,9.38563 -3.2934,2.77124 -6.853,4.50406 -7.9101,3.85071 -1.0571,-0.65334 -2.5799,-0.12346 -3.384,1.17752 -0.913,1.4773 -0.5861,1.82417 0.8706,0.92387 1.2828,-0.79285 2.3324,-0.5324 2.3324,0.57877 0,1.11116 -0.9221,2.59021 -2.0491,3.28676 -1.1271,0.69656 -3.877,4.84931 -6.1111,9.22834 l -4.0618,7.96187 7.3647,6.54826 c 25.6825,22.83534 40.5014,27.98312 77.4686,26.91089 21.0817,-0.61147 23.4363,-1.06873 26.7825,-5.20112 z"
       id="path1144" />
    <path
       style="font-variation-settings:normal;opacity:1;vector-effect:none;fill:#00ff00;fill-opacity:0.67451;stroke-width:4.08164;stroke-linecap:butt;stroke-linejoin:miter;stroke-miterlimit:4;stroke-dasharray:none;stroke-dashoffset:0;stroke-opacity:1;stop-color:#000000;stop-opacity:1"
       d="m 150.60138,160.79678 c 1.32158,-8.81289 1.03994,-9.54473 -6.29795,-16.36548 -4.70223,-4.37085 -6.50606,-7.16562 -4.65094,-7.20598 1.66676,-0.0363 6.29514,-0.97281 10.2853,-2.08122 5.99866,-1.66633 7.71628,-3.41346 9.91982,-10.09025 1.46574,-4.44124 3.20132,-8.07252 3.85684,-8.06952 0.65552,0.003 3.01013,3.41227 5.23247,7.57614 3.69476,6.92268 4.86201,7.6234 13.63706,8.18646 5.27805,0.33867 9.59645,1.20453 9.59645,1.92412 0,0.7196 -2.79361,4.19063 -6.20802,7.71341 -5.95081,6.13967 -6.11272,6.75898 -3.90783,14.94733 1.26511,4.69825 1.89843,8.94403 1.40738,9.43508 -0.49104,0.49104 -4.18734,-0.67825 -8.214,-2.59842 -7.00953,-3.34262 -7.64371,-3.32704 -14.89734,0.36578 -4.16688,2.12135 -8.37861,4.22398 -9.35941,4.6725 -0.99681,0.45583 -1.17314,-3.25313 -0.39983,-8.40995 z"
       id="path1146" />
    <path
       style="font-variation-settings:normal;opacity:1;vector-effect:none;fill:#00ff00;fill-opacity:0.67451;stroke-width:4.08164;stroke-linecap:butt;stroke-linejoin:miter;stroke-miterlimit:4;stroke-dasharray:none;stroke-dashoffset:0;stroke-opacity:1;stop-color:#000000;stop-opacity:1"
       d="m 579.54953,138.26927 c -4.29691,-8.76123 -6.47968,-11.04557 -11.47952,-12.01372 -3.39556,-0.6575 -8.99856,-1.74366 -12.45111,-2.41367 l -6.27736,-1.21822 8.57512,-8.73742 8.57513,-8.73742 -1.38793,-12.267718 c -0.76337,-6.747248 -0.90837,-12.267723 -0.32222,-12.267723 0.58614,0 5.9797,2.410044 11.98568,5.355653 l 10.91997,5.355653 9.63506,-5.385143 c 5.29929,-2.961829 10.10333,-4.916889 10.67564,-4.344577 0.57231,0.572311 0.15979,5.899845 -0.91671,11.838963 l -1.95728,10.798402 8.98755,9.9088 8.98755,9.90881 -13.17955,1.72034 -13.17955,1.72034 -4.69733,10.02899 c -2.58353,5.51595 -5.25759,10.37526 -5.94235,10.79846 -0.68476,0.42321 -3.63261,-4.09875 -6.55079,-10.0488 z"
       id="path1148" />
    <path
       style="font-variation-settings:normal;opacity:1;vector-effect:none;fill:#00ff00;fill-opacity:0.67451;stroke-width:4.08164;stroke-linecap:butt;stroke-linejoin:miter;stroke-miterlimit:4;stroke-dasharray:none;stroke-dashoffset:0;stroke-opacity:1;stop-color:#000000;stop-opacity:1"
       d="m 399.59842,846.98244 c -0.74078,-0.74077 -1.34687,-11.05131 -1.34687,-22.91228 0,-11.86099 -0.60148,-35.11975 -1.33661,-51.68616 l -1.33661,-30.1207 -44.05546,-28.24806 c -24.23051,-15.53642 -43.40277,-28.87938 -42.60503,-29.651 0.79774,-0.77163 22.36059,-8.85597 47.91745,-17.96521 25.55686,-9.10923 47.49077,-17.58557 48.74202,-18.83631 1.25125,-1.25074 7.97218,-24.09336 14.9354,-50.76139 6.96323,-26.66803 13.21258,-49.09944 13.88745,-49.84757 0.67487,-0.74814 8.9547,8.71564 18.39962,21.03062 9.44493,12.31498 24.06259,31.13871 32.48369,41.83051 l 15.31108,19.43963 44.28791,-2.61191 c 24.35836,-1.43654 48.18452,-2.37455 52.94703,-2.08446 l 8.6591,0.52745 -29.36723,43.14281 c -16.15198,23.72854 -29.36584,43.72956 -29.36413,44.44671 0.002,0.71715 8.53113,23.1232 18.95426,49.79123 10.42314,26.66802 18.70508,48.76501 18.40434,49.10442 -0.30077,0.33941 -22.39662,-5.79726 -49.10194,-13.63706 -26.7053,-7.83979 -49.97383,-14.25416 -51.70781,-14.25416 -1.73399,0 -20.94015,14.5462 -42.68035,32.32488 -21.7402,17.77869 -39.78701,32.32488 -40.10404,32.32488 -0.31702,0 -1.1825,-0.60609 -1.92327,-1.34687 z"
       id="path1156" />
    <path
       style="font-variation-settings:normal;opacity:1;vector-effect:none;fill:#00ff00;fill-opacity:0.67451;stroke-width:4.08164;stroke-linecap:butt;stroke-linejoin:miter;stroke-miterlimit:4;stroke-dasharray:none;stroke-dashoffset:0;stroke-opacity:1;stop-color:#000000;stop-opacity:1"
       d="m 1684.805,741.49991 -12.9432,-6.86297 -12.8539,6.33856 c -7.0697,3.48621 -13.1511,6.33856 -13.5142,6.33856 -0.3632,0 0.5782,-6.54972 2.0919,-14.55494 l 2.7521,-14.55494 -11.3599,-11.47973 -11.36,-11.47972 16.0759,-1.42304 16.0759,-1.42304 6.8165,-14.0904 6.8165,-14.09039 6.9477,14.05015 6.9477,14.05015 15.2293,2.45674 15.2292,2.45675 -11.3798,10.93569 -11.3798,10.9357 2.042,13.11653 c 1.1232,7.21409 1.7422,13.79755 1.3757,14.62992 -0.3665,0.83237 -6.4908,-1.57494 -13.6096,-5.34958 z"
       id="path1158" />
    <path
       style="font-variation-settings:normal;opacity:1;vector-effect:none;fill:#00ff00;fill-opacity:0.67451;stroke-width:4.08164;stroke-linecap:butt;stroke-linejoin:miter;stroke-miterlimit:4;stroke-dasharray:none;stroke-dashoffset:0;stroke-opacity:1;stop-color:#000000;stop-opacity:1"
       d="m 1102.8152,645.33848 c -4.0066,-4.26479 -5.9371,-4.85257 -12.4943,-3.80402 -8.7111,1.39296 -9.0064,0.92169 -4.6732,-7.45781 2.7629,-5.3429 2.7629,-6.57829 0,-11.92118 -4.2468,-8.21236 -4.0505,-8.54627 4.1224,-7.01302 6.0893,1.14236 8.0815,0.51162 12.8678,-4.07402 4.8692,-4.66494 5.8418,-4.96007 6.9374,-2.10499 0.7009,1.82636 1.2743,5.35075 1.2743,7.83199 0,3.22331 2.1613,5.542 7.57,8.12122 l 7.57,3.60988 -7.57,3.88364 c -5.2902,2.71401 -7.5793,5.23812 -7.6009,8.38106 -0.058,8.45062 -2.8476,10.03546 -8.0035,4.54725 z"
       id="path1160" />
  </g>
</svg>
