<?xml version="1.0" standalone="no"?><!DOCTYPE svg PUBLIC "-//W3C//DTD SVG 1.1//EN" "http://www.w3.org/Graphics/SVG/1.1/DTD/svg11.dtd"><svg xmlns:xlink="http://www.w3.org/1999/xlink" version="1.1" class="highcharts-root" style="font-family:&quot;Lucida Grande&quot;, &quot;Lucida Sans Unicode&quot;, Arial, Helvetica, sans-serif;font-size:12px;" xmlns="http://www.w3.org/2000/svg" width="600" height="400" viewBox="0 0 600 400"><desc>Created with Highcharts 9.0.1</desc><defs><clipPath id="highcharts-x5dzoqk-113568-"><rect x="0" y="0" width="551" height="199" fill="none"></rect></clipPath><clipPath id="highcharts-x5dzoqk-113811-"><rect x="0" y="0" width="552" height="199" fill="none"></rect></clipPath><clipPath id="highcharts-x5dzoqk-114054-"><rect x="0" y="0" width="524" height="40" fill="none"></rect></clipPath></defs><rect fill="#ffffff" class="highcharts-background" x="0" y="0" width="600" height="400" rx="0" ry="0"></rect><rect fill="none" class="highcharts-plot-background" x="10" y="85" width="552" height="199"></rect><g class="highcharts-grid highcharts-xaxis-grid" data-z-index="1"><path fill="none" data-z-index="1" class="highcharts-grid-line" d="M 48.5 85 L 48.5 284" opacity="1"></path><path fill="none" data-z-index="1" class="highcharts-grid-line" d="M 165.5 85 L 165.5 284" opacity="1"></path><path fill="none" data-z-index="1" class="highcharts-grid-line" d="M 284.5 85 L 284.5 284" opacity="1"></path><path fill="none" data-z-index="1" class="highcharts-grid-line" d="M 404.5 85 L 404.5 284" opacity="1"></path><path fill="none" data-z-index="1" class="highcharts-grid-line" d="M 523.5 85 L 523.5 284" opacity="1"></path></g><g class="highcharts-grid highcharts-xaxis-grid highcharts-navigator-xaxis" data-z-index="1"><path fill="none" stroke="#e6e6e6" stroke-width="1" data-z-index="1" class="highcharts-grid-line" d="M 170.5 331 L 170.5 371" opacity="1"></path><path fill="none" stroke="#e6e6e6" stroke-width="1" data-z-index="1" class="highcharts-grid-line" d="M 397.5 331 L 397.5 371" opacity="1"></path></g><g class="highcharts-grid highcharts-yaxis-grid" data-z-index="1"><path fill="none" stroke="#e6e6e6" stroke-width="1" data-z-index="1" class="highcharts-grid-line" d="M 10 284.5 L 562 284.5" opacity="1"></path><path fill="none" stroke="#e6e6e6" stroke-width="1" data-z-index="1" class="highcharts-grid-line" d="M 10 234.5 L 562 234.5" opacity="1"></path><path fill="none" stroke="#e6e6e6" stroke-width="1" data-z-index="1" class="highcharts-grid-line" d="M 10 185.5 L 562 185.5" opacity="1"></path><path fill="none" stroke="#e6e6e6" stroke-width="1" data-z-index="1" class="highcharts-grid-line" d="M 10 135.5 L 562 135.5" opacity="1"></path><path fill="none" stroke="#e6e6e6" stroke-width="1" data-z-index="1" class="highcharts-grid-line" d="M 10 84.5 L 562 84.5" opacity="1"></path></g><g class="highcharts-grid highcharts-yaxis-grid highcharts-navigator-yaxis" data-z-index="1"><path fill="none" data-z-index="1" class="highcharts-grid-line" d="M 24 368.5 L 548 368.5" opacity="1"></path><path fill="none" data-z-index="1" class="highcharts-grid-line" d="M 24 343.5 L 548 343.5" opacity="1"></path></g><rect fill="none" class="highcharts-plot-border" data-z-index="1" x="10" y="85" width="552" height="199"></rect><g class="highcharts-axis highcharts-xaxis" data-z-index="2"><path fill="none" class="highcharts-tick" stroke="#ccd6eb" stroke-width="1" d="M 48.5 284 L 48.5 294" opacity="1"></path><path fill="none" class="highcharts-tick" stroke="#ccd6eb" stroke-width="1" d="M 165.5 284 L 165.5 294" opacity="1"></path><path fill="none" class="highcharts-tick" stroke="#ccd6eb" stroke-width="1" d="M 284.5 284 L 284.5 294" opacity="1"></path><path fill="none" class="highcharts-tick" stroke="#ccd6eb" stroke-width="1" d="M 404.5 284 L 404.5 294" opacity="1"></path><path fill="none" class="highcharts-tick" stroke="#ccd6eb" stroke-width="1" d="M 523.5 284 L 523.5 294" opacity="1"></path><path fill="none" class="highcharts-axis-line" stroke="#ccd6eb" stroke-width="1" data-z-index="7" d="M 10 284.5 L 562 284.5"></path></g><g class="highcharts-axis highcharts-xaxis highcharts-navigator-xaxis" data-z-index="2"><path fill="none" class="highcharts-axis-line" data-z-index="7" d="M 24 371 L 548 371"></path></g><g class="highcharts-axis highcharts-yaxis" data-z-index="2"><text x="574.3999996185303" data-z-index="7" text-anchor="middle" transform="translate(0,0) rotate(90 574.3999996185303 184.5)" class="highcharts-axis-title" style="color:#666666;fill:#666666;" y="184.5">Yield</text><path fill="none" class="highcharts-axis-line" stroke="#ccd6eb" stroke-width="2" data-z-index="7" d="M 562 85 L 562 284"></path></g><g class="highcharts-axis highcharts-yaxis highcharts-navigator-yaxis" data-z-index="2"><path fill="none" class="highcharts-axis-line" data-z-index="7" d="M 10 331 L 10 371"></path></g><g class="highcharts-scrollbar" data-z-index="3" transform="translate(10,372)"><rect fill="#f2f2f2" class="highcharts-scrollbar-track" x="0" rx="0" ry="0" height="14" width="552" stroke="#f2f2f2" stroke-width="1" y="-0.5"></rect><g transform="translate(14,-0.5)"><rect fill="#cccccc" class="highcharts-scrollbar-thumb" height="14" width="524" rx="0" ry="0" stroke="#cccccc" stroke-width="1"></rect><path fill="none" d="M -3 3.5 L -3 9.333333333333334 M 0 3.5 L 0 9.333333333333334 M 3 3.5 L 3 9.333333333333334" class="highcharts-scrollbar-rifles" stroke="#333333" stroke-width="1" transform="translate(261.5,0)"></path></g><g><rect fill="#e6e6e6" class="highcharts-scrollbar-button" stroke="#cccccc" stroke-width="1" x="-0.5" y="-0.5" width="14" height="14" rx="0" ry="0"></rect><path fill="#333333" d="M 8 4 L 8 10 L 5 7" class="highcharts-scrollbar-arrow"></path></g><g transform="translate(538,0)"><rect fill="#e6e6e6" class="highcharts-scrollbar-button" stroke="#cccccc" stroke-width="1" x="-0.5" y="-0.5" width="14" height="14" rx="0" ry="0"></rect><path fill="#333333" d="M 6 4 L 6 10 L 9 7" class="highcharts-scrollbar-arrow"></path></g></g><g class="highcharts-series-group" data-z-index="3"><g class="highcharts-series highcharts-series-0 highcharts-line-series highcharts-color-0" data-z-index="0.1" opacity="1" transform="translate(10,85) scale(1 1)" clip-path="url(#highcharts-x5dzoqk-113811-)"><path fill="none" d="M 0 103.62925000000001 L 2.2904564315352 98.53342857142715 L 4.5809128630704 103.48 L 6.8713692946056 99.94775000000001 L 9.1618257261408 96.85614285714072 L 11.452282157676 95.2357142857136 L 13.742738589212 94.92300000000002 L 16.033195020747 93.25992857142715 L 18.323651452282 85.85428571428643 L 20.614107883818 79.51471428571355 L 22.904564315353 57.97296428571357 L 25.195020746888 43.701821428572856 L 27.485477178423 42.62153571428644 L 29.775933609958 61.95296428571356 L 32.066390041494 56.487571428572835 L 34.356846473029 54.81739285714073 L 36.647302904564 53.31778571428643 L 38.937759336099 62.20882142857283 L 41.228215767635 72.05221428571359 L 43.51867219917 71.97403571428644 L 45.809128630706 70.69475 L 48.099585062241 68.00825 L 50.390041493776 73.44521428571356 L 52.680497925311 72.88374999999999 L 54.970954356846 71.61867857142713 L 57.261410788382 74.12039285714073 L 59.551867219917 75.49917857142715 L 61.842323651452 82.53524999999999 L 64.132780082987 92.91167857142713 L 66.423236514523 96.64292857142713 L 68.713692946058 96.2236071428593 L 71.004149377594 96.15964285714071 L 73.294605809129 95.81850000000001 L 75.585062240664 96.87035714285928 L 77.875518672199 97.41050000000001 L 80.165975103734 91.95932142857284 L 82.45643153527 95.97485714285929 L 84.746887966805 102.10832142857286 L 87.03734439834 102.25757142857283 L 89.327800829875 103.48710714285929 L 91.61825726141 107.21835714285929 L 93.908713692946 109.43578571428644 L 96.199170124482 108.90275 L 98.489626556017 103.66478571428642 L 100.78008298755 97.27546428571357 L 103.07053941909 102.89010714285926 L 105.36099585062 102.27178571428644 L 107.65145228216 103.80692857142715 L 109.94190871369 105.48421428571356 L 112.23236514523 104.33285714285925 L 114.52282157676 106.94828571428641 L 116.8132780083 113.79957142857283 L 119.10373443983 121.73114285714072 L 121.39419087137 125.14257142857286 L 123.6846473029 126.46449999999999 L 125.97510373444 127.60164285714075 L 128.26556016598 124.36078571428644 L 130.55601659751 121.11992857142714 L 132.84647302905 118.61821428571358 L 135.13692946058 109.86932142857285 L 137.42738589212 112.60557142857284 L 139.71784232365 115.61899999999999 L 142.00829875519 120.45896428571358 L 144.29875518672 122.71903571428642 L 146.58921161826 122.69771428571357 L 148.87966804979 124.03385714285929 L 151.17012448133 128.39053571428641 L 153.46058091286 132.78274999999996 L 155.7510373444 140.65746428571356 L 158.04149377593 144.7725 L 160.33195020747 145.09232142857286 L 162.622406639 141.0981071428593 L 164.91286307054 135.519 L 167.20331950207 131.14100000000002 L 169.49377593361 129.34999999999997 L 171.78423236515 123.05307142857284 L 174.07468879668 120.57267857142713 L 176.36514522822 113.31628571428641 L 178.65560165975 112.46342857142716 L 180.94605809129 109.6418928571407 L 183.23651452282 112.44210714285927 L 185.52697095436 119.03042857142715 L 187.81742738589 119.84774999999999 L 190.10788381743 115.32049999999998 L 192.39834024896 99.76296428571357 L 194.6887966805 101.26257142857285 L 196.97925311203 88.05039285714075 L 199.26970954357 88.95300000000002 L 201.5601659751 72.69185714285929 L 203.85062240664 94.58896428571356 L 206.14107883817 90.45971428571359 L 208.43153526971 85.52025000000002 L 210.72199170124 79.03142857142713 L 213.01244813278 63.85057142857286 L 215.30290456432 64.05667857142717 L 217.59336099585 76.03932142857286 L 219.88381742739 63.82214285714073 L 222.17427385892 61.37017857142715 L 224.46473029046 60.965071428572884 L 226.75518672199 64.05667857142717 L 229.04564315353 50.68103571428645 L 231.33609958506 55.563642857140735 L 233.6265560166 48.470714285713626 L 235.91701244813 27.135071428572843 L 238.20746887967 23.93685714285931 L 240.4979253112 36.388571428572845 L 242.78838174274 39.274071428572825 L 245.07883817427 35.67075000000003 L 247.36929460581 18.86235714285931 L 249.65975103734 14.939214285713547 L 251.95020746888 17.725214285713605 L 254.24066390042 24.32064285714071 L 256.53112033195 41.91082142857286 L 258.82157676349 43.48150000000004 L 261.11203319502 50.858714285713575 L 263.40248962656 55.35042857142713 L 265.69294605809 52.34410714285926 L 267.98340248963 43.06928571428645 L 270.27385892116 48.200642857140735 L 272.5643153527 50.155107142859265 L 274.85477178423 47.39753571428645 L 277.14522821577 53.04060714285927 L 279.4356846473 46.87160714285923 L 281.72614107884 45.01664285714074 L 284.01659751037 48.43517857142717 L 286.30705394191 58.09378571428644 L 288.59751037344 51.44860714285926 L 290.88796680498 51.76132142857284 L 293.17842323651 57.97296428571357 L 295.46887966805 54.27014285714074 L 297.75933609958 57.19828571428641 L 300.04979253112 66.84978571428641 L 302.34024896266 67.27621428571359 L 304.63070539419 70.51707142857285 L 306.92116182573 66.267 L 309.21161825726 69.28753571428643 L 311.5020746888 63.82214285714073 L 313.79253112033 57.91610714285926 L 316.08298755187 49.25960714285924 L 318.3734439834 48.086928571427194 L 320.66390041494 48.9682142857136 L 322.95435684647 49.72157142857287 L 325.24481327801 48.60575000000003 L 327.53526970954 64.3765 L 329.82572614108 73.87164285714074 L 332.11618257261 78.88217857142718 L 334.40663900415 85.91825000000001 L 336.69709543568 87.51025000000001 L 338.98755186722 93.07514285714075 L 341.27800829876 88.51235714285927 L 343.56846473029 77.7734642857136 L 345.85892116183 77.2262142857136 L 348.14937759336 78.605 L 350.4398340249 85.57710714285926 L 352.73029045643 83.1393571428593 L 355.02074688797 83.10382142857284 L 357.3112033195 87.62396428571357 L 359.60165975104 87.60975 L 361.89211618257 83.83585714285925 L 364.18257261411 86.55078571428645 L 366.47302904564 86.62185714285926 L 368.76348547718 86.93457142857284 L 371.05394190871 89.55710714285927 L 373.34439834025 92.89035714285927 L 375.63485477178 95.40628571428644 L 377.92531120332 91.93089285714072 L 380.21576763485 91.72478571428641 L 382.50622406639 90.65871428571357 L 384.79668049793 87.81585714285926 L 387.08713692946 85.4136428571407 L 389.377593361 82.20832142857284 L 391.66804979253 89.05960714285928 L 393.95850622407 91.46892857142713 L 396.2489626556 93.48024999999998 L 398.53941908714 102.12253571428643 L 400.82987551867 110.30996428571359 L 403.12033195021 111.56082142857284 L 405.41078838174 114.46053571428644 L 407.70124481328 116.16625 L 409.99170124481 118.18467857142713 L 412.28215767635 109.42157142857283 L 414.57261410788 110.13228571428641 L 416.86307053942 87.66660714285926 L 419.15352697095 54.39807142857285 L 421.44398340249 38.605999999999995 L 423.73443983402 44.26328571428641 L 426.02489626556 39.05375000000001 L 428.3153526971 46.60864285714072 L 430.60580912863 51.20696428571355 L 432.89626556017 45.613642857140746 L 435.1867219917 40.780785714286395 L 437.47717842324 49.06771428571355 L 439.76763485477 59.74974999999998 L 442.05809128631 75.17935714285929 L 444.34854771784 88.39153571428645 L 446.63900414938 83.5160357142864 L 448.92946058091 85.55578571428643 L 451.21991701245 85.8685 L 453.51037344398 83.36678571428644 L 455.80082987552 88.00064285714073 L 458.09128630705 91.44760714285928 L 460.38174273859 97.92932142857285 L 462.67219917012 103.41603571428642 L 464.96265560166 104.37549999999999 L 467.2531120332 106.39392857142717 L 469.54356846473 108.47632142857283 L 471.83402489627 105.56239285714072 L 474.1244813278 99.20860714285926 L 476.41493775934 98.51210714285925 L 478.70539419087 99.07357142857288 L 480.99585062241 99.71321428571359 L 483.28630705394 98.2065 L 485.57676348548 99.66346428571357 L 487.86721991701 103.71453571428643 L 490.15767634855 113.47974999999998 L 492.44813278008 111.38314285714071 L 494.73858921162 120.27417857142716 L 497.02904564315 130.87803571428645 L 499.31950207469 135.6824642857136 L 501.60995850622 135.2560357142864 L 503.90041493776 136.15153571428644 L 506.19087136929 136.1728571428593 L 508.48132780083 144.29632142857287 L 510.77178423236 142.27789285714073 L 513.0622406639 149.44189285714074 L 515.35269709544 144.9075357142864 L 517.64315352697 136.68457142857284 L 519.93360995851 133.29446428571356 L 522.22406639004 133.3726428571407 L 524.51452282158 138.106 L 526.80497925311 135.6753571428593 L 529.09543568465 124.23285714285927 L 531.38589211618 116.25153571428642 L 533.67634854772 115.76114285714073 L 535.96680497925 108.06410714285927 L 538.25726141079 106.64267857142717 L 540.54771784232 108.15650000000002 L 542.83817427386 107.11885714285926 L 545.12863070539 120.5087142857136 L 547.41908713693 118.79589285714071 L 549.70954356846 122.62664285714071 L 552 121.62453571428641" class="highcharts-graph" data-z-index="1" stroke="#0000FF" stroke-width="2" stroke-linejoin="round" stroke-linecap="round"></path></g><g class="highcharts-markers highcharts-series-0 highcharts-line-series highcharts-color-0" data-z-index="0.1" opacity="1" transform="translate(10,85) scale(1 1)" clip-path="none"></g><g class="highcharts-series highcharts-series-1 highcharts-areaspline-series highcharts-navigator-series" data-z-index="0.1" opacity="1" transform="translate(24,331) scale(1 1)" clip-path="url(#highcharts-x5dzoqk-114054-)"><path fill="rgb(0,0,255)" fill-opacity="0.05" d="M 0 25.313077939234226 C 0 25.313077939234226 1.30456431535266 24.050198150594497 2.1742738589211 24.050198150594497 C 3.04398340248954 24.050198150594497 3.47883817427376 25.276089828269892 4.3485477178422 25.276089828269892 C 5.21825726141064 25.276089828269892 5.65311203319486 24.729018053721347 6.5228215767633 24.400704535447343 C 7.392531120331699 24.072391017173352 7.827385892115901 23.86807573756046 8.6970954356843 23.634522236899905 C 9.56680497925258 23.400968736239378 10.00165975103672 23.310435931307833 10.871369294605 23.232937032144644 C 11.741078838173799 23.155438132981455 12.1759336099582 23.232937032144644 13.045643153527 23.155438132981455 C 13.9153526970954 23.077939233818267 14.3502074688796 23.155438132981455 15.219917012448 22.743284896521388 C 16.0896265560168 22.33113166006132 16.5244813278012 21.58925583443484 17.39419087137 20.907970057244047 C 18.263900414938398 20.226684280053565 18.6987551867226 20.718802289740456 19.568464730291 19.336856010568198 C 20.438174273859403 17.954909731395944 20.8730290456436 15.77331571994718 21.742738589212 13.998238661382764 C 22.6124481327804 12.22316160281834 23.0473029045646 10.729194187583346 23.917012448133 10.461470717746096 C 24.786721991701402 10.193747247908846 25.2215767634856 10.193747247908846 26.091286307054 10.193747247908846 C 26.960995850622403 10.193747247908846 27.395850622406602 14.984588287098319 28.265560165975 14.984588287098319 C 29.1352697095434 14.984588287098319 29.5701244813276 13.983795684721096 30.439834024896 13.630118890357306 C 31.309543568464402 13.276442095993517 31.744398340248598 13.373315719946952 32.614107883817 13.21620431527937 C 33.4838174273854 13.059092910611788 33.9186721991696 12.844561867019394 34.788381742738 12.844561867019394 C 35.6580912863064 12.844561867019394 36.0929460580906 14.119418758257197 36.962655601659 15.04799647732342 C 37.8323651452278 15.976574196390057 38.2672199170122 17.48745046235154 39.136929460581 17.48745046235154 C 40.0066390041494 17.48745046235154 40.4414937759336 17.48745046235154 41.311203319502 17.468075737561055 C 42.1809128630704 17.44870101277057 42.6157676348546 17.347600176134183 43.485477178423 17.15103478643802 C 44.3551867219918 16.954469396741768 44.7900414937762 16.485248789080018 45.659751037345 16.485248789080018 C 46.5294605809134 16.485248789080018 46.964315352697604 17.832672831351978 47.834024896266 17.832672831351978 C 48.703734439834406 17.832672831351978 49.138589211618594 17.784059885513358 50.008298755187 17.69352708058157 C 50.8780082987554 17.602994275649788 51.312863070539606 17.380008806693056 52.182572614108 17.380008806693056 C 53.0522821576764 17.380008806693056 53.4871369294606 17.80766182298527 54.356846473029 17.999999999999805 C 55.2265560165974 18.19233817701434 55.6614107883816 17.999999999999805 56.53112033195 18.341699691765726 C 57.4008298755184 18.683399383531647 57.83568464730259 19.222369000440676 58.705394190871 20.085424922941787 C 59.5751037344394 20.948480845442894 60.0099585062236 21.957727873183867 60.879668049792 22.656979304271267 C 61.749377593360805 23.35623073535899 62.184232365145206 23.581682078379604 63.053941908714 23.581682078379604 C 63.923651452282414 23.581682078379604 64.3585062240666 23.493615147514095 65.228215767635 23.47776309995689 C 66.0979253112034 23.46191105239968 66.5327800829876 23.47776309995689 67.402489626556 23.46191105239968 C 68.2721991701244 23.446059004842475 68.70705394190861 23.377366798767454 69.576763485477 23.377366798767454 C 70.4464730290454 23.377366798767454 70.88132780082961 23.559136944078436 71.751037344398 23.638044914135662 C 72.6207468879668 23.716952884192924 73.0556016597512 23.771906649053676 73.92531120332 23.771906649053676 C 74.79502074688841 23.771906649053676 75.22987551867261 22.420959929547184 76.099585062241 22.420959929547184 C 76.96929460580941 22.420959929547184 77.4041493775936 22.913077939234736 78.273858921162 23.416116248349667 C 79.14356846473041 23.9191545574646 79.5784232365146 24.89916336415753 80.448132780083 24.936151475121854 C 81.31784232365139 24.973139586086177 81.7526970954356 24.936151475121854 82.622406639004 24.973139586086177 C 83.4921161825724 25.0101276970505 83.9269709543566 25.031968295905788 84.796680497925 25.27785116688777 C 85.6663900414934 25.523734037869758 86.10124481327759 25.907705856451987 86.970954356846 26.202553940996104 C 87.8406639004148 26.497402025540357 88.2755186721992 26.752091589608703 89.145228215768 26.752091589608703 C 90.0149377593364 26.752091589608703 90.44979253112061 26.752091589608703 91.319502074689 26.619991193307335 C 92.1892116182574 26.487890797005967 92.62406639004159 25.898194627917842 93.49377593361 25.321884632321144 C 94.36348547717839 24.745574636724456 94.79834024896259 23.73844121532386 95.668049792531 23.73844121532386 C 96.5377593360994 23.73844121532386 96.9726141078836 25.129898723030433 97.842323651452 25.129898723030433 C 98.71203319501919 25.129898723030433 99.14688796680281 24.976662263320705 100.01659751037 24.976662263320705 C 100.886307053938 24.976662263320705 101.32116182572199 25.19788639365967 102.19087136929 25.357111404667602 C 103.060580912862 25.516336415676264 103.49543568464802 25.77278731836219 104.36514522822 25.77278731836219 C 105.23485477178801 25.77278731836219 105.669709543572 25.48745046235232 106.53941908714 25.48745046235232 C 107.40912863070801 25.48745046235232 107.843983402492 25.66640246587469 108.71369294606 26.135623073536475 C 109.583402489628 26.60484368119827 110.01825726141199 27.10083663584415 110.88796680498 27.833553500661285 C 111.75767634854799 28.56627036547841 112.192531120332 29.23698811096426 113.0622406639 29.79920739762212 C 113.931950207468 30.36142668427999 114.366804979252 30.410039630119595 115.23651452282 30.64464993395062 C 116.106224066388 30.87926023778164 116.54107883817201 30.850374284456827 117.41078838174 30.972258916777214 C 118.28049792530801 31.094143549097602 118.715352697092 31.254073095552563 119.58506224066 31.254073095552563 C 120.45477178423198 31.254073095552563 120.88962655601799 30.772170849847235 121.75933609959 30.45090268604203 C 122.629045643158 30.129634522238312 123.06390041494201 29.932364597093965 123.93360995851 29.64773227653026 C 124.80331950207798 29.36309995596656 125.238174273862 29.585380889476134 126.10788381743 29.02774108322352 C 126.977593360998 28.470101276970897 127.41244813278199 26.85953324526718 128.28215767635 26.85953324526718 C 129.151867219918 26.85953324526718 129.586721991702 27.252664024659587 130.45643153527 27.53764861294662 C 131.32614107883802 27.82263320123365 131.760995850622 27.89520035226826 132.63070539419 28.28445618670233 C 133.50041493775797 28.673712021136396 133.93526970954198 29.132012329370554 134.80497925311 29.48392778511696 C 135.674688796678 29.83584324086337 136.10954356846202 30.04403346543436 136.97925311203 30.04403346543436 C 137.848962655598 30.04403346543436 138.283817427382 30.038749449581964 139.15352697095 30.038749449581964 C 140.023236514522 30.038749449581964 140.458091286308 30.087714663144258 141.32780082988 30.36988110964432 C 142.19751037344798 30.652047556143078 142.632365145232 31.015940114487755 143.5020746888 31.44958168207902 C 144.37178423236801 31.883223249670287 144.80663900415203 31.930074856891792 145.67634854772 32.538088947600656 C 146.54605809128802 33.14610303830954 146.980912863072 33.89537648612976 147.85062240664 34.489652135623395 C 148.720331950208 35.083927785117005 149.155186721992 35.430206957287695 150.02489626556 35.509467195068765 C 150.894605809128 35.588727432849836 151.32946058091198 35.588727432849836 152.19917012448 35.588727432849836 C 153.06887966804797 35.588727432849836 153.503734439832 35.073359753413705 154.3734439834 34.59885512989976 C 155.243153526968 34.12435050638582 155.678008298752 33.70973139586146 156.54771784232 33.2162043152801 C 157.417427385888 32.72267723469875 157.85228215767202 32.43698811096411 158.72199170124 32.131219726992995 C 159.59170124481201 31.825451343020465 160.026556016598 32.088243064730534 160.89626556017 31.68736239542099 C 161.765975103738 31.28648172611331 162.200829875522 30.56186701893527 163.07053941909 30.126816380449945 C 163.94024896265802 29.691765741964623 164.375103734442 29.99471598414809 165.24481327801 29.512109202994367 C 166.114522821578 29.02950242184066 166.54937759336198 27.92514310876379 167.41908713693 27.713782474681363 C 168.288796680498 27.502421840598934 168.723651452282 27.68454425363298 169.59336099585 27.502421840598934 C 170.463070539418 27.320299427564883 170.897925311202 26.803170409511118 171.76763485477 26.803170409511118 C 172.637344398338 26.803170409511118 173.072199170122 27.03179216204406 173.94190871369 27.497137824747764 C 174.81161825725798 27.96248348745145 175.246473029042 28.92734478203409 176.11618257261 29.129898723029598 C 176.98589211618201 29.332452664025105 177.42074688796802 29.332452664025105 178.29045643154 29.332452664025105 C 179.16016597510801 29.332452664025105 179.595020746892 29.205988551299466 180.46473029046 28.21047996477366 C 181.33443983402802 27.214971378247853 181.769294605812 24.354909731396077 182.63900414938 24.354909731396077 C 183.508713692948 24.354909731396077 183.94356846473198 24.726552179657293 184.8132780083 24.726552179657293 C 185.68298755186797 24.726552179657293 186.11784232365198 21.45222369000425 186.98755186722 21.45222369000425 C 187.857261410788 21.45222369000425 188.292116182572 21.675913694408123 189.16182572614 21.675913694408123 C 190.031535269708 21.675913694408123 190.46639004149202 17.645970937913678 191.33609958506 17.645970937913678 C 192.205809128628 17.645970937913678 192.640663900412 23.072655217965856 193.51037344398 23.072655217965856 C 194.38008298754798 23.072655217965856 194.814937759332 22.49881109643243 195.6846473029 22.04931748128598 C 196.554356846472 21.599823866137474 196.98921161825803 21.391633641569303 197.85892116183 20.825187142228458 C 198.728630705398 20.25874064289022 199.16348547718198 20.29114927344775 200.03319502075 19.217084984588276 C 200.902904564318 18.1430206957288 201.337759336102 15.45486569793109 202.20746887967 15.45486569793109 C 203.077178423238 15.45486569793109 203.51203319502198 15.45486569793109 204.38174273859 15.505944517833512 C 205.25145228215797 15.557023337735934 205.686307053942 18.475561426684973 206.55601659751 18.475561426684973 C 207.42572614107797 18.475561426684973 207.860580912862 16.05548216644611 208.73029045643 15.447820343460812 C 209.599999999998 14.840158520475512 210.03485477178202 14.94055482166371 210.90456431535 14.840158520475512 C 211.774273858918 14.739762219287314 212.20912863070197 14.739762219287314 213.07883817427 14.739762219287314 C 213.94854771784202 14.739762219287314 214.383402489628 15.505944517833512 215.2531120332 15.505944517833512 C 216.122821576768 15.505944517833512 216.557676348552 12.19110523998284 217.42738589212 12.19110523998284 C 218.29709543568796 12.19110523998284 218.73195020747198 13.401144870101032 219.60165975104 13.401144870101032 C 220.471369294608 13.401144870101032 220.90622406639199 13.05239982386608 221.77593360996 11.643328929986893 C 222.645643153528 10.234258036107706 223.08049792531202 7.148392778512047 223.95020746888 6.3557904007050965 C 224.819917012448 5.563188022898146 225.254771784232 5.563188022898146 226.1244813278 5.563188022898146 C 226.99419087136798 5.563188022898146 227.429045643152 7.933949801849984 228.29875518672 8.64905328049376 C 229.168464730288 9.364156759137536 229.603319502072 9.364156759137536 230.47302904564 9.364156759137536 C 231.342738589208 9.364156759137536 231.77759336099203 9.364156759137536 232.64730290456 8.471158080141148 C 233.51701244813202 7.5781594011447595 233.951867219918 5.27785116688829 234.82157676349 4.305592250110813 C 235.691286307058 3.3333333333333357 236.126141078842 3.3333333333333357 236.99585062241 3.3333333333333357 C 237.86556016597797 3.3333333333333357 238.30041493776199 3.558784676354107 239.17012448133 4.023778071334235 C 240.03983402489797 4.488771466314346 240.474688796682 4.45953324526596 241.34439834025 5.658300308233933 C 242.214107883818 6.857067371201906 242.64896265560202 9.62835755174028 243.51867219917 10.017613386174101 C 244.388381742738 10.406869220607923 244.82323651452197 10.017613386174101 245.69294605809 10.406869220607923 C 246.56265560165804 10.796125055041745 246.997510373442 11.646851607221645 247.86721991701 12.235138705416215 C 248.73692946057798 12.823425803610768 249.171784232362 13.348304711580731 250.04149377593 13.348304711580731 C 250.91120331949801 13.348304711580731 251.34605809128203 13.211977102597263 252.21576763485 12.6032584764429 C 253.08547717842202 11.994539850285712 253.520331950208 10.30471158080185 254.39004149378 10.30471158080185 C 255.259751037348 10.30471158080185 255.694605809132 11.225187142227755 256.5643153527 11.576398062527261 C 257.434024896268 11.927608982826754 257.86887966805205 12.06076618229935 258.73858921162 12.06076618229935 C 259.608298755188 12.06076618229935 260.04315352697205 11.377366798767511 260.91286307054 11.377366798767511 C 261.782572614108 11.377366798767511 262.217427385892 12.775869660943123 263.08713692946 12.775869660943123 C 263.95684647302795 12.775869660943123 264.391701244812 11.644738000881668 265.26141078838 11.247027741084008 C 266.13112033194795 10.849317481286345 266.565975103732 10.787318361954817 267.4356846473 10.787318361954817 C 268.305394190868 10.787318361954817 268.740248962652 10.9863496257168 269.60995850622 11.634522236899965 C 270.47966804979194 12.282694848086097 270.914522821578 14.02818141787806 271.78423236515 14.02818141787806 C 272.65394190871797 14.02818141787806 273.088796680502 12.3813298106569 273.95850622407 12.3813298106569 C 274.82821576763797 12.3813298106569 275.263070539422 12.3813298106569 276.13278008299 12.45882870982009 C 277.00248962655803 12.536327608983278 277.43734439834196 13.998238661382764 278.30705394191 13.998238661382764 C 279.17676348547803 13.998238661382764 279.61161825726197 13.08058124174348 280.48132780083 13.08058124174348 C 281.351037344398 13.08058124174348 281.785892116182 13.182738881550295 282.65560165975 13.806252752092053 C 283.525311203318 14.42976662263381 283.96016597510203 16.092470277411664 284.82987551867 16.19815059445227 C 285.69958506223804 16.303830911492874 286.13443983402203 16.19815059445227 287.00414937759 16.303830911492874 C 287.873858921158 16.40951122853348 288.308713692942 17.107001321004635 289.17842323651 17.107001321004635 C 290.048132780082 17.107001321004635 290.482987551868 16.053720827829462 291.35269709544 16.053720827829462 C 292.222406639008 16.053720827829462 292.65726141079205 16.80228974020305 293.52697095436 16.80228974020305 C 294.39668049792806 16.80228974020305 294.831535269712 16.011448701012505 295.70124481328 15.447820343460812 C 296.570954356848 14.884191985909155 297.005809128632 14.70594451783417 297.8755186722 13.984147952444676 C 298.74522821576795 13.262351387055181 299.180082987552 12.129458388376825 300.04979253112 11.83883751651334 C 300.919502074688 11.548216644649855 301.354356846472 11.548216644649855 302.22406639004 11.548216644649855 C 303.09377593360796 11.548216644649855 303.52863070539195 11.685601056803128 304.39834024896 11.766622633201333 C 305.26804979252796 11.847644209599535 305.702904564312 11.953324526640873 306.57261410788 11.953324526640873 C 307.44232365144796 11.953324526640873 307.877178423232 11.676794363716695 308.7468879668 11.676794363716695 C 309.616597510372 11.676794363716695 310.051452282158 14.332892998676527 310.92116182573 15.58520475561457 C 311.79087136929803 16.837516512546884 312.22572614108196 17.219374724790686 313.09543568465 17.938353148392586 C 313.965145228218 18.657331571994437 314.400000000002 18.583003082342465 315.26970954357 19.180096873623953 C 316.139419087138 19.777190664905437 316.574273858922 20.52928225451379 317.44398340249 20.923822104800013 C 318.31369294605804 21.318361955086235 318.74854771784203 20.963628357552214 319.61825726141 21.318361955086235 C 320.487966804978 21.673095552620257 320.922821576762 22.697490092470133 321.79253112033 22.697490092470133 C 322.662240663898 22.697490092470133 323.09709543568204 22.325143108763495 323.96680497925 21.566710700132997 C 324.836514522818 20.808278291502504 325.27136929460204 19.040951122853542 326.14107883817 18.905328049317653 C 327.01078838174203 18.769704975781764 327.445643153528 18.769704975781764 328.3153526971 18.769704975781764 C 329.18506224066806 18.769704975781764 329.619917012452 18.769704975781764 330.48962655602 19.11140466754768 C 331.359336099588 19.4531043593136 331.79419087137205 20.839277851167775 332.66390041494 20.839277851167775 C 333.533609958508 20.839277851167775 333.968464730292 20.243945398503932 334.83817427386 20.235138705417004 C 335.70788381742796 20.226332012330076 336.14273858921194 20.226332012330076 337.01244813278 20.226332012330076 C 337.88215767634796 20.226332012330076 338.317012448132 21.34654337296364 339.1867219917 21.34654337296364 C 340.05643153526796 21.34654337296364 340.491286307052 21.34654337296364 341.36099585062 21.343020695729123 C 342.230705394188 21.339498018494606 342.66556016597195 20.40774988991722 343.53526970954 20.40774988991722 C 344.404979253108 20.40774988991722 344.83983402489196 21.06296785557043 345.70954356846 21.08058124174427 C 346.579253112032 21.098194627918108 347.014107883818 21.08058124174427 347.88381742739 21.098194627918108 C 348.753526970958 21.115808014091947 349.188381742742 21.098194627918108 350.05809128631 21.175693527081297 C 350.92780082987804 21.253192426244485 351.362655601662 21.530427124615567 352.23236514523 21.82562747688333 C 353.102074688798 22.120827829151093 353.536929460582 22.36177895200449 354.40663900415 22.651695288420107 C 355.276348547718 22.94161162483571 355.71120331950203 23.275209158961378 356.58091286307 23.275209158961378 C 357.450622406638 23.275209158961378 357.88547717842204 22.46499339497933 358.75518672199 22.413914575076905 C 359.62489626555805 22.36283575517448 360.059751037342 22.413914575076905 360.92946058091 22.36283575517448 C 361.79917012447805 22.311756935272054 362.234024896262 22.292382210479648 363.10373443983 22.09863496257175 C 363.97344398340203 21.904887714662966 364.408298755188 21.654073095554192 365.27800829876 21.394099515632774 C 366.147717842328 21.134125935712564 366.582572614112 21.076706296785424 367.45228215768 20.798767062967684 C 368.32199170124795 20.520827829149944 368.75684647303194 20.004403346544077 369.6265560166 20.004403346544077 C 370.49626556016796 20.004403346544077 370.931120331952 21.24332892998783 371.80082987552 21.702333773668887 C 372.67053941908796 22.161338617349948 373.105394190872 22.080317040951257 373.97510373444 22.299427564949383 C 374.844813278008 22.518538088947523 375.27966804979195 22.299427564949383 376.14937759336 22.797886393659557 C 377.019087136928 23.29634522236973 377.45394190871195 24.105504183179796 378.32365145228 24.939674152356375 C 379.19336099584797 25.773844121532896 379.628215767632 26.65874064288832 380.4979253112 26.968736239542302 C 381.36763485476797 27.278731836196286 381.802489626552 27.073007485690304 382.67219917012 27.278731836196286 C 383.541908713692 27.48445618670322 383.97676348547805 27.769088507265682 384.84647302905 27.99735799207459 C 385.716182572618 28.225627476882458 386.15103734440197 28.235490973140127 387.02074688797 28.420079260238218 C 387.890456431538 28.604667547336298 388.32531120332203 28.920299427565034 389.19502074689 28.920299427565034 C 390.064730290458 28.920299427565034 390.49958506224203 26.748568912374175 391.36929460581 26.748568912374175 C 392.23900414937805 26.748568912374175 392.673858921162 26.92470277410892 393.54356846473 26.92470277410892 C 394.41327800829805 26.92470277410892 394.848132780082 24.119594892118982 395.71784232365 21.357111404668437 C 396.587551867218 18.59462791721807 397.02240663900204 15.543989431969061 397.89211618257 13.112285336856644 C 398.761825726138 10.680581241744228 399.19668049792205 9.19859092910636 400.06639004149 9.19859092910636 C 400.93609958505806 9.19859092910636 401.37095435684205 10.600616468516503 402.24066390041 10.600616468516503 C 403.110373443982 10.600616468516503 403.545228215768 9.309555261999364 404.41493775934 9.309555261999364 C 405.28464730290796 9.309555261999364 405.719502074692 10.579480405107669 406.58921161826 11.181858212241039 C 407.458921161828 11.78423601937445 407.89377593361195 12.321444297666321 408.76348547718 12.321444297666321 C 409.633195020748 12.321444297666321 410.06804979253195 11.452047556142357 410.9377593361 10.935270805812156 C 411.80746887966797 10.418494055481986 412.242323651452 9.737560546015391 413.11203319502 9.737560546015391 C 413.98174273858797 9.737560546015391 414.41659751037207 10.851078819903302 415.28630705394 11.79128137384421 C 416.156016597508 12.731483927785241 416.590871369292 13.144341699691902 417.46058091286 14.438573315720237 C 418.330290456428 15.732804931748571 418.76514522821196 16.842800528405647 419.63485477178 18.262439453985895 C 420.504564315352 19.682078379572637 420.93941908713805 21.536767943637713 421.80912863071 21.536767943637713 C 422.678838174278 21.536767943637713 423.11369294606203 20.328489652136152 423.98340248963 20.328489652136152 C 424.853112033198 20.328489652136152 425.287966804982 20.756494936152187 426.15767634855 20.833993835315376 C 427.02738589211805 20.911492734478564 427.46224066390204 20.911492734478564 428.33195020747 20.911492734478564 C 429.201659751038 20.911492734478564 429.63651452282204 20.291501541171826 430.50622406639 20.291501541171826 C 431.375933609958 20.291501541171826 431.810788381742 21.03936591809752 432.68049792531 21.4398943196828 C 433.55020746887806 21.840422721268077 433.98506224066205 21.802025539410675 434.85477178423 22.29414354909822 C 435.724481327798 22.786261558785764 436.159336099582 23.307265521798715 437.02904564315 23.900484368120516 C 437.898755186722 24.493703214444995 438.33360995850796 25.02245706737196 439.20331950208 25.260237780713926 C 440.073029045648 25.49801849405589 440.50788381743195 25.35041831792213 441.377593361 25.49801849405589 C 442.247302904568 25.64561867018965 442.68215767635195 25.794980184940545 443.55186721992 25.998238661382718 C 444.42157676348796 26.201497137824877 444.856431535272 26.514310876266727 445.72614107884 26.514310876266727 C 446.59585062240797 26.514310876266727 447.03070539419207 26.251519154557286 447.90041493776 25.79216204315268 C 448.770124481328 25.33280493174801 449.204979253112 24.390136503743776 450.07468879668 24.21752531924355 C 450.944398340248 24.044914134743323 451.37925311203196 24.044914134743323 452.2489626556 24.044914134743323 C 453.11867219916803 24.044914134743323 453.553526970952 24.124526640247478 454.42323651452 24.184059885513744 C 455.292946058088 24.243593130780006 455.727800829872 24.34258036107464 456.59751037344 24.34258036107464 C 457.467219917008 24.34258036107464 457.90207468879197 23.969176574196787 458.77178423236 23.969176574196787 C 459.641493775932 23.969176574196787 460.07634854771806 24.057243505063404 460.94605809129 24.330250990753193 C 461.815767634858 24.60325847644173 462.25062240664204 24.649405548217192 463.12033195021 25.334214002642597 C 463.990041493778 26.019022457068 464.424896265562 27.754293262880218 465.29460580913 27.754293262880218 C 466.16431535269805 27.754293262880218 466.59917012448204 27.234698370761677 467.46887966805 27.234698370761677 C 468.338589211618 27.234698370761677 468.773443983402 28.471862615587735 469.64315352697 29.438132981065714 C 470.51286307053795 30.404403346543567 470.94771784232205 31.302333773668597 471.81742738589 32.06605019815125 C 472.687136929458 32.829766622633905 473.12199170124205 33.25671510347896 473.99170124481 33.25671510347896 C 474.861410788378 33.25671510347896 475.29626556016194 33.15103478643835 476.16597510373 33.15103478643835 C 477.035684647302 33.15103478643835 477.47053941908797 33.367679436371965 478.34024896266 33.37296345222436 C 479.20995850622796 33.37824746807676 479.64481327801207 33.37296345222436 480.51452282158 33.37824746807676 C 481.384232365148 33.383531483929154 481.819087136932 35.391457507706725 482.6887966805 35.391457507706725 C 483.55850622406797 35.391457507706725 483.99336099585196 34.891237340378666 484.86307053942 34.891237340378666 C 485.73278008298803 34.891237340378666 486.167634854772 36.666666666666664 487.03734439834 36.666666666666664 C 487.907053941908 36.666666666666664 488.341908713692 36.17525319242676 489.21161825726 35.54293262879857 C 490.081327800828 34.910612065170376 490.51618257261197 34.0806693086755 491.38589211618 33.50506384852572 C 492.25560165974804 32.929458388375934 492.690456431532 32.66490532804963 493.5601659751 32.66490532804963 C 494.429875518672 32.66490532804963 494.864730290458 32.66490532804963 495.73443983403 32.684280052840116 C 496.604149377598 32.703654777630604 497.039004149382 33.85733157199521 497.90871369295 33.85733157199521 C 498.77842323651805 33.85733157199521 499.21327800830204 33.85733157199521 500.08298755187 33.254953764862314 C 500.952697095438 32.65257595772942 501.387551867222 31.381946279173302 502.25726141079 30.419198590930094 C 503.12697095435794 29.456450902687013 503.56182572614205 28.562747688244393 504.43153526971 28.44121532364659 C 505.301244813278 28.319682959048784 505.73609958506205 28.44121532364659 506.60580912863 28.319682959048784 C 507.475518672198 28.19815059445098 507.910373443982 26.76442095993137 508.78008298755 26.412153236460654 C 509.64979253111795 26.059885512989936 510.084647302902 26.059885512989936 510.95435684647 26.059885512989936 C 511.824066390038 26.059885512989936 512.2589211618221 26.43505063848567 513.12863070539 26.43505063848567 C 513.998340248962 26.43505063848567 514.433195020748 26.17789520035321 515.30290456432 26.17789520035321 C 516.172614107888 26.17789520035321 516.607468879672 29.496257155438414 517.47717842324 29.496257155438414 C 518.346887966808 29.496257155438414 518.781742738592 29.071774548656897 519.65145228216 29.071774548656897 C 520.5211618257281 29.071774548656897 520.9560165975121 30.021136063408115 521.82572614108 30.021136063408115 C 522.695435684648 30.021136063408115 524 29.77278731836258 524 29.77278731836258 L 524 40 C 524 40 522.695435684648 40 521.82572614108 40 C 520.9560165975121 40 520.5211618257281 40 519.65145228216 40 C 518.781742738592 40 518.346887966808 40 517.47717842324 40 C 516.607468879672 40 516.172614107888 40 515.30290456432 40 C 514.433195020748 40 513.998340248962 40 513.12863070539 40 C 512.2589211618221 40 511.824066390038 40 510.95435684647 40 C 510.084647302902 40 509.64979253111795 40 508.78008298755 40 C 507.910373443982 40 507.475518672198 40 506.60580912863 40 C 505.73609958506205 40 505.301244813278 40 504.43153526971 40 C 503.56182572614205 40 503.12697095435794 40 502.25726141079 40 C 501.387551867222 40 500.952697095438 40 500.08298755187 40 C 499.21327800830204 40 498.77842323651805 40 497.90871369295 40 C 497.039004149382 40 496.604149377598 40 495.73443983403 40 C 494.864730290458 40 494.429875518672 40 493.5601659751 40 C 492.690456431532 40 492.25560165974804 40 491.38589211618 40 C 490.51618257261197 40 490.081327800828 40 489.21161825726 40 C 488.341908713692 40 487.907053941908 40 487.03734439834 40 C 486.167634854772 40 485.73278008298803 40 484.86307053942 40 C 483.99336099585196 40 483.55850622406797 40 482.6887966805 40 C 481.819087136932 40 481.384232365148 40 480.51452282158 40 C 479.64481327801207 40 479.20995850622796 40 478.34024896266 40 C 477.47053941908797 40 477.035684647302 40 476.16597510373 40 C 475.29626556016194 40 474.861410788378 40 473.99170124481 40 C 473.12199170124205 40 472.687136929458 40 471.81742738589 40 C 470.94771784232205 40 470.51286307053795 40 469.64315352697 40 C 468.773443983402 40 468.338589211618 40 467.46887966805 40 C 466.59917012448204 40 466.16431535269805 40 465.29460580913 40 C 464.424896265562 40 463.990041493778 40 463.12033195021 40 C 462.25062240664204 40 461.815767634858 40 460.94605809129 40 C 460.07634854771806 40 459.641493775932 40 458.77178423236 40 C 457.90207468879197 40 457.467219917008 40 456.59751037344 40 C 455.727800829872 40 455.292946058088 40 454.42323651452 40 C 453.553526970952 40 453.11867219916803 40 452.2489626556 40 C 451.37925311203196 40 450.944398340248 40 450.07468879668 40 C 449.204979253112 40 448.770124481328 40 447.90041493776 40 C 447.03070539419207 40 446.59585062240797 40 445.72614107884 40 C 444.856431535272 40 444.42157676348796 40 443.55186721992 40 C 442.68215767635195 40 442.247302904568 40 441.377593361 40 C 440.50788381743195 40 440.073029045648 40 439.20331950208 40 C 438.33360995850796 40 437.898755186722 40 437.02904564315 40 C 436.159336099582 40 435.724481327798 40 434.85477178423 40 C 433.98506224066205 40 433.55020746887806 40 432.68049792531 40 C 431.810788381742 40 431.375933609958 40 430.50622406639 40 C 429.63651452282204 40 429.201659751038 40 428.33195020747 40 C 427.46224066390204 40 427.02738589211805 40 426.15767634855 40 C 425.287966804982 40 424.853112033198 40 423.98340248963 40 C 423.11369294606203 40 422.678838174278 40 421.80912863071 40 C 420.93941908713805 40 420.504564315352 40 419.63485477178 40 C 418.76514522821196 40 418.330290456428 40 417.46058091286 40 C 416.590871369292 40 416.156016597508 40 415.28630705394 40 C 414.41659751037207 40 413.98174273858797 40 413.11203319502 40 C 412.242323651452 40 411.80746887966797 40 410.9377593361 40 C 410.06804979253195 40 409.633195020748 40 408.76348547718 40 C 407.89377593361195 40 407.458921161828 40 406.58921161826 40 C 405.719502074692 40 405.28464730290796 40 404.41493775934 40 C 403.545228215768 40 403.110373443982 40 402.24066390041 40 C 401.37095435684205 40 400.93609958505806 40 400.06639004149 40 C 399.19668049792205 40 398.761825726138 40 397.89211618257 40 C 397.02240663900204 40 396.587551867218 40 395.71784232365 40 C 394.848132780082 40 394.41327800829805 40 393.54356846473 40 C 392.673858921162 40 392.23900414937805 40 391.36929460581 40 C 390.49958506224203 40 390.064730290458 40 389.19502074689 40 C 388.32531120332203 40 387.890456431538 40 387.02074688797 40 C 386.15103734440197 40 385.716182572618 40 384.84647302905 40 C 383.97676348547805 40 383.541908713692 40 382.67219917012 40 C 381.802489626552 40 381.36763485476797 40 380.4979253112 40 C 379.628215767632 40 379.19336099584797 40 378.32365145228 40 C 377.45394190871195 40 377.019087136928 40 376.14937759336 40 C 375.27966804979195 40 374.844813278008 40 373.97510373444 40 C 373.105394190872 40 372.67053941908796 40 371.80082987552 40 C 370.931120331952 40 370.49626556016796 40 369.6265560166 40 C 368.75684647303194 40 368.32199170124795 40 367.45228215768 40 C 366.582572614112 40 366.147717842328 40 365.27800829876 40 C 364.408298755188 40 363.97344398340203 40 363.10373443983 40 C 362.234024896262 40 361.79917012447805 40 360.92946058091 40 C 360.059751037342 40 359.62489626555805 40 358.75518672199 40 C 357.88547717842204 40 357.450622406638 40 356.58091286307 40 C 355.71120331950203 40 355.276348547718 40 354.40663900415 40 C 353.536929460582 40 353.102074688798 40 352.23236514523 40 C 351.362655601662 40 350.92780082987804 40 350.05809128631 40 C 349.188381742742 40 348.753526970958 40 347.88381742739 40 C 347.014107883818 40 346.579253112032 40 345.70954356846 40 C 344.83983402489196 40 344.404979253108 40 343.53526970954 40 C 342.66556016597195 40 342.230705394188 40 341.36099585062 40 C 340.491286307052 40 340.05643153526796 40 339.1867219917 40 C 338.317012448132 40 337.88215767634796 40 337.01244813278 40 C 336.14273858921194 40 335.70788381742796 40 334.83817427386 40 C 333.968464730292 40 333.533609958508 40 332.66390041494 40 C 331.79419087137205 40 331.359336099588 40 330.48962655602 40 C 329.619917012452 40 329.18506224066806 40 328.3153526971 40 C 327.445643153528 40 327.01078838174203 40 326.14107883817 40 C 325.27136929460204 40 324.836514522818 40 323.96680497925 40 C 323.09709543568204 40 322.662240663898 40 321.79253112033 40 C 320.922821576762 40 320.487966804978 40 319.61825726141 40 C 318.74854771784203 40 318.31369294605804 40 317.44398340249 40 C 316.574273858922 40 316.139419087138 40 315.26970954357 40 C 314.400000000002 40 313.965145228218 40 313.09543568465 40 C 312.22572614108196 40 311.79087136929803 40 310.92116182573 40 C 310.051452282158 40 309.616597510372 40 308.7468879668 40 C 307.877178423232 40 307.44232365144796 40 306.57261410788 40 C 305.702904564312 40 305.26804979252796 40 304.39834024896 40 C 303.52863070539195 40 303.09377593360796 40 302.22406639004 40 C 301.354356846472 40 300.919502074688 40 300.04979253112 40 C 299.180082987552 40 298.74522821576795 40 297.8755186722 40 C 297.005809128632 40 296.570954356848 40 295.70124481328 40 C 294.831535269712 40 294.39668049792806 40 293.52697095436 40 C 292.65726141079205 40 292.222406639008 40 291.35269709544 40 C 290.482987551868 40 290.048132780082 40 289.17842323651 40 C 288.308713692942 40 287.873858921158 40 287.00414937759 40 C 286.13443983402203 40 285.69958506223804 40 284.82987551867 40 C 283.96016597510203 40 283.525311203318 40 282.65560165975 40 C 281.785892116182 40 281.351037344398 40 280.48132780083 40 C 279.61161825726197 40 279.17676348547803 40 278.30705394191 40 C 277.43734439834196 40 277.00248962655803 40 276.13278008299 40 C 275.263070539422 40 274.82821576763797 40 273.95850622407 40 C 273.088796680502 40 272.65394190871797 40 271.78423236515 40 C 270.914522821578 40 270.47966804979194 40 269.60995850622 40 C 268.740248962652 40 268.305394190868 40 267.4356846473 40 C 266.565975103732 40 266.13112033194795 40 265.26141078838 40 C 264.391701244812 40 263.95684647302795 40 263.08713692946 40 C 262.217427385892 40 261.782572614108 40 260.91286307054 40 C 260.04315352697205 40 259.608298755188 40 258.73858921162 40 C 257.86887966805205 40 257.434024896268 40 256.5643153527 40 C 255.694605809132 40 255.259751037348 40 254.39004149378 40 C 253.520331950208 40 253.08547717842202 40 252.21576763485 40 C 251.34605809128203 40 250.91120331949801 40 250.04149377593 40 C 249.171784232362 40 248.73692946057798 40 247.86721991701 40 C 246.997510373442 40 246.56265560165804 40 245.69294605809 40 C 244.82323651452197 40 244.388381742738 40 243.51867219917 40 C 242.64896265560202 40 242.214107883818 40 241.34439834025 40 C 240.474688796682 40 240.03983402489797 40 239.17012448133 40 C 238.30041493776199 40 237.86556016597797 40 236.99585062241 40 C 236.126141078842 40 235.691286307058 40 234.82157676349 40 C 233.951867219918 40 233.51701244813202 40 232.64730290456 40 C 231.77759336099203 40 231.342738589208 40 230.47302904564 40 C 229.603319502072 40 229.168464730288 40 228.29875518672 40 C 227.429045643152 40 226.99419087136798 40 226.1244813278 40 C 225.254771784232 40 224.819917012448 40 223.95020746888 40 C 223.08049792531202 40 222.645643153528 40 221.77593360996 40 C 220.90622406639199 40 220.471369294608 40 219.60165975104 40 C 218.73195020747198 40 218.29709543568796 40 217.42738589212 40 C 216.557676348552 40 216.122821576768 40 215.2531120332 40 C 214.383402489628 40 213.94854771784202 40 213.07883817427 40 C 212.20912863070197 40 211.774273858918 40 210.90456431535 40 C 210.03485477178202 40 209.599999999998 40 208.73029045643 40 C 207.860580912862 40 207.42572614107797 40 206.55601659751 40 C 205.686307053942 40 205.25145228215797 40 204.38174273859 40 C 203.51203319502198 40 203.077178423238 40 202.20746887967 40 C 201.337759336102 40 200.902904564318 40 200.03319502075 40 C 199.16348547718198 40 198.728630705398 40 197.85892116183 40 C 196.98921161825803 40 196.554356846472 40 195.6846473029 40 C 194.814937759332 40 194.38008298754798 40 193.51037344398 40 C 192.640663900412 40 192.205809128628 40 191.33609958506 40 C 190.46639004149202 40 190.031535269708 40 189.16182572614 40 C 188.292116182572 40 187.857261410788 40 186.98755186722 40 C 186.11784232365198 40 185.68298755186797 40 184.8132780083 40 C 183.94356846473198 40 183.508713692948 40 182.63900414938 40 C 181.769294605812 40 181.33443983402802 40 180.46473029046 40 C 179.595020746892 40 179.16016597510801 40 178.29045643154 40 C 177.42074688796802 40 176.98589211618201 40 176.11618257261 40 C 175.246473029042 40 174.81161825725798 40 173.94190871369 40 C 173.072199170122 40 172.637344398338 40 171.76763485477 40 C 170.897925311202 40 170.463070539418 40 169.59336099585 40 C 168.723651452282 40 168.288796680498 40 167.41908713693 40 C 166.54937759336198 40 166.114522821578 40 165.24481327801 40 C 164.375103734442 40 163.94024896265802 40 163.07053941909 40 C 162.200829875522 40 161.765975103738 40 160.89626556017 40 C 160.026556016598 40 159.59170124481201 40 158.72199170124 40 C 157.85228215767202 40 157.417427385888 40 156.54771784232 40 C 155.678008298752 40 155.243153526968 40 154.3734439834 40 C 153.503734439832 40 153.06887966804797 40 152.19917012448 40 C 151.32946058091198 40 150.894605809128 40 150.02489626556 40 C 149.155186721992 40 148.720331950208 40 147.85062240664 40 C 146.980912863072 40 146.54605809128802 40 145.67634854772 40 C 144.80663900415203 40 144.37178423236801 40 143.5020746888 40 C 142.632365145232 40 142.19751037344798 40 141.32780082988 40 C 140.458091286308 40 140.023236514522 40 139.15352697095 40 C 138.283817427382 40 137.848962655598 40 136.97925311203 40 C 136.10954356846202 40 135.674688796678 40 134.80497925311 40 C 133.93526970954198 40 133.50041493775797 40 132.63070539419 40 C 131.760995850622 40 131.32614107883802 40 130.45643153527 40 C 129.586721991702 40 129.151867219918 40 128.28215767635 40 C 127.41244813278199 40 126.977593360998 40 126.10788381743 40 C 125.238174273862 40 124.80331950207798 40 123.93360995851 40 C 123.06390041494201 40 122.629045643158 40 121.75933609959 40 C 120.88962655601799 40 120.45477178423198 40 119.58506224066 40 C 118.715352697092 40 118.28049792530801 40 117.41078838174 40 C 116.54107883817201 40 116.106224066388 40 115.23651452282 40 C 114.366804979252 40 113.931950207468 40 113.0622406639 40 C 112.192531120332 40 111.75767634854799 40 110.88796680498 40 C 110.01825726141199 40 109.583402489628 40 108.71369294606 40 C 107.843983402492 40 107.40912863070801 40 106.53941908714 40 C 105.669709543572 40 105.23485477178801 40 104.36514522822 40 C 103.49543568464802 40 103.060580912862 40 102.19087136929 40 C 101.32116182572199 40 100.886307053938 40 100.01659751037 40 C 99.14688796680281 40 98.71203319501919 40 97.842323651452 40 C 96.9726141078836 40 96.5377593360994 40 95.668049792531 40 C 94.79834024896259 40 94.36348547717839 40 93.49377593361 40 C 92.62406639004159 40 92.1892116182574 40 91.319502074689 40 C 90.44979253112061 40 90.0149377593364 40 89.145228215768 40 C 88.2755186721992 40 87.8406639004148 40 86.970954356846 40 C 86.10124481327759 40 85.6663900414934 40 84.796680497925 40 C 83.9269709543566 40 83.4921161825724 40 82.622406639004 40 C 81.7526970954356 40 81.31784232365139 40 80.448132780083 40 C 79.5784232365146 40 79.14356846473041 40 78.273858921162 40 C 77.4041493775936 40 76.96929460580941 40 76.099585062241 40 C 75.22987551867261 40 74.79502074688841 40 73.92531120332 40 C 73.0556016597512 40 72.6207468879668 40 71.751037344398 40 C 70.88132780082961 40 70.4464730290454 40 69.576763485477 40 C 68.70705394190861 40 68.2721991701244 40 67.402489626556 40 C 66.5327800829876 40 66.0979253112034 40 65.228215767635 40 C 64.3585062240666 40 63.923651452282414 40 63.053941908714 40 C 62.184232365145206 40 61.749377593360805 40 60.879668049792 40 C 60.0099585062236 40 59.5751037344394 40 58.705394190871 40 C 57.83568464730259 40 57.4008298755184 40 56.53112033195 40 C 55.6614107883816 40 55.2265560165974 40 54.356846473029 40 C 53.4871369294606 40 53.0522821576764 40 52.182572614108 40 C 51.312863070539606 40 50.8780082987554 40 50.008298755187 40 C 49.138589211618594 40 48.703734439834406 40 47.834024896266 40 C 46.964315352697604 40 46.5294605809134 40 45.659751037345 40 C 44.7900414937762 40 44.3551867219918 40 43.485477178423 40 C 42.6157676348546 40 42.1809128630704 40 41.311203319502 40 C 40.4414937759336 40 40.0066390041494 40 39.136929460581 40 C 38.2672199170122 40 37.8323651452278 40 36.962655601659 40 C 36.0929460580906 40 35.6580912863064 40 34.788381742738 40 C 33.9186721991696 40 33.4838174273854 40 32.614107883817 40 C 31.744398340248598 40 31.309543568464402 40 30.439834024896 40 C 29.5701244813276 40 29.1352697095434 40 28.265560165975 40 C 27.395850622406602 40 26.960995850622403 40 26.091286307054 40 C 25.2215767634856 40 24.786721991701402 40 23.917012448133 40 C 23.0473029045646 40 22.6124481327804 40 21.742738589212 40 C 20.8730290456436 40 20.438174273859403 40 19.568464730291 40 C 18.6987551867226 40 18.263900414938398 40 17.39419087137 40 C 16.5244813278012 40 16.0896265560168 40 15.219917012448 40 C 14.3502074688796 40 13.9153526970954 40 13.045643153527 40 C 12.1759336099582 40 11.741078838173799 40 10.871369294605 40 C 10.00165975103672 40 9.56680497925258 40 8.6970954356843 40 C 7.827385892115901 40 7.392531120331699 40 6.5228215767633 40 C 5.65311203319486 40 5.21825726141064 40 4.3485477178422 40 C 3.47883817427376 40 3.04398340248954 40 2.1742738589211 40 C 1.30456431535266 40 0 40 0 40" class="highcharts-area" data-z-index="0"></path><path fill="none" d="M 0 25.313077939234226 C 0 25.313077939234226 1.30456431535266 24.050198150594497 2.1742738589211 24.050198150594497 C 3.04398340248954 24.050198150594497 3.47883817427376 25.276089828269892 4.3485477178422 25.276089828269892 C 5.21825726141064 25.276089828269892 5.65311203319486 24.729018053721347 6.5228215767633 24.400704535447343 C 7.392531120331699 24.072391017173352 7.827385892115901 23.86807573756046 8.6970954356843 23.634522236899905 C 9.56680497925258 23.400968736239378 10.00165975103672 23.310435931307833 10.871369294605 23.232937032144644 C 11.741078838173799 23.155438132981455 12.1759336099582 23.232937032144644 13.045643153527 23.155438132981455 C 13.9153526970954 23.077939233818267 14.3502074688796 23.155438132981455 15.219917012448 22.743284896521388 C 16.0896265560168 22.33113166006132 16.5244813278012 21.58925583443484 17.39419087137 20.907970057244047 C 18.263900414938398 20.226684280053565 18.6987551867226 20.718802289740456 19.568464730291 19.336856010568198 C 20.438174273859403 17.954909731395944 20.8730290456436 15.77331571994718 21.742738589212 13.998238661382764 C 22.6124481327804 12.22316160281834 23.0473029045646 10.729194187583346 23.917012448133 10.461470717746096 C 24.786721991701402 10.193747247908846 25.2215767634856 10.193747247908846 26.091286307054 10.193747247908846 C 26.960995850622403 10.193747247908846 27.395850622406602 14.984588287098319 28.265560165975 14.984588287098319 C 29.1352697095434 14.984588287098319 29.5701244813276 13.983795684721096 30.439834024896 13.630118890357306 C 31.309543568464402 13.276442095993517 31.744398340248598 13.373315719946952 32.614107883817 13.21620431527937 C 33.4838174273854 13.059092910611788 33.9186721991696 12.844561867019394 34.788381742738 12.844561867019394 C 35.6580912863064 12.844561867019394 36.0929460580906 14.119418758257197 36.962655601659 15.04799647732342 C 37.8323651452278 15.976574196390057 38.2672199170122 17.48745046235154 39.136929460581 17.48745046235154 C 40.0066390041494 17.48745046235154 40.4414937759336 17.48745046235154 41.311203319502 17.468075737561055 C 42.1809128630704 17.44870101277057 42.6157676348546 17.347600176134183 43.485477178423 17.15103478643802 C 44.3551867219918 16.954469396741768 44.7900414937762 16.485248789080018 45.659751037345 16.485248789080018 C 46.5294605809134 16.485248789080018 46.964315352697604 17.832672831351978 47.834024896266 17.832672831351978 C 48.703734439834406 17.832672831351978 49.138589211618594 17.784059885513358 50.008298755187 17.69352708058157 C 50.8780082987554 17.602994275649788 51.312863070539606 17.380008806693056 52.182572614108 17.380008806693056 C 53.0522821576764 17.380008806693056 53.4871369294606 17.80766182298527 54.356846473029 17.999999999999805 C 55.2265560165974 18.19233817701434 55.6614107883816 17.999999999999805 56.53112033195 18.341699691765726 C 57.4008298755184 18.683399383531647 57.83568464730259 19.222369000440676 58.705394190871 20.085424922941787 C 59.5751037344394 20.948480845442894 60.0099585062236 21.957727873183867 60.879668049792 22.656979304271267 C 61.749377593360805 23.35623073535899 62.184232365145206 23.581682078379604 63.053941908714 23.581682078379604 C 63.923651452282414 23.581682078379604 64.3585062240666 23.493615147514095 65.228215767635 23.47776309995689 C 66.0979253112034 23.46191105239968 66.5327800829876 23.47776309995689 67.402489626556 23.46191105239968 C 68.2721991701244 23.446059004842475 68.70705394190861 23.377366798767454 69.576763485477 23.377366798767454 C 70.4464730290454 23.377366798767454 70.88132780082961 23.559136944078436 71.751037344398 23.638044914135662 C 72.6207468879668 23.716952884192924 73.0556016597512 23.771906649053676 73.92531120332 23.771906649053676 C 74.79502074688841 23.771906649053676 75.22987551867261 22.420959929547184 76.099585062241 22.420959929547184 C 76.96929460580941 22.420959929547184 77.4041493775936 22.913077939234736 78.273858921162 23.416116248349667 C 79.14356846473041 23.9191545574646 79.5784232365146 24.89916336415753 80.448132780083 24.936151475121854 C 81.31784232365139 24.973139586086177 81.7526970954356 24.936151475121854 82.622406639004 24.973139586086177 C 83.4921161825724 25.0101276970505 83.9269709543566 25.031968295905788 84.796680497925 25.27785116688777 C 85.6663900414934 25.523734037869758 86.10124481327759 25.907705856451987 86.970954356846 26.202553940996104 C 87.8406639004148 26.497402025540357 88.2755186721992 26.752091589608703 89.145228215768 26.752091589608703 C 90.0149377593364 26.752091589608703 90.44979253112061 26.752091589608703 91.319502074689 26.619991193307335 C 92.1892116182574 26.487890797005967 92.62406639004159 25.898194627917842 93.49377593361 25.321884632321144 C 94.36348547717839 24.745574636724456 94.79834024896259 23.73844121532386 95.668049792531 23.73844121532386 C 96.5377593360994 23.73844121532386 96.9726141078836 25.129898723030433 97.842323651452 25.129898723030433 C 98.71203319501919 25.129898723030433 99.14688796680281 24.976662263320705 100.01659751037 24.976662263320705 C 100.886307053938 24.976662263320705 101.32116182572199 25.19788639365967 102.19087136929 25.357111404667602 C 103.060580912862 25.516336415676264 103.49543568464802 25.77278731836219 104.36514522822 25.77278731836219 C 105.23485477178801 25.77278731836219 105.669709543572 25.48745046235232 106.53941908714 25.48745046235232 C 107.40912863070801 25.48745046235232 107.843983402492 25.66640246587469 108.71369294606 26.135623073536475 C 109.583402489628 26.60484368119827 110.01825726141199 27.10083663584415 110.88796680498 27.833553500661285 C 111.75767634854799 28.56627036547841 112.192531120332 29.23698811096426 113.0622406639 29.79920739762212 C 113.931950207468 30.36142668427999 114.366804979252 30.410039630119595 115.23651452282 30.64464993395062 C 116.106224066388 30.87926023778164 116.54107883817201 30.850374284456827 117.41078838174 30.972258916777214 C 118.28049792530801 31.094143549097602 118.715352697092 31.254073095552563 119.58506224066 31.254073095552563 C 120.45477178423198 31.254073095552563 120.88962655601799 30.772170849847235 121.75933609959 30.45090268604203 C 122.629045643158 30.129634522238312 123.06390041494201 29.932364597093965 123.93360995851 29.64773227653026 C 124.80331950207798 29.36309995596656 125.238174273862 29.585380889476134 126.10788381743 29.02774108322352 C 126.977593360998 28.470101276970897 127.41244813278199 26.85953324526718 128.28215767635 26.85953324526718 C 129.151867219918 26.85953324526718 129.586721991702 27.252664024659587 130.45643153527 27.53764861294662 C 131.32614107883802 27.82263320123365 131.760995850622 27.89520035226826 132.63070539419 28.28445618670233 C 133.50041493775797 28.673712021136396 133.93526970954198 29.132012329370554 134.80497925311 29.48392778511696 C 135.674688796678 29.83584324086337 136.10954356846202 30.04403346543436 136.97925311203 30.04403346543436 C 137.848962655598 30.04403346543436 138.283817427382 30.038749449581964 139.15352697095 30.038749449581964 C 140.023236514522 30.038749449581964 140.458091286308 30.087714663144258 141.32780082988 30.36988110964432 C 142.19751037344798 30.652047556143078 142.632365145232 31.015940114487755 143.5020746888 31.44958168207902 C 144.37178423236801 31.883223249670287 144.80663900415203 31.930074856891792 145.67634854772 32.538088947600656 C 146.54605809128802 33.14610303830954 146.980912863072 33.89537648612976 147.85062240664 34.489652135623395 C 148.720331950208 35.083927785117005 149.155186721992 35.430206957287695 150.02489626556 35.509467195068765 C 150.894605809128 35.588727432849836 151.32946058091198 35.588727432849836 152.19917012448 35.588727432849836 C 153.06887966804797 35.588727432849836 153.503734439832 35.073359753413705 154.3734439834 34.59885512989976 C 155.243153526968 34.12435050638582 155.678008298752 33.70973139586146 156.54771784232 33.2162043152801 C 157.417427385888 32.72267723469875 157.85228215767202 32.43698811096411 158.72199170124 32.131219726992995 C 159.59170124481201 31.825451343020465 160.026556016598 32.088243064730534 160.89626556017 31.68736239542099 C 161.765975103738 31.28648172611331 162.200829875522 30.56186701893527 163.07053941909 30.126816380449945 C 163.94024896265802 29.691765741964623 164.375103734442 29.99471598414809 165.24481327801 29.512109202994367 C 166.114522821578 29.02950242184066 166.54937759336198 27.92514310876379 167.41908713693 27.713782474681363 C 168.288796680498 27.502421840598934 168.723651452282 27.68454425363298 169.59336099585 27.502421840598934 C 170.463070539418 27.320299427564883 170.897925311202 26.803170409511118 171.76763485477 26.803170409511118 C 172.637344398338 26.803170409511118 173.072199170122 27.03179216204406 173.94190871369 27.497137824747764 C 174.81161825725798 27.96248348745145 175.246473029042 28.92734478203409 176.11618257261 29.129898723029598 C 176.98589211618201 29.332452664025105 177.42074688796802 29.332452664025105 178.29045643154 29.332452664025105 C 179.16016597510801 29.332452664025105 179.595020746892 29.205988551299466 180.46473029046 28.21047996477366 C 181.33443983402802 27.214971378247853 181.769294605812 24.354909731396077 182.63900414938 24.354909731396077 C 183.508713692948 24.354909731396077 183.94356846473198 24.726552179657293 184.8132780083 24.726552179657293 C 185.68298755186797 24.726552179657293 186.11784232365198 21.45222369000425 186.98755186722 21.45222369000425 C 187.857261410788 21.45222369000425 188.292116182572 21.675913694408123 189.16182572614 21.675913694408123 C 190.031535269708 21.675913694408123 190.46639004149202 17.645970937913678 191.33609958506 17.645970937913678 C 192.205809128628 17.645970937913678 192.640663900412 23.072655217965856 193.51037344398 23.072655217965856 C 194.38008298754798 23.072655217965856 194.814937759332 22.49881109643243 195.6846473029 22.04931748128598 C 196.554356846472 21.599823866137474 196.98921161825803 21.391633641569303 197.85892116183 20.825187142228458 C 198.728630705398 20.25874064289022 199.16348547718198 20.29114927344775 200.03319502075 19.217084984588276 C 200.902904564318 18.1430206957288 201.337759336102 15.45486569793109 202.20746887967 15.45486569793109 C 203.077178423238 15.45486569793109 203.51203319502198 15.45486569793109 204.38174273859 15.505944517833512 C 205.25145228215797 15.557023337735934 205.686307053942 18.475561426684973 206.55601659751 18.475561426684973 C 207.42572614107797 18.475561426684973 207.860580912862 16.05548216644611 208.73029045643 15.447820343460812 C 209.599999999998 14.840158520475512 210.03485477178202 14.94055482166371 210.90456431535 14.840158520475512 C 211.774273858918 14.739762219287314 212.20912863070197 14.739762219287314 213.07883817427 14.739762219287314 C 213.94854771784202 14.739762219287314 214.383402489628 15.505944517833512 215.2531120332 15.505944517833512 C 216.122821576768 15.505944517833512 216.557676348552 12.19110523998284 217.42738589212 12.19110523998284 C 218.29709543568796 12.19110523998284 218.73195020747198 13.401144870101032 219.60165975104 13.401144870101032 C 220.471369294608 13.401144870101032 220.90622406639199 13.05239982386608 221.77593360996 11.643328929986893 C 222.645643153528 10.234258036107706 223.08049792531202 7.148392778512047 223.95020746888 6.3557904007050965 C 224.819917012448 5.563188022898146 225.254771784232 5.563188022898146 226.1244813278 5.563188022898146 C 226.99419087136798 5.563188022898146 227.429045643152 7.933949801849984 228.29875518672 8.64905328049376 C 229.168464730288 9.364156759137536 229.603319502072 9.364156759137536 230.47302904564 9.364156759137536 C 231.342738589208 9.364156759137536 231.77759336099203 9.364156759137536 232.64730290456 8.471158080141148 C 233.51701244813202 7.5781594011447595 233.951867219918 5.27785116688829 234.82157676349 4.305592250110813 C 235.691286307058 3.3333333333333357 236.126141078842 3.3333333333333357 236.99585062241 3.3333333333333357 C 237.86556016597797 3.3333333333333357 238.30041493776199 3.558784676354107 239.17012448133 4.023778071334235 C 240.03983402489797 4.488771466314346 240.474688796682 4.45953324526596 241.34439834025 5.658300308233933 C 242.214107883818 6.857067371201906 242.64896265560202 9.62835755174028 243.51867219917 10.017613386174101 C 244.388381742738 10.406869220607923 244.82323651452197 10.017613386174101 245.69294605809 10.406869220607923 C 246.56265560165804 10.796125055041745 246.997510373442 11.646851607221645 247.86721991701 12.235138705416215 C 248.73692946057798 12.823425803610768 249.171784232362 13.348304711580731 250.04149377593 13.348304711580731 C 250.91120331949801 13.348304711580731 251.34605809128203 13.211977102597263 252.21576763485 12.6032584764429 C 253.08547717842202 11.994539850285712 253.520331950208 10.30471158080185 254.39004149378 10.30471158080185 C 255.259751037348 10.30471158080185 255.694605809132 11.225187142227755 256.5643153527 11.576398062527261 C 257.434024896268 11.927608982826754 257.86887966805205 12.06076618229935 258.73858921162 12.06076618229935 C 259.608298755188 12.06076618229935 260.04315352697205 11.377366798767511 260.91286307054 11.377366798767511 C 261.782572614108 11.377366798767511 262.217427385892 12.775869660943123 263.08713692946 12.775869660943123 C 263.95684647302795 12.775869660943123 264.391701244812 11.644738000881668 265.26141078838 11.247027741084008 C 266.13112033194795 10.849317481286345 266.565975103732 10.787318361954817 267.4356846473 10.787318361954817 C 268.305394190868 10.787318361954817 268.740248962652 10.9863496257168 269.60995850622 11.634522236899965 C 270.47966804979194 12.282694848086097 270.914522821578 14.02818141787806 271.78423236515 14.02818141787806 C 272.65394190871797 14.02818141787806 273.088796680502 12.3813298106569 273.95850622407 12.3813298106569 C 274.82821576763797 12.3813298106569 275.263070539422 12.3813298106569 276.13278008299 12.45882870982009 C 277.00248962655803 12.536327608983278 277.43734439834196 13.998238661382764 278.30705394191 13.998238661382764 C 279.17676348547803 13.998238661382764 279.61161825726197 13.08058124174348 280.48132780083 13.08058124174348 C 281.351037344398 13.08058124174348 281.785892116182 13.182738881550295 282.65560165975 13.806252752092053 C 283.525311203318 14.42976662263381 283.96016597510203 16.092470277411664 284.82987551867 16.19815059445227 C 285.69958506223804 16.303830911492874 286.13443983402203 16.19815059445227 287.00414937759 16.303830911492874 C 287.873858921158 16.40951122853348 288.308713692942 17.107001321004635 289.17842323651 17.107001321004635 C 290.048132780082 17.107001321004635 290.482987551868 16.053720827829462 291.35269709544 16.053720827829462 C 292.222406639008 16.053720827829462 292.65726141079205 16.80228974020305 293.52697095436 16.80228974020305 C 294.39668049792806 16.80228974020305 294.831535269712 16.011448701012505 295.70124481328 15.447820343460812 C 296.570954356848 14.884191985909155 297.005809128632 14.70594451783417 297.8755186722 13.984147952444676 C 298.74522821576795 13.262351387055181 299.180082987552 12.129458388376825 300.04979253112 11.83883751651334 C 300.919502074688 11.548216644649855 301.354356846472 11.548216644649855 302.22406639004 11.548216644649855 C 303.09377593360796 11.548216644649855 303.52863070539195 11.685601056803128 304.39834024896 11.766622633201333 C 305.26804979252796 11.847644209599535 305.702904564312 11.953324526640873 306.57261410788 11.953324526640873 C 307.44232365144796 11.953324526640873 307.877178423232 11.676794363716695 308.7468879668 11.676794363716695 C 309.616597510372 11.676794363716695 310.051452282158 14.332892998676527 310.92116182573 15.58520475561457 C 311.79087136929803 16.837516512546884 312.22572614108196 17.219374724790686 313.09543568465 17.938353148392586 C 313.965145228218 18.657331571994437 314.400000000002 18.583003082342465 315.26970954357 19.180096873623953 C 316.139419087138 19.777190664905437 316.574273858922 20.52928225451379 317.44398340249 20.923822104800013 C 318.31369294605804 21.318361955086235 318.74854771784203 20.963628357552214 319.61825726141 21.318361955086235 C 320.487966804978 21.673095552620257 320.922821576762 22.697490092470133 321.79253112033 22.697490092470133 C 322.662240663898 22.697490092470133 323.09709543568204 22.325143108763495 323.96680497925 21.566710700132997 C 324.836514522818 20.808278291502504 325.27136929460204 19.040951122853542 326.14107883817 18.905328049317653 C 327.01078838174203 18.769704975781764 327.445643153528 18.769704975781764 328.3153526971 18.769704975781764 C 329.18506224066806 18.769704975781764 329.619917012452 18.769704975781764 330.48962655602 19.11140466754768 C 331.359336099588 19.4531043593136 331.79419087137205 20.839277851167775 332.66390041494 20.839277851167775 C 333.533609958508 20.839277851167775 333.968464730292 20.243945398503932 334.83817427386 20.235138705417004 C 335.70788381742796 20.226332012330076 336.14273858921194 20.226332012330076 337.01244813278 20.226332012330076 C 337.88215767634796 20.226332012330076 338.317012448132 21.34654337296364 339.1867219917 21.34654337296364 C 340.05643153526796 21.34654337296364 340.491286307052 21.34654337296364 341.36099585062 21.343020695729123 C 342.230705394188 21.339498018494606 342.66556016597195 20.40774988991722 343.53526970954 20.40774988991722 C 344.404979253108 20.40774988991722 344.83983402489196 21.06296785557043 345.70954356846 21.08058124174427 C 346.579253112032 21.098194627918108 347.014107883818 21.08058124174427 347.88381742739 21.098194627918108 C 348.753526970958 21.115808014091947 349.188381742742 21.098194627918108 350.05809128631 21.175693527081297 C 350.92780082987804 21.253192426244485 351.362655601662 21.530427124615567 352.23236514523 21.82562747688333 C 353.102074688798 22.120827829151093 353.536929460582 22.36177895200449 354.40663900415 22.651695288420107 C 355.276348547718 22.94161162483571 355.71120331950203 23.275209158961378 356.58091286307 23.275209158961378 C 357.450622406638 23.275209158961378 357.88547717842204 22.46499339497933 358.75518672199 22.413914575076905 C 359.62489626555805 22.36283575517448 360.059751037342 22.413914575076905 360.92946058091 22.36283575517448 C 361.79917012447805 22.311756935272054 362.234024896262 22.292382210479648 363.10373443983 22.09863496257175 C 363.97344398340203 21.904887714662966 364.408298755188 21.654073095554192 365.27800829876 21.394099515632774 C 366.147717842328 21.134125935712564 366.582572614112 21.076706296785424 367.45228215768 20.798767062967684 C 368.32199170124795 20.520827829149944 368.75684647303194 20.004403346544077 369.6265560166 20.004403346544077 C 370.49626556016796 20.004403346544077 370.931120331952 21.24332892998783 371.80082987552 21.702333773668887 C 372.67053941908796 22.161338617349948 373.105394190872 22.080317040951257 373.97510373444 22.299427564949383 C 374.844813278008 22.518538088947523 375.27966804979195 22.299427564949383 376.14937759336 22.797886393659557 C 377.019087136928 23.29634522236973 377.45394190871195 24.105504183179796 378.32365145228 24.939674152356375 C 379.19336099584797 25.773844121532896 379.628215767632 26.65874064288832 380.4979253112 26.968736239542302 C 381.36763485476797 27.278731836196286 381.802489626552 27.073007485690304 382.67219917012 27.278731836196286 C 383.541908713692 27.48445618670322 383.97676348547805 27.769088507265682 384.84647302905 27.99735799207459 C 385.716182572618 28.225627476882458 386.15103734440197 28.235490973140127 387.02074688797 28.420079260238218 C 387.890456431538 28.604667547336298 388.32531120332203 28.920299427565034 389.19502074689 28.920299427565034 C 390.064730290458 28.920299427565034 390.49958506224203 26.748568912374175 391.36929460581 26.748568912374175 C 392.23900414937805 26.748568912374175 392.673858921162 26.92470277410892 393.54356846473 26.92470277410892 C 394.41327800829805 26.92470277410892 394.848132780082 24.119594892118982 395.71784232365 21.357111404668437 C 396.587551867218 18.59462791721807 397.02240663900204 15.543989431969061 397.89211618257 13.112285336856644 C 398.761825726138 10.680581241744228 399.19668049792205 9.19859092910636 400.06639004149 9.19859092910636 C 400.93609958505806 9.19859092910636 401.37095435684205 10.600616468516503 402.24066390041 10.600616468516503 C 403.110373443982 10.600616468516503 403.545228215768 9.309555261999364 404.41493775934 9.309555261999364 C 405.28464730290796 9.309555261999364 405.719502074692 10.579480405107669 406.58921161826 11.181858212241039 C 407.458921161828 11.78423601937445 407.89377593361195 12.321444297666321 408.76348547718 12.321444297666321 C 409.633195020748 12.321444297666321 410.06804979253195 11.452047556142357 410.9377593361 10.935270805812156 C 411.80746887966797 10.418494055481986 412.242323651452 9.737560546015391 413.11203319502 9.737560546015391 C 413.98174273858797 9.737560546015391 414.41659751037207 10.851078819903302 415.28630705394 11.79128137384421 C 416.156016597508 12.731483927785241 416.590871369292 13.144341699691902 417.46058091286 14.438573315720237 C 418.330290456428 15.732804931748571 418.76514522821196 16.842800528405647 419.63485477178 18.262439453985895 C 420.504564315352 19.682078379572637 420.93941908713805 21.536767943637713 421.80912863071 21.536767943637713 C 422.678838174278 21.536767943637713 423.11369294606203 20.328489652136152 423.98340248963 20.328489652136152 C 424.853112033198 20.328489652136152 425.287966804982 20.756494936152187 426.15767634855 20.833993835315376 C 427.02738589211805 20.911492734478564 427.46224066390204 20.911492734478564 428.33195020747 20.911492734478564 C 429.201659751038 20.911492734478564 429.63651452282204 20.291501541171826 430.50622406639 20.291501541171826 C 431.375933609958 20.291501541171826 431.810788381742 21.03936591809752 432.68049792531 21.4398943196828 C 433.55020746887806 21.840422721268077 433.98506224066205 21.802025539410675 434.85477178423 22.29414354909822 C 435.724481327798 22.786261558785764 436.159336099582 23.307265521798715 437.02904564315 23.900484368120516 C 437.898755186722 24.493703214444995 438.33360995850796 25.02245706737196 439.20331950208 25.260237780713926 C 440.073029045648 25.49801849405589 440.50788381743195 25.35041831792213 441.377593361 25.49801849405589 C 442.247302904568 25.64561867018965 442.68215767635195 25.794980184940545 443.55186721992 25.998238661382718 C 444.42157676348796 26.201497137824877 444.856431535272 26.514310876266727 445.72614107884 26.514310876266727 C 446.59585062240797 26.514310876266727 447.03070539419207 26.251519154557286 447.90041493776 25.79216204315268 C 448.770124481328 25.33280493174801 449.204979253112 24.390136503743776 450.07468879668 24.21752531924355 C 450.944398340248 24.044914134743323 451.37925311203196 24.044914134743323 452.2489626556 24.044914134743323 C 453.11867219916803 24.044914134743323 453.553526970952 24.124526640247478 454.42323651452 24.184059885513744 C 455.292946058088 24.243593130780006 455.727800829872 24.34258036107464 456.59751037344 24.34258036107464 C 457.467219917008 24.34258036107464 457.90207468879197 23.969176574196787 458.77178423236 23.969176574196787 C 459.641493775932 23.969176574196787 460.07634854771806 24.057243505063404 460.94605809129 24.330250990753193 C 461.815767634858 24.60325847644173 462.25062240664204 24.649405548217192 463.12033195021 25.334214002642597 C 463.990041493778 26.019022457068 464.424896265562 27.754293262880218 465.29460580913 27.754293262880218 C 466.16431535269805 27.754293262880218 466.59917012448204 27.234698370761677 467.46887966805 27.234698370761677 C 468.338589211618 27.234698370761677 468.773443983402 28.471862615587735 469.64315352697 29.438132981065714 C 470.51286307053795 30.404403346543567 470.94771784232205 31.302333773668597 471.81742738589 32.06605019815125 C 472.687136929458 32.829766622633905 473.12199170124205 33.25671510347896 473.99170124481 33.25671510347896 C 474.861410788378 33.25671510347896 475.29626556016194 33.15103478643835 476.16597510373 33.15103478643835 C 477.035684647302 33.15103478643835 477.47053941908797 33.367679436371965 478.34024896266 33.37296345222436 C 479.20995850622796 33.37824746807676 479.64481327801207 33.37296345222436 480.51452282158 33.37824746807676 C 481.384232365148 33.383531483929154 481.819087136932 35.391457507706725 482.6887966805 35.391457507706725 C 483.55850622406797 35.391457507706725 483.99336099585196 34.891237340378666 484.86307053942 34.891237340378666 C 485.73278008298803 34.891237340378666 486.167634854772 36.666666666666664 487.03734439834 36.666666666666664 C 487.907053941908 36.666666666666664 488.341908713692 36.17525319242676 489.21161825726 35.54293262879857 C 490.081327800828 34.910612065170376 490.51618257261197 34.0806693086755 491.38589211618 33.50506384852572 C 492.25560165974804 32.929458388375934 492.690456431532 32.66490532804963 493.5601659751 32.66490532804963 C 494.429875518672 32.66490532804963 494.864730290458 32.66490532804963 495.73443983403 32.684280052840116 C 496.604149377598 32.703654777630604 497.039004149382 33.85733157199521 497.90871369295 33.85733157199521 C 498.77842323651805 33.85733157199521 499.21327800830204 33.85733157199521 500.08298755187 33.254953764862314 C 500.952697095438 32.65257595772942 501.387551867222 31.381946279173302 502.25726141079 30.419198590930094 C 503.12697095435794 29.456450902687013 503.56182572614205 28.562747688244393 504.43153526971 28.44121532364659 C 505.301244813278 28.319682959048784 505.73609958506205 28.44121532364659 506.60580912863 28.319682959048784 C 507.475518672198 28.19815059445098 507.910373443982 26.76442095993137 508.78008298755 26.412153236460654 C 509.64979253111795 26.059885512989936 510.084647302902 26.059885512989936 510.95435684647 26.059885512989936 C 511.824066390038 26.059885512989936 512.2589211618221 26.43505063848567 513.12863070539 26.43505063848567 C 513.998340248962 26.43505063848567 514.433195020748 26.17789520035321 515.30290456432 26.17789520035321 C 516.172614107888 26.17789520035321 516.607468879672 29.496257155438414 517.47717842324 29.496257155438414 C 518.346887966808 29.496257155438414 518.781742738592 29.071774548656897 519.65145228216 29.071774548656897 C 520.5211618257281 29.071774548656897 520.9560165975121 30.021136063408115 521.82572614108 30.021136063408115 C 522.695435684648 30.021136063408115 524 29.77278731836258 524 29.77278731836258" class="highcharts-graph" data-z-index="1" stroke="#0000FF" stroke-width="1" stroke-linejoin="round" stroke-linecap="round"></path></g><g class="highcharts-markers highcharts-series-1 highcharts-areaspline-series highcharts-navigator-series" data-z-index="0.1" opacity="1" transform="translate(24,331) scale(1 1)" clip-path="none"></g></g><text x="300" text-anchor="middle" class="highcharts-title" data-z-index="4" style="color:#333333;font-size:16px;fill:#333333;" y="22">Indonesia - 10 Years Bond Yield</text><text x="300" text-anchor="middle" class="highcharts-subtitle" data-z-index="4" style="color:#666666;fill:#666666;" y="49"></text><text x="10" text-anchor="start" class="highcharts-caption" data-z-index="4" style="color:#666666;fill:#666666;" y="397"></text><g class="highcharts-axis-labels highcharts-xaxis-labels" data-z-index="7"><text x="48.610551274452" style="color:#666666;cursor:default;font-size:11px;fill:#666666;" text-anchor="middle" transform="translate(0,0)" y="303" opacity="1">2017</text><text x="165.7510373444" style="color:#666666;cursor:default;font-size:11px;fill:#666666;" text-anchor="middle" transform="translate(0,0)" y="303" opacity="1">2018</text><text x="285.18197984588" style="color:#666666;cursor:default;font-size:11px;fill:#666666;" text-anchor="middle" transform="translate(0,0)" y="303" opacity="1">2019</text><text x="404.61292234736" style="color:#666666;cursor:default;font-size:11px;fill:#666666;" text-anchor="middle" transform="translate(0,0)" y="303" opacity="1">2020</text><text x="524.37107291049" style="color:#666666;cursor:default;font-size:11px;fill:#666666;" text-anchor="middle" transform="translate(0,0)" y="303" opacity="1">2021</text></g><g class="highcharts-axis-labels highcharts-xaxis-labels highcharts-navigator-xaxis" data-z-index="7"><text x="173.94612392493" style="color:#999999;cursor:default;font-size:11px;fill:#999999;" text-anchor="start" transform="translate(0,0)" y="367" opacity="1">2018</text><text x="400.69182635528" style="color:#999999;cursor:default;font-size:11px;fill:#999999;" text-anchor="start" transform="translate(0,0)" y="367" opacity="1">2020</text></g><g class="highcharts-axis-labels highcharts-yaxis-labels" data-z-index="7"><text x="559" style="color:#666666;cursor:default;font-size:11px;fill:#666666;" text-anchor="end" transform="translate(0,0)" y="282" opacity="1">5</text><text x="559" style="color:#666666;cursor:default;font-size:11px;fill:#666666;" text-anchor="end" transform="translate(0,0)" y="232" opacity="1">6</text><text x="559" style="color:#666666;cursor:default;font-size:11px;fill:#666666;" text-anchor="end" transform="translate(0,0)" y="183" opacity="1">7</text><text x="559" style="color:#666666;cursor:default;font-size:11px;fill:#666666;" text-anchor="end" transform="translate(0,0)" y="133" opacity="1">8</text><text x="0" style="color:#666666;cursor:default;font-size:11px;fill:#666666;" text-anchor="end" transform="translate(0,0)" y="-9999">9</text></g><g class="highcharts-axis-labels highcharts-yaxis-labels highcharts-navigator-yaxis" data-z-index="7"></g><g class="highcharts-range-selector-group" data-z-index="7" transform="translate(0,40)"><g class="highcharts-range-selector-buttons" transform="translate(0,10)"><text x="10" y="15" style="color:#666666;fill:#666666;" visibility="visible">Zoom</text><g class="highcharts-button highcharts-button-normal" data-z-index="7" style="cursor:pointer;" transform="translate(48,0)" visibility="visible"><rect fill="#f7f7f7" class="highcharts-button-box" x="0" y="0" width="32" height="22" rx="2" ry="2"></rect><text x="6.608333587646484" data-z-index="1" y="14" style="color:#333333;font-weight:normal;fill:#333333;">1m</text></g><g class="highcharts-button highcharts-button-normal" data-z-index="7" style="cursor:pointer;" transform="translate(85,0)" visibility="visible"><rect fill="#f7f7f7" class="highcharts-button-box" x="0" y="0" width="32" height="22" rx="2" ry="2"></rect><text x="6.608333587646484" data-z-index="1" y="14" style="color:#333333;font-weight:normal;fill:#333333;">3m</text></g><g class="highcharts-button highcharts-button-normal" data-z-index="7" style="cursor:pointer;" transform="translate(122,0)" visibility="visible"><rect fill="#f7f7f7" class="highcharts-button-box" x="0" y="0" width="32" height="22" rx="2" ry="2"></rect><text x="6.608333587646484" data-z-index="1" y="14" style="color:#333333;font-weight:normal;fill:#333333;">6m</text></g><g class="highcharts-button highcharts-button-normal" data-z-index="7" style="cursor:pointer;" transform="translate(159,0)" visibility="visible"><rect fill="#f7f7f7" class="highcharts-button-box" x="0" y="0" width="32" height="22" rx="2" ry="2"></rect><text x="3.9750003814697266" data-z-index="1" y="14" style="color:#333333;font-weight:normal;fill:#333333;">YTD</text></g><g class="highcharts-button highcharts-button-normal" data-z-index="7" style="cursor:pointer;" transform="translate(196,0)" visibility="visible"><rect fill="#f7f7f7" class="highcharts-button-box" x="0" y="0" width="32" height="22" rx="2" ry="2"></rect><text x="9.074999809265137" data-z-index="1" y="14" style="color:#333333;font-weight:normal;fill:#333333;">1y</text></g><g class="highcharts-button highcharts-button-pressed" data-z-index="7" style="cursor:pointer;" transform="translate(233,0)" visibility="visible"><rect fill="#e6ebf5" class="highcharts-button-box" x="0" y="0" width="32" height="22" rx="2" ry="2"></rect><text x="8.025000095367432" data-z-index="1" y="14" style="color:#000000;font-weight:bold;fill:#000000;">All</text></g></g><g class="highcharts-input-group" transform="translate(384,10)"><g class="highcharts-label highcharts-range-label" transform="translate(0,0)" style="fill:#666666;"><text x="0" data-z-index="1" y="12" style="color:#666666;font-family:&quot;Lucida Grande&quot;, &quot;Lucida Sans Unicode&quot;, Arial, Helvetica, sans-serif;font-size:12px;fill:#666666;"></text></g><g class="highcharts-label highcharts-range-input" transform="translate(0,0)" style="cursor:pointer;"><rect fill="none" class="highcharts-label-box" x="0.5" y="0.5" width="74" height="21" stroke="none" stroke-width="1"></rect><text x="2" data-z-index="1" y="14" style="color:#335cad;font-family:&quot;Lucida Grande&quot;, &quot;Lucida Sans Unicode&quot;, Arial, Helvetica, sans-serif;font-size:12px;fill:#335cad;">Sep  5, 2016</text></g><g class="highcharts-label highcharts-range-label" transform="translate(79,0)" style="fill:#666666;"><text x="2" data-z-index="1" y="14" style="color:#666666;font-family:&quot;Lucida Grande&quot;, &quot;Lucida Sans Unicode&quot;, Arial, Helvetica, sans-serif;font-size:12px;fill:#666666;"></text></g><g class="highcharts-label highcharts-range-input" transform="translate(99,0)" style="cursor:pointer;"><rect fill="none" class="highcharts-label-box" x="0.5" y="0.5" width="77" height="21" stroke="none" stroke-width="1"></rect><text x="2" data-z-index="1" y="14" style="color:#335cad;font-family:&quot;Lucida Grande&quot;, &quot;Lucida Sans Unicode&quot;, Arial, Helvetica, sans-serif;font-size:12px;fill:#335cad;">May  2, 2021</text></g></g></g><g class="highcharts-navigator" data-z-index="8" visibility="visible"><rect fill="rgb(0,0,0)" fill-opacity="0" class="highcharts-navigator-mask-outside" x="24" y="331" width="0" height="40"></rect><rect fill="rgb(102,133,194)" fill-opacity="0.3" class="highcharts-navigator-mask-inside" style="cursor:ew-resize;" x="24" y="331" width="524" height="40"></rect><rect fill="rgb(0,0,0)" fill-opacity="0" class="highcharts-navigator-mask-outside" x="548" y="331" width="0" height="40"></rect><path fill="none" class="highcharts-navigator-outline" stroke="#cccccc" stroke-width="1" d="M 10 331.5 L 23.5 331.5 L 23.5 385.5 L 547.5 385.5 L 547.5 331.5 L 562 331.5 M 23 331.5 L 548 331.5"></path><path fill="#f2f2f2" d="M -4.5 0.5 L 3.5 0.5 L 3.5 15.5 L -4.5 15.5 L -4.5 0.5 M -1.5 4 L -1.5 12 M 0.5 4 L 0.5 12" data-z-index="6" class="highcharts-navigator-handle highcharts-navigator-handle-right" stroke="#999999" stroke-width="1" style="cursor:ew-resize;" transform="translate(548,343)"></path><path fill="#f2f2f2" d="M -4.5 0.5 L 3.5 0.5 L 3.5 15.5 L -4.5 15.5 L -4.5 0.5 M -1.5 4 L -1.5 12 M 0.5 4 L 0.5 12" data-z-index="7" class="highcharts-navigator-handle highcharts-navigator-handle-left" stroke="#999999" stroke-width="1" style="cursor:ew-resize;" transform="translate(24,343)"></path></g><text x="590" class="highcharts-credits" text-anchor="end" data-z-index="8" style="cursor:pointer;color:#999999;font-size:9px;fill:#999999;" y="395">Highcharts.com</text></svg>