<?xml version="1.0" encoding="UTF-8" standalone="no"?>
<!-- Created with Inkscape (http://www.inkscape.org/) -->

<svg
   width="192.31114mm"
   height="75.75296mm"
   viewBox="0 0 192.31114 75.75296"
   version="1.1"
   id="svg1785"
   inkscape:version="1.2.1 (9c6d41e410, 2022-07-14)"
   sodipodi:docname="Amandment.svg"
   xmlns:inkscape="http://www.inkscape.org/namespaces/inkscape"
   xmlns:sodipodi="http://sodipodi.sourceforge.net/DTD/sodipodi-0.dtd"
   xmlns="http://www.w3.org/2000/svg"
   xmlns:svg="http://www.w3.org/2000/svg">
  <sodipodi:namedview
     id="namedview1787"
     pagecolor="#ffffff"
     bordercolor="#000000"
     borderopacity="0.25"
     inkscape:showpageshadow="2"
     inkscape:pageopacity="0.0"
     inkscape:pagecheckerboard="0"
     inkscape:deskcolor="#d1d1d1"
     inkscape:document-units="mm"
     showgrid="false"
     inkscape:zoom="0.46769781"
     inkscape:cx="47.03892"
     inkscape:cy="68.420248"
     inkscape:window-width="1366"
     inkscape:window-height="705"
     inkscape:window-x="-8"
     inkscape:window-y="-8"
     inkscape:window-maximized="1"
     inkscape:current-layer="layer1" />
  <defs
     id="defs1782">
    <clipPath
       clipPathUnits="userSpaceOnUse"
       id="clipEmfPath1-54">
      <path
         d="M 0,0 H 36.27213 V 36.27213 H 0 Z"
         id="path2026" />
    </clipPath>
    <clipPath
       clipPathUnits="userSpaceOnUse"
       id="clipEmfPath1-54-9">
      <path
         d="M 0,0 H 36.27213 V 36.27213 H 0 Z"
         id="path2026-8" />
    </clipPath>
    <clipPath
       clipPathUnits="userSpaceOnUse"
       id="clipEmfPath1-54-3">
      <path
         d="M 0,0 H 36.27213 V 36.27213 H 0 Z"
         id="path2026-89" />
    </clipPath>
  </defs>
  <g
     inkscape:label="Layer 1"
     inkscape:groupmode="layer"
     id="layer1"
     transform="translate(-10.481573,-33.446849)">
    <g
       id="g1010"
       transform="translate(-68.376454,-13.539654)">
      <path
         style="fill:#d1d9ec;fill-opacity:1;fill-rule:evenodd;stroke:none;stroke-width:0.264583"
         d="m 78.858027,75.665734 c 0,-2.211809 1.799438,-4.011247 4.011247,-4.011247 h 66.073106 c 2.2118,0 3.9925,1.799438 3.9925,4.011247 v 15.988753 c 0,2.211809 -1.7807,3.992503 -3.9925,3.992503 H 82.869274 c -2.211809,0 -4.011247,-1.780694 -4.011247,-3.992503 z"
         id="path984" />
      <text
         xml:space="preserve"
         style="font-style:normal;font-variant:normal;font-weight:700;font-size:9.59115px;line-height:125%;font-family:'Century Gothic';text-align:start;letter-spacing:0px;word-spacing:0px;text-anchor:start;fill:#000000;fill-opacity:1;stroke:none;stroke-width:0.264583"
         x="93.062363"
         y="87.189629"
         id="text992"><tspan
           sodipodi:role="line"
           x="93.062363"
           y="87.189629"
           id="tspan990"
           style="stroke-width:0.264583"><tspan
             dx="0"
             dy="0"
             style="font-style:normal;font-variant:normal;font-weight:700;font-size:9.59115px;font-family:'Century Gothic';fill:#000000;stroke-width:0.264583"
             id="tspan988">Applicant</tspan></tspan></text>
    </g>
    <g
       id="g1044"
       transform="translate(16.48069,-10.711083)">
      <path
         style="fill:#d1d9ec;fill-opacity:1;fill-rule:evenodd;stroke:none;stroke-width:0.264583"
         d="m 112.23517,71.988591 c 0,-2.211809 1.79944,-4.011247 4.01125,-4.011247 h 66.0731 c 2.21181,0 3.9925,1.799438 3.9925,4.011247 v 15.988753 c 0,2.211809 -1.78069,3.992503 -3.9925,3.992503 h -66.0731 c -2.21181,0 -4.01125,-1.780694 -4.01125,-3.992503 z"
         id="path1018" />
      <text
         xml:space="preserve"
         style="font-style:normal;font-variant:normal;font-weight:700;font-size:9.59115px;line-height:125%;font-family:'Century Gothic';text-align:start;letter-spacing:0px;word-spacing:0px;text-anchor:start;fill:#000000;fill-opacity:1;stroke:none;stroke-width:0.264583"
         x="123.14157"
         y="83.512489"
         id="text1026"><tspan
           sodipodi:role="line"
           x="123.14157"
           y="83.512489"
           id="tspan1024"
           style="stroke-width:0.264583"><tspan
             dx="0"
             dy="0"
             style="font-style:normal;font-variant:normal;font-weight:700;font-size:9.59115px;font-family:'Century Gothic';fill:#000000;stroke-width:0.264583"
             id="tspan1022">Beneficiary</tspan></tspan></text>
    </g>
    <g
       id="g2228"
       transform="rotate(-146.06175,50.70488,118.33452)">
      <path
         style="fill:#000000;fill-opacity:1;fill-rule:evenodd;stroke:none"
         clip-path="url(#clipEmfPath1-54)"
         d="M -0.56675202,35.705378 17.569313,-0.56675202 35.705378,35.705378 Z"
         id="path2032"
         transform="matrix(0.14323249,0.22246076,-0.22246076,0.14323249,39.011957,179.68219)" />
      <path
         style="fill:#000000;fill-opacity:1;fill-rule:evenodd;stroke:none;stroke-width:0.264583"
         d="m 32.28281,188.03772 -10.086406,6.49418 1.298838,2.01729 10.086406,-6.49419 z"
         id="path2045" />
    </g>
    <g
       id="g1363"
       transform="translate(-48.010738,-114.91497)">
      <path
         style="fill:#ffffcc;fill-opacity:1;fill-rule:evenodd;stroke:none;stroke-width:0.264583"
         d="m 126.87594,149.44472 v 22.19307 h 51.58388 v -22.19307 z"
         id="path1325" />
      <text
         xml:space="preserve"
         style="font-style:normal;font-variant:normal;font-weight:400;font-size:9.59115px;line-height:125%;font-family:'Century Gothic';text-align:start;letter-spacing:0px;word-spacing:0px;text-anchor:start;fill:#000000;fill-opacity:1;stroke:none;stroke-width:0.264583"
         x="141.02069"
         y="158.33957"
         id="text1333"><tspan
           sodipodi:role="line"
           x="141.02069"
           y="158.33957"
           id="tspan1331"
           style="stroke-width:0.264583"><tspan
             dx="0"
             dy="0"
             style="font-style:normal;font-variant:normal;font-weight:400;font-size:9.59115px;font-family:'Century Gothic';fill:#000000;stroke-width:0.264583"
             id="tspan1329">Send </tspan></tspan></text>
      <text
         xml:space="preserve"
         style="font-style:normal;font-variant:normal;font-weight:400;font-size:9.59115px;line-height:125%;font-family:'Century Gothic';text-align:start;letter-spacing:0px;word-spacing:0px;text-anchor:start;fill:#000000;fill-opacity:1;stroke:none;stroke-width:0.264583"
         x="138.02162"
         y="170.0359"
         id="text1339"><tspan
           sodipodi:role="line"
           x="138.02162"
           y="170.0359"
           id="tspan1337"
           style="stroke-width:0.264583"><tspan
             dx="0"
             dy="0"
             style="font-style:normal;font-variant:normal;font-weight:400;font-size:9.59115px;font-family:'Century Gothic';fill:#000000;stroke-width:0.264583"
             id="tspan1335">goods</tspan></tspan></text>
    </g>
    <g
       id="g1631"
       transform="translate(10.481577,-83.163784)">
      <path
         style="fill:#ffffcc;fill-opacity:1;fill-rule:evenodd;stroke:none;stroke-width:0.264583"
         d="m 61.784502,174.06931 v 18.29428 h 65.379568 v -18.29428 z"
         id="path1605" />
      <text
         xml:space="preserve"
         style="font-style:normal;font-variant:normal;font-weight:400;font-size:9.59115px;line-height:125%;font-family:'Century Gothic';text-align:start;letter-spacing:0px;word-spacing:0px;text-anchor:start;fill:#000000;fill-opacity:1;stroke:none;stroke-width:0.264583"
         x="65.180672"
         y="186.7924"
         id="text1613"><tspan
           sodipodi:role="line"
           x="65.180672"
           y="186.7924"
           id="tspan1611"
           style="stroke-width:0.264583"><tspan
             dx="0"
             dy="0"
             style="font-style:normal;font-variant:normal;font-weight:400;font-size:9.59115px;font-family:'Century Gothic';fill:#000000;stroke-width:0.264583"
             id="tspan1609">amendment</tspan></tspan></text>
    </g>
    <path
       style="fill:#ff0000;stroke-width:0.264583"
       id="path1002"
       d="m 76.941498,57.591751 c 1.88318,0.06293 3.752763,-0.09012 5.609418,-0.417279 0.969835,-0.170896 1.930937,-0.388106 2.896404,-0.582159 1.312347,-0.323847 2.626887,-0.63893 3.93704,-0.971541 1.546222,-0.392542 3.102771,-0.749362 4.631925,-1.203875 3.763682,-1.118687 7.169685,-2.42889 10.840715,-3.835899 2.12402,-0.814084 9.16171,-3.590817 11.33814,-4.44785 4.49954,-1.798239 9.023,-3.539978 13.49908,-5.396759 2.63392,-1.092611 3.36171,-1.436695 5.84644,-2.548401 0,0 -2.49733,-1.646878 -2.49733,-1.646878 v 0 c -0.81285,0.430627 -1.61948,0.873194 -2.43855,1.291882 -5.20662,2.661514 -10.5807,4.982199 -15.96323,7.259584 -7.36391,3.010707 -14.760431,6.055193 -22.483574,8.039781 -1.595334,0.409947 -3.210269,0.74207 -4.826426,1.060158 -1.414695,0.278435 -2.842429,0.485947 -4.263644,0.728921 -2.879759,0.364945 -5.970529,0.85153 -8.877138,0.353907 -0.130027,-0.02226 -0.255802,-0.06464 -0.383702,-0.09695 0,0 3.134432,2.413362 3.134432,2.413362 z" />
    <path
       style="fill:#ff0000;stroke-width:0.21954"
       id="path1002-9"
       d="m 81.586204,36.703672 c 1.005044,1.195698 2.13715,2.264515 3.370575,3.229825 0.644298,0.504239 1.312604,0.977677 1.968906,1.46651 0.929535,0.631512 1.854833,1.269181 2.788614,1.894528 1.102034,0.738031 2.187535,1.502025 3.318723,2.195523 2.784185,1.7069 5.489376,3.088175 8.401848,4.579754 1.68513,0.86301 7.31808,3.67895 9.05904,4.550711 3.61571,1.787784 7.20948,3.621315 10.84865,5.362513 2.14146,1.024596 2.75946,1.284564 4.83009,2.206692 0,0 -0.35853,-2.443444 -0.35853,-2.443444 v 0 c -0.7191,-0.264932 -1.44219,-0.519479 -2.15729,-0.794797 -4.54578,-1.750118 -8.97202,-3.790493 -13.37596,-5.859837 -5.95965,-2.888713 -11.958424,-5.779 -17.477821,-9.452213 -1.140114,-0.758756 -2.242598,-1.572305 -3.337016,-2.394299 -0.957998,-0.719536 -1.879016,-1.48602 -2.818528,-2.229033 -1.824311,-1.575428 -3.841441,-3.214226 -5.143109,-5.279473 -0.05823,-0.09238 -0.10156,-0.193193 -0.152353,-0.289783 0,0 0.234152,3.256826 0.234152,3.256826 z" />
    <circle
       id="path1026"
       style="fill:#00ff00;stroke:#000000;stroke-width:0.264583"
       cx="43.010147"
       cy="134.13695"
       r="0.018838147" />
    <path
       style="fill:#00ff00;stroke-width:0.264583"
       id="path1032"
       d="m 125.44096,84.96675 c 2.11737,2.940203 4.02473,6.025636 5.866,9.144103 1.39969,2.473454 2.01966,3.502998 5.35885,4.575082 0.40722,0.130744 0.78178,-0.362884 1.12274,-0.62108 0.51285,-0.388361 0.9489,-0.868889 1.42138,-1.30547 1.00317,-0.926955 2.00371,-1.856756 3.00556,-2.785131 4.34504,-3.500348 9.17416,-6.312326 14.25308,-8.602478 1.60627,-0.724283 3.24954,-1.365678 4.89849,-1.986695 3.38183,-1.273646 4.52486,-1.54259 7.83338,-2.501585 0.91732,-0.224332 1.83464,-0.448665 2.75196,-0.672997 0,0 -2.49229,-1.705377 -2.49229,-1.705377 v 0 c -0.83547,0.284112 -1.67094,0.568224 -2.50642,0.852339 -1.09353,0.403149 -2.19392,0.78813 -3.28058,1.209448 -2.50682,0.971936 -6.49858,2.620449 -8.84604,3.72451 -5.11204,2.404306 -10.01261,5.227955 -14.71509,8.355235 -1.23492,0.783375 -2.47712,1.555379 -3.70474,2.350127 -0.5401,0.349652 -1.02869,0.782854 -1.59793,1.082746 -0.31745,0.167246 -1.24197,0.01164 -1.03286,0.303229 0.53357,0.743992 1.44926,1.177395 2.31282,1.481505 0.95348,0.335777 -3.58559,-2.948429 -1.8064,-2.435961 -1.81065,-2.916258 -3.64798,-5.823839 -5.23436,-8.870473 0,0 -3.60755,-1.591077 -3.60755,-1.591077 z" />
    <circle
       id="path1074"
       style="fill:#00ff00;stroke:#000000;stroke-width:0.264583"
       cx="-59.24271"
       cy="39.945522"
       r="0.018838147" />
  </g>
</svg>
