<?xml version="1.0" encoding="UTF-8" standalone="no"?>
<!-- Created with Inkscape (http://www.inkscape.org/) -->

<svg
   width="418.70517mm"
   height="129.42633mm"
   viewBox="0 0 418.70517 129.42633"
   version="1.1"
   id="svg5"
   inkscape:version="1.2.1 (9c6d41e410, 2022-07-14)"
   sodipodi:docname="method2.svg"
   xmlns:inkscape="http://www.inkscape.org/namespaces/inkscape"
   xmlns:sodipodi="http://sodipodi.sourceforge.net/DTD/sodipodi-0.dtd"
   xmlns="http://www.w3.org/2000/svg"
   xmlns:svg="http://www.w3.org/2000/svg">
  <sodipodi:namedview
     id="namedview7"
     pagecolor="#ffffff"
     bordercolor="#000000"
     borderopacity="0.25"
     inkscape:showpageshadow="2"
     inkscape:pageopacity="0.0"
     inkscape:pagecheckerboard="0"
     inkscape:deskcolor="#d1d1d1"
     inkscape:document-units="mm"
     showgrid="false"
     inkscape:zoom="0.72515432"
     inkscape:cx="740.53203"
     inkscape:cy="225.46925"
     inkscape:window-width="1920"
     inkscape:window-height="1001"
     inkscape:window-x="-9"
     inkscape:window-y="-9"
     inkscape:window-maximized="1"
     inkscape:current-layer="layer1" />
  <defs
     id="defs2">
    <clipPath
       id="clip0">
      <rect
         x="59"
         y="230"
         width="350"
         height="132"
         id="rect9" />
    </clipPath>
    <clipPath
       id="clip0-4">
      <rect
         x="1175"
         y="230"
         width="350"
         height="132"
         id="rect203" />
    </clipPath>
    <clipPath
       id="clip0-3">
      <rect
         x="59"
         y="550"
         width="350"
         height="132"
         id="rect226" />
    </clipPath>
    <clipPath
       id="clip0-1">
      <rect
         x="429"
         y="550"
         width="350"
         height="132"
         id="rect249" />
    </clipPath>
    <clipPath
       id="clip0-7">
      <rect
         x="809"
         y="550"
         width="350"
         height="132"
         id="rect272" />
    </clipPath>
    <clipPath
       id="clip0-5">
      <rect
         x="1189"
         y="559"
         width="350"
         height="102"
         id="rect295" />
    </clipPath>
    <clipPath
       id="clip0-8">
      <rect
         x="968"
         y="408"
         width="45"
         height="133"
         id="rect315" />
    </clipPath>
    <clipPath
       id="clip0-6">
      <rect
         x="968"
         y="408"
         width="45"
         height="133"
         id="rect332" />
    </clipPath>
    <clipPath
       id="clip0-76">
      <rect
         x="968"
         y="408"
         width="45"
         height="133"
         id="rect349" />
    </clipPath>
    <clipPath
       id="clip0-2">
      <rect
         x="968"
         y="408"
         width="45"
         height="133"
         id="rect366" />
    </clipPath>
    <clipPath
       id="clip0-9">
      <rect
         x="968"
         y="408"
         width="45"
         height="133"
         id="rect383" />
    </clipPath>
    <clipPath
       id="clip0-49">
      <rect
         x="139"
         y="379"
         width="1302"
         height="62"
         id="rect400" />
    </clipPath>
  </defs>
  <g
     inkscape:label="Layer 1"
     inkscape:groupmode="layer"
     id="layer1"
     transform="translate(90.771497,-89.077374)">
    <g
       clip-path="url(#clip0)"
       transform="matrix(0.26458333,0,0,0.26458333,-105.69627,26.162726)"
       id="g20">
      <path
         d="M 60,256.667 C 60,247.462 67.4621,240 76.667,240 h 314.666 c 9.205,0 16.667,7.462 16.667,16.667 v 66.666 C 408,332.538 400.538,340 391.333,340 H 76.667 C 67.4621,340 60,332.538 60,323.333 Z"
         stroke="#2d3756"
         stroke-width="1.66667"
         stroke-miterlimit="8"
         fill="#d1d9ec"
         fill-rule="evenodd"
         id="path14" />
      <text
         font-family="'Century Gothic', 'Century Gothic_MSFontService', sans-serif"
         font-weight="700"
         font-size="40px"
         transform="translate(181.962,281)"
         id="text18">Seller <tspan
   font-size="40px"
   x="-56.25"
   y="48"
   id="tspan16">advantage</tspan></text>
    </g>
    <g
       clip-path="url(#clip0-4)"
       transform="matrix(0.26458333,0,0,0.26458333,-77.336139,28.716781)"
       id="g214">
      <path
         d="m 1176,256.667 c 0,-9.205 7.46,-16.667 16.67,-16.667 h 314.66 c 9.21,0 16.67,7.462 16.67,16.667 v 66.666 c 0,9.205 -7.46,16.667 -16.67,16.667 h -314.66 c -9.21,0 -16.67,-7.462 -16.67,-16.667 z"
         stroke="#2d3756"
         stroke-width="1.66667"
         stroke-miterlimit="8"
         fill="#d1d9ec"
         fill-rule="evenodd"
         id="path208" />
      <text
         font-family="'Century Gothic', 'Century Gothic_MSFontService', sans-serif"
         font-weight="700"
         font-size="40px"
         transform="translate(1295.52,281)"
         id="text212">Buyer <tspan
   font-size="40px"
   x="-53.958401"
   y="48"
   id="tspan210">advantage</tspan></text>
    </g>
    <g
       clip-path="url(#clip0-3)"
       transform="matrix(0.26458333,0,0,0.26458333,-106.42601,43.658222)"
       id="g237">
      <path
         d="M 60,576.667 C 60,567.462 67.4621,560 76.667,560 h 314.666 c 9.205,0 16.667,7.462 16.667,16.667 v 66.666 C 408,652.538 400.538,660 391.333,660 H 76.667 C 67.4621,660 60,652.538 60,643.333 Z"
         stroke="#2d3756"
         stroke-width="1.66667"
         stroke-miterlimit="8"
         fill="#d1d9ec"
         fill-rule="evenodd"
         id="path231" />
      <text
         font-family="'Century Gothic', 'Century Gothic_MSFontService', sans-serif"
         font-weight="700"
         font-size="40px"
         transform="translate(143.837,601)"
         id="text235">Advance <tspan
   font-size="40px"
   x="4.4749899"
   y="48"
   id="tspan233">Payment</tspan></text>
    </g>
    <g
       clip-path="url(#clip0-1)"
       transform="matrix(0.26458333,0,0,0.26458333,-98.146169,42.928493)"
       id="g260">
      <path
         d="M 430,576.667 C 430,567.462 437.462,560 446.667,560 h 314.666 c 9.205,0 16.667,7.462 16.667,16.667 v 66.666 C 778,652.538 770.538,660 761.333,660 H 446.667 C 437.462,660 430,652.538 430,643.333 Z"
         stroke="#2d3756"
         stroke-width="1.66667"
         stroke-miterlimit="8"
         fill="#d1d9ec"
         fill-rule="evenodd"
         id="path254" />
      <text
         font-family="'Century Gothic', 'Century Gothic_MSFontService', sans-serif"
         font-weight="700"
         font-size="40px"
         transform="translate(471.65,601)"
         id="text258">Documentary<tspan
   font-size="40px"
   x="73.441597"
   y="48"
   id="tspan256">Credit</tspan></text>
    </g>
    <g
       clip-path="url(#clip0-7)"
       transform="matrix(0.26458333,0,0,0.26458333,-92.147294,42.928493)"
       id="g283">
      <path
         d="M 810,576.667 C 810,567.462 817.462,560 826.667,560 h 314.663 c 9.21,0 16.67,7.462 16.67,16.667 v 66.666 c 0,9.205 -7.46,16.667 -16.67,16.667 H 826.667 C 817.462,660 810,652.538 810,643.333 Z"
         stroke="#2d3756"
         stroke-width="1.66667"
         stroke-miterlimit="8"
         fill="#d1d9ec"
         fill-rule="evenodd"
         id="path277" />
      <text
         font-family="'Century Gothic', 'Century Gothic_MSFontService', sans-serif"
         font-weight="700"
         font-size="40px"
         transform="translate(851.65,601)"
         id="text281">Documentary<tspan
   font-size="40px"
   x="33.025002"
   y="48"
   id="tspan279">Collection</tspan></text>
    </g>
    <g
       clip-path="url(#clip0-5)"
       transform="matrix(0.26458333,0,0,0.26458333,-79.215986,43.658222)"
       id="g304">
      <path
         d="m 1190,576.667 c 0,-9.205 7.46,-16.667 16.67,-16.667 h 314.66 c 9.21,0 16.67,7.462 16.67,16.667 v 66.666 c 0,9.205 -7.46,16.667 -16.67,16.667 h -314.66 c -9.21,0 -16.67,-7.462 -16.67,-16.667 z"
         stroke="#2d3756"
         stroke-width="1.66667"
         stroke-miterlimit="8"
         fill="#d1d9ec"
         fill-rule="evenodd"
         id="path300" />
      <text
         font-family="'Century Gothic', 'Century Gothic_MSFontService', sans-serif"
         font-weight="700"
         font-size="40px"
         transform="translate(1220.3,625)"
         id="text302">Open Account</text>
    </g>
    <g
       clip-path="url(#clip0-8)"
       transform="matrix(0.26458333,0,0,0.26458333,-91.313068,41.938273)"
       id="g322">
      <path
         d="M 2.5,-2.98258e-6 2.50013,105.05 h -5 L -2.5,2.98258e-6 Z M 10.9096,91.3097 1.30977e-4,110.012 -10.9093,91.3097 c -0.6957,-1.1926 -0.2929,-2.7234 0.8997,-3.4191 1.19266,-0.6957 2.72345,-0.2929 3.41915,0.8997 L 2.15957,103.79 H -2.15932 L 6.59066,88.7903 c 0.6957,-1.1926 2.22649,-1.5955 3.41914,-0.8998 1.1926,0.6957 1.5955,2.2265 0.8998,3.4192 z"
         fill="#ff0000"
         transform="matrix(1,0,0,-1,990.5,540.5)"
         id="path320" />
    </g>
    <g
       clip-path="url(#clip0-6)"
       transform="matrix(0.26458333,0,0,0.26458333,-197.12388,43.032867)"
       id="g339">
      <path
         d="M 2.5,-2.98258e-6 2.50013,105.05 h -5 L -2.5,2.98258e-6 Z M 10.9096,91.3097 1.30977e-4,110.012 -10.9093,91.3097 c -0.6957,-1.1926 -0.2929,-2.7234 0.8997,-3.4191 1.19266,-0.6957 2.72345,-0.2929 3.41915,0.8997 L 2.15957,103.79 H -2.15932 L 6.59066,88.7903 c 0.6957,-1.1926 2.22649,-1.5955 3.41914,-0.8998 1.1926,0.6957 1.5955,2.2265 0.8998,3.4192 z"
         fill="#ff0000"
         transform="matrix(1,0,0,-1,990.5,540.5)"
         id="path337" />
    </g>
    <g
       clip-path="url(#clip0-76)"
       transform="matrix(0.26458333,0,0,0.26458333,19.240986,41.938272)"
       id="g356">
      <path
         d="M 2.5,-2.98258e-6 2.50013,105.05 h -5 L -2.5,2.98258e-6 Z M 10.9096,91.3097 1.30977e-4,110.012 -10.9093,91.3097 c -0.6957,-1.1926 -0.2929,-2.7234 0.8997,-3.4191 1.19266,-0.6957 2.72345,-0.2929 3.41915,0.8997 L 2.15957,103.79 H -2.15932 L 6.59066,88.7903 c 0.6957,-1.1926 2.22649,-1.5955 3.41914,-0.8998 1.1926,0.6957 1.5955,2.2265 0.8998,3.4192 z"
         fill="#ff0000"
         transform="matrix(1,0,0,-1,990.5,540.5)"
         id="path354" />
    </g>
    <g
       clip-path="url(#clip0-9)"
       transform="matrix(0.26458333,0,0,0.26458333,-297.09685,42.668002)"
       id="g390">
      <path
         d="M 2.5,-2.98258e-6 2.50013,105.05 h -5 L -2.5,2.98258e-6 Z M 10.9096,91.3097 1.30977e-4,110.012 -10.9093,91.3097 c -0.6957,-1.1926 -0.2929,-2.7234 0.8997,-3.4191 1.19266,-0.6957 2.72345,-0.2929 3.41915,0.8997 L 2.15957,103.79 H -2.15932 L 6.59066,88.7903 c 0.6957,-1.1926 2.22649,-1.5955 3.41914,-0.8998 1.1926,0.6957 1.5955,2.2265 0.8998,3.4192 z"
         fill="#ff0000"
         transform="matrix(1,0,0,-1,990.5,540.5)"
         id="path388" />
    </g>
    <g
       clip-path="url(#clip0-49)"
       transform="matrix(0.26458333,0,0,0.26458333,-85.331641,38.92624)"
       id="g407">
      <path
         d="M 195.001,405 H 1385 v 10 H 195.001 Z m 4.999,20 -30,-15 30,-15 z m 1180,-30 30,15 -30,15 z"
         fill="#414e77"
         id="path405" />
    </g>
  </g>
</svg>
