<svg xmlns:xlink="http://www.w3.org/1999/xlink" version="1.1" class="highcharts-root" style="font-family: &quot;Helvetica Neue&quot;, Helvetica, Arial, sans-serif; font-size: 12px;" xmlns="http://www.w3.org/2000/svg" width="750" height="520" viewBox="0 0 750 520"><desc>Created with Highcharts 10.1.0</desc><defs><clipPath id="highcharts-beuvwgo-1013-"><rect x="0" y="0" width="679" height="420" fill="none"></rect></clipPath><clipPath id="highcharts-beuvwgo-1272-"><rect x="0" y="0" width="679" height="420" fill="none"></rect></clipPath><clipPath id="highcharts-beuvwgo-1536-"><rect x="8" y="40" width="679" height="420" fill="none"></rect></clipPath></defs><rect fill="#ffffff" class="highcharts-background" x="0" y="0" width="750" height="520" rx="0" ry="0"></rect><rect fill="none" class="highcharts-plot-background" x="8" y="40" width="679" height="420"></rect><g class="highcharts-grid highcharts-xaxis-grid" data-z-index="1"><path fill="none" stroke="#EDF3F6" stroke-width="1" stroke-dasharray="none" data-z-index="1" class="highcharts-grid-line" d="M 94.5 40 L 94.5 460" opacity="1"></path><path fill="none" stroke="#EDF3F6" stroke-width="1" stroke-dasharray="none" data-z-index="1" class="highcharts-grid-line" d="M 229.5 40 L 229.5 460" opacity="1"></path><path fill="none" stroke="#EDF3F6" stroke-width="1" stroke-dasharray="none" data-z-index="1" class="highcharts-grid-line" d="M 362.5 40 L 362.5 460" opacity="1"></path><path fill="none" stroke="#EDF3F6" stroke-width="1" stroke-dasharray="none" data-z-index="1" class="highcharts-grid-line" d="M 497.5 40 L 497.5 460" opacity="1"></path><path fill="none" stroke="#EDF3F6" stroke-width="1" stroke-dasharray="none" data-z-index="1" class="highcharts-grid-line" d="M 630.5 40 L 630.5 460" opacity="1"></path></g><g class="highcharts-grid highcharts-yaxis-grid" data-z-index="1"><path fill="none" stroke="#E7E7E7" stroke-width="1" stroke-dasharray="none" data-z-index="1" class="highcharts-grid-line" d="M 8 460.5 L 687 460.5" opacity="1"></path><path fill="none" stroke="#E7E7E7" stroke-width="1" stroke-dasharray="none" data-z-index="1" class="highcharts-grid-line" d="M 8 418.5 L 687 418.5" opacity="1"></path><path fill="none" stroke="#E7E7E7" stroke-width="1" stroke-dasharray="none" data-z-index="1" class="highcharts-grid-line" d="M 8 376.5 L 687 376.5" opacity="1"></path><path fill="none" stroke="#E7E7E7" stroke-width="1" stroke-dasharray="none" data-z-index="1" class="highcharts-grid-line" d="M 8 334.5 L 687 334.5" opacity="1"></path><path fill="none" stroke="#E7E7E7" stroke-width="1" stroke-dasharray="none" data-z-index="1" class="highcharts-grid-line" d="M 8 292.5 L 687 292.5" opacity="1"></path><path fill="none" stroke="#E7E7E7" stroke-width="1" stroke-dasharray="none" data-z-index="1" class="highcharts-grid-line" d="M 8 250.5 L 687 250.5" opacity="1"></path><path fill="none" stroke="#E7E7E7" stroke-width="1" stroke-dasharray="none" data-z-index="1" class="highcharts-grid-line" d="M 8 208.5 L 687 208.5" opacity="1"></path><path fill="none" stroke="#E7E7E7" stroke-width="1" stroke-dasharray="none" data-z-index="1" class="highcharts-grid-line" d="M 8 166.5 L 687 166.5" opacity="1"></path><path fill="none" stroke="#E7E7E7" stroke-width="1" stroke-dasharray="none" data-z-index="1" class="highcharts-grid-line" d="M 8 124.5 L 687 124.5" opacity="1"></path><path fill="none" stroke="#E7E7E7" stroke-width="1" stroke-dasharray="none" data-z-index="1" class="highcharts-grid-line" d="M 8 82.5 L 687 82.5" opacity="1"></path><path fill="none" stroke="#E7E7E7" stroke-width="1" stroke-dasharray="none" data-z-index="1" class="highcharts-grid-line" d="M 8 39.5 L 687 39.5" opacity="1"></path></g><g class="highcharts-grid highcharts-yaxis-grid" data-z-index="1"></g><g class="highcharts-grid highcharts-yaxis-grid" data-z-index="1"></g><rect fill="none" class="highcharts-plot-border" data-z-index="1" x="8" y="40" width="679" height="420"></rect><g class="highcharts-axis highcharts-xaxis" data-z-index="2"><path fill="none" class="highcharts-axis-line" stroke="#E6E6E6" stroke-width="1" data-z-index="7" d="M 8 460.5 L 687 460.5"></path></g><g class="highcharts-axis highcharts-yaxis" data-z-index="2"><path fill="none" class="highcharts-axis-line" data-z-index="7" d="M 733 40 L 733 460"></path></g><g class="highcharts-axis highcharts-yaxis" data-z-index="2"><path fill="none" class="highcharts-axis-line" data-z-index="7" d="M 6.5 40 L 6.5 460"></path></g><g class="highcharts-series-group" data-z-index="3"><g class="highcharts-series highcharts-series-0 highcharts-line-series" data-z-index="90" opacity="1" transform="translate(8,40) scale(1 1)" clip-path="url(#highcharts-beuvwgo-1272-)"><path fill="none" d="M 0 74.08800000000002 L 2.5916030534347 90.55200000000002 L 5.1832061068705 152.88 L 7.7748091603052 191.688 L 10.366412213741 169.008 L 12.958015267176 178.92 L 15.54961832061 177.408 L 18.141221374046 169.848 L 20.732824427481 191.184 L 23.324427480917 199.752 L 25.916030534351 232.512 L 28.507633587786 239.4 L 31.099236641222 245.784 L 33.690839694656 249.312 L 36.282442748091 256.03200000000004 L 38.874045801527 234.024 L 41.465648854962 218.736 L 44.057251908397 214.368 L 46.648854961832 224.28 L 49.240458015267 224.28 L 51.832061068703 223.104 L 54.423664122137 226.8 L 57.015267175573 250.488 L 59.606870229008 272.328 L 62.198473282442 275.688 L 64.790076335878 313.32 L 67.381679389313 323.568 L 69.973282442749 344.4 L 72.564885496183 341.376 L 75.156488549618 344.736 L 77.748091603054 347.424 L 80.339694656488 382.032 L 82.931297709923 361.704 L 85.522900763359 361.704 L 88.114503816794 356.496 L 90.706106870229 342.88800000000003 L 93.297709923664 329.616 L 95.889312977099 334.824 L 98.480916030535 350.28 L 101.07251908397 337.512 L 103.66412213741 277.368 L 106.25572519084 277.536 L 108.84732824427 273 L 111.43893129771 256.536 L 114.03053435114 240.072 L 116.62213740458 252.168 L 119.21374045802 250.152 L 121.80534351145 301.896 L 124.39694656489 292.992 L 126.98854961832 296.688 L 129.58015267176 298.032 L 132.17175572519 303.576 L 134.76335877863 309.96 L 137.35496183206 290.808 L 139.9465648855 306.432 L 142.53816793893 304.08 L 145.12977099237 305.08799999999997 L 147.7213740458 283.248 L 150.31297709924 289.464 L 152.90458015267 271.152 L 155.49618320611 284.928 L 158.08778625954 304.584 L 160.67938931298 327.93600000000004 L 163.27099236641 326.424 L 165.86259541985 329.616 L 168.45419847328 314.328 L 171.04580152672 319.704 L 173.63740458015 350.11199999999997 L 176.22900763359 355.824 L 178.82061068702 351.96 L 181.41221374046 350.616 L 184.00381679389 338.016 L 186.59541984733 317.688 L 189.18702290076 319.2 L 191.7786259542 332.808 L 194.37022900763 347.256 L 196.96183206107 349.608 L 199.5534351145 343.056 L 202.14503816794 344.23199999999997 L 204.73664122137 348.432 L 207.32824427481 339.86400000000003 L 209.91984732824 311.976 L 212.51145038168 326.256 L 215.10305343511 308.784 L 217.69465648855 312.648 L 220.28625954198 314.832 L 222.87786259542 306.93600000000004 L 225.46946564886 310.464 L 228.06106870229 306.6 L 230.65267175573 300.216 L 233.24427480916 301.896 L 235.83587786259 293.496 L 238.42748091603 293.664 L 241.01908396947 292.32 L 243.6106870229 270.98400000000004 L 246.20229007634 255.192 L 248.79389312977 256.536 L 251.38549618321 259.56 L 253.97709923664 251.16 L 256.56870229008 245.448 L 259.16030534351 223.104 L 261.75190839695 214.032 L 264.34351145038 210.336 L 266.93511450382 146.664 L 269.52671755725 162.95999999999998 L 272.11832061069 186.312 L 274.70992366412 210.672 L 277.30152671756 173.04 L 279.89312977099 131.712 L 282.48473282443 146.32799999999997 L 285.07633587786 169.344 L 287.6679389313 166.824 L 290.25954198473 148.68 L 292.85114503817 127.512 L 295.4427480916 176.904 L 298.03435114504 185.976 L 300.62595419847 214.872 L 303.21755725191 194.208 L 305.80916030534 197.736 L 308.40076335878 185.808 L 310.99236641221 180.264 L 313.58396946565 174.048 L 316.17557251908 163.96800000000002 L 318.76717557252 146.16000000000003 L 321.35877862595 169.344 L 323.95038167939 153.55200000000002 L 326.54198473282 116.75999999999999 L 329.13358778626 111.88799999999998 L 331.72519083969 129.024 L 334.31679389313 176.064 L 336.90839694657 202.44 L 339.5 219.576 L 342.09160305343 236.376 L 344.68320610687 217.056 L 347.27480916031 226.8 L 349.86641221374 222.768 L 352.45801526718 222.6 L 355.04961832061 215.712 L 357.64122137405 260.904 L 360.23282442748 271.488 L 362.82442748092 255.864 L 365.41603053435 282.576 L 368.00763358779 265.44 L 370.59923664122 255.696 L 373.19083969466 245.28 L 375.78244274809 213.024 L 378.37404580153 216.384 L 380.96564885496 217.896 L 383.5572519084 236.376 L 386.14885496183 241.08 L 388.74045801527 264.096 L 391.3320610687 270.648 L 393.92366412214 265.776 L 396.51526717557 287.952 L 399.10687022901 304.752 L 401.69847328244 309.96 L 404.29007633588 306.432 L 406.88167938931 304.92 L 409.47328244275 312.144 L 412.06488549618 320.712 L 414.65648854962 326.592 L 417.24809160305 326.76 L 419.83969465649 334.824 L 422.43129770992 336.672 L 425.02290076336 345.91200000000003 L 427.61450381679 337.008 L 430.20610687023 331.968 L 432.79770992366 321.216 L 435.3893129771 322.56 L 437.98091603053 295.344 L 440.57251908397 289.296 L 443.16412213741 313.992 L 445.75572519084 283.584 L 448.34732824427 261.576 L 450.93893129771 254.184 L 453.53053435114 225.12 L 456.12213740458 208.656 L 458.71374045802 246.624 L 461.30534351145 182.448 L 463.89694656489 183.12 L 466.48854961832 230.496 L 469.08015267176 248.976 L 471.67175572519 270.98400000000004 L 474.26335877863 264.76800000000003 L 476.85496183206 276.86400000000003 L 479.4465648855 279.048 L 482.03816793893 270.648 L 484.62977099237 294.168 L 487.2213740458 295.848 L 489.81297709924 268.96799999999996 L 492.40458015267 267.456 L 494.99618320611 277.03200000000004 L 497.58778625954 269.976 L 500.17938931298 290.808 L 502.77099236641 275.52 L 505.36259541985 273.672 L 507.95419847328 283.248 L 510.54580152672 272.664 L 513.13740458015 271.488 L 515.72900763359 269.13599999999997 L 518.32061068702 267.624 L 520.91221374046 261.744 L 523.50381679389 269.976 L 526.09541984733 202.776 L 528.68702290076 175.224 L 531.2786259542 211.68 L 533.87022900763 214.704 L 536.46183206107 243.264 L 539.0534351145 218.568 L 541.64503816794 221.76 L 544.23664122137 225.456 L 546.82824427481 186.48 L 549.41984732824 190.68 L 552.01145038168 200.928 L 554.60305343511 202.272 L 557.19465648855 221.76 L 559.78625954198 218.904 L 562.37786259542 216.216 L 564.96946564886 236.712 L 567.56106870229 249.144 L 570.15267175573 259.56 L 572.74427480916 272.496 L 575.33587786259 273 L 577.92748091603 276.696 L 580.51908396947 283.752 L 583.1106870229 306.096 L 585.70229007634 302.4 L 588.29389312977 269.976 L 590.88549618321 262.752 L 593.47709923664 268.632 L 596.06870229008 251.16 L 598.66030534351 247.968 L 601.25190839695 255.696 L 603.84351145038 226.464 L 606.43511450382 225.456 L 609.02671755725 231.504 L 611.61832061069 223.944 L 614.20992366412 199.584 L 616.80152671756 199.584 L 619.39312977099 205.464 L 621.98473282443 207.984 L 624.57633587786 181.608 L 627.1679389313 184.632 L 629.75954198473 217.392 L 632.35114503817 212.688 L 634.9427480916 228.816 L 637.53435114504 251.832 L 640.12595419847 245.616 L 642.71755725191 222.6 L 645.30916030534 233.94 L 647.90076335878 216.3 L 650.49236641221 179.172 L 653.08396946565 213.36 L 655.67557251908 203.448 L 658.26717557252 223.44 L 660.85877862595 225.708 L 663.45038167939 234.696 L 666.04198473282 215.544" class="highcharts-graph" data-z-index="1" stroke="#2962FF" stroke-width="2" stroke-linejoin="round" stroke-linecap="round"></path></g><g class="highcharts-markers highcharts-series-0 highcharts-line-series" data-z-index="90" opacity="1" transform="translate(8,40) scale(1 1)" clip-path="none"></g></g><text x="740" text-anchor="end" class="highcharts-title" data-z-index="4" style="color: rgb(51, 51, 51); font-size: 15px; fill: rgb(51, 51, 51);" y="513">source: tradingeconomics.com</text><text x="14" text-anchor="start" class="highcharts-subtitle" data-z-index="4" style="color: rgb(51, 51, 51); fill: rgb(51, 51, 51); font-size: 15px;" y="25">Indonesia 10Y Bond Yield</text><text x="0" text-anchor="start" class="highcharts-caption" data-z-index="4" style="color: rgb(102, 102, 102); fill: rgb(102, 102, 102);" y="527"></text><g class="highcharts-axis-labels highcharts-xaxis-labels" data-z-index="7"><text x="95.003816793894" style="color: black; cursor: default; font-size: 15px; font-weight: 400; fill: black;" text-anchor="middle" transform="translate(0,0)" y="480" opacity="1">2021</text><text x="230.13740458015" style="color: black; cursor: default; font-size: 15px; font-weight: 400; fill: black;" text-anchor="middle" transform="translate(0,0)" y="480" opacity="1">2022</text><text x="362.67938931298" style="color: black; cursor: default; font-size: 15px; font-weight: 400; fill: black;" text-anchor="middle" transform="translate(0,0)" y="480" opacity="1">2023</text><text x="497.81297709924" style="color: black; cursor: default; font-size: 15px; font-weight: 400; fill: black;" text-anchor="middle" transform="translate(0,0)" y="480" opacity="1">2024</text><text x="630.72519083969" style="color: black; cursor: default; font-size: 15px; font-weight: 400; fill: black;" text-anchor="middle" transform="translate(0,0)" y="480" opacity="1">2025</text></g><g class="highcharts-axis-labels highcharts-yaxis-labels" data-z-index="7"><text x="0" style="color: unset; cursor: default; font-size: 15px; fill: unset;" text-anchor="start" transform="translate(0,0)" visibility="hidden">5.750</text><text x="695" style="color: unset; cursor: default; font-size: 15px; fill: unset;" text-anchor="start" transform="translate(0,0)" y="423" opacity="1">6</text><text x="695" style="color: unset; cursor: default; font-size: 15px; fill: unset;" text-anchor="start" transform="translate(0,0)" y="381" opacity="1">6.250</text><text x="695" style="color: unset; cursor: default; font-size: 15px; fill: unset;" text-anchor="start" transform="translate(0,0)" y="339" opacity="1">6.500</text><text x="695" style="color: unset; cursor: default; font-size: 15px; fill: unset;" text-anchor="start" transform="translate(0,0)" y="297" opacity="1">6.750</text><text x="695" style="color: unset; cursor: default; font-size: 15px; fill: unset;" text-anchor="start" transform="translate(0,0)" y="255" opacity="1">7</text><text x="695" style="color: unset; cursor: default; font-size: 15px; fill: unset;" text-anchor="start" transform="translate(0,0)" y="213" opacity="1">7.250</text><text x="695" style="color: unset; cursor: default; font-size: 15px; fill: unset;" text-anchor="start" transform="translate(0,0)" y="171" opacity="1">7.500</text><text x="695" style="color: unset; cursor: default; font-size: 15px; fill: unset;" text-anchor="start" transform="translate(0,0)" y="129" opacity="1">7.750</text><text x="695" style="color: unset; cursor: default; font-size: 15px; fill: unset;" text-anchor="start" transform="translate(0,0)" y="87" opacity="1">8</text><text x="0" style="color: unset; cursor: default; font-size: 15px; fill: unset;" text-anchor="start" transform="translate(0,0)" visibility="hidden">8.250</text></g><g class="highcharts-axis-labels highcharts-yaxis-labels" data-z-index="7"></g><g class="highcharts-axis-labels highcharts-yaxis-labels" data-z-index="7"></g><g class="highcharts-control-points" data-z-index="99" clip-path="url(#highcharts-beuvwgo-1536-)"></g><g class="highcharts-axis highcharts-yaxis" data-z-index="9999"><path fill="none" class="highcharts-tick" stroke="#E7E7E7" stroke-width="1" d="M 688 460.5 L 693 460.5" opacity="1"></path><path fill="none" class="highcharts-tick" stroke="#E7E7E7" stroke-width="1" d="M 688 418.5 L 693 418.5" opacity="1"></path><path fill="none" class="highcharts-tick" stroke="#E7E7E7" stroke-width="1" d="M 688 376.5 L 693 376.5" opacity="1"></path><path fill="none" class="highcharts-tick" stroke="#E7E7E7" stroke-width="1" d="M 688 334.5 L 693 334.5" opacity="1"></path><path fill="none" class="highcharts-tick" stroke="#E7E7E7" stroke-width="1" d="M 688 292.5 L 693 292.5" opacity="1"></path><path fill="none" class="highcharts-tick" stroke="#E7E7E7" stroke-width="1" d="M 688 250.5 L 693 250.5" opacity="1"></path><path fill="none" class="highcharts-tick" stroke="#E7E7E7" stroke-width="1" d="M 688 208.5 L 693 208.5" opacity="1"></path><path fill="none" class="highcharts-tick" stroke="#E7E7E7" stroke-width="1" d="M 688 166.5 L 693 166.5" opacity="1"></path><path fill="none" class="highcharts-tick" stroke="#E7E7E7" stroke-width="1" d="M 688 124.5 L 693 124.5" opacity="1"></path><path fill="none" class="highcharts-tick" stroke="#E7E7E7" stroke-width="1" d="M 688 82.5 L 693 82.5" opacity="1"></path><path fill="none" class="highcharts-tick" stroke="#E7E7E7" stroke-width="1" d="M 688 39.5 L 693 39.5" opacity="1"></path><path fill="none" class="highcharts-axis-line" stroke="#E6E6E6" stroke-width="1" data-z-index="7" d="M 688.5 40 L 688.5 460"></path></g><path fill="none" d="M 8 0 L 1304 0" stroke="#524f4f" stroke-width="1" stroke-dasharray="8,3" data-z-index="6" visibility="hidden" class="crosshair-fix-horizontal"></path><path fill="none" d="M 0 40 L 0 850" stroke="#524f4f" stroke-width="1" stroke-dasharray="8,3" data-z-index="6" visibility="hidden" class="crosshair-fix-vertical"></path></svg>