<?xml version="1.0" standalone="no"?><!DOCTYPE svg PUBLIC "-//W3C//DTD SVG 1.1//EN" "http://www.w3.org/Graphics/SVG/1.1/DTD/svg11.dtd"><svg xmlns:xlink="http://www.w3.org/1999/xlink" version="1.1" class="highcharts-root" style="font-family:'Helvetica Neue',Helvetica,Arial,sans-serif;font-size:12px;" xmlns="http://www.w3.org/2000/svg" width="746" height="468" viewBox="0 0 746 468"><desc>Created with Highcharts 7.2.0</desc><defs><clipPath id="highcharts-3kn1l08-4945-"><rect x="0" y="0" width="683" height="371" fill="none"></rect></clipPath><clipPath id="highcharts-3kn1l08-5192-"><rect x="0" y="0" width="683" height="371" fill="none"></rect></clipPath></defs><rect fill="#ffffff" class="highcharts-background" x="0" y="0" width="746" height="468" rx="0" ry="0"></rect><rect fill="none" class="highcharts-plot-background" x="0" y="40" width="683" height="371"></rect><g class="highcharts-grid highcharts-xaxis-grid" data-z-index="1"><path fill="none" stroke="#EDF3F6" stroke-width="1" data-z-index="1" class="highcharts-grid-line" d="M 85.5 40 L 85.5 411" opacity="1"></path><path fill="none" stroke="#EDF3F6" stroke-width="1" data-z-index="1" class="highcharts-grid-line" d="M 193.5 40 L 193.5 411" opacity="1"></path><path fill="none" stroke="#EDF3F6" stroke-width="1" data-z-index="1" class="highcharts-grid-line" d="M 305.5 40 L 305.5 411" opacity="1"></path><path fill="none" stroke="#EDF3F6" stroke-width="1" data-z-index="1" class="highcharts-grid-line" d="M 417.5 40 L 417.5 411" opacity="1"></path><path fill="none" stroke="#EDF3F6" stroke-width="1" data-z-index="1" class="highcharts-grid-line" d="M 533.5 40 L 533.5 411" opacity="1"></path><path fill="none" stroke="#EDF3F6" stroke-width="1" data-z-index="1" class="highcharts-grid-line" d="M 638.5 40 L 638.5 411" opacity="1"></path></g><g class="highcharts-grid highcharts-yaxis-grid" data-z-index="1"><path fill="none" stroke="#E7E7E7" stroke-width="1" data-z-index="1" class="highcharts-grid-line" d="M 0 411.5 L 683 411.5" opacity="1"></path><path fill="none" stroke="#E7E7E7" stroke-width="1" data-z-index="1" class="highcharts-grid-line" d="M 0 374.5 L 683 374.5" opacity="1"></path><path fill="none" stroke="#E7E7E7" stroke-width="1" data-z-index="1" class="highcharts-grid-line" d="M 0 337.5 L 683 337.5" opacity="1"></path><path fill="none" stroke="#E7E7E7" stroke-width="1" data-z-index="1" class="highcharts-grid-line" d="M 0 300.5 L 683 300.5" opacity="1"></path><path fill="none" stroke="#E7E7E7" stroke-width="1" data-z-index="1" class="highcharts-grid-line" d="M 0 263.5 L 683 263.5" opacity="1"></path><path fill="none" stroke="#E7E7E7" stroke-width="1" data-z-index="1" class="highcharts-grid-line" d="M 0 226.5 L 683 226.5" opacity="1"></path><path fill="none" stroke="#E7E7E7" stroke-width="1" data-z-index="1" class="highcharts-grid-line" d="M 0 188.5 L 683 188.5" opacity="1"></path><path fill="none" stroke="#E7E7E7" stroke-width="1" data-z-index="1" class="highcharts-grid-line" d="M 0 151.5 L 683 151.5" opacity="1"></path><path fill="none" stroke="#E7E7E7" stroke-width="1" data-z-index="1" class="highcharts-grid-line" d="M 0 114.5 L 683 114.5" opacity="1"></path><path fill="none" stroke="#E7E7E7" stroke-width="1" data-z-index="1" class="highcharts-grid-line" d="M 0 77.5 L 683 77.5" opacity="1"></path><path fill="none" stroke="#E7E7E7" stroke-width="1" data-z-index="1" class="highcharts-grid-line" d="M 0 39.5 L 683 39.5" opacity="1"></path></g><g class="highcharts-grid highcharts-yaxis-grid" data-z-index="1"></g><g class="highcharts-grid highcharts-yaxis-grid" data-z-index="1"></g><rect fill="none" class="highcharts-plot-border" data-z-index="1" x="0" y="40" width="683" height="371"></rect><g class="highcharts-axis highcharts-xaxis" data-z-index="2"><path fill="none" class="highcharts-axis-line" stroke="#ccd6eb" stroke-width="1" data-z-index="7" d="M 0 411.5 L 683 411.5"></path></g><g class="highcharts-axis highcharts-yaxis" data-z-index="2"><path fill="none" class="highcharts-axis-line" data-z-index="7" d="M 723 40 L 723 411"></path></g><g class="highcharts-axis highcharts-yaxis" data-z-index="2"><path fill="none" class="highcharts-axis-line" stroke="#E6E6E6" stroke-width="1" data-z-index="7" d="M -1.5 40 L -1.5 411"></path></g><g class="highcharts-series-group" data-z-index="3"><g data-z-index="90" class="highcharts-series highcharts-series-0 highcharts-line-series " transform="translate(0,40) scale(1 1)" clip-path="url(#highcharts-3kn1l08-5192-)"><path fill="none" d="M 0 301.4746 L 2.732 311.7142 L 5.464 317.2792 L 8.196 308.44939999999997 L 10.928 301.994 L 13.66 302.5134 L 16.392 306.9654 L 19.124 319.6536 L 21.856 315.5726 L 24.588 328.5576 L 27.32 325.5896 L 30.052 316.0178 L 32.784 316.3146 L 35.516 316.1662 L 38.248 311.4916 L 40.98 308.301 L 43.712 312.3078 L 46.444 314.0886 L 49.176 322.77 L 51.908 317.1308 L 54.64 316.834 L 57.372 311.12059999999997 L 60.104 317.8728 L 62.836 318.318 L 65.568 311.269 L 68.3 304.6652 L 71.032 297.6162 L 73.764 302.21659999999997 L 76.496 305.1846 L 79.228 291.6802 L 81.96 301.5488 L 84.692 306.5944 L 87.424 292.2738 L 90.156 293.6836 L 92.888 293.53520000000003 L 95.62 280.847 L 98.352 265.1166 L 101.084 269.4944 L 103.816 270.83 L 106.548 259.2548 L 109.28 278.8436 L 112.012 262.8906 L 114.744 274.3916 L 117.476 288.4896 L 120.208 297.4678 L 122.94 304.962 L 125.672 295.0192 L 128.404 303.0328 L 131.136 296.058 L 133.868 302.8102 L 136.6 304.88779999999997 L 139.332 289.97360000000003 L 142.064 285.0764 L 144.796 287.2282 L 147.528 293.1642 L 150.26 306.3718 L 152.992 308.3752 L 155.724 321.8054 L 158.456 343.175 L 161.188 327.964 L 163.92 341.0232 L 166.652 343.0266 L 169.384 339.5392 L 172.116 341.9878 L 174.848 342.062 L 177.58 337.981 L 180.312 339.7618 L 183.044 332.416 L 185.776 333.4548 L 188.508 329.9674 L 191.24 326.5542 L 193.972 318.318 L 196.704 312.45619999999997 L 199.436 305.704 L 202.168 307.8558 L 204.9 312.01099999999997 L 207.632 313.9402 L 210.364 304.8136 L 213.096 306.9654 L 215.828 298.5066 L 218.56 295.2418 L 221.292 283.9634 L 224.024 286.6346 L 226.756 285.5958 L 229.488 285.7442 L 232.22 287.8218 L 234.952 276.6918 L 237.684 268.3814 L 240.416 265.4876 L 243.148 273.9464 L 245.88 265.1166 L 248.612 269.4202 L 251.344 287.896 L 254.076 286.1894 L 256.808 275.2078 L 259.54 280.6986 L 262.272 276.4692 L 265.004 281.96 L 267.736 258.8838 L 270.468 261.62919999999997 L 273.2 258.8838 L 275.932 263.6326 L 278.664 266.52639999999997 L 281.396 274.4658 L 284.128 279.1404 L 286.86 277.137 L 289.592 273.3528 L 292.324 274.3174 L 295.056 269.7912 L 297.788 267.7136 L 300.52 272.0914 L 303.252 277.9532 L 305.984 283.7408 L 308.716 278.9178 L 311.448 273.798 L 314.18 272.2398 L 316.912 267.86199999999997 L 319.644 261.3324 L 322.376 267.7136 L 325.108 276.1724 L 327.84 273.20439999999996 L 330.572 271.572 L 333.304 264.152 L 336.036 277.4338 L 338.768 283.9634 L 341.5 282.5536 L 344.232 272.31399999999996 L 346.964 263.6326 L 349.696 264.0778 L 352.428 267.5652 L 355.16 263.6326 L 357.892 263.039 L 360.624 252.651 L 363.356 259.329 L 366.088 253.5414 L 368.82 242.0404 L 371.552 232.0976 L 374.284 233.8042 L 377.016 225.12279999999998 L 379.748 225.939 L 382.48 233.359 L 385.212 221.0418 L 387.944 231.7266 L 390.676 225.4938 L 393.408 226.7552 L 396.14 217.3318 L 398.872 224.9744 L 401.604 228.23919999999998 L 404.336 224.90019999999998 L 407.068 221.7096 L 409.8 225.12279999999998 L 412.532 227.8682 L 415.264 220.67079999999999 L 417.996 225.4938 L 420.728 224.826 L 423.46 217.3318 L 426.192 231.504 L 428.924 230.391 L 431.656 238.0336 L 434.388 228.536 L 437.12 231.4298 L 439.852 227.423 L 442.584 225.12279999999998 L 445.316 238.3304 L 448.048 230.0942 L 450.78 222.7484 L 453.512 223.11939999999998 L 456.244 225.6422 L 458.976 233.5816 L 461.708 228.8328 L 464.44 228.01659999999998 L 467.172 233.8042 L 469.904 233.2106 L 472.636 246.9376 L 475.368 246.04719999999998 L 478.1 248.57 L 480.832 241.15 L 483.564 227.8682 L 486.296 234.3978 L 489.028 239.0724 L 491.76 237.44 L 494.492 238.0336 L 497.224 244.93419999999998 L 499.956 260.73879999999997 L 502.688 267.12 L 505.42 266.52639999999997 L 508.152 274.911 L 510.884 268.30719999999997 L 513.616 263.5584 L 516.348 261.3324 L 519.08 248.6442 L 521.812 251.9832 L 524.544 239.5176 L 527.276 245.231 L 530.008 246.1214 L 532.74 245.0826 L 535.472 233.2106 L 538.204 228.9812 L 540.936 219.9288 L 543.668 223.713 L 546.4 223.11939999999998 L 549.132 220.44819999999999 L 551.864 217.4802 L 554.596 219.632 L 557.328 210.6538 L 560.06 213.4734 L 562.792 220.0772 L 565.524 213.3992 L 568.256 208.7246 L 570.988 198.70759999999999 L 573.72 203.308 L 576.452 201.6756 L 579.184 198.1882 L 581.916 189.6552 L 584.648 176.0024 L 587.38 178.6736 L 590.112 184.53539999999998 L 592.844 176.8186 L 595.576 182.8288 L 598.308 189.2842 L 601.04 178.52519999999998 L 603.772 182.903 L 606.504 180.08339999999998 L 609.236 173.1086 L 611.968 173.8506 L 614.7 190.4714 L 617.432 184.98059999999998 L 620.164 182.6062 L 622.896 172.515 L 625.628 160.272 L 628.36 149.7356 L 631.092 114.78739999999999 L 633.824 150.9228 L 636.556 126.2142 L 639.288 91.8596 L 642.02 99.428 L 644.752 88.44639999999998 L 647.484 127.92079999999999 L 650.216 101.95080000000002 L 652.948 117.53279999999998 L 655.68 68.70920000000001 L 658.412 77.09379999999999 L 661.144 95.94060000000002 L 663.876 121.6138 L 666.608 138.60559999999998 L 669.34 143.6512" class="highcharts-graph" data-z-index="1" stroke="#2962FF" stroke-width="2" stroke-linejoin="round" stroke-linecap="round"></path></g><g data-z-index="90" class="highcharts-markers highcharts-series-0 highcharts-line-series " transform="translate(0,40) scale(1 1)" clip-path="none"></g></g><text x="736" text-anchor="end" class="highcharts-title" data-z-index="4" style="color:#333;font-size:16px;fill:#333;font-size:12px;" y="464"><tspan>source: tradingeconomics.com</tspan></text><text x="14" text-anchor="start" class="highcharts-subtitle" data-z-index="4" style="color:#333;fill:#333;font-size:13px;" y="25"><tspan>Palm Oil</tspan></text><text x="0" text-anchor="start" class="highcharts-caption" data-z-index="4" style="color:#666666;fill:#666666;" y="475"></text><g class="highcharts-axis-labels highcharts-xaxis-labels" data-z-index="7"><text x="85.602666666667" style="color:#666666;cursor:default;font-size:11px;font-size:12px;font-weight:400;fill:#666666;" text-anchor="middle" transform="translate(0,0)" y="431" opacity="1">May</text><text x="193.972" style="color:#666666;cursor:default;font-size:11px;font-size:12px;font-weight:400;fill:#666666;" text-anchor="middle" transform="translate(0,0)" y="431" opacity="1">Jul</text><text x="305.984" style="color:#666666;cursor:default;font-size:11px;font-size:12px;font-weight:400;fill:#666666;" text-anchor="middle" transform="translate(0,0)" y="431" opacity="1">Sep</text><text x="417.996" style="color:#666666;cursor:default;font-size:11px;font-size:12px;font-weight:400;fill:#666666;" text-anchor="middle" transform="translate(0,0)" y="431" opacity="1">Nov</text><text x="533.65066666667" style="color:#666666;cursor:default;font-size:11px;font-size:12px;font-weight:400;fill:#666666;" text-anchor="middle" transform="translate(0,0)" y="431" opacity="1">2022</text><text x="639.288" style="color:#666666;cursor:default;font-size:11px;font-size:12px;font-weight:400;fill:#666666;" text-anchor="middle" transform="translate(0,0)" y="431" opacity="1">Mar</text></g><g class="highcharts-axis-labels highcharts-yaxis-labels" data-z-index="7"><text x="0" style="color:unset;cursor:default;font-size:11px;font-size:12px;fill:unset;" text-anchor="start" transform="translate(0,0)" y="-9999">3000</text><text x="696" style="color:unset;cursor:default;font-size:11px;font-size:12px;fill:unset;" text-anchor="start" transform="translate(0,0)" y="378" opacity="1">3500</text><text x="696" style="color:unset;cursor:default;font-size:11px;font-size:12px;fill:unset;" text-anchor="start" transform="translate(0,0)" y="341" opacity="1">4000</text><text x="696" style="color:unset;cursor:default;font-size:11px;font-size:12px;fill:unset;" text-anchor="start" transform="translate(0,0)" y="304" opacity="1">4500</text><text x="696" style="color:unset;cursor:default;font-size:11px;font-size:12px;fill:unset;" text-anchor="start" transform="translate(0,0)" y="267" opacity="1">5000</text><text x="696" style="color:unset;cursor:default;font-size:11px;font-size:12px;fill:unset;" text-anchor="start" transform="translate(0,0)" y="230" opacity="1">5500</text><text x="696" style="color:unset;cursor:default;font-size:11px;font-size:12px;fill:unset;" text-anchor="start" transform="translate(0,0)" y="193" opacity="1">6000</text><text x="696" style="color:unset;cursor:default;font-size:11px;font-size:12px;fill:unset;" text-anchor="start" transform="translate(0,0)" y="156" opacity="1">6500</text><text x="696" style="color:unset;cursor:default;font-size:11px;font-size:12px;fill:unset;" text-anchor="start" transform="translate(0,0)" y="119" opacity="1">7000</text><text x="696" style="color:unset;cursor:default;font-size:11px;font-size:12px;fill:unset;" text-anchor="start" transform="translate(0,0)" y="82" opacity="1">7500</text><text x="0" style="color:unset;cursor:default;font-size:11px;font-size:12px;fill:unset;" text-anchor="start" transform="translate(0,0)" y="-9999">8000</text></g><g class="highcharts-axis-labels highcharts-yaxis-labels" data-z-index="7"></g><g class="highcharts-axis-labels highcharts-yaxis-labels" data-z-index="7"></g><g class="highcharts-axis highcharts-yaxis" data-z-index="9999"><path fill="none" class="highcharts-tick" stroke="#E7E7E7" stroke-width="1.5" d="M 684 411.75 L 694 411.75" opacity="1"></path><path fill="none" class="highcharts-tick" stroke="#E7E7E7" stroke-width="1.5" d="M 684 374.75 L 694 374.75" opacity="1"></path><path fill="none" class="highcharts-tick" stroke="#E7E7E7" stroke-width="1.5" d="M 684 337.75 L 694 337.75" opacity="1"></path><path fill="none" class="highcharts-tick" stroke="#E7E7E7" stroke-width="1.5" d="M 684 300.75 L 694 300.75" opacity="1"></path><path fill="none" class="highcharts-tick" stroke="#E7E7E7" stroke-width="1.5" d="M 684 263.75 L 694 263.75" opacity="1"></path><path fill="none" class="highcharts-tick" stroke="#E7E7E7" stroke-width="1.5" d="M 684 226.75 L 694 226.75" opacity="1"></path><path fill="none" class="highcharts-tick" stroke="#E7E7E7" stroke-width="1.5" d="M 684 188.75 L 694 188.75" opacity="1"></path><path fill="none" class="highcharts-tick" stroke="#E7E7E7" stroke-width="1.5" d="M 684 151.75 L 694 151.75" opacity="1"></path><path fill="none" class="highcharts-tick" stroke="#E7E7E7" stroke-width="1.5" d="M 684 114.75 L 694 114.75" opacity="1"></path><path fill="none" class="highcharts-tick" stroke="#E7E7E7" stroke-width="1.5" d="M 684 77.75 L 694 77.75" opacity="1"></path><path fill="none" class="highcharts-tick" stroke="#E7E7E7" stroke-width="1.5" d="M 684 39.25 L 694 39.25" opacity="1"></path><path fill="none" class="highcharts-axis-line" stroke="#E6E6E6" stroke-width="1" data-z-index="7" d="M 684.5 40 L 684.5 411"></path></g><path fill="none" d="M 0 0 L 1536 0" stroke="#524f4f" stroke-width="1" stroke-dasharray="8,3" data-z-index="10" class="crossHairLine" visibility="hidden"></path><path fill="none" d="M 0 40 L 0 731.2" stroke="#524f4f" stroke-width="1" stroke-dasharray="8,3" data-z-index="10" class="crossHairLine" visibility="hidden"></path></svg>