<svg xmlns:xlink="http://www.w3.org/1999/xlink" version="1.1" class="highcharts-root" style="font-family: &quot;Helvetica Neue&quot;, Helvetica, Arial, sans-serif; font-size: 12px;" xmlns="http://www.w3.org/2000/svg" width="750" height="520" viewBox="0 0 750 520"><desc>Created with Highcharts 10.1.0</desc><defs><clipPath id="highcharts-nrw44ra-2149-"><rect x="0" y="0" width="679" height="420" fill="none"></rect></clipPath><clipPath id="highcharts-nrw44ra-2411-"><rect x="0" y="0" width="679" height="420" fill="none"></rect></clipPath><clipPath id="highcharts-nrw44ra-2678-"><rect x="8" y="40" width="679" height="420" fill="none"></rect></clipPath></defs><rect fill="#ffffff" class="highcharts-background" x="0" y="0" width="750" height="520" rx="0" ry="0"></rect><rect fill="none" class="highcharts-plot-background" x="8" y="40" width="679" height="420"></rect><g class="highcharts-grid highcharts-xaxis-grid" data-z-index="1"><path fill="none" stroke="#EDF3F6" stroke-width="1" stroke-dasharray="none" data-z-index="1" class="highcharts-grid-line" d="M 93.5 40 L 93.5 460" opacity="1"></path><path fill="none" stroke="#EDF3F6" stroke-width="1" stroke-dasharray="none" data-z-index="1" class="highcharts-grid-line" d="M 227.5 40 L 227.5 460" opacity="1"></path><path fill="none" stroke="#EDF3F6" stroke-width="1" stroke-dasharray="none" data-z-index="1" class="highcharts-grid-line" d="M 360.5 40 L 360.5 460" opacity="1"></path><path fill="none" stroke="#EDF3F6" stroke-width="1" stroke-dasharray="none" data-z-index="1" class="highcharts-grid-line" d="M 494.5 40 L 494.5 460" opacity="1"></path><path fill="none" stroke="#EDF3F6" stroke-width="1" stroke-dasharray="none" data-z-index="1" class="highcharts-grid-line" d="M 628.5 40 L 628.5 460" opacity="1"></path></g><g class="highcharts-grid highcharts-yaxis-grid" data-z-index="1"><path fill="none" stroke="#E7E7E7" stroke-width="1" stroke-dasharray="none" data-z-index="1" class="highcharts-grid-line" d="M 8 460.5 L 687 460.5" opacity="1"></path><path fill="none" stroke="#E7E7E7" stroke-width="1" stroke-dasharray="none" data-z-index="1" class="highcharts-grid-line" d="M 8 408.5 L 687 408.5" opacity="1"></path><path fill="none" stroke="#E7E7E7" stroke-width="1" stroke-dasharray="none" data-z-index="1" class="highcharts-grid-line" d="M 8 355.5 L 687 355.5" opacity="1"></path><path fill="none" stroke="#E7E7E7" stroke-width="1" stroke-dasharray="none" data-z-index="1" class="highcharts-grid-line" d="M 8 303.5 L 687 303.5" opacity="1"></path><path fill="none" stroke="#E7E7E7" stroke-width="1" stroke-dasharray="none" data-z-index="1" class="highcharts-grid-line" d="M 8 250.5 L 687 250.5" opacity="1"></path><path fill="none" stroke="#E7E7E7" stroke-width="1" stroke-dasharray="none" data-z-index="1" class="highcharts-grid-line" d="M 8 198.5 L 687 198.5" opacity="1"></path><path fill="none" stroke="#E7E7E7" stroke-width="1" stroke-dasharray="none" data-z-index="1" class="highcharts-grid-line" d="M 8 145.5 L 687 145.5" opacity="1"></path><path fill="none" stroke="#E7E7E7" stroke-width="1" stroke-dasharray="none" data-z-index="1" class="highcharts-grid-line" d="M 8 93.5 L 687 93.5" opacity="1"></path><path fill="none" stroke="#E7E7E7" stroke-width="1" stroke-dasharray="none" data-z-index="1" class="highcharts-grid-line" d="M 8 39.5 L 687 39.5" opacity="1"></path></g><g class="highcharts-grid highcharts-yaxis-grid" data-z-index="1"></g><g class="highcharts-grid highcharts-yaxis-grid" data-z-index="1"></g><rect fill="none" class="highcharts-plot-border" data-z-index="1" x="8" y="40" width="679" height="420"></rect><g class="highcharts-axis highcharts-xaxis" data-z-index="2"><path fill="none" class="highcharts-axis-line" stroke="#E6E6E6" stroke-width="1" data-z-index="7" d="M 8 460.5 L 687 460.5"></path></g><g class="highcharts-axis highcharts-yaxis" data-z-index="2"><path fill="none" class="highcharts-axis-line" data-z-index="7" d="M 737 40 L 737 460"></path></g><g class="highcharts-axis highcharts-yaxis" data-z-index="2"><path fill="none" class="highcharts-axis-line" data-z-index="7" d="M 6.5 40 L 6.5 460"></path></g><g class="highcharts-series-group" data-z-index="3"><g class="highcharts-series highcharts-series-0 highcharts-line-series" data-z-index="90" opacity="1" transform="translate(8,40) scale(1 1)" clip-path="url(#highcharts-nrw44ra-2411-)"><path fill="none" d="M 0 280.35 L 2.5622641509434 296.1 L 5.1245283018868 307.125 L 7.6867924528302 383.25 L 10.249056603774 362.25 L 12.811320754717 362.25 L 15.37358490566 351.75 L 17.935849056604 320.25 L 20.498113207547 329.7 L 23.060377358491 302.4 L 25.622641509434 310.8 L 28.184905660377 311.85 L 30.747169811321 306.6 L 33.309433962264 291.9 L 35.871698113208 286.65 L 38.433962264151 302.925 L 40.996226415094 289.8 L 43.558490566038 277.2 L 46.120754716981 290.85 L 48.683018867925 278.775 L 51.245283018868 280.35 L 53.807547169811 296.625 L 56.369811320755 297.15 L 58.932075471698 299.25 L 61.494339622642 302.4 L 64.056603773585 347.55 L 66.618867924528 351.75 L 69.181132075472 351.75 L 71.743396226415 360.15 L 74.305660377358 358.575 L 76.867924528302 360.15 L 79.430188679245 359.1 L 81.992452830189 351.75 L 84.554716981132 363.3 L 87.116981132075 369.6 L 89.679245283019 366.45 L 92.241509433962 365.4 L 94.803773584906 365.4 L 97.366037735849 365.4 L 99.928301886792 370.65 L 102.49056603774 361.2 L 105.05283018868 342.3 L 107.61509433962 337.05 L 110.17735849057 327.6 L 112.73962264151 325.5 L 115.30188679245 324.45 L 117.8641509434 312.9 L 120.42641509434 308.7 L 122.98867924528 308.7 L 125.55094339623 312.9 L 128.11320754717 321.3 L 130.67547169811 338.1 L 133.23773584906 347.025 L 135.8 330.75 L 138.36226415094 338.1 L 140.92452830189 337.05 L 143.48679245283 347.76 L 146.04905660377 328.65 L 148.61132075472 323.4 L 151.17358490566 311.85 L 153.7358490566 312.375 L 156.29811320755 315.525 L 158.86037735849 316.05 L 161.42264150943 319.2 L 163.98490566038 330.75 L 166.54716981132 327.075 L 169.10943396226 320.25 L 171.67169811321 323.925 L 174.23396226415 340.2 L 176.79622641509 346.5 L 179.35849056604 343.875 L 181.92075471698 340.725 L 184.48301886792 335.475 L 187.04528301887 344.4 L 189.60754716981 360.15 L 192.16981132075 354.9 L 194.7320754717 350.175 L 197.29433962264 333.375 L 199.85660377358 343.03499999999997 L 202.41886792453 342.825 L 204.98113207547 336 L 207.54339622642 326.025 L 210.10566037736 328.65 L 212.6679245283 329.175 L 215.23018867925 344.4 L 217.79245283019 341.25 L 220.35471698113 330.225 L 222.91698113208 336.525 L 225.47924528302 332.325 L 228.04150943396 327.075 L 230.60377358491 327.81 L 233.16603773585 330.75 L 235.72830188679 333.375 L 238.29056603774 329.175 L 240.85283018868 327.075 L 243.41509433962 336 L 245.97735849057 331.8 L 248.53962264151 331.8 L 251.10188679245 329.175 L 253.6641509434 329.7 L 256.22641509434 331.485 L 258.78867924528 330.12 L 261.35094339623 315.525 L 263.91320754717 315.525 L 266.47547169811 303.45 L 269.03773584906 299.25 L 271.6 307.125 L 274.16226415094 321.825 L 276.72452830189 309.75 L 279.28679245283 281.29499999999996 L 281.84905660377 278.775 L 284.41132075472 269.325 L 286.97358490566 265.125 L 289.5358490566 263.55 L 292.09811320755 260.925 L 294.66037735849 280.35 L 297.22264150943 274.05 L 299.78490566038 297.675 L 302.34716981132 279.825 L 304.90943396226 281.925 L 307.47169811321 273.525 L 310.03396226415 280.56 L 312.59622641509 267.75 L 315.15849056604 258.825 L 317.72075471698 238.875 L 320.28301886792 236.25 L 322.84528301887 217.875 L 325.40754716981 196.35 L 327.96981132075 204.96 L 330.5320754717 185.325 L 333.09433962264 211.05 L 335.65660377358 190.575 L 338.21886792453 192.15 L 340.78113207547 217.875 L 343.34339622642 201.39 L 345.90566037736 200.025 L 348.4679245283 200.55 L 351.03018867925 203.175 L 353.59245283019 196.35 L 356.15471698113 247.8 L 358.71698113208 255.15 L 361.27924528302 264.6 L 363.84150943396 274.05 L 366.40377358491 248.85 L 368.96603773585 241.5 L 371.52830188679 239.4 L 374.09056603774 231.525 L 376.65283018868 215.775 L 379.21509433962 226.8 L 381.77735849057 246.75 L 384.33962264151 263.55 L 386.90188679245 271.95 L 389.4641509434 294.525 L 392.02641509434 279.3 L 394.58867924528 297.675 L 397.15094339623 297.15 L 399.71320754717 289.275 L 402.27547169811 270.9 L 404.83773584906 267.75 L 407.4 264.075 L 409.96226415094 279.825 L 412.52452830189 269.85 L 415.08679245283 263.55 L 417.64905660377 263.55 L 420.21132075472 248.85 L 422.77358490566 267.225 L 425.3358490566 260.4 L 427.89811320755 253.05 L 430.46037735849 245.175 L 433.02264150943 240.45 L 435.58490566038 233.1 L 438.14716981132 232.05 L 440.70943396226 237.825 L 443.27169811321 228.9 L 445.83396226415 225.75 L 448.39622641509 223.65 L 450.95849056604 215.25 L 453.52075471698 198.975 L 456.08301886792 191.1 L 458.64528301887 171.15 L 461.20754716981 164.325 L 463.76981132075 186.375 L 466.3320754717 190.05 L 468.89433962264 211.05 L 471.45660377358 203.7 L 474.01886792453 212.1 L 476.58113207547 209.475 L 479.14339622642 211.05 L 481.70566037736 212.1 L 484.2679245283 221.025 L 486.83018867925 208.95 L 489.39245283019 205.275 L 491.95471698113 198.45 L 494.51698113208 176.925 L 497.07924528302 193.725 L 499.64150943396 196.35 L 502.20377358491 197.925 L 504.76603773585 200.55 L 507.32830188679 189.525 L 509.89056603774 201.075 L 512.45283018868 200.55 L 515.01509433962 181.125 L 517.57735849057 173.25 L 520.13962264151 174.3 L 522.70188679245 145.95 L 525.2641509434 134.8515 L 527.82641509434 132.13725 L 530.38867924528 160.8075 L 532.95094339623 151.305 L 535.51320754717 161.952 L 538.07547169811 152.77499999999998 L 540.63773584906 130.55700000000002 L 543.2 128.35199999999998 L 545.76226415094 106.428 L 548.32452830189 107.68799999999999 L 550.88679245283 120.519 L 553.44905660377 130.8825 L 556.01132075472 145.87124999999997 L 558.57358490566 135.135 L 561.1358490566 127.63799999999998 L 563.69811320755 140.92575 L 566.26037735849 163.8 L 568.82264150943 191.1525 L 571.38490566038 220.40025 L 573.94716981132 206.598 L 576.50943396226 224.7 L 579.07169811321 221.025 L 581.63396226415 245.616 L 584.19622641509 249.39075 L 586.75849056604 192.15 L 589.32075471698 202.73925 L 591.88301886792 214.2 L 594.44528301887 195.825 L 597.00754716981 187.425 L 599.56981132075 192.675 L 602.1320754717 173.25 L 604.69433962264 171.15 L 607.25660377358 174.3 L 609.81886792453 171.675 L 612.38113207547 158.55 L 614.94339622642 137.55 L 617.50566037736 133.35000000000002 L 620.0679245283 139.0095 L 622.63018867925 138.075 L 625.19245283019 117.28500000000003 L 627.75471698113 139.44 L 630.31698113208 116.86500000000001 L 632.87924528302 123.06 L 635.44150943396 138.60000000000002 L 638.00377358491 125.79000000000002 L 640.56603773585 101.745 L 643.12830188679 126 L 645.69056603774 123.06 L 648.25283018868 104.055 L 650.81509433962 94.07999999999998 L 653.37735849057 79.27499999999998 L 655.93962264151 73.815 L 658.50188679245 66.88499999999999 L 661.0641509434 73.07999999999998 L 663.62641509434 108.46499999999997 L 666.18867924528 100.27499999999998" class="highcharts-graph" data-z-index="1" stroke="#2962FF" stroke-width="2" stroke-linejoin="round" stroke-linecap="round"></path></g><g class="highcharts-markers highcharts-series-0 highcharts-line-series" data-z-index="90" opacity="1" transform="translate(8,40) scale(1 1)" clip-path="none"></g></g><text x="740" text-anchor="end" class="highcharts-title" data-z-index="4" style="color: rgb(51, 51, 51); font-size: 15px; fill: rgb(51, 51, 51);" y="513">source: tradingeconomics.com</text><text x="14" text-anchor="start" class="highcharts-subtitle" data-z-index="4" style="color: rgb(51, 51, 51); fill: rgb(51, 51, 51); font-size: 15px;" y="25">US Dollar Indonesian Rupiah</text><text x="0" text-anchor="start" class="highcharts-caption" data-z-index="4" style="color: rgb(102, 102, 102); fill: rgb(102, 102, 102);" y="527"></text><g class="highcharts-axis-labels highcharts-xaxis-labels" data-z-index="7"><text x="94.018867924528" style="color: black; cursor: default; font-size: 15px; font-weight: 400; fill: black;" text-anchor="middle" transform="translate(0,0)" y="480" opacity="1">2021</text><text x="227.62264150943" style="color: black; cursor: default; font-size: 15px; font-weight: 400; fill: black;" text-anchor="middle" transform="translate(0,0)" y="480" opacity="1">2022</text><text x="361.22641509434" style="color: black; cursor: default; font-size: 15px; font-weight: 400; fill: black;" text-anchor="middle" transform="translate(0,0)" y="480" opacity="1">2023</text><text x="494.83018867925" style="color: black; cursor: default; font-size: 15px; font-weight: 400; fill: black;" text-anchor="middle" transform="translate(0,0)" y="480" opacity="1">2024</text><text x="628.8" style="color: black; cursor: default; font-size: 15px; font-weight: 400; fill: black;" text-anchor="middle" transform="translate(0,0)" y="480" opacity="1">2025</text></g><g class="highcharts-axis-labels highcharts-yaxis-labels" data-z-index="7"><text x="0" style="color: unset; cursor: default; font-size: 15px; fill: unset;" text-anchor="start" transform="translate(0,0)" visibility="hidden">13500</text><text x="695" style="color: unset; cursor: default; font-size: 15px; fill: unset;" text-anchor="start" transform="translate(0,0)" y="412" opacity="1">14000</text><text x="695" style="color: unset; cursor: default; font-size: 15px; fill: unset;" text-anchor="start" transform="translate(0,0)" y="360" opacity="1">14500</text><text x="695" style="color: unset; cursor: default; font-size: 15px; fill: unset;" text-anchor="start" transform="translate(0,0)" y="307" opacity="1">15000</text><text x="695" style="color: unset; cursor: default; font-size: 15px; fill: unset;" text-anchor="start" transform="translate(0,0)" y="255" opacity="1">15500</text><text x="695" style="color: unset; cursor: default; font-size: 15px; fill: unset;" text-anchor="start" transform="translate(0,0)" y="202" opacity="1">16000</text><text x="695" style="color: unset; cursor: default; font-size: 15px; fill: unset;" text-anchor="start" transform="translate(0,0)" y="150" opacity="1">16500</text><text x="695" style="color: unset; cursor: default; font-size: 15px; fill: unset;" text-anchor="start" transform="translate(0,0)" y="97" opacity="1">17000</text><text x="0" style="color: unset; cursor: default; font-size: 15px; fill: unset;" text-anchor="start" transform="translate(0,0)" visibility="hidden">17500</text></g><g class="highcharts-axis-labels highcharts-yaxis-labels" data-z-index="7"></g><g class="highcharts-axis-labels highcharts-yaxis-labels" data-z-index="7"></g><g class="highcharts-control-points" data-z-index="99" clip-path="url(#highcharts-nrw44ra-2678-)"></g><g class="highcharts-axis highcharts-yaxis" data-z-index="9999"><path fill="none" class="highcharts-tick" stroke="#E7E7E7" stroke-width="1" d="M 688 460.5 L 693 460.5" opacity="1"></path><path fill="none" class="highcharts-tick" stroke="#E7E7E7" stroke-width="1" d="M 688 408.5 L 693 408.5" opacity="1"></path><path fill="none" class="highcharts-tick" stroke="#E7E7E7" stroke-width="1" d="M 688 355.5 L 693 355.5" opacity="1"></path><path fill="none" class="highcharts-tick" stroke="#E7E7E7" stroke-width="1" d="M 688 303.5 L 693 303.5" opacity="1"></path><path fill="none" class="highcharts-tick" stroke="#E7E7E7" stroke-width="1" d="M 688 250.5 L 693 250.5" opacity="1"></path><path fill="none" class="highcharts-tick" stroke="#E7E7E7" stroke-width="1" d="M 688 198.5 L 693 198.5" opacity="1"></path><path fill="none" class="highcharts-tick" stroke="#E7E7E7" stroke-width="1" d="M 688 145.5 L 693 145.5" opacity="1"></path><path fill="none" class="highcharts-tick" stroke="#E7E7E7" stroke-width="1" d="M 688 93.5 L 693 93.5" opacity="1"></path><path fill="none" class="highcharts-tick" stroke="#E7E7E7" stroke-width="1" d="M 688 39.5 L 693 39.5" opacity="1"></path><path fill="none" class="highcharts-axis-line" stroke="#E6E6E6" stroke-width="1" data-z-index="7" d="M 688.5 40 L 688.5 460"></path></g><path fill="none" d="M 8 0 L 1304 0" stroke="#524f4f" stroke-width="1" stroke-dasharray="8,3" data-z-index="6" visibility="hidden" class="crosshair-fix-horizontal"></path><path fill="none" d="M 0 40 L 0 850" stroke="#524f4f" stroke-width="1" stroke-dasharray="8,3" data-z-index="6" visibility="hidden" class="crosshair-fix-vertical"></path></svg>