<?xml version="1.0" encoding="UTF-8" standalone="no"?>
<svg
   xmlns:dc="http://purl.org/dc/elements/1.1/"
   xmlns:cc="http://creativecommons.org/ns#"
   xmlns:rdf="http://www.w3.org/1999/02/22-rdf-syntax-ns#"
   xmlns:svg="http://www.w3.org/2000/svg"
   xmlns="http://www.w3.org/2000/svg"
   xmlns:sodipodi="http://sodipodi.sourceforge.net/DTD/sodipodi-0.dtd"
   xmlns:inkscape="http://www.inkscape.org/namespaces/inkscape"
   width="1538px"
   height="1080px"
   viewBox="0 0 1538 1080"
   version="1.1"
   id="SVGRoot"
   sodipodi:docname="welcome.svg"
   inkscape:version="1.0.2-2 (e86c870879, 2021-01-15)">
  <defs
     id="defs1162" />
  <sodipodi:namedview
     id="base"
     pagecolor="#ffffff"
     bordercolor="#666666"
     borderopacity="1.0"
     inkscape:pageopacity="0.0"
     inkscape:pageshadow="2"
     inkscape:zoom="0.7"
     inkscape:cx="609.57163"
     inkscape:cy="547.04607"
     inkscape:document-units="px"
     inkscape:current-layer="layer1"
     inkscape:document-rotation="0"
     showgrid="false"
     inkscape:window-width="1920"
     inkscape:window-height="1001"
     inkscape:window-x="-9"
     inkscape:window-y="-9"
     inkscape:window-maximized="1" />
  <metadata
     id="metadata1165">
    <rdf:RDF>
      <cc:Work
         rdf:about="">
        <dc:format>image/svg+xml</dc:format>
        <dc:type
           rdf:resource="http://purl.org/dc/dcmitype/StillImage" />
        <dc:title />
      </cc:Work>
    </rdf:RDF>
  </metadata>
  <g
     inkscape:label="Layer 1"
     inkscape:groupmode="layer"
     id="layer1">
    <text
       xml:space="preserve"
       style="font-style:normal;font-weight:normal;font-size:40px;line-height:1.25;font-family:sans-serif;fill:#66b93a;fill-opacity:0.97254902;stroke:none;"
       x="71.428574"
       y="491.42856"
       id="text1189"><tspan
         sodipodi:role="line"
         id="tspan1187"
         x="71.428574"
         y="491.42856" /></text>
    <path
       style="font-variation-settings:normal;opacity:1;vector-effect:none;fill:#66b93a;fill-opacity:0.97254902;stroke-width:16.4923;stroke-linecap:butt;stroke-linejoin:miter;stroke-miterlimit:4;stroke-dasharray:none;stroke-dashoffset:0;stroke-opacity:1;stop-color:#000000;stop-opacity:1"
       d=""
       id="path1890" />
    <path
       style="font-variation-settings:normal;opacity:1;vector-effect:none;fill:#66b93a;fill-opacity:0.97254902;stroke-width:16.4923;stroke-linecap:butt;stroke-linejoin:miter;stroke-miterlimit:4;stroke-dasharray:none;stroke-dashoffset:0;stroke-opacity:1;stop-color:#000000;stop-opacity:1"
       d=""
       id="path1896" />
    <path
       style="fill:none;stroke:#000000;stroke-width:1px;stroke-linecap:butt;stroke-linejoin:miter;stroke-opacity:1"
       d="M 1.4285714,671.42857 1541.4286,675.71429"
       id="path2604" />
    <path
       style="fill:#66b933;fill-opacity:1;fill-rule:nonzero;stroke:none"
       id="path2606"
       d="m 142.56751,134.50814 c -3.47311,6.89555 -7.59189,13.42257 -11.78903,19.89143 -4.7266,7.18234 -9.11352,14.58705 -12.96326,22.27567 -2.39004,5.36064 -4.31586,10.96707 -5.57275,16.70411 -1.81704,7.67766 -2.08121,15.4363 -1.52921,23.26309 0.34778,5.94765 1.32943,11.86294 4.32522,17.06535 3.97545,5.02812 9.78401,7.77857 15.80449,9.52852 10.89662,1.77774 21.61349,-1.18575 31.6728,-5.16922 10.06338,-5.34631 10.70516,-5.59072 25.53104,-15.02876 1.13465,-0.72231 2.10934,-1.68817 3.01119,-2.68608 2.40081,-2.65649 4.27409,-6.09438 6.07954,-9.16746 1.68251,-2.7906 3.06031,-5.75619 4.18069,-8.81427 0.66556,-1.81666 0.98035,-3.81483 2.10057,-5.41276 -6.21489,3.62299 -12.73324,6.76948 -18.64469,10.86898 -0.53357,0.37002 0.13264,1.29217 0.17395,1.94018 0.23468,3.68099 0.45383,7.31418 1.01527,10.96408 1.13234,6.12655 2.91488,10.22817 7.41567,14.60184 6.91464,5.41903 15.54992,5.35445 23.87606,4.56032 12.89285,-2.18085 27.57364,-8.71765 35.74905,-18.65585 0.85977,-1.04515 1.54376,-2.2233 2.31564,-3.33495 5.05097,-8.61954 6.65181,-18.64509 8.48534,-28.32446 1.30803,-8.03133 2.60429,-16.06213 3.48696,-24.15282 0.49968,-5.1605 -0.36379,-8.6626 -2.61492,-13.19883 -2.86433,-4.23655 -6.15545,-8.18364 -9.28508,-12.2298 -0.63757,-0.81025 -1.27514,-1.6205 -1.91271,-2.43074 0,0 -17.9303,10.70607 -17.9303,10.70607 v 0 c 0.63832,0.79884 1.27663,1.59769 1.91495,2.39653 3.03187,3.94386 6.05091,7.9042 8.86862,12.00484 2.08491,4.12144 2.7138,7.33752 2.27509,12.03029 -0.78194,7.97222 -1.99795,15.8982 -3.20198,23.81492 -1.84364,9.51835 -3.65639,19.37561 -9.11921,27.58606 -0.81758,1.0075 -1.55519,2.08553 -2.45274,3.02249 -4.66027,4.86493 -14.51627,9.31371 11.74619,-5.47616 1.13027,-0.63652 -2.26836,1.27373 -3.47149,1.75865 -2.66789,1.0753 -5.55596,1.58169 -8.34374,2.19676 -7.74151,1.05031 -15.88844,1.52352 -22.56203,-3.27594 -4.34432,-3.90238 -5.65691,-7.74123 -6.71709,-13.37944 -0.37877,-2.7152 -0.65963,-5.41632 -0.78673,-8.1569 -0.0426,-0.91922 -0.0252,-1.84086 -0.0792,-2.75949 -0.0443,-0.75294 0.50842,-2.46447 -0.21542,-2.25245 -6.68923,1.95929 -12.88627,5.31812 -19.32941,7.97718 -1.39733,4.8687 -3.23917,9.58657 -5.99413,13.86819 -1.83789,2.97521 -3.69506,6.0532 -6.2337,8.50561 -4.84301,4.6785 -13.64332,7.83118 10.97735,-5.28605 1.44807,-0.77149 -2.81163,1.69207 -4.21745,2.5381 -9.89604,4.25264 -19.72402,7.36537 -30.64775,6.08263 -1.15627,-0.27665 -2.33966,-0.45776 -3.4688,-0.82997 -4.25684,-1.40322 -8.29791,-4.12837 -11.24883,-7.46479 -2.94359,-4.82957 -3.68118,-10.52801 -4.09048,-16.08772 -0.5331,-7.68683 -0.10619,-15.29764 1.96126,-22.769 1.43476,-5.51983 3.15908,-11.00274 5.58523,-16.17359 3.88704,-7.61028 8.3025,-14.91532 12.99817,-22.05356 4.26626,-6.64699 8.43279,-13.36911 12.08396,-20.37839 0,0 -19.21221,8.79756 -19.21221,8.79756 z" />
    <path
       style="fill:#66b933;fill-opacity:1;fill-rule:nonzero;stroke:none"
       id="path2608"
       d="m 300.24514,202.00806 c 5.77446,0.30224 11.57179,0.7127 17.35147,0.24377 4.3279,-0.35115 6.22022,-0.80552 10.48914,-1.5829 6.98492,-1.42008 13.87379,-3.71774 20.10117,-7.23774 21.15476,-11.95764 15.6699,-8.20493 26.09093,-15.70417 3.66559,-2.9885 7.60712,-6.06743 9.98663,-10.26427 0.93001,-1.6403 1.15633,-2.69107 1.69909,-4.44932 1.40745,-4.78326 -1.03362,-8.37874 -4.06073,-11.83615 -3.68911,-3.84102 -7.51946,-7.51366 -12.34459,-9.85062 -6.06898,-2.465 -12.23595,0.45786 -17.74474,3.04139 -15.37705,8.0298 -23.90712,12.1062 -33.03323,24.99576 -4.18275,6.37441 -5.86049,13.5688 -6.88336,21.00744 -1.41508,9.76175 -0.64976,19.49821 1.05033,29.15261 1.69749,7.94276 5.01869,15.46937 11.90783,20.21804 1.45565,1.00338 3.0676,1.75858 4.6014,2.63787 11.12672,4.92076 23.39516,5.62761 35.37405,6.33116 5.56974,0.10384 10.98116,-1.07662 16.26189,-2.71458 0,0 16.45593,-12.82327 16.45593,-12.82327 v 0 c -5.16295,2.01105 -10.55453,3.3537 -16.11772,3.60257 -11.74843,-0.47783 -23.77369,-1.04187 -34.7782,-5.59342 -1.44979,-0.79427 -2.96772,-1.47519 -4.34938,-2.38281 -6.61054,-4.3425 -9.66196,-11.43328 -11.18245,-18.93818 -1.67012,-9.47423 -2.22668,-19.03187 -0.68392,-28.58342 1.2236,-7.19995 3.16066,-14.14277 7.46179,-20.17891 2.0843,-2.75194 4.19162,-5.36959 6.74558,-7.71181 5.3616,-4.91708 18.64228,-12.33337 -9.05596,3.93365 4.30378,-2.18254 9.49593,-5.26618 14.5651,-4.83912 0.6468,0.0545 1.25421,0.33498 1.88131,0.50247 4.77242,1.85518 8.46746,5.30969 11.87186,9.06815 2.67438,3.00203 4.52929,5.78114 2.99286,9.88217 -2.2647,5.73657 -6.85971,9.76729 -11.76875,13.3376 -7.05359,4.82569 -8.18451,5.43661 9.01624,-4.63476 1.57491,-0.92214 -3.18824,1.7819 -4.83403,2.5706 -2.4156,1.15761 -7.2172,3.07876 -9.80636,3.85883 -1.66739,0.50236 -3.38251,0.82996 -5.07377,1.24494 -9.14386,1.84907 -17.66293,2.77832 -26.97434,1.45064 0,0 -17.21307,12.24579 -17.21307,12.24579 z" />
    <path
       style="fill:#66b933;fill-opacity:1;fill-rule:nonzero;stroke:none"
       id="path2610"
       d="m 450.58824,82.218633 c -0.67978,11.566692 -2.61534,23.072567 -4.45007,34.511327 -3.24684,16.5884 -6.87856,33.10359 -10.5542,49.60255 -3.28222,14.1268 -6.16878,28.33672 -7.80634,42.75214 -1.11848,11.91211 -1.37882,23.88168 -0.60589,35.81794 0.44579,8.34703 2.96539,16.22102 5.6782,24.03986 0.37415,0.72259 0.74829,1.44519 1.12244,2.16778 0,0 18.23907,-10.45507 18.23907,-10.45507 v 0 c -0.34806,-0.62298 -0.69612,-1.24595 -1.04418,-1.86893 -2.88884,-7.5242 -5.41072,-15.13372 -5.87185,-23.26841 -0.788,-11.81792 -0.37706,-23.67082 0.70651,-35.46264 1.59689,-14.27218 4.29732,-28.37486 7.51122,-42.36931 3.67291,-16.55113 7.3684,-33.10189 10.59708,-49.74648 1.98332,-11.729649 4.10802,-23.474325 5.30153,-35.311817 0,0 -18.82352,9.59106 -18.82352,9.59106 z" />
    <path
       style="fill:#66b933;fill-opacity:1;fill-rule:nonzero;stroke:none"
       id="path2612"
       d="m 588.18985,156.46041 c -5.80907,-5.70064 -13.01997,-9.54498 -20.03224,-13.52509 -5.4182,-2.87241 -11.0383,-5.89885 -17.17114,-6.92015 -3.42666,-0.57064 -4.57483,-0.28479 -8.03245,-0.0465 -4.53524,0.60648 -8.68597,2.28118 -12.59666,4.61218 -17.93954,10.69304 -19.14823,9.59 -29.34729,21.27512 -7.22515,8.38599 -11.94392,18.36297 -15.37415,28.79332 -2.46545,8.51916 -3.18158,16.55352 -0.24505,25.07094 0.52404,1.51997 1.24811,2.96342 1.87217,4.44513 2.6216,4.99391 5.82238,9.89527 10.51566,13.19144 2.66798,1.87377 4.23482,2.39771 7.18173,3.70297 7.86278,3.66768 16.31083,5.03489 24.89569,5.45974 6.59087,0.26364 12.9885,-0.96631 19.28134,-2.76334 0,0 16.36699,-12.66561 16.36699,-12.66561 v 0 c -6.13977,2.08313 -12.41024,3.63296 -18.96088,3.40902 -8.35808,-0.26962 -16.65141,-1.44034 -24.33253,-4.95073 -8.69503,-3.47268 -12.58041,-7.06578 -16.98185,-15.46103 -1.50042,-3.54501 -2.30342,-4.90778 -3.0013,-8.76301 -1.19032,-6.57556 0.1555,-13.08585 1.99956,-19.39808 3.53091,-10.18702 8.3028,-19.89907 15.59098,-27.97196 1.32133,-1.40933 2.57416,-2.88618 3.96399,-4.22801 1.30648,-1.26137 5.79822,-4.25124 4.1143,-3.57128 -4.77216,1.92697 -8.98713,5.0215 -13.55888,7.38495 -1.36685,0.70662 2.57235,-1.69912 3.93669,-2.41059 1.30378,-0.67988 2.66034,-1.26645 4.04786,-1.75313 1.2989,-0.4556 2.65966,-0.71067 3.98949,-1.06601 2.83984,-0.36644 4.80173,-0.78921 7.67262,-0.49992 6.06486,0.61112 11.6613,3.60034 16.99818,6.29269 6.76102,3.86219 13.83886,7.57295 19.11865,13.44161 0,0 18.08852,-11.08465 18.08852,-11.08465 z" />
    <path
       style="fill:#66b933;fill-opacity:1;fill-rule:nonzero;stroke:none"
       id="path2614"
       d="m 711.32368,159.32734 c -4.76602,-6.08319 -13.29067,-6.32698 -20.35904,-7.15125 -12.54929,-1.90609 -22.93966,0.92837 -34.83182,4.58739 -6.32985,2.17793 -12.72376,4.36099 -18.53375,7.75375 -16.05915,9.37779 -20.04975,10.08287 -29.82628,20.82239 -5.34177,6.36715 -8.22034,13.90975 -9.57927,22.00366 0.17576,6.55759 3.53427,11.69653 9.34771,14.73235 1.46159,0.76325 3.03351,1.29345 4.55027,1.94018 10.00229,3.641 20.55747,5.15973 31.12465,5.87585 11.15033,0.0988 21.30812,-3.06429 31.09088,-8.15663 11.3543,-6.64096 24.62677,-13.00371 32.80981,-24.02811 2.21907,-2.98958 2.854,-4.7255 4.4246,-8.02861 2.54108,-6.37784 3.3602,-13.12123 3.64493,-19.91775 0.56125,-5.19133 -1.26014,-8.43844 -4.11425,-12.52053 -1.8703,-2.76092 -0.98038,-1.3662 -2.67315,-4.18202 0,0 -18.15585,10.52801 -18.15585,10.52801 v 0 c 1.75218,2.89929 0.85053,1.46422 2.70515,4.30505 2.85375,4.25172 3.88564,5.93868 3.52157,11.30937 -0.26205,6.50271 -1.09183,12.98067 -3.74876,18.99615 -2.17267,4.15965 -4.43567,7.62047 -7.77031,10.97147 -1.17878,1.18457 -2.40835,2.31941 -3.66716,3.41855 -1.35126,1.17987 -5.81664,4.1013 -4.15919,3.41513 4.61363,-1.91002 8.77784,-4.76281 13.16676,-7.14421 -9.66966,5.50118 -19.1791,8.75648 -30.41789,9.09799 -10.3821,-0.6586 -20.81778,-1.80594 -30.66518,-5.37143 -7.45589,-3.02979 -12.29383,-5.5194 -12.24032,-14.39629 1.44225,-7.73452 4.38227,-14.84087 9.73665,-20.754 1.18632,-1.21102 2.30553,-2.49164 3.55896,-3.63306 1.32773,-1.20908 5.83604,-4.0842 4.17263,-3.40761 -4.45269,1.81113 -8.43395,4.61519 -12.68025,6.86808 -1.83382,0.97294 3.57603,-2.11853 5.44219,-3.0279 4.34783,-2.11868 8.43811,-3.46797 12.97911,-5.12019 11.25378,-3.59024 22.12473,-6.79199 34.06823,-5.07481 5.86506,0.64094 14.95751,0.78306 18.77824,6.01234 0,0 18.30013,-10.72331 18.30013,-10.72331 z" />
    <path
       style="fill:#66b933;fill-opacity:1;fill-rule:nonzero;stroke:none"
       id="path2616"
       d="m 749.13272,149.03346 c 0.31374,9.40206 0.34981,18.81241 0.40951,28.21897 -0.20021,13.14403 0.15577,26.26898 0.67116,39.40036 0.2726,6.65062 0.39045,13.30532 0.48888,19.96021 0,0 18.07766,-9.25956 18.07766,-9.25956 v 0 c -0.18517,-6.65309 -0.35307,-13.30664 -0.5566,-19.9592 -0.43228,-13.11233 -0.86548,-26.22019 -0.6227,-39.34302 0.0602,-9.5457 0.0992,-19.09492 0.40951,-28.63628 0,0 -18.87742,9.61852 -18.87742,9.61852 z" />
    <path
       style="fill:#66b933;fill-opacity:1;fill-rule:nonzero;stroke:none"
       id="path2618"
       d="m 760.76384,150.3964 c 3.0677,-3.49942 6.75373,-6.36686 10.06666,-9.60982 1.03779,-1.01587 2.00121,-2.10502 3.00181,-3.15753 1.1284,-1.08189 2.2568,-2.16377 3.38519,-3.24566 6.75245,-6.37781 13.21252,-13.25241 21.338,-17.89939 -5.31363,3.1537 -10.72757,6.14421 -15.94089,9.46109 -0.12478,0.0794 1.5951,-0.785 2.60199,0.14156 1.69565,1.56037 1.76106,5.12332 2.07175,7.11349 1.14876,10.09487 0.41157,20.26573 -0.0963,30.37702 -0.67614,6.57797 -1.62085,13.10776 -1.95284,19.71619 0.0473,4.23991 -0.29386,8.44649 -0.70721,12.66015 0,0 18.71386,-9.32254 18.71386,-9.32254 v 0 c 0.35461,-4.23632 0.5179,-8.47279 0.67386,-12.72028 0.42838,-6.53987 1.2529,-13.04289 1.63006,-19.58685 0.37822,-10.27252 1.06532,-20.58253 0.13008,-30.84499 -0.48712,-3.32023 -0.77933,-8.58493 -4.46264,-10.22634 -7.50256,-3.3434 -24.95857,21.1726 -22.15613,10.78458 -7.69497,5.17092 -14.12671,11.89506 -20.8815,18.19215 -5.63424,5.46951 -11.42568,10.77407 -16.89283,16.41059 0,0 19.47709,-8.24342 19.47709,-8.24342 z" />
    <path
       style="fill:#66b933;fill-opacity:1;fill-rule:nonzero;stroke:none"
       id="path2620"
       d="m 796.51974,149.20935 c 4.31473,-5.7306 9.3609,-10.88485 14.37634,-16.00705 2.0448,-2.04936 2.3328,-2.51493 4.62904,-4.16131 0.70721,-0.50706 2.95616,-1.83683 2.20417,-1.39891 -28.00135,16.30618 -18.37342,10.20433 -11.26781,7.35605 4.18612,-1.16869 10.74061,-5.36124 15.05789,-4.69854 0.84318,0.12943 1.59427,0.60754 2.39141,0.91131 0.66986,0.67557 1.45787,1.25165 2.00959,2.02671 3.98873,5.6035 4.23114,15.80975 4.70118,22.43453 -0.32103,10.94302 -1.4519,21.83763 -2.00339,32.77161 -0.86231,9.15788 -1.52892,18.32411 -1.87777,27.51596 -0.78305,7.37203 0.95729,14.48528 2.30714,21.65597 1.4574,7.34602 4.89639,11.08229 10.35444,15.86523 0,0 17.56082,-10.9347 17.56082,-10.9347 v 0 c -5.23557,-4.48145 -8.2125,-7.75786 -9.52758,-14.74115 -1.35779,-7.00136 -2.97173,-13.96681 -2.23149,-21.16561 0.34086,-9.14414 1.01439,-18.264 1.69161,-27.38858 0.59418,-10.99945 1.76618,-21.97122 1.88352,-32.98941 -0.50906,-7.49537 -0.72309,-17.3792 -5.03351,-23.85232 -0.66797,-1.00311 -1.58839,-1.81292 -2.38259,-2.71938 -0.95662,-0.53977 -1.8278,-1.27207 -2.86987,-1.61932 -4.90529,-1.63458 -10.92752,2.65924 -15.51919,4.01856 -11.61923,3.88934 -22.8107,10.19909 -31.27544,19.10355 -5.02728,5.26946 -9.92409,10.65847 -14.73883,16.11895 0,0 19.56032,-8.10215 19.56032,-8.10215 z" />
    <path
       style="fill:#66b933;fill-opacity:1;fill-rule:nonzero;stroke:none"
       id="path2622"
       d="m 884.01446,167.8518 c 5.55511,1.96722 11.12458,3.55947 16.9587,4.41892 5.19989,0.60619 10.47587,-0.0787 15.12227,-2.64378 19.37575,-10.69668 15.43617,-8.04308 25.10428,-14.98966 5.98049,-4.57183 11.32736,-9.91194 14.6411,-16.72065 1.65176,-6.67419 -2.17515,-10.96726 -6.89362,-15.0783 -6.2715,-4.09821 -13.99971,-4.43541 -21.25679,-3.92433 -1.29851,0.32339 -2.63211,0.52916 -3.89553,0.97016 -1.33933,0.4675 -2.65515,1.0319 -3.88174,1.74453 -15.81157,9.18624 -20.26017,10.58284 -30.07945,21.71951 -5.47382,7.16027 -7.25918,15.74281 -8.26693,24.4889 -1.18169,10.25205 -1.9904,20.55112 -1.40587,30.86503 0.11588,8.78614 4.19049,16.16127 8.90318,23.2778 5.90839,7.38559 12.43984,14.46284 20.37537,19.68392 1.55788,0.41804 3.0677,1.10346 4.67365,1.25414 6.21978,0.58358 12.88881,-2.04855 18.17937,-5.02788 22.54138,-12.69395 17.2078,-8.89172 29.34719,-18.54769 5.01575,-4.37175 9.42784,-9.39543 13.44242,-14.68996 1.02746,-1.35504 3.76509,-4.68102 3.84652,-6.90187 0.029,-0.78957 -0.58918,-1.46625 -0.88378,-2.19938 0,0 -18.4411,10.36604 -18.4411,10.36604 v 0 c 0.11499,0.2129 0.39542,0.40204 0.34497,0.63868 -0.45106,2.11578 -2.48863,4.61782 -3.61873,6.0975 -3.94546,5.16595 -8.35023,9.98779 -13.35772,14.14701 -7.21345,5.44617 -11.71772,8.3814 5.10572,-1.50254 1.98072,-1.16369 -4.03694,2.20823 -6.14774,3.11485 -4.89542,2.10266 -9.80228,3.47978 -15.05478,2.01962 -7.95159,-4.74708 -14.34142,-11.60734 -19.99322,-18.87921 -4.46177,-6.82207 -8.2681,-13.94315 -8.41982,-22.30951 -0.60073,-10.20156 0.25021,-20.39165 1.56493,-30.51498 1.2234,-8.48046 3.17158,-16.7381 8.92345,-23.4056 2.76061,-2.94158 2.63415,-2.93321 5.73992,-5.70221 1.07601,-0.95934 4.60311,-3.40061 3.28885,-2.8083 -4.91999,2.21734 -9.47666,5.16573 -14.222,7.73566 -1.21354,0.65721 2.36825,-1.43056 3.62651,-1.99748 1.17956,-0.53146 2.44126,-0.85759 3.66189,-1.28639 6.75984,-0.89525 14.02481,-0.67848 20.13776,2.67405 4.19345,3.37493 7.69336,6.86086 5.58538,12.5659 -3.58806,6.38254 -8.87936,11.44174 -14.79971,15.70212 -6.86233,4.6261 -8.78424,5.78632 10.29975,-5.43199 1.23147,-0.72391 -2.50518,1.38612 -3.82533,1.93182 -2.24915,0.92971 -4.61902,1.51828 -7.05143,1.65323 -1.13374,0.0629 -2.27008,-0.0636 -3.40513,-0.0955 -5.66897,-0.73589 -11.10182,-2.0789 -16.41042,-4.23339 0,0 -17.56234,11.82117 -17.56234,11.82117 z" />
    <path
       style="fill:#66b933;fill-opacity:1;fill-rule:nonzero;stroke:none"
       id="path2624"
       d="m 1035.7938,68.602739 c -2.5676,8.900852 -5.2818,17.790234 -8.1711,26.599682 -3.8399,11.327659 -7.0951,22.836329 -10.4386,34.315089 -3.1951,8.95145 -5.018,18.23152 -5.8583,27.67299 -0.2147,7.00939 -0.6849,14.05663 -0.4925,21.07314 0.1211,4.41405 0.4967,6.67014 1.0256,11.03881 1.4092,8.31194 4.6481,13.31224 10.0949,19.41136 0,0 17.8131,-10.8239 17.8131,-10.8239 v 0 c -5.5725,-5.77899 -8.3522,-9.89955 -9.7861,-18.09075 -1.2143,-10.57454 -1.0434,-21.19777 -0.173,-31.80344 0.9624,-9.28746 2.8158,-18.40108 5.8581,-27.25058 3.2702,-11.45287 6.4764,-22.928175 10.3553,-34.196331 2.9422,-9.028671 5.8681,-18.057461 8.93,-27.044918 0,0 -19.1574,9.098848 -19.1574,9.098848 z" />
    <path
       style="fill:#66b933;fill-opacity:1;fill-rule:nonzero;stroke:none"
       id="path2626"
       d="m 1065.9577,228.05024 c -3.5794,0.22819 -6.9492,1.66935 -10.0279,3.44532 -20.137,11.61636 -14.2401,7.45236 -22.9224,13.76372 -2.5004,2.44743 -5.7977,5.3418 -6.8962,8.84446 -0.1897,0.60476 -0.2042,1.25105 -0.3062,1.87658 0.6784,5.09661 5.6153,7.33318 9.9805,8.76334 4.6346,1.09562 8.988,-0.13163 12.9951,-2.55523 21.2492,-12.85205 15.3798,-7.04489 23.65,-16.00911 4.7817,-5.78761 8.8553,-13.47816 9.1375,-21.16113 0.054,-1.47967 -0.2257,-2.95271 -0.3386,-4.42907 -1.2921,-5.82399 -4.4363,-10.85016 -10.7683,-11.8281 -1.0422,-0.16097 -2.1084,-0.0567 -3.1626,-0.0851 -1.0041,0.1765 -2.0342,0.24232 -3.0125,0.5295 -0.9838,0.28881 -1.9467,0.67994 -2.8374,1.18778 -11.9908,6.83625 -20.2061,8.81927 -26.3255,19.35466 -2.4372,5.19145 -2.7117,10.97946 -3.5546,16.56776 -0.6899,3.66969 -0.5755,7.45128 3.9373,8.42246 0.8387,0.1805 1.715,0.0503 2.5726,0.0754 19.3508,-5.11104 27.5098,-14.62421 34.9636,-30.45967 0.9492,-2.93913 5.8329,-11.34245 0.236,-13.03962 -1.0473,-0.31756 -2.3019,-0.32703 -3.2788,0.16599 -7.3467,3.70735 -14.2728,8.19493 -21.4092,12.2924 -5.9097,4.86244 -11.2206,10.41159 -14.774,17.22558 -1.1926,2.15455 -3.4189,6.45001 -0.4153,8.34233 0.4683,0.29507 1.0516,0.34608 1.5774,0.51912 13.7386,-6.56457 16.8213,-7.0336 22.852,-15.59422 1.3763,-1.95361 2.6557,-3.73416 3.6919,-5.89274 -0.1263,-0.41606 -0.2526,-0.83212 -0.3789,-1.24818 0,0 -18.7426,10.2047 -18.7426,10.2047 v 0 c -0.037,-0.097 -0.074,-0.19409 -0.1105,-0.29113 -1.4994,2.65358 -3.2685,5.30495 -5.3715,7.52539 -4.7141,4.97746 -16.396,9.59323 15.0029,-7.51189 -2.19,3.89073 0.1101,-4.76843 1.0276,-4.62593 3.6987,-6.44649 8.9175,-11.80834 14.9433,-16.14435 -4.828,2.64862 -9.636,5.33419 -14.4841,7.94586 -0.7666,0.41293 1.4292,-1.02364 2.237,-1.34841 0.3823,-0.15367 1.0107,-0.39295 1.235,-0.0474 1.3793,2.12431 -2.022,8.13984 -2.5395,10.0145 -2.274,4.58669 -4.5937,9.1023 -8.044,12.95348 -1.0722,1.19673 -4.9782,3.93729 -3.4946,3.32021 4.2909,-1.78479 21.7067,-11.361 12.1431,-6.84981 -5.3415,1.55938 -5.2161,-0.70525 -4.5413,-5.21391 0.7378,-5.3663 1.069,-10.93261 3.8532,-15.72628 1.5352,-2.18826 1.7043,-2.68138 3.7222,-4.5151 0.7723,-0.70183 3.3781,-2.42733 2.4518,-1.94676 -5.1883,2.69166 -10.1572,5.78757 -15.28,8.60193 -0.8691,0.47749 1.6137,-1.17562 2.5151,-1.58912 0.8807,-0.40403 1.855,-0.56077 2.7825,-0.84115 0.9382,-0.12198 1.8685,-0.3767 2.8145,-0.36593 5.6948,0.0648 8.5145,4.3167 9.5964,9.41691 0.058,1.33266 0.2709,2.66749 0.1751,3.99798 -0.5446,7.56181 -4.781,14.53797 -9.7061,20.03056 -7.2147,6.98253 -3.1798,2.55602 11.5645,-4.97403 1.149,-0.58681 -2.1108,1.49749 -3.2533,2.0969 -1.4956,0.78468 -4.2061,1.70122 -5.9464,1.83915 -0.8587,0.068 -1.7183,-0.12342 -2.5774,-0.18513 -3.0455,-0.78962 -8.2451,-2.12993 -8.2524,-6.03846 1.423,-3.80509 4.3886,-6.85021 7.5876,-9.2614 7.3731,-5.00882 2.8066,-1.81216 -12.7783,7.00683 -0.8833,0.49983 1.7297,-1.06482 2.6263,-1.54056 0.6536,-0.34684 3.8418,-1.81652 4.6661,-2.09829 0.5931,-0.20271 1.2183,-0.2951 1.8275,-0.44266 0,0 17.1648,-12.47095 17.1648,-12.47095 z" />
    <path
       style="fill:#66b933;fill-opacity:1;fill-rule:nonzero;stroke:none"
       id="path2628"
       d="m 282.9934,367.99584 c -3.04002,-0.17836 -6.15074,-0.98876 -9.19029,-0.31232 -2.54514,0.56642 -3.50982,1.2775 -5.83851,2.49387 -6.89383,4.28005 -13.93911,8.3253 -20.68149,12.84017 -1.20531,0.80711 -2.10003,2.00464 -3.0819,3.07241 -4.83733,5.26053 -8.41505,11.24293 -11.92898,17.42133 -2.40027,4.31286 -4.37722,8.81626 -5.85674,13.5235 -0.59048,1.87866 -1.69503,5.37828 -1.51894,7.48657 0.0991,1.18612 0.65794,2.28777 0.9869,3.43166 0.81292,1.02664 1.44273,2.22977 2.43875,3.07994 6.33466,5.407 18.87393,6.30765 26.85081,7.15305 7.56149,1.02444 15.31357,1.02073 22.74249,2.87626 5.17906,1.59429 7.1206,6.25721 8.77306,10.99744 2.75709,9.13126 1.60871,14.94373 -1.68816,23.64332 -3.00472,5.9587 -7.2129,10.84581 -12.71981,14.61249 -1.40357,0.96003 -5.82662,3.50928 -4.36005,2.64856 4.52125,-2.65347 9.01628,-5.35136 13.52442,-8.02704 -6.91236,3.69306 -11.61066,3.06382 -18.62355,0.40127 -2.04587,-0.90513 -4.10023,-1.78381 -6.17971,-2.6082 0,0 -17.48292,11.77484 -17.48292,11.77484 v 0 c 2.12956,0.73903 4.22944,1.54735 6.27921,2.49032 7.06809,2.89347 12.6934,4.48983 19.93785,0.85275 9.45873,-5.3788 25.63115,-12.40026 33.27295,-22.34511 2.46473,-3.20754 3.16817,-4.93909 5.02744,-8.50726 1.24121,-3.53689 1.98637,-5.17211 2.61836,-8.85479 0.93483,-5.44741 0.0653,-10.86573 -1.37834,-16.13837 -1.80039,-5.36017 -4.02547,-10.70055 -9.71779,-12.79901 -7.56129,-2.27207 -15.63733,-1.75784 -23.40457,-2.84622 -7.13564,-0.64599 -19.81382,-1.49653 -25.61491,-6.01113 -0.80424,-0.62589 -1.30447,-1.56606 -1.95671,-2.34909 -0.21743,-0.89938 -0.61957,-1.77342 -0.65229,-2.69812 -0.0676,-1.91102 0.98748,-5.33669 1.5305,-6.99992 1.49206,-4.57002 3.5199,-8.92842 5.87401,-13.11584 3.57014,-6.10774 7.29835,-11.91862 12.32822,-16.95391 1.03268,-1.03379 4.57202,-3.54644 3.23388,-2.95947 -5.13164,2.25099 -9.84916,5.34761 -14.77373,8.02142 5.40906,-3.41155 7.57291,-4.23474 13.93821,-3.05738 0,0 17.29233,-12.23799 17.29233,-12.23799 z" />
    <path
       style="fill:#66b933;fill-opacity:1;fill-rule:nonzero;stroke:none"
       id="path2630"
       d="m 325.57803,450.57559 c 6.82039,0.92804 13.68451,0.8387 20.54596,0.64059 7.91891,-0.31065 15.45462,-2.59303 22.56757,-5.96257 18.4119,-9.97038 23.22734,-12.11445 33.186,-27.36993 2.93504,-4.76071 4.13331,-8.04295 0.26345,-12.52485 -0.5242,-0.36114 -0.98455,-0.8397 -1.5726,-1.08344 -5.56332,-2.3059 -13.43894,0.59151 -18.72052,2.4667 -14.18947,6.40886 -27.51904,14.46304 -37.96971,25.97766 -4.17278,5.06175 -5.98368,10.39512 -7.03167,16.74439 -0.49276,6.43736 0.62726,11.08331 3.99126,16.57077 6.33486,8.00393 15.0323,9.08827 24.60573,10.09046 1.91978,0.1025 3.83955,0.205 5.75932,0.3075 0,0 16.56668,-11.92364 16.56668,-11.92364 v 0 c -1.90749,-0.0686 -3.81499,-0.13731 -5.72248,-0.20597 -8.53492,-0.74271 -17.40882,-1.63209 -23.14225,-8.75795 -2.96074,-4.87737 -3.95476,-9.57632 -3.22931,-15.2638 1.10519,-5.84695 3.31974,-11.10451 7.36844,-15.57785 2.79428,-2.90846 5.65888,-5.60941 8.83496,-8.1081 6.3613,-5.00458 9.64883,-6.09264 -10.26734,5.08466 -1.32574,0.74403 2.65802,-1.47631 3.98704,-2.21447 4.43112,-1.76463 12.36812,-4.72879 17.22745,-3.69706 0.445,0.0945 0.82341,0.38705 1.23512,0.58058 3.3851,3.26773 0.74955,6.48829 -1.2189,9.85961 -2.24106,3.26834 -4.55007,6.53716 -7.25657,9.447 -5.33238,5.73298 -19.43069,13.54481 9.41929,-3.4808 -6.87531,3.81231 -14.4116,6.2647 -22.2729,6.90234 -6.63338,0.18575 -13.28361,0.32083 -19.86169,-0.73982 0,0 -17.29233,12.23799 -17.29233,12.23799 z" />
    <path
       style="fill:#66b933;fill-opacity:1;fill-rule:nonzero;stroke:none"
       id="path2632"
       d="m 441.58492,357.74491 c -1.61498,10.0329 -3.21178,20.07695 -4.49316,30.15986 -1.64833,11.9155 -3.54866,23.80194 -5.54461,35.6651 -2.15244,11.5865 -2.82598,23.35151 -3.27794,35.10327 0.0914,7.75602 -1.31134,15.65975 0.35767,23.30622 2.22511,6.10031 6.87806,9.86004 12.41061,12.84084 2.25251,1.20518 4.56539,2.2792 6.90458,3.3018 0,0 17.47463,-11.67528 17.47463,-11.67528 v 0 c -2.34688,-0.91966 -4.66765,-1.89577 -6.86992,-3.13408 -5.12705,-2.4255 -9.55663,-5.63431 -11.47104,-11.22321 -1.5118,-7.40905 -0.38497,-15.11573 -0.57696,-22.61897 0.42467,-11.66635 1.23221,-23.32762 3.32179,-34.83186 1.9896,-11.88752 3.95993,-23.78519 5.51919,-35.73731 1.34561,-10.18266 2.92963,-20.36152 5.24893,-30.37142 0,0 -19.00377,9.21504 -19.00377,9.21504 z" />
    <path
       style="fill:#66b933;fill-opacity:1;fill-rule:nonzero;stroke:none"
       id="path2634"
       d="m 537.47296,409.43095 c -6.3099,-0.71681 -11.57008,-1.10157 -17.75117,0.64475 -11.37438,5.12338 -23.57443,10.1996 -31.54591,20.04419 -2.66774,4.16932 -3.74443,8.89715 -4.26194,13.74846 -0.49984,5.80172 -0.49339,11.71076 1.31263,17.28356 1.59477,3.46481 3.73462,6.97465 7.78162,7.86138 1.03208,0.22614 2.10577,0.17617 3.15866,0.26425 5.01728,-0.29783 9.69435,-2.28301 13.94986,-4.87247 20.97037,-12.76036 15.2695,-6.58743 22.59289,-15.20998 4.57396,-6.73836 5.57472,-14.70619 6.16508,-22.61943 0.44129,-7.94553 0.0152,-15.94416 1.28956,-23.82427 0.1134,-0.28416 0.60817,-1.00015 0.3402,-0.85248 -6.33452,3.49064 -12.81872,6.79051 -18.71562,10.97827 -0.5979,0.4246 0.12563,1.46146 0.16801,2.19356 0.21309,3.68098 0.23476,7.37004 0.28891,11.05558 -0.13845,9.66743 0.37004,19.30328 1.30192,28.92106 0.75939,5.43851 1.64769,11.10578 5.18922,15.46693 1.29014,1.39984 2.94117,2.25534 4.59351,3.13247 0,0 17.66017,-11.59613 17.66017,-11.59613 v 0 c -1.44665,-0.71161 -2.96585,-1.3063 -4.17693,-2.40625 -3.41338,-3.84692 -4.13006,-9.27214 -4.94093,-14.17776 -1.08833,-9.54387 -1.48625,-19.13079 -1.21151,-28.73705 0.01,-3.33169 0.0225,-4.81363 -7e-5,-8.06908 -0.008,-1.08225 -0.007,-2.16474 -0.0365,-3.24662 -0.022,-0.81427 0.66331,-2.67304 -0.11748,-2.44089 -19.2994,5.73824 -18.75738,1.3596 -19.20812,9.13223 -0.45227,7.89222 -0.39097,15.79596 -0.90382,23.68409 -0.76586,7.62222 -1.89478,15.33236 -6.90309,21.4646 -6.41758,6.47696 -2.78568,2.36948 12.78198,-5.92024 1.07451,-0.57217 -2.06754,1.28778 -3.13262,1.87732 -1.53741,0.85099 -5.0137,2.6047 -6.73007,3.13236 -1.07836,0.33152 -2.21516,0.42915 -3.32275,0.64372 -0.88459,0.0851 -1.76743,0.31971 -2.65376,0.25532 -3.5815,-0.2602 -5.44604,-3.29563 -6.82728,-6.17943 -1.65268,-5.33166 -1.51473,-10.96412 -0.8882,-16.47074 0.70902,-4.54924 1.85474,-9.01198 4.82073,-12.66709 1.23712,-1.35823 1.80017,-2.08146 3.26475,-3.24471 0.7139,-0.56701 3.03293,-2.01733 2.23477,-1.57677 -28.97227,15.99158 -16.27948,9.21467 -9.81552,5.79829 5.99869,-2.37497 10.61163,-2.18586 16.91052,-1.24609 0,0 17.33827,-12.22491 17.33827,-12.22491 z" />
    <path
       style="fill:#66b933;fill-opacity:1;fill-rule:nonzero;stroke:none"
       id="path2636"
       d="m 570.54782,404.58373 c 0.17001,12.5758 -0.85275,25.17469 -1.86987,37.70556 -0.97063,11.51738 -1.81086,23.04471 -2.59075,34.57634 0,0 17.98069,-9.03226 17.98069,-9.03226 v 0 c 0.53822,-11.47176 1.22056,-22.93696 2.30734,-34.37195 1.15181,-12.82394 2.33706,-25.65643 3.07695,-38.50995 0,0 -18.90436,9.63226 -18.90436,9.63226 z" />
    <path
       style="fill:#66b933;fill-opacity:1;fill-rule:nonzero;stroke:none"
       id="path2638"
       d="m 586.279,423.16393 c 5.30327,-6.86414 11.38347,-13.11765 18.15421,-18.53151 11.46232,-6.83894 -7.26519,4.10089 -10.77836,6.34595 -0.93585,0.59805 2.02783,-0.91149 3.07164,-1.29087 2.64703,-0.96207 5.35177,-1.43602 8.12311,-1.84169 1.0623,-0.0997 2.67622,-0.40049 3.78629,-0.0238 3.02648,1.02687 3.88503,5.27771 4.6541,7.86486 1.79888,7.71042 1.28578,15.6506 0.88251,23.48293 0,0 18.56559,-9.36266 18.56559,-9.36266 v 0 c 0.25486,-8.05247 0.64212,-16.19333 -1.15033,-24.11741 -1.12979,-3.82482 -2.78249,-9.9593 -7.64425,-10.54682 -0.75582,-0.0913 -1.51923,0.10188 -2.27885,0.15283 -14.20844,1.60354 -24.27825,8.318 -36.36056,17.0527 -6.74504,5.80266 -12.92933,12.25108 -18.44571,19.2382 0,0 19.42061,-8.42266 19.42061,-8.42266 z" />
    <path
       style="fill:#66b933;fill-opacity:1;fill-rule:nonzero;stroke:none"
       id="path2640"
       d="m 634.15247,408.15406 c 2.23173,-7.98816 7.5724,-14.56443 12.10542,-21.35423 1.11911,-1.5193 2.64752,-3.77144 4.08078,-5.10832 0.49635,-0.46297 2.25632,-1.50705 1.66984,-1.16536 -5.69489,3.38202 -11.38977,6.76404 -17.08466,10.14606 0.21116,0.008 0.46881,-0.10971 0.63349,0.0227 0.35799,0.28779 0.52992,0.75041 0.79488,1.12561 3.22929,7.59616 4.08083,16.08246 4.95865,24.23359 0.80634,8.82568 0.90879,17.69406 0.96728,26.54989 -0.31298,9.35055 -1.3944,18.65827 -2.72915,27.91168 -0.38329,4.60476 -2.44649,9.7576 -0.28788,14.21537 0.35568,0.73452 0.89528,1.36477 1.34292,2.04716 2.11189,2.11345 1.00827,1.14292 3.30024,2.92362 0,0 17.80167,-11.26917 17.80167,-11.26917 v 0 c -2.06429,-1.46198 -1.08408,-0.6914 -2.94655,-2.30419 -0.3522,-0.50548 -0.79325,-0.95949 -1.05661,-1.51644 -1.91675,-4.05337 0.41553,-9.06869 0.41618,-13.24556 1.18101,-9.33553 2.22879,-18.71973 2.51011,-28.12857 -0.0632,-8.92098 -0.0602,-17.86295 -1.06874,-26.74041 -0.84809,-7.28497 -1.76046,-15.71342 -3.91213,-22.71742 -0.27379,-0.89123 -0.71432,-1.72243 -1.07148,-2.58365 -0.40808,-0.68521 -0.7173,-1.43997 -1.22425,-2.05563 -7.12611,-8.65413 -21.41184,9.07121 -26.0327,15.95292 -4.63658,7.07157 -9.90741,13.9835 -12.2173,22.24781 0,0 19.04999,-9.18744 19.04999,-9.18744 z" />
    <path
       style="fill:#66b933;fill-opacity:1;fill-rule:nonzero;stroke:none"
       id="path2642"
       d="m 749.87714,406.63944 c -7.10161,-0.11899 -14.08012,1.2959 -20.84096,3.35563 -10.04663,3.63133 -18.60384,9.62746 -27.71048,15.44492 -2.30823,1.47454 -6.31834,5.97344 -8.3704,8.07224 -4.47112,5.19042 -6.31749,9.58062 -7.21469,16.29632 -0.66705,7.8841 -0.50842,15.84553 1.55799,23.50725 2.09547,5.70283 6.70768,8.635 12.35961,10.07229 5.24077,0.53964 9.97814,-1.59955 14.4227,-4.16386 21.48858,-12.39792 15.1582,-7.60558 24.81389,-15.3133 7.65992,-6.93082 12.05629,-16.51291 16.63168,-25.585 2.7688,-7.16116 6.73706,-14.46487 7.28691,-22.27883 0.0776,-1.10321 -0.0168,-2.21181 -0.0252,-3.31772 -0.39472,-4.42295 -1.05761,-9.15579 -3.45261,-12.98695 -6.29026,-6.95199 -12.76993,4.40732 -20.69316,10.48377 -0.0869,0.0666 -0.69141,8.5696 -0.71999,8.92517 -0.65712,8.55128 -1.11626,17.11289 -1.31942,25.68657 -0.1835,7.10565 -0.29107,14.18982 0.23465,21.27955 0.54183,5.01486 2.25094,9.7433 5.2014,13.82159 3.94485,3.87888 9.15862,6.01631 14.34542,7.68784 0,0 17.34741,-11.85876 17.34741,-11.85876 v 0 c -4.87257,-1.30174 -9.8027,-3.1152 -13.57626,-6.57277 -2.82983,-3.67149 -4.26248,-8.11775 -4.78187,-12.70267 -0.55899,-6.9939 -0.42286,-14.00358 -0.29076,-21.01407 0.21447,-8.53565 0.51372,-17.07907 1.43364,-25.57301 0.0619,-0.53384 0.62928,-5.62437 0.81406,-6.5654 0.1318,-0.67118 1.18425,-2.25521 0.56079,-1.97388 -6.09154,2.74869 -11.58027,6.69354 -17.57347,9.65052 -0.30749,0.15172 -0.17872,-0.81242 0.0906,-1.02463 0.20537,-0.16183 0.43141,0.29555 0.64712,0.44332 2.32987,3.33664 2.7884,7.82301 3.13443,11.75776 -0.16716,8.66149 -3.74164,16.74497 -7.26252,24.53243 -4.60558,8.98887 -9.24487,18.34148 -17.23053,24.8449 -7.57765,5.58927 -5.08569,3.53399 10.46668,-5.27781 1.28354,-0.72724 -2.57631,1.43851 -3.87929,2.13032 -3.02956,1.60854 -5.91954,2.94503 -9.42297,2.98527 -5.06835,-0.74657 -9.31715,-3.05338 -11.21399,-8.06916 -2.05899,-7.37784 -2.25063,-15.1028 -1.19116,-22.67785 1.214,-5.94353 3.42929,-10.69876 7.7024,-15.11767 1.88066,-1.88519 3.32788,-3.39596 5.34498,-5.16256 1.01082,-0.88529 4.32453,-3.14085 3.11161,-2.56266 -5.01438,2.39028 -9.74494,5.33554 -14.59814,8.03812 -1.06384,0.59241 2.12854,-1.18707 3.22948,-1.70731 1.10768,-0.52342 2.25984,-0.94701 3.38976,-1.42052 6.42172,-2.29108 13.26873,-3.91115 20.12485,-3.65399 0,0 17.11586,-12.4354 17.11586,-12.4354 z" />
    <path
       style="fill:#66b933;fill-opacity:1;fill-rule:nonzero;stroke:none"
       id="path2644"
       d="m 832.71358,374.19329 c -0.58199,1.53684 -1.8341,4.86496 -2.35914,6.13264 -2.47554,5.97718 -1.84126,3.74664 -4.24202,10.35333 -1.93409,5.32245 -2.7032,8.09689 -4.3766,13.56503 -3.94464,13.78174 -6.82483,27.87535 -8.90567,42.05409 -0.68183,8.59563 -2.52714,17.82297 0.1114,26.28643 0.38328,1.22944 0.97056,2.38574 1.45584,3.57861 3.37331,6.29162 8.74226,11.52566 15.40766,14.2727 1.80986,0.74591 3.72291,1.21153 5.58437,1.81729 10.86942,2.22195 22.0331,1.90997 33.06897,1.88333 0,0 16.69761,-12.22849 16.69761,-12.22849 v 0 c -10.9428,0.77576 -22.064,0.84543 -32.88556,-1.14521 -1.75819,-0.54117 -3.56059,-0.95541 -5.27457,-1.62352 -6.27208,-2.44484 -11.29576,-7.2565 -14.46808,-13.11898 -0.44702,-1.08666 -0.98601,-2.1399 -1.34105,-3.25999 -2.5862,-8.15882 -0.83751,-17.11304 -0.15582,-25.40375 2.0714,-14.06654 4.80133,-28.07509 8.90854,-41.70086 3.33944,-10.381 7.28837,-20.48957 12.03596,-30.31402 0,0 -19.26184,8.85137 -19.26184,8.85137 z" />
    <path
       style="fill:#66b933;fill-opacity:1;fill-rule:nonzero;stroke:none"
       id="path2646"
       d="m 778.73655,438.72331 c 11.36475,-0.75486 22.70927,-1.70591 34.08541,-2.29289 12.08612,-0.75669 24.17594,-0.28513 36.20896,0.92638 0,0 16.84732,-12.00853 16.84732,-12.00853 v 0 c -12.25803,-0.9979 -24.55175,-1.53491 -36.84712,-0.81006 -11.07762,0.45911 -22.12975,1.26114 -33.20318,1.76747 0,0 -17.09139,12.41763 -17.09139,12.41763 z" />
    <path
       style="fill:#66b933;fill-opacity:1;fill-rule:nonzero;stroke:none"
       id="path2648"
       d="m 990.10792,368.7992 c -3.08054,14.56407 -7.01234,28.94794 -10.46254,43.43378 -6.14878,27.17786 -11.9538,54.43139 -17.73746,81.68869 -5.15477,22.60836 -9.83349,45.32169 -15.14939,67.89316 -2.64238,10.57626 -4.27552,21.37589 -7.15065,31.8927 0,0 18.73353,-8.99875 18.73353,-8.99875 v 0 c 2.12772,-10.46249 3.66682,-21.03922 6.15364,-31.4305 5.07226,-22.47414 9.50192,-45.08547 14.43651,-67.58992 5.72011,-27.34594 11.61642,-54.6603 18.1666,-81.82099 3.80254,-14.80638 7.98874,-29.49926 12.11044,-44.21818 0,0 -19.10068,9.15001 -19.10068,9.15001 z" />
    <path
       style="fill:#66b933;fill-opacity:1;fill-rule:nonzero;stroke:none"
       id="path2650"
       d="m 952.92378,517.83802 c -8.27022,-2.56552 -16.79456,-2.69663 -25.3528,-2.20477 -4.89181,0.54463 -9.80563,0.99931 -14.55167,2.3834 -11.02082,3.21399 -21.88336,11.08435 -31.08676,16.40566 -5.78794,4.39659 -11.25674,9.23658 -15.56233,15.13922 -2.21595,3.0379 -3.04252,4.84117 -4.77259,8.08342 -0.43691,1.22964 -1.04637,2.41103 -1.31073,3.68892 -1.67431,8.09367 6.39584,12.36665 12.20641,15.765 7.57429,4.01208 15.82467,6.64275 24.30935,7.86817 5.64582,0.81541 10.06924,0.88687 15.78028,1.16222 9.4831,-0.25363 19.10773,-0.14316 28.47129,-1.91368 4.53873,-0.85821 7.23403,-1.76008 11.63012,-3.0465 1.5182,-0.50816 3.0364,-1.01633 4.55461,-1.52449 0,0 16.22108,-12.64306 16.22108,-12.64306 v 0 c -1.54667,0.56731 -3.09334,1.13462 -4.64,1.70193 -4.11594,1.29344 -7.29521,2.39107 -11.53178,3.3153 -9.32946,2.03528 -18.97877,2.03057 -28.47125,2.4312 -14.02319,-0.6343 -26.52497,-1.6801 -39.13574,-8.4951 -3.71661,-2.19168 -10.4501,-5.18787 -10.94527,-10.31988 -0.22869,-2.37016 0.88413,-4.33868 1.71902,-6.44063 5.27588,-9.45335 11.60744,-16.07125 20.60882,-22.1468 -4.36987,2.47243 -8.79751,4.84543 -13.1096,7.41729 -1.40776,0.83963 2.89448,-1.54445 4.38955,-2.21639 5.95634,-2.67699 12.2803,-3.79362 18.73769,-4.46821 8.20444,-0.61183 16.43833,-0.71678 24.34744,1.92787 0,0 17.49486,-11.87009 17.49486,-11.87009 z" />
    <path
       style="fill:#66b933;fill-opacity:1;fill-rule:nonzero;stroke:none"
       id="path2652"
       d="m 1055.3454,496.7348 c -8.523,1.75217 -17.1544,3.29958 -25.1375,6.85472 -7.0099,4.41521 -14.2547,8.47766 -21.0296,13.24563 -1.339,0.94237 -2.1417,2.47923 -3.1487,3.77036 -3.8284,4.90871 -6.51796,10.194 -8.71217,15.98769 -1.31112,5.43899 -2.20323,11.08854 -2.19211,16.70274 0.005,2.60791 0.37079,5.3122 0.65665,7.89962 0.2785,1.10074 0.36812,2.26745 0.83551,3.30222 2.04166,4.52004 6.64302,6.21535 11.29342,5.02287 1.1974,-0.30707 2.2973,-0.91386 3.446,-1.37079 7.1457,-4.3838 14.5182,-8.41792 21.4373,-13.15138 1.5076,-1.03139 6.2045,-7.31076 7.1052,-8.62277 3.3645,-4.901 6.2141,-10.10659 8.8444,-15.4232 3.4716,-6.88184 5.1594,-14.32851 6.2878,-21.88745 0.1223,-0.13596 0.5258,-0.49827 0.3669,-0.4079 -6.3525,3.6113 -13.1585,6.55608 -18.9712,10.98422 -0.8898,0.67783 0.1176,2.23415 0.1524,3.35214 0.1697,5.45544 0.3618,10.86831 0.7509,16.3151 0.7913,7.15997 0.8817,15.81245 3.5513,22.60093 0.3986,1.01337 0.9454,1.96195 1.4181,2.94292 3.5603,5.62322 9.1037,9.26799 14.541,12.85832 0,0 17.2989,-11.11464 17.2989,-11.11464 v 0 c -5.2002,-3.26548 -10.5074,-6.60547 -13.6861,-12.05198 -3.7337,-7.63028 -4.355,-16.24737 -5.0195,-24.60933 -0.3259,-5.49366 -0.4541,-10.9023 -0.3145,-16.40376 0.03,-1.19278 1.2702,-3.83753 0.1057,-3.57795 -19.6212,4.3734 -19.7246,1.06182 -19.0641,8.41934 -0.8147,7.29899 -2.7609,14.37693 -6.0194,20.98572 -3.5595,6.88182 -7.4089,13.77327 -12.6602,19.54025 -1.1975,1.31507 -5.4884,4.3382 -3.818,3.72735 4.9483,-1.80957 9.3,-4.95502 13.95,-7.43253 -3.9797,2.25891 -9.9558,5.25874 -12.6591,-0.62434 -0.4316,-0.93929 -0.5173,-2.00165 -0.776,-3.00247 -0.8739,-7.96905 -0.5245,-16.00056 1.95,-23.69315 1.6134,-4.01625 3.364,-7.81145 5.8541,-11.3844 5.7054,-8.18682 15.5552,-13.29905 -7.984,0.0433 1.1383,-0.60876 2.2322,-1.30887 3.4148,-1.82629 6.6356,-2.90333 13.996,-3.67592 20.9662,-5.38465 0,0 16.9656,-12.58645 16.9656,-12.58645 z" />
    <path
       style="fill:#66b933;fill-opacity:1;fill-rule:nonzero;stroke:none"
       id="path2654"
       d="m 1109.1462,470.62605 c 0.4077,9.74 0.3417,19.49478 0.285,29.24126 -0.04,10.08505 -0.01,20.17011 0.011,30.25516 -0.2074,10.23634 0.4013,20.45416 0.8174,30.67637 0.8425,4.70945 0.9347,11.73594 3.8576,15.79442 0.5138,0.7134 1.239,1.24761 1.8585,1.87142 0.8949,0.45808 1.7388,1.03372 2.6848,1.37424 6.4161,2.30967 13.788,1.70207 20.428,1.10823 3.447,-0.3312 6.8176,-1.12429 10.192,-1.86283 0,0 16.6515,-12.68927 16.6515,-12.68927 v 0 c -3.3753,0.82933 -6.7179,1.83587 -10.1906,2.19085 -7.2661,0.84193 -14.9099,1.5826 -21.8802,-1.17461 -0.494,-0.4086 -1.0843,-0.72297 -1.482,-1.22582 -2.8229,-3.5696 -2.9894,-10.59534 -3.7743,-14.8451 -0.5625,-10.16575 -1.1637,-20.33414 -0.9036,-30.52139 0.021,-10.08868 0.051,-20.17738 0.011,-30.26607 -0.058,-9.84339 -0.1168,-19.69446 0.285,-29.53166 0,0 -18.8505,9.6048 -18.8505,9.6048 z" />
    <path
       style="fill:#66b933;fill-opacity:1;fill-rule:nonzero;stroke:none"
       id="path2656"
       d="m 1095.9594,520.57949 c 7.4758,0.43362 14.9561,0.79112 22.4391,1.07428 4.2039,0.18939 8.4127,0.15682 12.6196,0.16848 0,0 16.8373,-12.22104 16.8373,-12.22104 v 0 c -4.1868,-0.0274 -8.3731,-0.0873 -12.5595,-0.14786 -7.3815,-0.15883 -14.7749,-0.36421 -22.1234,-1.11965 0,0 -17.2131,12.24579 -17.2131,12.24579 z" />
    <path
       style="fill:#66b933;fill-opacity:1;fill-rule:nonzero;stroke:none"
       id="path2658"
       d="m 1248.8427,499.29106 c -5.0774,-1.29069 -10.1842,-3.02357 -15.4568,-3.33212 -4.517,-0.26434 -6.1321,0.20529 -10.6547,0.84791 -6.6448,1.43982 -13.8194,2.20204 -19.8528,5.62527 -21.2994,12.08483 -15.7549,7.07472 -24.5241,15.80782 -4.9568,6.94141 -9.2657,14.40203 -12.4164,22.34465 -1.8447,4.65016 -2.4053,7.06225 -3.7479,11.7976 -0.1798,2.03624 -0.5353,4.06457 -0.5394,6.10873 -0.015,7.3899 2.1046,15.60677 7.9818,20.56616 1.4553,1.22799 3.2435,1.99569 4.8652,2.99353 8.307,2.2114 16.7751,1.33137 24.2252,-3.10298 22.5354,-13.41311 16.731,-7.34016 25.7085,-18.26398 7.2273,-11.09217 9.8526,-24.07502 12.6145,-36.79846 1.0908,-4.70311 1.697,-9.50302 2.694,-14.22391 0.1574,-0.74533 1.2395,-2.56265 0.5616,-2.21523 -19.7289,10.11021 -18.4707,4.56605 -18.7104,15.53009 -1.0331,15.00494 -2.5971,29.97041 -3.977,44.94723 -0.2373,4.36033 -0.462,9.24358 3.1146,12.49757 3.3191,3.01979 7.699,3.02397 11.8496,3.02087 0,0 16.7123,-12.27446 16.7123,-12.27446 v 0 c -3.4211,0.36228 -7.6478,0.9319 -10.6653,-1.34321 -3.3604,-2.53372 -2.8235,-7.38381 -2.8491,-10.97647 0.9742,-15.09986 2.4573,-30.1476 4.2763,-45.16885 0.7539,-10.78872 1.8699,-7.28102 -18.674,2.95323 -0.648,0.32284 -0.1913,1.43535 -0.2922,2.15232 -0.4392,3.12365 -0.7359,5.21541 -1.303,8.41863 -0.3268,1.84558 -0.6956,3.68348 -1.0434,5.52522 -2.6797,12.52267 -5.3812,25.34175 -13.1009,35.88852 -7.5091,8.08068 -4.8354,4.24763 8.9912,-2.4318 1.7529,-0.84684 -3.3061,2.08423 -5.0893,2.86534 -5.758,2.52218 -11.7288,3.01239 -17.8723,1.85735 -1.5003,-0.8183 -3.1555,-1.40122 -4.5011,-2.45488 -5.5767,-4.36686 -7.4701,-12.27705 -7.2722,-19.01801 0.057,-1.9481 0.477,-3.86859 0.7154,-5.80288 3.4577,-12.0649 8.4987,-23.68764 16.8565,-33.22948 6.9691,-6.05745 5.5053,-4.3857 -10.7045,4.85966 -1.3535,0.77201 2.7415,-1.49197 4.1749,-2.10317 4.9217,-2.09864 10.2143,-3.05114 15.4329,-4.06561 3.9198,-0.69488 6.1978,-1.31433 10.157,-1.2144 5.0445,0.12732 9.9831,1.76505 14.7529,3.23336 0,0 17.5624,-11.82116 17.5624,-11.82116 z" />
    <path
       style="fill:#66b933;fill-opacity:1;fill-rule:nonzero;stroke:none"
       id="path2660"
       d="m 1288.7278,500.60205 c -2.3551,12.15108 -4.4326,24.35098 -6.7141,36.51563 -2.465,14.26304 -4.6494,28.57653 -6.304,42.95701 0,0 18.4449,-9.17017 18.4449,-9.17017 v 0 c 1.1771,-14.27755 3.0519,-28.49935 5.8828,-42.54862 2.3722,-12.35979 4.5119,-24.78382 7.6942,-36.96889 0,0 -19.0038,9.21504 -19.0038,9.21504 z" />
    <path
       style="fill:#66b933;fill-opacity:1;fill-rule:nonzero;stroke:none"
       id="path2662"
       d="m 1281.9556,511.50977 c 3.2871,-6.47984 7.3119,-12.65653 12.3488,-17.92174 1.4504,-1.51606 3.0202,-2.91314 4.5302,-4.36972 3.2587,-2.82531 6.1218,-5.45439 9.6378,-7.94935 1.4754,-1.04698 6.1395,-3.82947 4.58,-2.91236 -26.9357,15.84038 -15.1939,7.83819 -9.6108,6.90853 0.9971,-0.16603 2.0215,0.0248 3.0322,0.0372 0.8707,0.67967 1.9041,1.19124 2.6122,2.03901 5.8738,7.03241 6.3797,21.5723 7.0965,30.23204 1.0448,13.55939 0.3691,27.15852 0.8584,40.73206 0.3899,2.27456 0.4351,3.89808 1.6258,5.91402 1.9917,3.37196 5.5292,5.96393 8.645,8.1995 0.6895,0.44805 1.3791,0.89609 2.0687,1.34414 0,0 17.6544,-11.36632 17.6544,-11.36632 v 0 c -0.6854,-0.41969 -1.3708,-0.83937 -2.0562,-1.25905 -2.8895,-1.88037 -6.1771,-4.13557 -8.0205,-7.1489 -1.039,-1.69853 -1.1328,-3.26765 -1.5033,-5.19698 -1.0439,-13.4564 -0.7839,-26.96796 -1.5126,-40.4425 -0.715,-9.73359 -1.1235,-23.77276 -7.2405,-31.93856 -0.9146,-1.22104 -2.1734,-2.14159 -3.2602,-3.21238 -1.1886,-0.17917 -2.3653,-0.59665 -3.5659,-0.53751 -1.3955,0.0687 -2.8449,0.28198 -4.0907,0.91466 -7.4299,3.77331 -14.601,8.03928 -21.801,12.23458 -5.153,3.00249 -9.4509,7.27629 -13.9109,11.16109 -1.5197,1.52288 -3.1022,2.98557 -4.559,4.56863 -5.122,5.5657 -9.0452,12.03808 -12.9037,18.50195 0,0 19.3453,-8.53207 19.3453,-8.53207 z" />
    <path
       style="fill:#66b933;fill-opacity:1;fill-rule:nonzero;stroke:none"
       id="path2664"
       d="m 1430.2434,465.19309 c -10.9162,1.85836 -20.8415,7.19879 -30.4385,12.47388 -10.5392,6.84344 -23.4824,12.05704 -32.7308,21.18149 -4.0228,3.96893 -7.2189,8.46684 -10.1547,13.25362 -3.5296,7.87527 -5.3656,16.87207 -2.6453,25.30468 0.4508,1.3974 1.1346,2.70862 1.7019,4.06293 4.0027,5.52272 9.9474,8.79083 16.9081,8.49725 5.3166,-0.22424 6.9519,-1.43407 11.835,-3.47052 7.7266,-4.56953 15.6073,-8.88802 23.1798,-13.70859 2.0355,-1.29573 3.7936,-2.98845 5.5862,-4.60348 4.9684,-4.47617 9.4823,-9.51156 12.8226,-15.33145 0.9688,-1.68789 1.7245,-3.48944 2.5867,-5.23415 3.1865,-7.17234 4.6101,-14.76259 4.8909,-22.54935 0.025,-0.85341 -0.068,-1.71862 0.076,-2.56022 0.068,-0.40041 0.3647,-0.72595 0.547,-1.08893 -5.9937,3.57381 -12.3915,6.54389 -17.9812,10.72142 -0.5956,0.44509 0.6497,1.33983 0.9116,2.03569 1.1783,3.13169 1.8776,5.76554 2.8339,9.01677 3.1952,12.67752 6.422,25.76831 6.1127,38.94857 -0.067,2.87254 -0.4352,5.73016 -0.6529,8.59524 -2.6995,15.01376 -9.0416,28.96719 -17.3364,41.69518 -4.7626,7.30804 -7.9652,10.97489 -13.3571,17.69588 -6.6772,6.87215 -7.293,8.02307 -14.8088,13.77172 -2.4692,1.88864 -10.7013,5.94868 -7.6555,5.32622 3.4645,-0.70804 8.0797,-2.19061 9.0081,-5.60264 0.8049,-2.95812 -5.5977,2.51042 -8.4632,3.59993 -2.884,1.09654 -5.8483,1.96886 -8.7725,2.95329 -14.8965,4.34575 -30.5218,5.27764 -45.7204,1.93691 -2.1311,-0.46844 -4.2067,-1.16115 -6.3101,-1.74172 -1.7389,-0.98418 -3.6259,-1.74359 -5.2168,-2.95254 -5.1464,-3.91094 -10.3743,-11.76881 -8.3598,-18.58234 0.4821,-1.63057 1.6601,-2.96795 2.4902,-4.45192 -3.7098,0.62379 12.9133,-9.0993 9.6527,-6.8708 -3.8684,2.64389 -8.4401,4.33414 -11.8768,7.51904 -1.378,1.27701 3.5753,-1.19428 5.4224,-1.53763 4.6418,-0.86286 7.2666,-0.49414 11.9786,-0.3181 13.441,1.49517 25.8428,6.87758 37.7636,12.95926 9.0578,5.16428 18.107,10.2601 27.5576,14.67319 9.4982,4.91594 19.7529,7.23398 30.2463,8.76138 6.1168,0.57611 11.9174,-0.73262 17.7587,-2.28667 0,0 16.2257,-12.51344 16.2257,-12.51344 v 0 c -5.6734,1.8308 -11.3037,3.42889 -17.3623,3.08741 -10.2771,-1.50203 -20.3925,-3.6359 -29.728,-8.39739 -0.7906,-0.36519 -8.1719,-3.76643 -8.9393,-4.15562 -6.3697,-3.23016 -12.3769,-7.13939 -18.7689,-10.32871 -12.1157,-6.17003 -24.6948,-11.59987 -38.2439,-13.65425 -4.4024,-0.32539 -7.8747,-0.8162 -12.2792,-0.23693 -10.6428,1.39972 -19.8767,8.78288 -28.7048,13.77143 -1.8339,1.03632 -3.6515,2.14528 -5.2513,3.51565 -1.537,1.31659 -2.7271,2.99103 -4.0906,4.48655 -0.7162,1.75584 -1.7928,3.40492 -2.1485,5.26753 -1.4411,7.54567 3.9788,15.89188 9.6082,20.35234 1.6993,1.34645 3.7167,2.2334 5.5751,3.3501 2.1954,0.5975 4.362,1.31325 6.5862,1.79248 15.4075,3.31972 31.3045,2.7708 46.5042,-1.3131 4.746,-1.51726 12.9493,-3.91 17.4108,-6.24936 18.6657,-9.78711 33.3347,-17.90526 46.8772,-33.62017 5.2935,-6.81357 8.3779,-10.45891 13.0517,-17.854 8.2915,-13.11923 14.5969,-27.4404 17.4582,-42.74511 0.2075,-2.94135 0.5747,-5.87578 0.6224,-8.82406 0.217,-13.39333 -3.248,-26.59206 -5.864,-39.6179 -0.4421,-1.68309 -1.9463,-7.52252 -2.5495,-9.42975 -0.3305,-1.04485 -0.089,-3.42368 -1.1321,-3.08653 -18.2764,5.90948 -19.3338,3.56045 -19.3612,13.58808 -0.3951,7.43697 -1.65,14.73849 -4.8408,21.54928 -0.8708,1.65854 -1.6377,3.37588 -2.6124,4.9756 -3.3996,5.58001 -7.9353,10.46256 -12.89,14.69162 -1.8337,1.56511 -8.0187,5.14706 -5.717,4.42999 4.1796,-1.30213 7.7013,-4.16522 11.5519,-6.24783 -1.865,0.92757 -3.6443,2.0527 -5.5952,2.7827 -6.1161,2.28862 -13.2502,2.04082 -18.3946,-2.33853 -1.0016,-0.85269 -1.7437,-1.96998 -2.6156,-2.95497 -0.5208,-1.24674 -1.1539,-2.45227 -1.5623,-3.74021 -2.5436,-8.02294 -0.4972,-16.5001 3.2265,-23.7728 4.1546,-6.29422 8.7972,-11.85286 14.8635,-16.42165 1.655,-1.2464 7.0034,-4.38567 5.1182,-3.52636 -4.0354,1.83939 -7.7435,4.32525 -11.6153,6.48788 9.2374,-5.19199 18.6367,-10.25541 29.0323,-12.7215 0,0 17.1648,-12.47096 17.1648,-12.47096 z" />
    <path
       style="fill:#66b933;fill-opacity:1;fill-rule:nonzero;stroke:none"
       id="path2666"
       d="m 1474.8335,390.29801 c 0.359,7.73352 0.2643,15.47848 0.2157,23.2174 -0.089,8.60993 0.1973,17.2192 -0.1003,25.82496 0.1552,11.72865 -1.8172,23.27464 -3.4668,34.83994 -2.0405,10.80562 -3.4746,21.69517 -4.3798,32.65025 -0.8874,9.22895 -0.1939,18.45355 0.6908,27.64707 1.4291,9.77295 3.7802,19.35938 6.0709,28.95461 2.2656,8.68105 5.686,16.99895 8.1918,25.6006 0,0 18.3337,-10.04479 18.3337,-10.04479 v 0 c -2.7585,-8.4454 -6.5265,-16.55613 -8.5081,-25.25967 -2.1523,-9.55398 -4.5089,-19.07866 -5.7906,-28.80203 -0.9202,-9.07516 -1.4037,-18.18623 -0.5777,-27.2958 0.8081,-10.906 2.2797,-21.72903 4.3046,-32.47811 1.555,-11.65675 3.419,-23.27761 3.4631,-35.07427 0.2895,-8.65511 0.2559,-17.31588 0.2414,-25.9752 -0.049,-7.81229 -0.138,-15.6301 0.2157,-23.43721 0,0 -18.9044,9.63225 -18.9044,9.63225 z" />
    <path
       style="fill:#66b933;fill-opacity:1;fill-rule:nonzero;stroke:none"
       id="path2668"
       d="m 1504.3489,609.58675 c -15.5678,6.28236 -21.8409,9.42028 -27.3448,22.05903 -0.8639,3.24456 -4.0718,8.08811 -2.0995,11.53855 0.3294,0.57622 0.9006,0.97513 1.351,1.4627 0.7541,0.18323 1.4864,0.5573 2.2624,0.54971 0.8499,-0.008 1.733,-0.18901 2.4791,-0.5961 11.2223,-6.12354 19.3157,-8.90949 25.9705,-18.23865 2.2236,-5.39623 5.6552,-11.05915 5.2262,-17.07494 -0.7141,-0.48547 -1.3484,-1.79605 -2.1423,-1.45641 -17.774,7.60403 -23.3576,11.18969 -32.0042,25.53379 -1.5846,3.33972 -8.528,15.80224 -0.5011,16.88976 1.1257,0.15252 2.2381,-0.39109 3.3571,-0.58664 15.7961,-8.98293 19.7535,-9.33057 26.5508,-21.53892 0.9074,-1.62976 2.6634,-4.96016 2.8336,-7.02767 0.077,-0.9399 -0.3011,-1.86196 -0.4517,-2.79295 -2.8676,-3.16757 -1.1715,-1.8638 -5.1434,-3.8389 0,0 -17.391,11.57537 -17.391,11.57537 v 0 c 3.1016,1.12034 1.8347,0.35294 3.9437,2.04753 0.058,0.63892 0.2764,1.28339 0.1742,1.91675 -0.3117,1.93191 -1.8925,4.88693 -2.7941,6.41102 -5.4577,9.22672 -14.0845,12.79944 8.7284,0.38959 -0.3731,0.2339 -3.0083,2.37847 -4.1591,1.74544 -2.7715,-1.52457 2.7969,-11.89327 3.6494,-13.48134 2.5937,-4.00899 5.1538,-7.84415 8.7419,-11.0579 0.9423,-0.84401 4.1426,-2.86602 2.9982,-2.32672 -15.4091,7.26207 -18.9694,13.56972 -15.1592,7.27365 0.082,5.55411 -3.1161,10.95199 -5.6986,15.65994 -1.6456,1.9668 -1.8049,2.30173 -3.7527,4.03188 -0.7051,0.62621 -3.0354,2.21306 -2.1961,1.7833 28.7814,-14.73666 18.5683,-10.52859 12.4692,-6.97885 -0.2357,-0.11381 -0.5614,-0.124 -0.7072,-0.34143 -1.3885,-2.07131 1.8681,-8.12067 2.4975,-10.14303 1.1795,-2.35335 2.3172,-4.68876 4.1238,-6.64468 0.5532,-0.59893 2.5144,-2.04034 1.7892,-1.66778 -12.198,6.26648 -21.5422,12.78643 -14.4056,7.8635 0,0 16.8044,-12.9386 16.8044,-12.9386 z" />
    <path
       sodipodi:type="star"
       style="fill:#66b933;fill-opacity:0.972549;stroke:#00ff00"
       id="path2670"
       sodipodi:sides="5"
       sodipodi:cx="1274.2856"
       sodipodi:cy="115.71429"
       sodipodi:r1="42.809498"
       sodipodi:r2="21.404749"
       sodipodi:arg1="-0.44872334"
       sodipodi:arg2="0.17959519"
       inkscape:flatsided="false"
       inkscape:rounded="0"
       inkscape:randomized="0"
       d="m 1312.8571,97.142858 -17.511,22.394982 8.5212,27.12117 -26.71,-9.73348 -23.1606,16.48508 1.0032,-28.41061 -22.8352,-16.93283 27.3301,-7.82524 9.0476,-26.950139 15.8877,23.574337 z"
       inkscape:transform-center-x="1.7747622"
       inkscape:transform-center-y="-2.3630887" />
    <path
       sodipodi:type="star"
       style="fill:#66b933;fill-opacity:0.972549;stroke:#00ff00"
       id="path2674"
       sodipodi:sides="5"
       sodipodi:cx="1341.4286"
       sodipodi:cy="345.71429"
       sodipodi:r1="33.956757"
       sodipodi:r2="16.978378"
       sodipodi:arg1="-0.38831872"
       sodipodi:arg2="0.23999981"
       inkscape:flatsided="false"
       inkscape:rounded="0"
       inkscape:randomized="0"
       d="m 1372.8572,332.85715 -14.9369,16.89295 5.4481,21.88147 -20.6819,-8.98556 -19.1269,11.94318 2.1547,-22.44632 -17.2692,-14.50018 22.0136,-4.88703 8.454,-20.90479 11.4504,19.42597 z"
       inkscape:transform-center-x="0.77745796"
       inkscape:transform-center-y="-2.4942627" />
    <path
       sodipodi:type="star"
       style="fill:#66b933;fill-opacity:0.972549;stroke:#00ff00"
       id="path2676"
       sodipodi:sides="5"
       sodipodi:cx="80"
       sodipodi:cy="95.714287"
       sodipodi:r1="49.754498"
       sodipodi:r2="24.877251"
       sodipodi:arg1="-0.68370931"
       sodipodi:arg2="-0.055390781"
       inkscape:flatsided="false"
       inkscape:rounded="0"
       inkscape:randomized="0"
       d="M 118.57143,64.285717 104.8391,94.337021 121.80957,122.68593 88.985561,118.91207 67.26831,143.81225 60.714285,111.42857 30.32181,98.468818 59.095212,82.228463 62.02888,49.318717 86.365845,71.665303 Z"
       inkscape:transform-center-x="3.9343087"
       inkscape:transform-center-y="0.85119705" />
    <path
       sodipodi:type="star"
       style="fill:#66b932;fill-opacity:0.97254902;stroke:#00ff00"
       id="path2678"
       sodipodi:sides="5"
       sodipodi:cx="118.57143"
       sodipodi:cy="390"
       sodipodi:r1="44.377785"
       sodipodi:r2="22.188892"
       sodipodi:arg1="2.5625184"
       sodipodi:arg2="3.1908369"
       inkscape:flatsided="false"
       inkscape:rounded="0"
       inkscape:randomized="0"
       d="m 81.428569,414.28571 14.980864,-25.37794 -12.412867,-26.72803 28.765204,6.40543 21.58408,-20.06475 2.797,29.33672 25.75256,14.32733 -27.03655,11.72566 -5.66812,28.91953 -19.50652,-22.08987 z"
       inkscape:transform-center-x="-3.5905651"
       inkscape:transform-center-y="0.67503776" />
    <path
       sodipodi:type="star"
       style="fill:#66b933;fill-opacity:0.972549;stroke:#00ff00"
       id="path2680"
       sodipodi:sides="5"
       sodipodi:cx="380"
       sodipodi:cy="620"
       sodipodi:r1="37.715366"
       sodipodi:r2="18.857683"
       sodipodi:arg1="-0.65107672"
       sodipodi:arg2="-0.022758191"
       inkscape:flatsided="false"
       inkscape:rounded="0"
       inkscape:randomized="0"
       d="m 410,597.14286 -11.1472,22.42801 12.15614,21.89758 -24.77498,-3.67098 -17.06938,18.3279 -4.16458,-24.6968 -22.7056,-10.57031 22.20113,-11.59248 3.03655,-24.86072 17.88563,17.53225 z"
       inkscape:transform-center-x="3.3483284"
       inkscape:transform-center-y="0.26521675" />
    <path
       sodipodi:type="star"
       style="fill:#66b933;fill-opacity:0.972549;stroke:#00ff00"
       id="path2682"
       sodipodi:sides="5"
       sodipodi:cx="752.85712"
       sodipodi:cy="321.42856"
       sodipodi:r1="38.465462"
       sodipodi:r2="19.232731"
       sodipodi:arg1="-0.54678884"
       sodipodi:arg2="0.08152969"
       inkscape:flatsided="false"
       inkscape:rounded="0"
       inkscape:randomized="0"
       d="m 785.71426,301.42856 -13.6883,21.5663 10.0057,23.50236 -24.74069,-6.35399 -19.26013,16.77861 -1.60229,-25.49328 -21.90912,-13.13261 23.75041,-9.40172 5.71956,-24.89501 16.28086,19.6827 z"
       inkscape:transform-center-x="2.7402746"
       inkscape:transform-center-y="-0.96802791" />
    <path
       sodipodi:type="star"
       style="fill:#66b933;fill-opacity:0.972549;stroke:#00ff00"
       id="path2684"
       sodipodi:sides="5"
       sodipodi:cx="670"
       sodipodi:cy="65.714287"
       sodipodi:r1="39.22723"
       sodipodi:r2="19.613615"
       sodipodi:arg1="-0.57790194"
       sodipodi:arg2="0.050416594"
       inkscape:flatsided="false"
       inkscape:rounded="0"
       inkscape:randomized="0"
       d="m 702.85714,44.285715 -13.26845,22.417005 10.94451,23.638774 -25.42002,-5.69181 -19.09977,17.713626 -2.44198,-25.934737 -22.74882,-12.691152 23.91079,-10.336738 5.04023,-25.55719 17.21966,19.546282 z"
       inkscape:transform-center-x="3.1601212"
       inkscape:transform-center-y="-0.61088505" />
    <path
       sodipodi:type="star"
       style="fill:#66b933;fill-opacity:0.972549;stroke:#00ff00"
       id="path2686"
       sodipodi:sides="5"
       sodipodi:cx="1090"
       sodipodi:cy="418.57144"
       sodipodi:r1="24.989794"
       sodipodi:r2="12.494897"
       sodipodi:arg1="-0.5404195"
       sodipodi:arg2="0.08789903"
       inkscape:flatsided="false"
       inkscape:rounded="0"
       inkscape:randomized="0"
       d="m 1111.4286,405.7143 -8.9819,13.95402 6.403,15.30983 -16.0467,-4.23028 -12.5818,10.82062 -0.9355,-16.56848 -14.179,-8.62232 15.4685,-6.0096 3.8187,-16.14951 10.4955,12.85434 z"
       inkscape:transform-center-x="1.732373"
       inkscape:transform-center-y="-0.6779064" />
  </g>
</svg>
