<?xml version="1.0" encoding="UTF-8" standalone="no"?>
<!-- Created with Inkscape (http://www.inkscape.org/) -->

<svg
   width="332.3815mm"
   height="121.62334mm"
   viewBox="0 0 332.3815 121.62334"
   version="1.1"
   id="svg5"
   inkscape:version="1.2.1 (9c6d41e410, 2022-07-14)"
   sodipodi:docname="incoterms.svg"
   xmlns:inkscape="http://www.inkscape.org/namespaces/inkscape"
   xmlns:sodipodi="http://sodipodi.sourceforge.net/DTD/sodipodi-0.dtd"
   xmlns="http://www.w3.org/2000/svg"
   xmlns:svg="http://www.w3.org/2000/svg">
  <sodipodi:namedview
     id="namedview7"
     pagecolor="#ffffff"
     bordercolor="#000000"
     borderopacity="0.25"
     inkscape:showpageshadow="2"
     inkscape:pageopacity="0.0"
     inkscape:pagecheckerboard="0"
     inkscape:deskcolor="#d1d1d1"
     inkscape:document-units="mm"
     showgrid="false"
     inkscape:zoom="0.49085999"
     inkscape:cx="637.65637"
     inkscape:cy="252.61786"
     inkscape:window-width="1366"
     inkscape:window-height="705"
     inkscape:window-x="-8"
     inkscape:window-y="-8"
     inkscape:window-maximized="1"
     inkscape:current-layer="layer1" />
  <defs
     id="defs2">
    <clipPath
       clipPathUnits="userSpaceOnUse"
       id="clipEmfPath1">
      <path
         d="M 5.6675202,5.6675202 H 1393.0765 V 312.84712 H 5.6675202 Z"
         id="path154" />
    </clipPath>
    <pattern
       id="EMFhbasepattern"
       patternUnits="userSpaceOnUse"
       width="6"
       height="6"
       x="0"
       y="0" />
    <clipPath
       clipPathUnits="userSpaceOnUse"
       id="clipEmfPath1-7">
      <path
         d="M 1.133504,1.133504 H 1000.8841 V 425.06402 H 1.133504 Z"
         id="path498" />
    </clipPath>
    <pattern
       id="EMFhbasepattern-6"
       patternUnits="userSpaceOnUse"
       width="6"
       height="6"
       x="0"
       y="0" />
    <clipPath
       clipPathUnits="userSpaceOnUse"
       id="clipEmfPath1-0">
      <path
         d="M 1.133504,1.133504 H 598.49014 V 160.95757 H 1.133504 Z"
         id="path586" />
    </clipPath>
    <pattern
       id="EMFhbasepattern-9"
       patternUnits="userSpaceOnUse"
       width="6"
       height="6"
       x="0"
       y="0" />
    <clipPath
       clipPathUnits="userSpaceOnUse"
       id="clipEmfPath1-4">
      <path
         d="M 1.133504,0 H 578.08706 V 163.22458 H 1.133504 Z"
         id="path644" />
    </clipPath>
    <pattern
       id="EMFhbasepattern-8"
       patternUnits="userSpaceOnUse"
       width="6"
       height="6"
       x="0"
       y="0" />
  </defs>
  <g
     inkscape:label="Layer 1"
     inkscape:groupmode="layer"
     id="layer1"
     transform="translate(63.507371,-81.971776)">
    <g
       id="g496"
       transform="matrix(0.86583145,0,0,1.0069863,33.096077,-1.2660681)">
      <path
         style="fill:#414e77;fill-opacity:1;fill-rule:evenodd;stroke:none;stroke-width:0.264583"
         d="m -90.83121,142.7187 c 0,-1.23711 1.08716,-2.24929 2.39925,-2.24929 1.330834,0 2.39925,1.01218 2.39925,2.24929 0,1.25586 -1.068416,2.2493 -2.39925,2.2493 -1.31209,0 -2.39925,-0.99344 -2.39925,-2.2493 z"
         id="path160" />
      <path
         style="fill:none;stroke:#2d3756;stroke-width:1.1335px;stroke-linecap:butt;stroke-linejoin:miter;stroke-miterlimit:8;stroke-dasharray:none;stroke-opacity:1"
         clip-path="url(#clipEmfPath1)"
         d="m 5.6675202,154.7233 c 0,-4.6757 4.1089522,-8.50128 9.0680328,-8.50128 5.029924,0 9.068032,3.82558 9.068032,8.50128 0,4.74655 -4.038108,8.50128 -9.068032,8.50128 -4.9590806,0 -9.0680328,-3.75473 -9.0680328,-8.50128"
         id="path162"
         transform="matrix(0.26458333,0,0,0.26458333,-92.330742,101.7815)" />
      <path
         style="fill:none;stroke:#414e77;stroke-width:0.299906px;stroke-linecap:butt;stroke-linejoin:miter;stroke-miterlimit:8;stroke-dasharray:none;stroke-opacity:1"
         d="m -86.03271,142.56875 h 50.346767"
         id="path164" />
      <path
         style="fill:#414e77;fill-opacity:1;fill-rule:evenodd;stroke:none;stroke-width:0.264583"
         d="m -35.648454,142.7187 c 0,-1.23711 1.08716,-2.24929 2.39925,-2.24929 1.330833,0 2.399249,1.01218 2.399249,2.24929 0,1.25586 -1.068416,2.2493 -2.399249,2.2493 -1.31209,0 -2.39925,-0.99344 -2.39925,-2.2493 z"
         id="path166" />
      <path
         style="fill:none;stroke:#2d3756;stroke-width:0.299906px;stroke-linecap:butt;stroke-linejoin:miter;stroke-miterlimit:8;stroke-dasharray:none;stroke-opacity:1"
         d="m -35.648454,142.7187 c 0,-1.23711 1.08716,-2.24929 2.39925,-2.24929 1.330833,0 2.399249,1.01218 2.399249,2.24929 0,1.25586 -1.068416,2.2493 -2.399249,2.2493 -1.31209,0 -2.39925,-0.99344 -2.39925,-2.2493"
         id="path168" />
      <path
         style="fill:#414e77;fill-opacity:1;fill-rule:evenodd;stroke:none;stroke-width:0.264583"
         d="m -24.551924,105.53033 c 0,-1.23712 1.087162,-2.2493 2.399252,-2.2493 1.330833,0 2.39925,1.01218 2.39925,2.2493 0,1.25585 -1.068417,2.24929 -2.39925,2.24929 -1.31209,0 -2.399252,-0.99344 -2.399252,-2.24929 z"
         id="path170" />
      <path
         style="fill:none;stroke:#2d3756;stroke-width:1.1335px;stroke-linecap:butt;stroke-linejoin:miter;stroke-miterlimit:8;stroke-dasharray:none;stroke-opacity:1"
         clip-path="url(#clipEmfPath1)"
         d="m 256.17191,14.168801 c 0,-4.6757046 4.10896,-8.5012808 9.06804,-8.5012808 5.02992,0 9.06803,3.8255762 9.06803,8.5012808 0,4.746548 -4.03811,8.50128 -9.06803,8.50128 -4.95908,0 -9.06804,-3.754732 -9.06804,-8.50128"
         id="path172"
         transform="matrix(0.26458333,0,0,0.26458333,-92.330742,101.7815)" />
      <path
         style="fill:#414e77;fill-opacity:1;fill-rule:evenodd;stroke:none;stroke-width:0.264583"
         d="m 18.634578,179.60718 c 0,-1.23711 1.08716,-2.2493 2.39925,-2.2493 1.33084,0 2.39925,1.01219 2.39925,2.2493 0,1.25586 -1.06841,2.24929 -2.39925,2.24929 -1.31209,0 -2.39925,-0.99343 -2.39925,-2.24929 z"
         id="path174" />
      <path
         style="fill:none;stroke:#2d3756;stroke-width:0.299906px;stroke-linecap:butt;stroke-linejoin:miter;stroke-miterlimit:8;stroke-dasharray:none;stroke-opacity:1"
         d="m 18.634578,179.60718 c 0,-1.23711 1.08716,-2.2493 2.39925,-2.2493 1.33084,0 2.39925,1.01219 2.39925,2.2493 0,1.25586 -1.06841,2.24929 -2.39925,2.24929 -1.31209,0 -2.39925,-0.99343 -2.39925,-2.24929"
         id="path176" />
      <path
         style="fill:#414e77;fill-opacity:1;fill-rule:evenodd;stroke:none;stroke-width:0.264583"
         d="m 18.634578,105.53033 c 0,-1.23712 1.08716,-2.2493 2.39925,-2.2493 1.33084,0 2.39925,1.01218 2.39925,2.2493 0,1.25585 -1.06841,2.24929 -2.39925,2.24929 -1.31209,0 -2.39925,-0.99344 -2.39925,-2.24929 z"
         id="path178" />
      <path
         style="fill:none;stroke:#2d3756;stroke-width:1.1335px;stroke-linecap:butt;stroke-linejoin:miter;stroke-miterlimit:8;stroke-dasharray:none;stroke-opacity:1"
         clip-path="url(#clipEmfPath1)"
         d="m 419.3965,14.168801 c 0,-4.6757046 4.10895,-8.5012808 9.06803,-8.5012808 5.02992,0 9.06803,3.8255762 9.06803,8.5012808 0,4.746548 -4.03811,8.50128 -9.06803,8.50128 -4.95908,0 -9.06803,-3.754732 -9.06803,-8.50128"
         id="path180"
         transform="matrix(0.26458333,0,0,0.26458333,-92.330742,101.7815)" />
      <path
         style="fill:#414e77;fill-opacity:1;fill-rule:evenodd;stroke:none;stroke-width:0.264583"
         d="m 69.918558,105.53033 c 0,-1.23712 1.08716,-2.2493 2.39925,-2.2493 1.33083,0 2.39925,1.01218 2.39925,2.2493 0,1.25585 -1.06842,2.24929 -2.39925,2.24929 -1.31209,0 -2.39925,-0.99344 -2.39925,-2.24929 z"
         id="path182" />
      <path
         style="fill:none;stroke:#2d3756;stroke-width:1.1335px;stroke-linecap:butt;stroke-linejoin:miter;stroke-miterlimit:8;stroke-dasharray:none;stroke-opacity:1"
         clip-path="url(#clipEmfPath1)"
         d="m 613.22569,14.168801 c 0,-4.6757046 4.10895,-8.5012808 9.06803,-8.5012808 5.02993,0 9.06803,3.8255762 9.06803,8.5012808 0,4.746548 -4.0381,8.50128 -9.06803,8.50128 -4.95908,0 -9.06803,-3.754732 -9.06803,-8.50128"
         id="path184"
         transform="matrix(0.26458333,0,0,0.26458333,-92.330742,101.7815)" />
      <path
         style="fill:#414e77;fill-opacity:1;fill-rule:evenodd;stroke:none;stroke-width:0.264583"
         d="m 116.10412,105.53033 c 0,-1.23712 1.08717,-2.2493 2.39926,-2.2493 1.33083,0 2.39925,1.01218 2.39925,2.2493 0,1.25585 -1.06842,2.24929 -2.39925,2.24929 -1.31209,0 -2.39926,-0.99344 -2.39926,-2.24929 z"
         id="path186" />
      <path
         style="fill:none;stroke:#2d3756;stroke-width:1.1335px;stroke-linecap:butt;stroke-linejoin:miter;stroke-miterlimit:8;stroke-dasharray:none;stroke-opacity:1"
         clip-path="url(#clipEmfPath1)"
         d="m 787.78531,14.168801 c 0,-4.6757046 4.10896,-8.5012808 9.06804,-8.5012808 5.02992,0 9.06803,3.8255762 9.06803,8.5012808 0,4.746548 -4.03811,8.50128 -9.06803,8.50128 -4.95908,0 -9.06804,-3.754732 -9.06804,-8.50128"
         id="path188"
         transform="matrix(0.26458333,0,0,0.26458333,-92.330742,101.7815)" />
      <path
         style="fill:#414e77;fill-opacity:1;fill-rule:evenodd;stroke:none;stroke-width:0.264583"
         d="m 69.918558,179.60718 c 0,-1.23711 1.08716,-2.2493 2.39925,-2.2493 1.33083,0 2.39925,1.01219 2.39925,2.2493 0,1.25586 -1.06842,2.24929 -2.39925,2.24929 -1.31209,0 -2.39925,-0.99343 -2.39925,-2.24929 z"
         id="path190" />
      <path
         style="fill:none;stroke:#2d3756;stroke-width:0.299906px;stroke-linecap:butt;stroke-linejoin:miter;stroke-miterlimit:8;stroke-dasharray:none;stroke-opacity:1"
         d="m 69.918558,179.60718 c 0,-1.23711 1.08716,-2.2493 2.39925,-2.2493 1.33083,0 2.39925,1.01219 2.39925,2.2493 0,1.25586 -1.06842,2.24929 -2.39925,2.24929 -1.31209,0 -2.39925,-0.99343 -2.39925,-2.24929"
         id="path192" />
      <path
         style="fill:#414e77;fill-opacity:1;fill-rule:evenodd;stroke:none;stroke-width:0.264583"
         d="m 116.10412,179.30727 c 0,-1.23711 1.08717,-2.24929 2.39926,-2.24929 1.33083,0 2.39925,1.01218 2.39925,2.24929 0,1.25586 -1.06842,2.2493 -2.39925,2.2493 -1.31209,0 -2.39926,-0.99344 -2.39926,-2.2493 z"
         id="path194" />
      <path
         style="fill:none;stroke:#2d3756;stroke-width:0.299906px;stroke-linecap:butt;stroke-linejoin:miter;stroke-miterlimit:8;stroke-dasharray:none;stroke-opacity:1"
         d="m 116.10412,179.30727 c 0,-1.23711 1.08717,-2.24929 2.39926,-2.24929 1.33083,0 2.39925,1.01218 2.39925,2.24929 0,1.25586 -1.06842,2.2493 -2.39925,2.2493 -1.31209,0 -2.39926,-0.99344 -2.39926,-2.2493"
         id="path196" />
      <path
         style="fill:#414e77;fill-opacity:1;fill-rule:evenodd;stroke:none;stroke-width:0.264583"
         d="m 149.09382,142.7187 c 0,-1.23711 1.08715,-2.24929 2.39924,-2.24929 1.33084,0 2.39925,1.01218 2.39925,2.24929 0,1.25586 -1.06841,2.2493 -2.39925,2.2493 -1.31209,0 -2.39924,-0.99344 -2.39924,-2.2493 z"
         id="path198" />
      <path
         style="fill:none;stroke:#2d3756;stroke-width:0.299906px;stroke-linecap:butt;stroke-linejoin:miter;stroke-miterlimit:8;stroke-dasharray:none;stroke-opacity:1"
         d="m 149.09382,142.7187 c 0,-1.23711 1.08715,-2.24929 2.39924,-2.24929 1.33084,0 2.39925,1.01218 2.39925,2.24929 0,1.25586 -1.06841,2.2493 -2.39925,2.2493 -1.31209,0 -2.39924,-0.99344 -2.39924,-2.2493"
         id="path200" />
      <path
         style="fill:#414e77;fill-opacity:1;fill-rule:evenodd;stroke:none;stroke-width:0.264583"
         d="m 196.47901,142.7187 c 0,-1.23711 1.08717,-2.24929 2.39924,-2.24929 1.33085,0 2.39927,1.01218 2.39927,2.24929 0,1.25586 -1.06842,2.2493 -2.39927,2.2493 -1.31207,0 -2.39924,-0.99344 -2.39924,-2.2493 z"
         id="path202" />
      <path
         style="fill:none;stroke:#2d3756;stroke-width:0.299906px;stroke-linecap:butt;stroke-linejoin:miter;stroke-miterlimit:8;stroke-dasharray:none;stroke-opacity:1"
         d="m 196.47901,142.7187 c 0,-1.23711 1.08717,-2.24929 2.39924,-2.24929 1.33085,0 2.39927,1.01218 2.39927,2.24929 0,1.25586 -1.06842,2.2493 -2.39927,2.2493 -1.31207,0 -2.39924,-0.99344 -2.39924,-2.2493"
         id="path204" />
      <path
         style="fill:#414e77;fill-opacity:1;fill-rule:evenodd;stroke:none;stroke-width:0.264583"
         d="m 241.76485,142.7187 c 0,-1.23711 1.08718,-2.24929 2.39924,-2.24929 1.33086,0 2.39927,1.01218 2.39927,2.24929 0,1.25586 -1.06841,2.2493 -2.39927,2.2493 -1.31206,0 -2.39924,-0.99344 -2.39924,-2.2493 z"
         id="path206" />
      <path
         style="fill:none;stroke:#2d3756;stroke-width:0.299906px;stroke-linecap:butt;stroke-linejoin:miter;stroke-miterlimit:8;stroke-dasharray:none;stroke-opacity:1"
         d="m 241.76485,142.7187 c 0,-1.23711 1.08718,-2.24929 2.39924,-2.24929 1.33086,0 2.39927,1.01218 2.39927,2.24929 0,1.25586 -1.06841,2.2493 -2.39927,2.2493 -1.31206,0 -2.39924,-0.99344 -2.39924,-2.2493"
         id="path208" />
      <path
         style="fill:none;stroke:#414e77;stroke-width:0.299906px;stroke-linecap:butt;stroke-linejoin:miter;stroke-miterlimit:8;stroke-dasharray:none;stroke-opacity:1"
         d="m -33.249204,140.31946 9.522023,-33.13965"
         id="path210" />
      <path
         style="fill:none;stroke:#414e77;stroke-width:0.299906px;stroke-linecap:butt;stroke-linejoin:miter;stroke-miterlimit:8;stroke-dasharray:none;stroke-opacity:1"
         d="m -31.749673,144.36819 50.309281,35.27648"
         id="path212" />
      <path
         style="fill:none;stroke:#414e77;stroke-width:0.299906px;stroke-linecap:butt;stroke-linejoin:miter;stroke-miterlimit:8;stroke-dasharray:none;stroke-opacity:1"
         d="m -19.753422,105.79274 38.388,-0.11246"
         id="path214" />
      <path
         style="fill:none;stroke:#414e77;stroke-width:0.299906px;stroke-linecap:butt;stroke-linejoin:miter;stroke-miterlimit:8;stroke-dasharray:none;stroke-opacity:1"
         d="m 23.433078,105.43661 46.39176,-0.0562"
         id="path216" />
      <path
         style="fill:none;stroke:#414e77;stroke-width:0.299906px;stroke-linecap:butt;stroke-linejoin:miter;stroke-miterlimit:8;stroke-dasharray:none;stroke-opacity:1"
         d="M 74.717058,105.68028 H 116.31031"
         id="path218" />
      <path
         style="fill:none;stroke:#414e77;stroke-width:0.299906px;stroke-linecap:butt;stroke-linejoin:miter;stroke-miterlimit:8;stroke-dasharray:none;stroke-opacity:1"
         d="m 23.433078,179.45723 h 46.39176"
         id="path220" />
      <path
         style="fill:none;stroke:#414e77;stroke-width:0.299906px;stroke-linecap:butt;stroke-linejoin:miter;stroke-miterlimit:8;stroke-dasharray:none;stroke-opacity:1"
         d="m 74.717058,179.62592 41.537022,-0.16869"
         id="path222" />
      <path
         style="fill:none;stroke:#414e77;stroke-width:0.299906px;stroke-linecap:butt;stroke-linejoin:miter;stroke-miterlimit:8;stroke-dasharray:none;stroke-opacity:1"
         d="m 120.90263,179.47597 28.791,-35.10778"
         id="path224" />
      <path
         style="fill:none;stroke:#414e77;stroke-width:0.299906px;stroke-linecap:butt;stroke-linejoin:miter;stroke-miterlimit:8;stroke-dasharray:none;stroke-opacity:1"
         d="m 120.30281,107.17981 29.44705,33.90815"
         id="path226" />
      <path
         style="fill:none;stroke:#414e77;stroke-width:0.299906px;stroke-linecap:butt;stroke-linejoin:miter;stroke-miterlimit:8;stroke-dasharray:none;stroke-opacity:1"
         d="m 153.89231,142.56875 h 42.7554"
         id="path228" />
      <path
         style="fill:none;stroke:#414e77;stroke-width:0.299906px;stroke-linecap:butt;stroke-linejoin:miter;stroke-miterlimit:8;stroke-dasharray:none;stroke-opacity:1"
         d="m 201.27752,142.56875 h 40.35613"
         id="path230" />
      <path
         style="fill:#414e77;fill-opacity:1;fill-rule:nonzero;stroke:#414e77;stroke-width:0.0187441px;stroke-linecap:butt;stroke-linejoin:round;stroke-miterlimit:10;stroke-dasharray:none;stroke-opacity:1"
         d="m 21.183788,107.77962 v 1.21837 h -0.29991 v -1.21837 z m 0,2.11809 v 1.19963 h -0.29991 v -1.19963 z m 0,2.09935 v 1.19962 h -0.29991 v -1.19962 z m 0,2.09934 v 1.19963 h -0.29991 v -1.19963 z m 0,2.09934 v 1.19963 h -0.29991 v -1.19963 z m 0,2.09935 v 1.19962 h -0.29991 v -1.19962 z m 0,2.09934 v 1.19963 h -0.29991 v -1.19963 z m 0,2.09935 v 1.19962 h -0.29991 v -1.19962 z m 0,2.09934 v 1.19963 h -0.29991 v -1.19963 z m 0,2.09934 v 1.21837 h -0.29991 v -1.21837 z m 0,2.11809 v 1.19963 h -0.29991 v -1.19963 z m 0,2.09935 v 1.19962 h -0.29991 v -1.19962 z m 0,2.09934 v 1.19963 h -0.29991 v -1.19963 z m 0,2.09934 v 1.19963 h -0.29991 v -1.19963 z m 0,2.09935 v 1.19962 h -0.29991 v -1.19962 z m 0,2.09934 v 1.19963 h -0.29991 v -1.19963 z m 0,2.09935 v 1.19962 h -0.29991 v -1.19962 z m 0,2.09934 v 1.19963 h -0.29991 v -1.19963 z m 0,2.09934 v 1.21837 h -0.29991 v -1.21837 z m 0,2.11809 v 1.19963 h -0.29991 v -1.19963 z m 0,2.09935 v 1.19962 h -0.29991 v -1.19962 z m 0,2.09934 v 1.19962 h -0.29991 v -1.19962 z m 0,2.09934 v 1.19963 h -0.29991 v -1.19963 z m 0,2.09935 v 1.19962 h -0.29991 v -1.19962 z m 0,2.09934 v 1.19963 h -0.29991 v -1.19963 z m 0,2.09935 v 1.19962 h -0.29991 v -1.19962 z m 0,2.09934 v 1.19963 h -0.29991 v -1.19963 z m 0,2.09934 v 1.21837 h -0.29991 v -1.21837 z m 0,2.11809 v 1.19963 h -0.29991 v -1.19963 z m 0,2.09935 v 1.19962 h -0.29991 v -1.19962 z m 0,2.09934 v 1.19962 h -0.29991 v -1.19962 z m 0,2.09934 v 1.19963 h -0.29991 v -1.19963 z m 0,2.09935 v 1.19962 h -0.29991 v -1.19962 z m 0,2.09934 v 0.0937 h -0.29991 v -0.0937 z"
         id="path232" />
      <path
         style="fill:#414e77;fill-opacity:1;fill-rule:nonzero;stroke:#414e77;stroke-width:0.0187441px;stroke-linecap:butt;stroke-linejoin:round;stroke-miterlimit:10;stroke-dasharray:none;stroke-opacity:1"
         d="m 72.467758,107.77962 v 1.21837 h -0.29991 v -1.21837 z m 0,2.11809 v 1.19963 h -0.29991 v -1.19963 z m 0,2.09935 v 1.19962 h -0.29991 v -1.19962 z m 0,2.09934 v 1.19963 h -0.29991 v -1.19963 z m 0,2.09934 v 1.19963 h -0.29991 v -1.19963 z m 0,2.09935 v 1.19962 h -0.29991 v -1.19962 z m 0,2.09934 v 1.19963 h -0.29991 v -1.19963 z m 0,2.09935 v 1.19962 h -0.29991 v -1.19962 z m 0,2.09934 v 1.19963 h -0.29991 v -1.19963 z m 0,2.09934 v 1.21837 h -0.29991 v -1.21837 z m 0,2.11809 v 1.19963 h -0.29991 v -1.19963 z m 0,2.09935 v 1.19962 h -0.29991 v -1.19962 z m 0,2.09934 v 1.19963 h -0.29991 v -1.19963 z m 0,2.09934 v 1.19963 h -0.29991 v -1.19963 z m 0,2.09935 v 1.19962 h -0.29991 v -1.19962 z m 0,2.09934 v 1.19963 h -0.29991 v -1.19963 z m 0,2.09935 v 1.19962 h -0.29991 v -1.19962 z m 0,2.09934 v 1.19963 h -0.29991 v -1.19963 z m 0,2.09934 v 1.21837 h -0.29991 v -1.21837 z m 0,2.11809 v 1.19963 h -0.29991 v -1.19963 z m 0,2.09935 v 1.19962 h -0.29991 v -1.19962 z m 0,2.09934 v 1.19962 h -0.29991 v -1.19962 z m 0,2.09934 v 1.19963 h -0.29991 v -1.19963 z m 0,2.09935 v 1.19962 h -0.29991 v -1.19962 z m 0,2.09934 v 1.19963 h -0.29991 v -1.19963 z m 0,2.09935 v 1.19962 h -0.29991 v -1.19962 z m 0,2.09934 v 1.19963 h -0.29991 v -1.19963 z m 0,2.09934 v 1.21837 h -0.29991 v -1.21837 z m 0,2.11809 v 1.19963 h -0.29991 v -1.19963 z m 0,2.09935 v 1.19962 h -0.29991 v -1.19962 z m 0,2.09934 v 1.19962 h -0.29991 v -1.19962 z m 0,2.09934 v 1.19963 h -0.29991 v -1.19963 z m 0,2.09935 v 1.19962 h -0.29991 v -1.19962 z m 0,2.09934 v 0.0937 h -0.29991 v -0.0937 z"
         id="path234" />
      <path
         style="fill:#414e77;fill-opacity:1;fill-rule:nonzero;stroke:#414e77;stroke-width:0.0187441px;stroke-linecap:butt;stroke-linejoin:round;stroke-miterlimit:10;stroke-dasharray:none;stroke-opacity:1"
         d="m 118.40965,107.77962 v 1.21837 h 0.29991 v -1.21837 z m 0,2.11809 v 1.19963 h 0.29991 v -1.19963 z m 0,2.09935 v 1.19962 h 0.29991 v -1.19962 z m 0,2.09934 v 1.19963 h 0.29991 v -1.19963 z m 0,2.09934 v 1.19963 h 0.29991 v -1.19963 z m 0,2.09935 v 1.19962 h 0.29991 v -1.19962 z m 0,2.09934 v 1.19963 h 0.29991 v -1.19963 z m 0,2.09935 v 1.19962 h 0.29991 v -1.19962 z m -0.0187,2.09934 v 1.19963 h 0.29991 l 0.0187,-1.19963 z m 0,2.09934 v 1.21837 h 0.29991 v -1.21837 z m 0,2.11809 v 1.19963 h 0.29991 v -1.19963 z m 0,2.09935 v 1.19962 h 0.29991 v -1.19962 z m 0,2.09934 v 1.19963 h 0.29991 v -1.19963 z m 0,2.09934 v 1.19963 h 0.29991 v -1.19963 z m 0,2.09935 v 1.19962 h 0.29991 v -1.19962 z m 0,2.09934 v 1.19963 h 0.29991 v -1.19963 z m 0,2.09935 v 1.19962 h 0.29991 v -1.19962 z m 0,2.09934 v 1.19963 h 0.29991 v -1.19963 z m 0,2.09934 v 1.21837 h 0.29991 v -1.21837 z m 0,2.11809 v 1.19963 h 0.29991 v -1.19963 z m 0,2.09935 -0.0187,1.19962 h 0.2999 l 0.0187,-1.19962 z m -0.0187,2.09934 v 1.19962 h 0.2999 v -1.19962 z m 0,2.09934 v 1.19963 h 0.2999 v -1.19963 z m 0,2.09935 v 1.19962 h 0.2999 v -1.19962 z m 0,2.09934 v 1.19963 h 0.2999 v -1.19963 z m 0,2.09935 v 1.19962 h 0.2999 v -1.19962 z m 0,2.09934 v 1.19963 h 0.2999 v -1.19963 z m 0,2.09934 v 1.21837 h 0.2999 v -1.21837 z m 0,2.11809 v 1.19963 h 0.2999 v -1.19963 z m 0,2.09935 v 1.19962 h 0.2999 v -1.19962 z m 0,2.09934 v 1.19962 h 0.2999 v -1.19962 z m 0,2.09934 v 1.19963 h 0.2999 v -1.19963 z m 0,2.09935 -0.0188,1.19962 h 0.31865 v -1.19962 z"
         id="path236" />
    </g>
    <text
       xml:space="preserve"
       style="font-style:normal;font-variant:normal;font-weight:400;font-size:17.694px;line-height:125%;font-family:'Century Gothic';text-align:start;letter-spacing:0px;word-spacing:0px;text-anchor:start;fill:#000000;fill-opacity:1;stroke:none;stroke-width:0.264583"
       x="-65.062508"
       y="165.52609"
       id="text512"><tspan
         sodipodi:role="line"
         x="-65.062508"
         y="165.52609"
         id="tspan510"
         style="stroke-width:0.264583"><tspan
           dx="0"
           dy="0"
           style="font-style:normal;font-variant:normal;font-weight:400;font-size:17.694px;font-family:'Century Gothic';fill:#374c81;stroke-width:0.264583"
           id="tspan508">EXW</tspan></tspan></text>
    <text
       xml:space="preserve"
       style="font-style:normal;font-variant:normal;font-weight:400;font-size:17.694px;line-height:125%;font-family:'Century Gothic';text-align:start;letter-spacing:0px;word-spacing:0px;text-anchor:start;fill:#000000;fill-opacity:1;stroke:none;stroke-width:0.264583"
       x="-3.5773764"
       y="96.078407"
       id="text522"><tspan
         sodipodi:role="line"
         x="-3.5773764"
         y="96.078407"
         id="tspan520"
         style="stroke-width:0.264583"><tspan
           dx="0"
           dy="0"
           style="font-style:normal;font-variant:normal;font-weight:400;font-size:17.694px;font-family:'Century Gothic';fill:#374c81;stroke-width:0.264583"
           id="tspan518">FAS</tspan></tspan></text>
    <text
       xml:space="preserve"
       style="font-style:normal;font-variant:normal;font-weight:400;font-size:17.694px;line-height:125%;font-family:'Century Gothic';text-align:start;letter-spacing:0px;word-spacing:0px;text-anchor:start;fill:#000000;fill-opacity:1;stroke:none;stroke-width:0.264583"
       x="34.218933"
       y="96.617424"
       id="text532"><tspan
         sodipodi:role="line"
         x="34.218933"
         y="96.617424"
         id="tspan530"
         style="stroke-width:0.264583"><tspan
           dx="0"
           dy="0"
           style="font-style:normal;font-variant:normal;font-weight:400;font-size:17.694px;font-family:'Century Gothic';fill:#374c81;stroke-width:0.264583"
           id="tspan528">FOB</tspan></tspan></text>
    <text
       xml:space="preserve"
       style="font-style:normal;font-variant:normal;font-weight:400;font-size:17.694px;line-height:125%;font-family:'Century Gothic';text-align:start;letter-spacing:0px;word-spacing:0px;text-anchor:start;fill:#000000;fill-opacity:1;stroke:none;stroke-width:0.264583"
       x="77.317078"
       y="95.539383"
       id="text542"><tspan
         sodipodi:role="line"
         x="77.317078"
         y="95.539383"
         id="tspan540"
         style="stroke-width:0.264583"><tspan
           dx="0"
           dy="0"
           style="font-style:normal;font-variant:normal;font-weight:400;font-size:17.694px;font-family:'Century Gothic';fill:#374c81;stroke-width:0.264583"
           id="tspan538">CFR</tspan></tspan></text>
    <text
       xml:space="preserve"
       style="font-style:normal;font-variant:normal;font-weight:400;font-size:17.694px;line-height:125%;font-family:'Century Gothic';text-align:start;letter-spacing:0px;word-spacing:0px;text-anchor:start;fill:#000000;fill-opacity:1;stroke:none;stroke-width:0.264583"
       x="123.9717"
       y="95.000366"
       id="text552"><tspan
         sodipodi:role="line"
         x="123.9717"
         y="95.000366"
         id="tspan550"
         style="stroke-width:0.264583"><tspan
           dx="0"
           dy="0"
           style="font-style:normal;font-variant:normal;font-weight:400;font-size:17.694px;font-family:'Century Gothic';fill:#374c81;stroke-width:0.264583"
           id="tspan548">CIF</tspan></tspan></text>
    <text
       xml:space="preserve"
       style="font-style:normal;font-variant:normal;font-weight:400;font-size:17.694px;line-height:125%;font-family:'Century Gothic';text-align:start;letter-spacing:0px;word-spacing:0px;text-anchor:start;fill:#000000;fill-opacity:1;stroke:none;stroke-width:0.264583"
       x="30.831022"
       y="203.27545"
       id="text600"><tspan
         sodipodi:role="line"
         x="30.831022"
         y="203.27545"
         id="tspan598"
         style="stroke-width:0.264583"><tspan
           dx="0"
           dy="0"
           style="font-style:normal;font-variant:normal;font-weight:400;font-size:17.694px;font-family:'Century Gothic';fill:#374c81;stroke-width:0.264583"
           id="tspan596">FCA</tspan></tspan></text>
    <text
       xml:space="preserve"
       style="font-style:normal;font-variant:normal;font-weight:400;font-size:17.694px;line-height:125%;font-family:'Century Gothic';text-align:start;letter-spacing:0px;word-spacing:0px;text-anchor:start;fill:#000000;fill-opacity:1;stroke:none;stroke-width:0.264583"
       x="80.794273"
       y="203.27545"
       id="text610"><tspan
         sodipodi:role="line"
         x="80.794273"
         y="203.27545"
         id="tspan608"
         style="stroke-width:0.264583"><tspan
           dx="0"
           dy="0"
           style="font-style:normal;font-variant:normal;font-weight:400;font-size:17.694px;font-family:'Century Gothic';fill:#374c81;stroke-width:0.264583"
           id="tspan606">CPT</tspan></tspan></text>
    <text
       xml:space="preserve"
       style="font-style:normal;font-variant:normal;font-weight:400;font-size:17.694px;line-height:125%;font-family:'Century Gothic';text-align:start;letter-spacing:0px;word-spacing:0px;text-anchor:start;fill:#000000;fill-opacity:1;stroke:none;stroke-width:0.264583"
       x="133.62129"
       y="203.27542"
       id="text620"><tspan
         sodipodi:role="line"
         x="133.62129"
         y="203.27542"
         id="tspan618"
         style="stroke-width:0.264583"><tspan
           dx="0"
           dy="0"
           style="font-style:normal;font-variant:normal;font-weight:400;font-size:17.694px;font-family:'Century Gothic';fill:#374c81;stroke-width:0.264583"
           id="tspan616">CIP</tspan></tspan></text>
    <text
       xml:space="preserve"
       style="font-style:normal;font-variant:normal;font-weight:400;font-size:17.694px;line-height:125%;font-family:'Century Gothic';text-align:start;letter-spacing:0px;word-spacing:0px;text-anchor:start;fill:#000000;fill-opacity:1;stroke:none;stroke-width:0.264583"
       x="143.46152"
       y="162.34911"
       id="text658"><tspan
         sodipodi:role="line"
         x="143.46152"
         y="162.34911"
         id="tspan656"
         style="stroke-width:0.264583"><tspan
           dx="0"
           dy="0"
           style="font-style:normal;font-variant:normal;font-weight:400;font-size:17.694px;font-family:'Century Gothic';fill:#374c81;stroke-width:0.264583"
           id="tspan654">DAT</tspan></tspan></text>
    <text
       xml:space="preserve"
       style="font-style:normal;font-variant:normal;font-weight:400;font-size:17.694px;line-height:125%;font-family:'Century Gothic';text-align:start;letter-spacing:0px;word-spacing:0px;text-anchor:start;fill:#000000;fill-opacity:1;stroke:none;stroke-width:0.264583"
       x="188.2532"
       y="162.35518"
       id="text668"><tspan
         sodipodi:role="line"
         x="188.2532"
         y="162.35518"
         id="tspan666"
         style="stroke-width:0.264583"><tspan
           dx="0"
           dy="0"
           style="font-style:normal;font-variant:normal;font-weight:400;font-size:17.694px;font-family:'Century Gothic';fill:#374c81;stroke-width:0.264583"
           id="tspan664">DAP</tspan></tspan></text>
    <text
       xml:space="preserve"
       style="font-style:normal;font-variant:normal;font-weight:400;font-size:17.694px;line-height:125%;font-family:'Century Gothic';text-align:start;letter-spacing:0px;word-spacing:0px;text-anchor:start;fill:#000000;fill-opacity:1;stroke:none;stroke-width:0.264583"
       x="233.06277"
       y="161.4003"
       id="text678"><tspan
         sodipodi:role="line"
         x="233.06277"
         y="161.4003"
         id="tspan676"
         style="stroke-width:0.264583"><tspan
           dx="0"
           dy="0"
           style="font-style:normal;font-variant:normal;font-weight:400;font-size:17.694px;font-family:'Century Gothic';fill:#374c81;stroke-width:0.264583"
           id="tspan674">DDP</tspan></tspan></text>
  </g>
</svg>
